<svg width="37" height="37" viewBox="0 0 37 37" fill="none" xmlns="http://www.w3.org/2000/svg">
<g clip-path="url(#clip0_598_56)">
<path d="M15.53 28.44L15.04 26.46C11.98 27.09 10.9 24.5 9.07 22.66C8.96 21.69 9.61 21.3 10.51 21.56C11.89 21.96 12.66 25.32 15 24.45L15.36 22.85C12.01 21.89 9.43 18.84 10.23 15.21C10.43 14.3 11.25 13.46 11.34 13.01C11.53 12.05 10.54 9.83001 12.06 8.78001C13.5 8.04001 15.21 9.84001 16.51 9.90001C17.21 9.93001 21.28 9.94001 21.74 9.88001C22.88 9.73001 25.34 7.42001 26.42 9.30001C27.28 10.8 26.54 12.04 26.69 13.04C26.77 13.56 27.75 14.57 27.89 15.76C28.31 19.24 25.82 21.93 22.64 22.85C22.96 24.51 23.46 27.01 22.47 28.45H15.53V28.44Z" fill="black"/>
<path d="M37 7.01V29.98C37 33.85 33.86 36.99 29.99 36.99H7.01C3.14 36.99 0 33.85 0 29.98V7.01C0 3.14 3.14 0 7.01 0H29.98C33.85 0 36.99 3.14 36.99 7.01H37ZM16.18 28.44H21.64C22.08 28.44 22.48 28.18 22.63 27.77C23.05 26.59 22.86 25.03 22.63 23.72C22.54 23.24 22.8 22.75 23.25 22.57C26.04 21.46 28.1 18.94 27.72 15.75C27.58 14.55 26.59 13.54 26.52 13.03C26.37 12.04 27.11 10.79 26.25 9.29C25.17 7.41 22.71 9.72 21.57 9.87C21.11 9.93 17.04 9.92 16.34 9.89C15.04 9.84 13.33 8.03 11.89 8.77C10.37 9.82 11.36 12.04 11.17 13C11.08 13.45 10.26 14.29 10.06 15.2C9.33 18.52 11.43 21.36 14.37 22.55C14.84 22.74 15.1 23.25 14.99 23.75C14.88 24.24 14.43 24.62 13.92 24.58C12.26 24.42 11.52 21.9 10.34 21.56C9.44 21.3 8.79 21.69 8.9 22.66C10.55 24.32 11.59 26.58 14.02 26.56C14.52 26.56 14.97 26.87 15.09 27.35L15.16 27.65C15.28 28.12 15.7 28.45 16.18 28.45V28.44Z" fill="white"/>
</g>
<defs>
<clipPath id="clip0_598_56">
<rect width="37" height="37" fill="white"/>
</clipPath>
</defs>
</svg>
