<svg width="24" height="24" viewBox="0 0 24 24" fill="none" xmlns="http://www.w3.org/2000/svg">
<rect x="0.34375" y="0.34375" width="23.3125" height="23.3125" rx="11.6562" fill="white" fill-opacity="0.1" stroke="black" stroke-width="0.6875"/>
<path fill-rule="evenodd" clip-rule="evenodd" d="M16.6692 12.4567C16.7534 12.3723 16.8008 12.2579 16.8008 12.1387C16.8008 12.0194 16.7534 11.905 16.6692 11.8207L13.0692 8.22066C13.028 8.17645 12.9783 8.14099 12.9231 8.1164C12.8679 8.0918 12.8083 8.07858 12.7479 8.07751C12.6875 8.07644 12.6275 8.08756 12.5714 8.11019C12.5154 8.13282 12.4645 8.16651 12.4218 8.20924C12.379 8.25197 12.3453 8.30287 12.3227 8.35891C12.3001 8.41494 12.289 8.47496 12.29 8.53538C12.2911 8.5958 12.3043 8.65539 12.3289 8.71059C12.3535 8.76579 12.389 8.81547 12.4332 8.85667L15.2652 11.6887H6.75118C6.63183 11.6887 6.51737 11.7361 6.43298 11.8205C6.34859 11.9049 6.30118 12.0193 6.30118 12.1387C6.30118 12.258 6.34859 12.3725 6.43298 12.4569C6.51737 12.5413 6.63183 12.5887 6.75118 12.5887H15.2652L12.4332 15.4207C12.389 15.4619 12.3535 15.5115 12.3289 15.5667C12.3043 15.6219 12.2911 15.6815 12.29 15.742C12.289 15.8024 12.3001 15.8624 12.3227 15.9184C12.3453 15.9745 12.379 16.0254 12.4218 16.0681C12.4645 16.1108 12.5154 16.1445 12.5714 16.1671C12.6275 16.1898 12.6875 16.2009 12.7479 16.1998C12.8083 16.1988 12.8679 16.1855 12.9231 16.1609C12.9783 16.1363 13.028 16.1009 13.0692 16.0567L16.6692 12.4567Z" fill="white"/>
</svg>
