<svg width="123" height="123" viewBox="0 0 123 123" fill="none" xmlns="http://www.w3.org/2000/svg">
<g filter="url(#filter0_d_1_1362)">
<circle cx="61.5" cy="55.5" r="55" fill="url(#paint0_linear_1_1362)" stroke="white"/>
<circle cx="61.1285" cy="55.8708" r="27.4354" fill="url(#paint1_linear_1_1362)" stroke="white" stroke-width="4.44898" stroke-dasharray="1.48 1.48"/>
<path d="M69.372 9.23374L65.1642 17.6596L63.3343 17.5093L60.5576 8.50984L62.1842 8.64342C62.3596 8.65782 62.4977 8.71131 62.5984 8.80386C62.6995 8.89244 62.7727 9.0028 62.8181 9.13495L64.1213 13.9377C64.1844 14.1476 64.2438 14.3772 64.2995 14.6266C64.3556 14.8721 64.4068 15.1291 64.4529 15.3978C64.5303 15.1393 64.6128 14.8932 64.7002 14.6595C64.7919 14.4223 64.886 14.2052 64.9824 14.0085L67.0399 9.48168C67.0929 9.37366 67.1788 9.28038 67.2976 9.20184C67.4208 9.11964 67.5661 9.08542 67.7335 9.09917L69.372 9.23374ZM73.1061 11.7272L72.5444 13.6883L75.1861 14.445L74.773 15.887L72.1313 15.1303L71.5579 17.1318L75.0072 18.1199L74.5776 19.6195L69.1672 18.0697L71.5746 9.66569L76.985 11.2156L76.5554 12.7152L73.1061 11.7272ZM80.6816 14.4744L79.7818 16.3052L82.248 17.5173L81.5864 18.8635L79.1201 17.6514L78.2018 19.5199L81.4219 21.1025L80.7338 22.5026L75.6829 20.0201L79.5389 12.1745L84.5898 14.657L83.9017 16.057L80.6816 14.4744ZM96.2043 24.0221L88.4775 28.9221L87.0805 27.7308L89.345 22.5415C89.3752 22.4568 89.4121 22.3673 89.4556 22.2731C89.5018 22.1758 89.5506 22.0754 89.6019 21.972C89.508 22.0391 89.4166 22.1031 89.3278 22.1641C89.2416 22.222 89.1591 22.2725 89.0802 22.3157L84.2955 25.356L82.8985 24.1647L86.5163 15.7609L87.8129 16.8666C87.9468 16.9808 88.032 17.1059 88.0683 17.2421C88.1077 17.3808 88.0983 17.5121 88.0401 17.6359L85.9944 21.8843C85.9283 22.0172 85.8532 22.1608 85.769 22.315C85.6874 22.4662 85.6006 22.6235 85.5086 22.7869C85.8073 22.5475 86.091 22.3504 86.3596 22.1957L90.3958 19.6447C90.4959 19.5829 90.6186 19.5561 90.764 19.5644C90.915 19.5723 91.0544 19.6307 91.1822 19.7397L91.6388 20.129C91.7727 20.2432 91.8535 20.3673 91.8812 20.5013C91.9115 20.6322 91.9064 20.7646 91.8659 20.8983L89.9755 25.2791C89.8729 25.5596 89.7336 25.8587 89.5573 26.1763C89.6985 26.0601 89.8318 25.953 89.9574 25.8551C90.0886 25.7567 90.2133 25.6659 90.3316 25.5827L94.2034 22.8916C94.3031 22.8241 94.4271 22.7958 94.5755 22.8067C94.7239 22.8176 94.862 22.8776 94.9898 22.9866L96.2043 24.0221ZM100.357 38.1971C99.8055 38.5064 99.2424 38.6962 98.6673 38.7667C98.0976 38.8386 97.545 38.7979 97.0093 38.6444C96.4772 38.4889 95.9782 38.2208 95.5123 37.8401C95.0518 37.4609 94.6552 36.9748 94.3224 36.3818L92.6606 33.4202L100.284 29.1422L101.946 32.1038C102.279 32.6968 102.485 33.2896 102.566 33.8822C102.648 34.4782 102.617 35.0438 102.472 35.579C102.327 36.1142 102.074 36.6072 101.713 37.0578C101.356 37.51 100.904 37.8898 100.357 38.1971ZM99.3408 36.3867C99.7175 36.1753 100.03 35.9356 100.279 35.6676C100.528 35.3996 100.705 35.1145 100.81 34.8122C100.921 34.5114 100.958 34.1971 100.921 33.8693C100.887 33.5396 100.776 33.2056 100.586 32.8672L99.9222 31.6847L95.0193 34.4358L95.6829 35.6184C95.8728 35.9568 96.0979 36.2272 96.3583 36.4297C96.6222 36.6302 96.9096 36.7624 97.2207 36.8264C97.5373 36.8918 97.8747 36.8883 98.233 36.8156C98.5913 36.743 98.9605 36.6 99.3408 36.3867ZM104.414 41.0236L102.467 41.6349L103.291 44.2567L101.86 44.7062L101.036 42.0845L99.05 42.7084L100.125 46.1315L98.6369 46.599L96.9504 41.2296L105.291 38.6099L106.977 43.9792L105.489 44.4467L104.414 41.0236ZM106.817 53.0549L106.494 50.6162L99.4218 51.5545L99.1551 49.5441L106.227 48.6058L105.904 46.1672L107.498 45.9557L108.411 52.8434L106.817 53.0549ZM102.724 58.8512L105.163 58.1882C105.318 58.1376 105.5 58.0845 105.708 58.0291C105.92 57.9738 106.147 57.9196 106.391 57.8663C106.151 57.7916 105.929 57.7139 105.726 57.6334C105.522 57.5529 105.347 57.4781 105.199 57.409L102.87 56.4617L102.724 58.8512ZM99.1927 61.8641L99.2882 60.2951C99.2989 60.1194 99.3475 59.9801 99.4339 59.8771C99.5243 59.7744 99.6351 59.699 99.7662 59.6509L101.319 59.2285L101.521 55.9107L100.031 55.303C99.9219 55.2522 99.8249 55.1662 99.7402 55.0448C99.6591 54.9277 99.6237 54.7853 99.6339 54.6176L99.7302 53.0365L108.25 56.9456L108.124 59.0178L99.1927 61.8641ZM98.626 64.5336L99.0723 62.543L107.603 64.4553L107.156 66.4459L98.626 64.5336ZM97.8447 71.7852L96.3258 71.2218L98.158 66.2827L106.354 69.3231L105.649 71.2245L98.9716 68.7475L97.8447 71.7852ZM99.5064 79.7992C99.4535 79.6992 99.4233 79.6077 99.416 79.5248C99.4066 79.4453 99.4279 79.3606 99.4801 79.2707C99.5263 79.1911 99.6007 79.1187 99.7034 79.0533C99.8074 78.9935 99.9248 78.9228 100.055 78.8413C100.184 78.7633 100.315 78.6639 100.45 78.5433C100.588 78.4246 100.713 78.2701 100.823 78.0798C101.014 77.7512 101.085 77.4644 101.038 77.2194C100.992 76.98 100.849 76.791 100.611 76.6525C100.459 76.5642 100.304 76.5393 100.148 76.578C99.991 76.6167 99.8313 76.6928 99.6683 76.8063C99.5033 76.9233 99.3314 77.0641 99.1527 77.2286C98.9755 77.3986 98.7876 77.567 98.589 77.7339C98.3939 77.9028 98.188 78.0585 97.9712 78.201C97.7524 78.3469 97.52 78.4525 97.274 78.5179C97.026 78.5867 96.7614 78.6043 96.4803 78.5707C96.2027 78.5391 95.9064 78.432 95.5916 78.2493C95.2422 78.0465 94.9503 77.7963 94.7161 77.4986C94.4819 77.2008 94.3179 76.8698 94.224 76.5055C94.1316 76.1467 94.1181 75.7596 94.1833 75.3442C94.25 74.9344 94.4078 74.5149 94.6567 74.0859C94.7932 73.8506 94.957 73.6242 95.1479 73.4067C95.3369 73.1926 95.5409 72.9965 95.7599 72.8183C95.9823 72.6421 96.2123 72.4889 96.4498 72.3584C96.6873 72.228 96.9236 72.1316 97.1587 72.0692L97.6776 73.0639C97.7123 73.1395 97.7296 73.2213 97.7296 73.3091C97.7309 73.4024 97.7085 73.4888 97.6624 73.5684C97.6021 73.6722 97.509 73.7569 97.3831 73.8225C97.2551 73.8916 97.1132 73.9689 96.9574 74.0542C96.7995 74.1429 96.6375 74.2547 96.4714 74.3896C96.3053 74.5244 96.154 74.7095 96.0175 74.9448C95.8328 75.2631 95.7585 75.5506 95.7945 75.8073C95.834 76.0661 96.0059 76.2838 96.3104 76.4604C96.4868 76.5628 96.6585 76.5977 96.8255 76.565C96.9924 76.5324 97.1583 76.4576 97.3233 76.3406C97.4863 76.2271 97.6537 76.086 97.8255 75.9175C97.9973 75.7489 98.1773 75.5782 98.3655 75.4053C98.5571 75.2344 98.7596 75.0767 98.9729 74.9322C99.1896 74.7898 99.4238 74.6851 99.6753 74.6183C99.9282 74.557 100.202 74.5471 100.497 74.5888C100.795 74.6324 101.121 74.7566 101.474 74.9614C101.758 75.126 102.001 75.3436 102.205 75.6144C102.409 75.8851 102.552 76.1925 102.634 76.5363C102.717 76.8802 102.727 77.2492 102.665 77.6432C102.606 78.0392 102.457 78.4448 102.216 78.86C102.081 79.0918 101.932 79.3057 101.767 79.5016C101.604 79.7029 101.429 79.8811 101.242 80.0362C101.058 80.1932 100.867 80.3274 100.668 80.4388C100.471 80.5555 100.271 80.6453 100.068 80.7079L99.5064 79.7992ZM48.0358 100.463L53.2341 92.6094L55.0322 92.9804L56.6973 102.25L55.099 101.92C54.9266 101.885 54.7961 101.815 54.7073 101.711C54.6177 101.611 54.5584 101.492 54.5294 101.356L53.818 96.4302C53.7809 96.2143 53.7498 95.9791 53.7246 95.7248C53.6987 95.4744 53.6791 95.213 53.6659 94.9407C53.5577 95.188 53.446 95.4223 53.3309 95.6436C53.2111 95.868 53.0914 96.072 52.9718 96.2556L50.3808 100.5C50.3151 100.6 50.2185 100.683 50.091 100.746C49.9588 100.813 49.8104 100.829 49.6459 100.795L48.0358 100.463ZM44.6309 97.5312L45.4284 95.6535L42.8991 94.5792L43.4856 93.1986L46.0149 94.2729L46.8288 92.3566L43.5264 90.9539L44.1363 89.518L49.3163 91.7183L45.8986 99.7646L40.7186 97.5643L41.3285 96.1284L44.6309 97.5312ZM37.4459 93.8686L38.5667 92.1641L36.2706 90.6543L37.0947 89.401L39.3908 90.9108L40.5347 89.1712L37.5367 87.1999L38.3938 85.8964L43.0963 88.9885L38.2934 96.2929L33.5909 93.2008L34.448 91.8974L37.4459 93.8686ZM23.207 82.5108L31.4677 78.5774L32.7111 79.9283L29.8379 84.807C29.7977 84.8875 29.7504 84.9718 29.6957 85.0602C29.6382 85.1512 29.5777 85.2449 29.5142 85.3414C29.6156 85.2861 29.714 85.2336 29.8095 85.1838C29.9021 85.1367 29.9901 85.0964 30.0735 85.0631L35.1897 82.6213L36.433 83.9722L31.8291 91.879L30.6752 90.6252C30.556 90.4957 30.4865 90.3612 30.4669 90.2217C30.4445 90.0792 30.4696 89.95 30.5424 89.8341L33.085 85.8631C33.1665 85.7391 33.2584 85.6056 33.3606 85.4627C33.4598 85.3224 33.5649 85.1767 33.6759 85.0256C33.3505 85.2273 33.0452 85.3887 32.7599 85.5099L28.4457 87.5561C28.339 87.6055 28.2139 87.6173 28.0706 87.5915C27.9216 87.5655 27.7903 87.4907 27.6765 87.3671L27.2702 86.9256C27.151 86.7961 27.0857 86.6632 27.0744 86.5268C27.0601 86.3932 27.0811 86.2624 27.1374 86.1345L29.5418 82.0134C29.6774 81.7473 29.8518 81.4672 30.065 81.1731C29.9109 81.2715 29.7656 81.3617 29.6291 81.4438C29.487 81.5257 29.3523 81.6008 29.2249 81.6691L25.057 83.8742C24.95 83.9292 24.8235 83.9423 24.6775 83.9136C24.5314 83.8849 24.4016 83.8088 24.2878 83.6852L23.207 82.5108ZM20.8249 67.9252C21.4102 67.6867 21.9925 67.5681 22.5719 67.5695C23.1461 67.5687 23.6894 67.6776 24.2019 67.8964C24.7106 68.1166 25.1726 68.4445 25.5877 68.88C25.9976 69.3133 26.3309 69.8448 26.5876 70.4745L27.8695 73.6193L19.7743 76.9193L18.4924 73.7745C18.2357 73.1448 18.1042 72.531 18.0981 71.9331C18.0904 71.3315 18.1915 70.7741 18.4013 70.2609C18.6111 69.7478 18.9234 69.29 19.3382 68.8877C19.7478 68.4831 20.2434 68.1623 20.8249 67.9252ZM21.6086 69.8477C21.2085 70.0107 20.8685 70.2098 20.5886 70.4449C20.3086 70.68 20.0975 70.941 19.9553 71.2279C19.8078 71.5126 19.7322 71.8199 19.7285 72.1497C19.721 72.481 19.7905 72.8263 19.9369 73.1856L20.4488 74.4413L25.6549 72.3191L25.143 71.0634C24.9965 70.7041 24.8067 70.4079 24.5734 70.1747C24.3364 69.943 24.0675 69.7762 23.7668 69.6741C23.4608 69.5699 23.1255 69.5316 22.761 69.5593C22.3965 69.587 22.0123 69.6831 21.6086 69.8477ZM17.1442 64.626L19.1503 64.2558L18.6517 61.5534L20.1268 61.2812L20.6254 63.9836L22.6729 63.6058L22.0218 60.0774L23.5559 59.7943L24.5772 65.3289L15.9803 66.9152L14.959 61.3806L16.4931 61.0976L17.1442 64.626ZM16.2304 52.3887L16.2518 54.8486L23.3855 54.7865L23.4032 56.8144L16.2695 56.8766L16.2909 59.3365L14.683 59.3505L14.6224 52.4028L16.2304 52.3887ZM20.9899 47.1336L18.4892 47.499C18.3288 47.5306 18.1422 47.5615 17.9293 47.5916C17.7125 47.6211 17.4799 47.6476 17.2315 47.6712C17.4607 47.7742 17.6715 47.8779 17.8639 47.9822C18.0562 48.0866 18.2217 48.182 18.3604 48.2684L20.5586 49.4884L20.9899 47.1336ZM24.8578 44.5665L24.5745 46.1128C24.5428 46.2859 24.4779 46.4184 24.3797 46.5102C24.2776 46.6013 24.1586 46.6628 24.0226 46.6949L22.4306 46.9278L21.8317 50.1974L23.2377 50.9796C23.34 51.043 23.4259 51.1401 23.4955 51.2708C23.5619 51.3968 23.5799 51.5424 23.5497 51.7077L23.2643 53.2658L15.2751 48.362L15.6491 46.32L24.8578 44.5665ZM25.7434 41.9964L25.0572 43.9175L16.8246 40.9768L17.5109 39.0557L25.7434 41.9964ZM27.4161 34.9073L28.8528 35.6559L26.4187 40.3278L18.6659 36.2884L19.6029 34.4899L25.9191 37.7807L27.4161 34.9073ZM26.6927 26.7317C26.734 26.8371 26.7536 26.9314 26.7517 27.0146C26.7521 27.0946 26.7213 27.1764 26.6593 27.2599C26.6044 27.3337 26.5224 27.3974 26.413 27.4507C26.3029 27.4984 26.1783 27.5555 26.0395 27.6218C25.903 27.6848 25.761 27.7687 25.6135 27.8735C25.4628 27.9758 25.3219 28.1153 25.1908 28.292C24.9643 28.5971 24.8609 28.874 24.8805 29.1227C24.8993 29.3658 25.0195 29.5696 25.2411 29.7341C25.3824 29.839 25.5331 29.8811 25.693 29.8603C25.8529 29.8395 26.0202 29.7819 26.1949 29.6874C26.372 29.5897 26.5586 29.4692 26.7547 29.3258C26.95 29.1769 27.1557 29.0306 27.3718 28.8872C27.5846 28.7413 27.8068 28.6098 28.0382 28.4927C28.272 28.3723 28.5148 28.2935 28.7666 28.2562C29.0208 28.2158 29.2857 28.2281 29.5612 28.2931C29.8335 28.3557 30.1158 28.4956 30.4081 28.7125C30.7325 28.9533 30.9943 29.2348 31.1935 29.557C31.3927 29.8792 31.5184 30.2266 31.5707 30.5992C31.6221 30.9661 31.592 31.3523 31.4804 31.7576C31.368 32.1574 31.164 32.5564 30.8684 32.9547C30.7062 33.1731 30.5181 33.3796 30.3038 33.5743C30.092 33.7657 29.8672 33.9377 29.6296 34.09C29.3887 34.24 29.1429 34.3664 28.8923 34.4693C28.6416 34.5721 28.3959 34.6414 28.1553 34.6769L27.7517 33.6301C27.7257 33.5511 27.7177 33.4679 27.7276 33.3807C27.7368 33.2878 27.7688 33.2044 27.8236 33.1306C27.8951 33.0342 27.9972 32.9605 28.1297 32.9095C28.2646 32.8552 28.4143 32.7944 28.5788 32.7272C28.7457 32.6568 28.9192 32.5639 29.0994 32.4486C29.2797 32.3333 29.4508 32.1665 29.613 31.9481C29.8323 31.6526 29.9385 31.3753 29.9316 31.1161C29.9215 30.8545 29.7752 30.6189 29.4925 30.4091C29.3287 30.2875 29.1621 30.2335 28.9925 30.2471C28.823 30.2608 28.6497 30.3164 28.4725 30.4141C28.2978 30.5086 28.1156 30.6299 27.9259 30.778C27.7363 30.9262 27.5382 31.0756 27.3318 31.2262C27.1221 31.3744 26.9031 31.5083 26.6749 31.6279C26.4435 31.745 26.1991 31.8226 25.9417 31.8607C25.6834 31.8932 25.4101 31.8721 25.1218 31.7976C24.8302 31.7206 24.5206 31.5605 24.193 31.3174C23.9296 31.1219 23.712 30.8781 23.5401 30.5862C23.3683 30.2942 23.2607 29.9728 23.2173 29.6218C23.174 29.2708 23.2054 28.903 23.3115 28.5185C23.4144 28.1316 23.6088 27.7454 23.8949 27.36C24.0547 27.1448 24.2273 26.9491 24.4128 26.773C24.5975 26.5913 24.7916 26.4339 24.9949 26.3009C25.195 26.1655 25.4001 26.0537 25.61 25.9655C25.8192 25.8716 26.0281 25.805 26.2367 25.7656L26.6927 26.7317Z" fill="white"/>
<path d="M68.0499 45.4895H60.7214L46.3008 64.9708H53.7475L55.6978 62.2538H66.2769L63.2627 58.0338H58.8893L68.0499 45.4895Z" fill="url(#paint2_linear_1_1362)"/>
<path d="M68.0499 45.4895H60.7214L46.3008 64.9708H53.7475L55.6978 62.2538H66.2769L63.2627 58.0338H58.8893L68.0499 45.4895Z" fill="white"/>
<path d="M76.9143 45.4895H69.8222L62.8482 55.1434L69.8222 64.5083H76.9143L69.8222 55.1434L76.9143 45.4895Z" fill="url(#paint3_linear_1_1362)"/>
<path d="M76.9143 45.4895H69.8222L62.8482 55.1434L69.8222 64.5083H76.9143L69.8222 55.1434L76.9143 45.4895Z" fill="white"/>
<path d="M41.7348 9.9232C41.7348 9.9232 43.5223 14.69 42.6711 16.5626C41.8199 18.4353 37.0531 20.2228 37.0531 20.2228C37.0531 20.2228 41.8199 18.4353 43.6925 19.2865C45.5652 20.1377 47.3527 24.9045 47.3527 24.9045C47.3527 24.9045 45.5652 20.1377 46.4164 18.265C47.2676 16.3924 52.0344 14.6049 52.0344 14.6049C52.0344 14.6049 47.2676 16.3924 45.395 15.5412C43.5223 14.69 41.7348 9.9232 41.7348 9.9232Z" fill="white"/>
<path d="M76.475 84.5003C76.475 84.5003 78.2625 89.2671 77.4113 91.1398C76.5601 93.0124 71.7934 94.8 71.7934 94.8C71.7934 94.8 76.5601 93.0124 78.4328 93.8636C80.3054 94.7149 82.093 99.4816 82.093 99.4816C82.093 99.4816 80.3054 94.7149 81.1566 92.8422C82.0079 90.9695 86.7746 89.182 86.7746 89.182C86.7746 89.182 82.0079 90.9695 80.1352 90.1183C78.2625 89.2671 76.475 84.5003 76.475 84.5003Z" fill="white"/>
</g>
<defs>
<filter id="filter0_d_1_1362" x="0" y="0" width="123" height="123" filterUnits="userSpaceOnUse" color-interpolation-filters="sRGB">
<feFlood flood-opacity="0" result="BackgroundImageFix"/>
<feColorMatrix in="SourceAlpha" type="matrix" values="0 0 0 0 0 0 0 0 0 0 0 0 0 0 0 0 0 0 127 0" result="hardAlpha"/>
<feOffset dy="6"/>
<feGaussianBlur stdDeviation="3"/>
<feComposite in2="hardAlpha" operator="out"/>
<feColorMatrix type="matrix" values="0 0 0 0 0 0 0 0 0 0 0 0 0 0 0 0 0 0 0.25 0"/>
<feBlend mode="normal" in2="BackgroundImageFix" result="effect1_dropShadow_1_1362"/>
<feBlend mode="normal" in="SourceGraphic" in2="effect1_dropShadow_1_1362" result="shape"/>
</filter>
<linearGradient id="paint0_linear_1_1362" x1="7" y1="55.5" x2="116" y2="55.5" gradientUnits="userSpaceOnUse">
<stop stop-color="#8F74BF"/>
<stop offset="0.503526" stop-color="#D76D77"/>
<stop offset="1" stop-color="#FFAF7B"/>
</linearGradient>
<linearGradient id="paint1_linear_1_1362" x1="31.4686" y1="55.8708" x2="90.7884" y2="55.8708" gradientUnits="userSpaceOnUse">
<stop stop-color="#8F74BF"/>
<stop offset="0.503526" stop-color="#D76D77"/>
<stop offset="1" stop-color="#FFAF7B"/>
</linearGradient>
<linearGradient id="paint2_linear_1_1362" x1="46.3008" y1="64.7654" x2="76.7181" y2="64.7654" gradientUnits="userSpaceOnUse">
<stop stop-color="#8F74BF"/>
<stop offset="0.48" stop-color="#D76D77"/>
<stop offset="1" stop-color="#FFAF7B"/>
</linearGradient>
<linearGradient id="paint3_linear_1_1362" x1="46.3008" y1="64.7654" x2="76.7181" y2="64.7654" gradientUnits="userSpaceOnUse">
<stop stop-color="#8F74BF"/>
<stop offset="0.48" stop-color="#D76D77"/>
<stop offset="1" stop-color="#FFAF7B"/>
</linearGradient>
</defs>
</svg>
