<svg xmlns="http://www.w3.org/2000/svg" width="2310" height="454" viewBox="0 0 2310 454">
<g>
<path d="M 2176.49 435.48 C2166.18,436.83 2053.08,436.99 1152.70,436.89 C302.02,436.79 139.10,436.55 131.74,435.41 C106.39,431.45 86.01,422.39 65.50,405.96 C51.61,394.84 35.44,373.63 28.95,358.00 C27.69,354.98 26.31,352.04 25.89,351.47 C24.56,349.69 20.18,331.93 18.55,321.76 C17.24,313.51 17.00,299.04 17.00,227.00 C17.00,135.23 17.06,133.99 22.50,113.50 C26.18,99.60 37.66,76.82 43.34,72.13 C44.25,71.37 45.00,70.10 45.00,69.31 C45.00,66.83 61.03,51.74 71.00,44.82 C88.79,32.48 104.20,25.89 126.00,21.29 C134.14,19.58 177.90,19.50 1155.00,19.50 L 2175.50 19.50 L 2185.76 21.77 C2213.30,27.87 2236.16,40.21 2255.59,59.48 C2270.87,74.64 2284.09,99.26 2289.16,122.00 L 2291.50 132.50 L 2291.50 227.00 L 2291.50 235.05 C2291.50,311.70 2291.50,323.40 2288.74,334.40 C2288.15,336.75 2287.43,339.08 2286.56,342.00 C2284.50,348.93 2274.43,370.28 2270.77,375.50 C2268.97,378.07 2266.74,381.34 2265.80,382.77 C2259.65,392.18 2243.79,407.16 2231.31,415.36 C2216.32,425.19 2194.85,433.07 2176.49,435.48 ZM 1010.00 195.00 L 1010.00 349.08 L 1019.25 348.79 L 1028.50 348.50 L 1028.77 324.75 C1028.92,311.69 1029.32,301.00 1029.67,301.00 C1030.02,301.00 1031.78,302.72 1033.58,304.82 C1039.84,312.14 1053.99,317.97 1065.54,317.99 C1078.67,318.01 1089.66,313.45 1099.10,304.06 C1111.22,292.00 1116.56,276.35 1116.36,253.50 C1116.17,231.82 1110.86,216.73 1099.39,205.23 C1092.22,198.03 1085.71,194.67 1075.58,192.93 C1057.79,189.87 1041.62,195.01 1032.68,206.58 L 1028.50 211.98 L 1028.21 203.49 L 1027.92 195.00 ZM 279.31 302.49 C304.04,307.87 330.36,299.08 344.18,280.82 C349.06,274.37 354.46,262.22 355.59,255.14 L 356.26 251.00 L 351.65 251.00 C346.33,251.00 345.44,251.96 341.92,261.50 C334.18,282.46 317.70,293.33 293.50,293.43 C277.80,293.50 267.11,288.99 256.32,277.75 C246.22,267.24 241.35,255.38 240.31,238.75 L 239.70 229.00 L 358.00 229.00 L 357.99 221.25 C357.96,191.54 345.13,168.06 322.94,157.12 C307.22,149.37 291.99,148.19 275.42,153.42 C257.46,159.10 241.89,173.58 234.98,191.02 C232.24,197.96 227.00,222.69 227.00,228.73 C227.00,233.34 228.81,244.04 231.61,256.00 C236.99,279.03 255.83,297.39 279.31,302.49 ZM 1321.00 316.48 C1328.60,318.58 1344.47,317.87 1352.42,315.07 C1365.02,310.64 1375.66,301.03 1381.54,288.79 L 1385.04 281.50 L 1380.77 280.82 C1378.42,280.45 1373.74,280.11 1370.37,280.07 C1364.43,280.00 1364.20,280.10 1362.96,283.10 C1362.25,284.81 1359.59,288.34 1357.05,290.95 C1351.33,296.82 1344.47,299.39 1334.50,299.39 C1324.89,299.39 1317.79,296.81 1311.70,291.12 C1304.70,284.58 1301.98,278.54 1299.60,264.26 L 1299.05 261.02 L 1386.50 260.50 L 1386.38 250.00 C1385.97,214.97 1364.99,192.10 1333.20,192.02 C1307.49,191.95 1287.85,208.06 1281.37,234.53 C1279.01,244.16 1278.99,265.04 1281.34,274.47 C1286.77,296.29 1300.48,310.82 1321.00,316.48 ZM 740.00 154.00 L 740.00 315.02 L 839.50 314.50 L 840.08 296.00 L 760.00 296.00 L 760.00 244.00 L 835.00 244.00 L 835.00 225.00 L 760.00 225.00 L 760.00 173.02 L 798.75 172.76 L 837.50 172.50 L 838.08 154.00 ZM 2004.00 317.04 C2009.26,318.14 2021.04,318.13 2027.11,317.01 C2037.83,315.04 2046.77,311.07 2052.71,305.63 C2060.21,298.78 2062.98,292.77 2062.99,283.29 C2063.02,262.67 2052.62,254.62 2017.49,248.06 C2000.78,244.94 1993.15,242.15 1989.52,237.84 C1984.76,232.18 1985.01,223.34 1990.10,217.54 C1994.57,212.45 2000.68,210.49 2012.00,210.54 C2020.29,210.57 2022.15,210.91 2026.59,213.22 C2032.72,216.41 2037.02,221.09 2039.59,227.36 L 2041.50 232.02 L 2050.50 231.39 C2055.45,231.04 2059.85,230.43 2060.28,230.05 C2061.61,228.85 2057.48,217.56 2053.54,211.63 C2048.99,204.77 2044.44,200.86 2036.50,196.99 C2022.41,190.10 1997.51,190.54 1984.68,197.90 C1972.90,204.67 1966.83,214.83 1966.86,227.76 C1966.90,249.36 1977.56,257.73 2014.36,265.08 C2036.26,269.45 2042.07,272.52 2043.57,280.54 C2044.99,288.07 2040.22,294.53 2031.00,297.57 C2023.41,300.07 2009.33,300.08 2002.05,297.58 C1994.98,295.15 1987.67,288.39 1985.38,282.16 C1984.44,279.60 1983.34,277.12 1982.93,276.65 C1982.53,276.18 1977.95,276.12 1972.75,276.51 L 1963.30 277.22 L 1964.15 281.77 C1967.48,299.62 1981.93,312.40 2004.00,317.04 ZM 1593.00 316.51 C1601.12,318.35 1618.23,317.79 1626.00,315.44 C1638.62,311.62 1647.33,305.10 1651.68,296.23 C1653.98,291.51 1654.47,289.20 1654.47,283.01 C1654.47,273.50 1652.30,267.69 1646.70,262.20 C1640.87,256.48 1628.86,251.69 1613.50,248.98 C1583.89,243.76 1578.00,240.24 1578.00,227.78 C1578.00,217.67 1585.18,211.65 1598.73,210.39 C1607.59,209.56 1615.75,211.31 1621.73,215.32 C1625.36,217.75 1627.30,220.10 1629.94,225.30 L 1633.40 232.10 L 1641.45 231.48 C1645.88,231.13 1650.06,230.67 1650.75,230.46 C1652.98,229.75 1652.08,225.39 1648.01,217.26 C1639.54,200.33 1624.60,192.00 1602.73,192.00 C1583.47,192.00 1567.61,199.96 1561.31,212.78 C1558.83,217.83 1558.50,219.61 1558.50,228.00 C1558.50,235.93 1558.89,238.28 1560.83,242.23 C1565.97,252.67 1577.91,259.50 1598.05,263.49 C1617.56,267.37 1620.53,268.13 1626.19,270.66 C1632.96,273.70 1635.00,276.61 1635.00,283.20 C1634.99,291.99 1628.94,296.86 1615.25,299.10 C1596.95,302.11 1581.17,294.69 1576.23,280.77 C1575.52,278.79 1575.16,277.56 1574.35,276.86 C1573.06,275.76 1570.65,275.96 1563.98,276.53 C1563.52,276.57 1563.05,276.61 1562.55,276.66 L 1554.79 277.31 L 1555.44 281.41 C1556.51,288.29 1561.54,297.68 1566.98,302.98 C1572.91,308.76 1583.83,314.43 1593.00,316.51 ZM 1455.50 316.10 C1474.18,320.78 1498.35,315.70 1509.24,304.82 C1515.48,298.57 1518.24,292.32 1518.37,284.16 C1518.60,269.68 1513.72,262.08 1500.13,255.71 C1494.68,253.16 1488.12,251.08 1481.60,249.84 C1454.23,244.62 1447.87,242.44 1443.77,236.92 C1441.35,233.64 1441.18,224.50 1443.46,220.08 C1446.99,213.25 1457.89,209.28 1470.29,210.32 C1482.08,211.31 1489.99,216.65 1494.73,226.81 L 1497.20 232.12 L 1505.35 231.48 C1509.83,231.14 1514.10,230.66 1514.83,230.43 C1518.08,229.39 1511.53,213.95 1504.58,206.27 C1487.58,187.47 1446.31,187.21 1429.96,205.78 C1422.49,214.27 1420.05,226.99 1423.59,239.07 C1424.83,243.31 1426.43,245.73 1430.88,250.08 C1437.96,257.02 1446.97,260.53 1469.20,265.04 C1492.24,269.71 1497.77,272.76 1498.73,281.30 C1499.76,290.42 1494.36,295.97 1481.91,298.61 C1462.62,302.69 1445.37,295.48 1440.37,281.25 C1439.57,278.97 1439.19,277.61 1438.29,276.86 C1436.98,275.76 1434.58,275.97 1428.19,276.52 C1427.67,276.56 1427.12,276.61 1426.54,276.66 L 1418.77 277.31 L 1419.38 281.75 C1420.27,288.22 1426.51,299.40 1431.90,304.15 C1437.87,309.42 1446.74,313.91 1455.50,316.10 ZM 869.01 314.25 C869.00,314.66 873.86,315.00 879.80,315.00 L 890.59 315.00 L 907.04 291.00 C916.09,277.80 923.77,267.00 924.10,267.00 C924.44,267.00 930.93,276.11 938.54,287.25 C946.14,298.39 953.67,309.19 955.27,311.25 L 958.17 315.00 L 968.03 315.00 C973.45,315.00 978.10,314.64 978.37,314.21 C978.64,313.78 969.23,299.95 957.46,283.48 C936.14,253.64 936.07,253.54 937.72,251.02 C938.63,249.64 947.00,237.70 956.34,224.50 C965.67,211.30 974.17,199.26 975.22,197.75 L 977.14 195.00 L 965.82 195.00 L 954.50 195.00 L 951.00 200.19 C936.92,221.06 924.76,238.54 924.19,238.73 C923.81,238.86 918.78,232.15 913.00,223.82 C907.22,215.50 900.35,205.61 897.72,201.84 L 892.95 195.00 L 870.86 195.00 L 873.14 198.25 C874.40,200.04 883.35,212.55 893.03,226.05 C902.71,239.55 910.97,251.14 911.38,251.81 C911.84,252.56 906.63,260.74 897.82,273.10 C889.94,284.15 880.24,297.76 876.26,303.34 C872.28,308.93 869.01,313.84 869.01,314.25 ZM 1076.09 296.86 C1062.87,302.55 1046.88,298.68 1038.13,287.66 C1031.20,278.94 1027.92,262.81 1029.74,246.32 C1031.10,233.93 1033.91,226.43 1039.52,220.18 C1045.93,213.06 1052.11,210.58 1063.50,210.57 C1071.30,210.57 1073.18,210.92 1077.59,213.22 C1089.02,219.17 1095.40,231.32 1096.64,249.50 C1098.16,271.89 1089.91,290.92 1076.09,296.86 ZM 346.00 214.16 L 346.00 219.00 L 239.98 219.00 L 240.58 213.25 C243.09,188.98 257.86,169.76 278.83,163.45 C290.66,159.89 306.50,160.83 316.87,165.70 C324.11,169.10 334.53,179.55 338.80,187.69 C342.64,194.99 346.00,207.36 346.00,214.16 ZM 1149.00 298.00 L 1149.00 315.02 L 1192.75 314.76 L 1236.50 314.50 L 1236.79 306.25 L 1237.08 298.00 L 1198.88 298.00 L 1199.19 264.75 C1199.49,232.44 1199.57,231.36 1201.82,226.37 C1207.00,214.93 1212.01,212.70 1234.00,212.01 L 1250.50 211.50 L 1250.79 203.25 L 1251.08 195.00 L 1234.29 195.01 C1218.73,195.02 1217.13,195.19 1212.50,197.38 C1206.44,200.25 1202.80,203.97 1199.63,210.53 L 1197.25 215.47 L 1196.52 205.24 L 1195.78 195.00 L 1149.00 195.00 L 1149.00 212.00 L 1180.00 212.00 L 1180.00 298.00 ZM 1834.00 332.00 L 1834.00 349.12 L 1860.25 348.81 C1885.44,348.51 1886.71,348.40 1891.79,346.11 C1898.06,343.28 1904.11,336.80 1906.66,330.19 C1908.34,325.86 1908.50,320.44 1908.77,260.25 L 1909.07 195.00 L 1835.92 195.00 L 1836.21 203.25 L 1836.50 211.50 L 1863.28 211.77 L 1890.07 212.03 L 1889.78 266.77 C1889.51,319.72 1889.43,321.61 1887.47,325.00 C1883.71,331.46 1881.30,332.00 1856.25,332.00 ZM 364.52 300.04 C365.46,301.56 371.86,301.16 375.68,299.35 C379.41,297.58 379.97,296.94 391.74,280.98 C420.82,241.55 427.29,233.00 428.02,233.00 C428.88,233.00 435.30,241.60 459.75,275.54 C476.13,298.28 479.02,301.00 486.83,301.00 C489.06,301.00 491.15,300.56 491.49,300.02 C491.82,299.48 479.70,282.54 464.55,262.37 C447.30,239.41 437.00,224.85 437.00,223.43 C437.00,222.03 442.73,213.67 451.80,201.83 C474.74,171.86 487.00,155.40 487.00,154.54 C487.00,154.11 484.30,153.95 481.00,154.19 C476.06,154.55 474.45,155.15 471.91,157.56 C470.21,159.18 459.79,172.55 448.75,187.28 C437.72,202.01 428.36,213.94 427.95,213.78 C427.28,213.52 416.91,199.79 394.68,169.73 C384.56,156.04 381.86,154.01 373.75,154.00 C370.59,154.00 368.00,154.24 368.00,154.53 C368.00,154.82 370.17,157.86 372.81,161.28 C389.72,183.14 418.32,220.55 419.21,221.97 C420.30,223.72 417.16,228.17 377.28,281.29 C369.94,291.07 364.20,299.51 364.52,300.04 ZM 1365.51 242.99 C1365.11,243.64 1353.30,244.00 1332.44,244.00 L 1300.00 244.00 L 1300.00 241.61 C1300.00,240.29 1300.91,236.26 1302.02,232.66 C1304.60,224.33 1311.56,216.33 1319.23,212.91 C1323.59,210.97 1326.14,210.56 1334.00,210.59 C1342.25,210.61 1344.16,210.96 1348.50,213.22 C1354.35,216.27 1358.99,220.90 1361.78,226.50 C1364.08,231.13 1366.43,241.50 1365.51,242.99 ZM 1727.00 286.94 L 1727.00 315.06 L 1754.50 314.50 L 1754.50 287.50 L 1740.75 287.22 ZM 1889.00 154.00 L 1889.00 176.07 L 1908.50 175.50 L 1909.07 154.00 Z" fill="rgb(23,23,23)"/>
<path d="M 0.00 0.00 L 2310.00 0.00 L 2238.25 0.13 C2190.13,0.22 2169.30,0.56 2175.00,1.15 C2207.66,4.55 2238.20,18.82 2262.28,41.90 C2281.38,60.23 2294.34,80.82 2302.30,105.50 C2305.95,116.81 2309.00,133.84 2309.00,142.88 C2309.00,145.70 2309.23,148.00 2309.50,148.00 C2309.77,148.00 2310.00,114.70 2310.00,74.00 L 2310.00 454.00 L 0.00 454.00 L 69.25 453.90 L 138.50 453.79 L 128.50 452.02 C123.00,451.04 115.68,449.50 112.23,448.59 C100.02,445.37 81.00,437.58 81.00,435.80 C81.00,435.36 80.26,435.00 79.35,435.00 C76.89,435.00 59.59,423.16 51.10,415.67 C40.66,406.46 26.00,389.20 26.00,386.12 C26.00,385.50 25.62,385.00 25.16,385.00 C23.77,385.00 14.35,367.16 10.63,357.50 C4.90,342.60 1.50,327.42 1.85,318.31 C1.94,316.01 1.56,313.84 1.00,313.50 C0.34,313.09 0.00,336.43 0.00,383.44 ZM 2176.49 435.48 C2194.85,433.07 2216.32,425.19 2231.31,415.36 C2243.79,407.16 2259.65,392.18 2265.80,382.77 C2266.74,381.34 2268.97,378.07 2270.77,375.50 C2274.43,370.28 2284.50,348.93 2286.56,342.00 C2287.43,339.08 2288.15,336.75 2288.74,334.40 C2291.50,323.40 2291.50,311.70 2291.50,235.05 L 2291.50 227.00 L 2291.50 132.50 L 2289.16 122.00 C2284.09,99.26 2270.87,74.64 2255.59,59.48 C2236.16,40.21 2213.30,27.87 2185.76,21.77 L 2175.50 19.50 L 1155.00 19.50 C177.90,19.50 134.14,19.58 126.00,21.29 C104.20,25.89 88.79,32.48 71.00,44.82 C61.03,51.74 45.00,66.83 45.00,69.31 C45.00,70.10 44.25,71.37 43.34,72.13 C37.66,76.82 26.18,99.60 22.50,113.50 C17.06,133.99 17.00,135.23 17.00,227.00 C17.00,299.04 17.24,313.51 18.55,321.76 C20.18,331.93 24.56,349.69 25.89,351.47 C26.31,352.04 27.69,354.98 28.95,358.00 C35.44,373.63 51.61,394.84 65.50,405.96 C86.01,422.39 106.39,431.45 131.74,435.41 C139.10,436.55 302.02,436.79 1152.70,436.89 C2053.08,436.99 2166.18,436.83 2176.49,435.48 ZM 2310.00 454.00 L 2309.83 379.75 C2309.74,340.26 2309.52,309.39 2309.33,309.39 C2309.33,309.39 2309.32,309.43 2309.31,309.50 C2308.98,313.31 2306.58,330.70 2305.40,337.89 C2303.78,347.67 2292.22,374.94 2286.39,382.68 C2285.08,384.43 2284.00,386.21 2284.00,386.62 C2284.00,389.31 2260.16,415.16 2251.50,421.85 C2244.03,427.63 2233.74,434.11 2225.48,438.24 C2215.70,443.14 2198.04,449.43 2190.96,450.54 C2188.51,450.93 2182.90,451.82 2178.50,452.52 C2171.57,453.63 2179.85,453.82 2240.25,453.90 L 2310.00 454.00 ZM 0.00 0.00 L 0.13 71.25 C0.21,112.39 0.60,139.60 1.06,135.65 C3.27,116.65 9.38,96.62 17.75,81.00 C41.52,36.62 85.18,6.92 135.20,1.11 C139.78,0.58 115.99,0.21 71.25,0.13 Z" fill="rgb(47,47,47)"/>
<path d="M 3.30 332.62 C2.28,327.59 1.70,323.10 1.71,319.75 C1.71,318.24 1.33,317.00 0.86,317.00 C0.39,317.00 0.01,346.71 0.00,383.44 C0.00,336.43 0.34,313.09 1.00,313.50 C1.56,313.84 1.94,316.01 1.85,318.31 C1.70,322.16 2.22,327.09 3.30,332.62 ZM 2213.24 10.45 C2231.89,17.47 2247.62,27.73 2262.88,42.45 C2270.31,49.62 2276.84,57.24 2282.51,65.36 C2276.72,57.09 2270.00,49.31 2262.28,41.90 C2247.92,28.14 2231.27,17.51 2213.24,10.45 ZM 56.35 34.23 C69.76,23.13 84.24,14.95 100.77,9.19 C84.60,15.01 69.60,23.49 56.35,34.23 ZM 0.79 134.43 L 2.40 126.53 C1.86,129.58 1.41,132.63 1.06,135.65 C0.97,136.44 0.88,135.98 0.79,134.43 ZM 127.65 2.17 L 134.42 0.80 C135.88,0.89 136.16,1.00 135.20,1.11 C132.67,1.40 130.15,1.76 127.65,2.17 ZM 2174.91 0.81 L 2181.19 1.93 C2179.14,1.63 2177.07,1.37 2175.00,1.15 C2173.81,1.03 2173.78,0.91 2174.91,0.81 ZM 18.14 80.27 C21.24,74.46 24.75,68.89 28.67,63.51 C24.84,68.83 21.32,74.42 18.14,80.27 Z" fill="rgb(166,166,166)"/>
<path d="M 0.00 385.50 C0.00,347.83 0.39,317.00 0.86,317.00 C1.33,317.00 1.71,318.24 1.71,319.75 C1.69,328.23 5.40,343.91 10.63,357.50 C14.35,367.16 23.77,385.00 25.16,385.00 C25.62,385.00 26.00,385.50 26.00,386.12 C26.00,389.20 40.66,406.46 51.10,415.67 C59.59,423.16 76.89,435.00 79.35,435.00 C80.26,435.00 81.00,435.36 81.00,435.80 C81.00,437.58 100.02,445.37 112.23,448.59 C115.68,449.50 123.00,451.04 128.50,452.02 L 138.50 453.79 L 69.25 453.90 L 0.00 454.00 L 0.00 385.50 ZM 2178.50 452.52 C2182.90,451.82 2188.51,450.93 2190.96,450.54 C2198.04,449.43 2215.70,443.14 2225.48,438.24 C2233.74,434.11 2244.03,427.63 2251.50,421.85 C2260.16,415.16 2284.00,389.31 2284.00,386.62 C2284.00,386.21 2285.08,384.43 2286.39,382.68 C2292.22,374.94 2303.78,347.67 2305.40,337.89 C2306.58,330.70 2308.98,313.31 2309.31,309.50 C2309.51,307.30 2309.74,338.91 2309.83,379.75 L 2310.00 454.00 L 2240.25 453.90 C2179.85,453.82 2171.57,453.63 2178.50,452.52 ZM 1010.00 272.04 L 1010.00 195.00 L 1018.96 195.00 L 1027.92 195.00 L 1028.21 203.49 L 1028.50 211.98 L 1032.68 206.58 C1041.62,195.01 1057.79,189.87 1075.58,192.93 C1085.71,194.67 1092.22,198.03 1099.39,205.23 C1110.86,216.73 1116.17,231.82 1116.36,253.50 C1116.56,276.35 1111.22,292.00 1099.10,304.06 C1089.66,313.45 1078.67,318.01 1065.54,317.99 C1053.99,317.97 1039.84,312.14 1033.58,304.82 C1031.78,302.72 1030.02,301.00 1029.67,301.00 C1029.32,301.00 1028.92,311.69 1028.77,324.75 L 1028.50 348.50 L 1019.25 348.79 L 1010.00 349.08 L 1010.00 272.04 ZM 1076.09 296.86 C1089.91,290.92 1098.16,271.89 1096.64,249.50 C1095.40,231.32 1089.02,219.17 1077.59,213.22 C1073.18,210.92 1071.30,210.57 1063.50,210.57 C1052.11,210.58 1045.93,213.06 1039.52,220.18 C1033.91,226.43 1031.10,233.93 1029.74,246.32 C1027.92,262.81 1031.20,278.94 1038.13,287.66 C1046.88,298.68 1062.87,302.55 1076.09,296.86 ZM 1834.00 340.56 L 1834.00 332.00 L 1856.25 332.00 C1881.30,332.00 1883.71,331.46 1887.47,325.00 C1889.43,321.61 1889.51,319.72 1889.78,266.77 L 1890.07 212.03 L 1863.28 211.77 L 1836.50 211.50 L 1836.21 203.25 L 1835.92 195.00 L 1872.49 195.00 L 1909.07 195.00 L 1908.77 260.25 C1908.50,320.44 1908.34,325.86 1906.66,330.19 C1904.11,336.80 1898.06,343.28 1891.79,346.11 C1886.71,348.40 1885.44,348.51 1860.25,348.81 L 1834.00 349.12 L 1834.00 340.56 ZM 1321.00 316.48 C1300.48,310.82 1286.77,296.29 1281.34,274.47 C1278.99,265.04 1279.01,244.16 1281.37,234.53 C1287.85,208.06 1307.49,191.95 1333.20,192.02 C1364.99,192.10 1385.97,214.97 1386.38,250.00 L 1386.50 260.50 L 1342.78 260.76 L 1299.05 261.02 L 1299.60 264.26 C1301.98,278.54 1304.70,284.58 1311.70,291.12 C1317.79,296.81 1324.89,299.39 1334.50,299.39 C1344.47,299.39 1351.33,296.82 1357.05,290.95 C1359.59,288.34 1362.25,284.81 1362.96,283.10 C1364.20,280.10 1364.43,280.00 1370.37,280.07 C1373.74,280.11 1378.42,280.45 1380.77,280.82 L 1385.04 281.50 L 1381.54 288.79 C1375.66,301.03 1365.02,310.64 1352.42,315.07 C1344.47,317.87 1328.60,318.58 1321.00,316.48 ZM 1365.51 242.99 C1366.43,241.50 1364.08,231.13 1361.78,226.50 C1358.99,220.90 1354.35,216.27 1348.50,213.22 C1344.16,210.96 1342.25,210.61 1334.00,210.59 C1326.14,210.56 1323.59,210.97 1319.23,212.91 C1311.56,216.33 1304.60,224.33 1302.02,232.66 C1300.91,236.26 1300.00,240.29 1300.00,241.61 L 1300.00 244.00 L 1332.44 244.00 C1353.30,244.00 1365.11,243.64 1365.51,242.99 ZM 1455.50 316.10 C1446.74,313.91 1437.87,309.42 1431.90,304.15 C1426.51,299.40 1420.27,288.22 1419.38,281.75 L 1418.77 277.31 L 1426.54 276.66 C1439.01,275.60 1438.31,275.37 1440.37,281.25 C1445.37,295.48 1462.62,302.69 1481.91,298.61 C1494.36,295.97 1499.76,290.42 1498.73,281.30 C1497.77,272.76 1492.24,269.71 1469.20,265.04 C1446.97,260.53 1437.96,257.02 1430.88,250.08 C1426.43,245.73 1424.83,243.31 1423.59,239.07 C1420.05,226.99 1422.49,214.27 1429.96,205.78 C1446.31,187.21 1487.58,187.47 1504.58,206.27 C1511.53,213.95 1518.08,229.39 1514.83,230.43 C1514.10,230.66 1509.83,231.14 1505.35,231.48 L 1497.20 232.12 L 1494.73 226.81 C1489.99,216.65 1482.08,211.31 1470.29,210.32 C1457.89,209.28 1446.99,213.25 1443.46,220.08 C1441.18,224.50 1441.35,233.64 1443.77,236.92 C1447.87,242.44 1454.23,244.62 1481.60,249.84 C1488.12,251.08 1494.68,253.16 1500.13,255.71 C1513.72,262.08 1518.60,269.68 1518.37,284.16 C1518.24,292.32 1515.48,298.57 1509.24,304.82 C1498.35,315.70 1474.18,320.78 1455.50,316.10 ZM 1593.00 316.51 C1583.83,314.43 1572.91,308.76 1566.98,302.98 C1561.54,297.68 1556.51,288.29 1555.44,281.41 L 1554.79 277.31 L 1562.55 276.66 C1574.92,275.61 1574.33,275.43 1576.23,280.77 C1581.17,294.69 1596.95,302.11 1615.25,299.10 C1628.94,296.86 1634.99,291.99 1635.00,283.20 C1635.00,276.61 1632.96,273.70 1626.19,270.66 C1620.53,268.13 1617.56,267.37 1598.05,263.49 C1577.91,259.50 1565.97,252.67 1560.83,242.23 C1558.89,238.28 1558.50,235.93 1558.50,228.00 C1558.50,219.61 1558.83,217.83 1561.31,212.78 C1567.61,199.96 1583.47,192.00 1602.73,192.00 C1624.60,192.00 1639.54,200.33 1648.01,217.26 C1652.08,225.39 1652.98,229.75 1650.75,230.46 C1650.06,230.67 1645.88,231.13 1641.45,231.48 L 1633.40 232.10 L 1629.94 225.30 C1627.30,220.10 1625.36,217.75 1621.73,215.32 C1615.75,211.31 1607.59,209.56 1598.73,210.39 C1585.18,211.65 1578.00,217.67 1578.00,227.78 C1578.00,240.24 1583.89,243.76 1613.50,248.98 C1628.86,251.69 1640.87,256.48 1646.70,262.20 C1652.30,267.69 1654.47,273.50 1654.47,283.01 C1654.47,289.20 1653.98,291.51 1651.68,296.23 C1647.33,305.10 1638.62,311.62 1626.00,315.44 C1618.23,317.79 1601.12,318.35 1593.00,316.51 ZM 2004.00 317.04 C1981.93,312.40 1967.48,299.62 1964.15,281.77 L 1963.30 277.22 L 1972.75 276.51 C1977.95,276.12 1982.53,276.18 1982.93,276.65 C1983.34,277.12 1984.44,279.60 1985.38,282.16 C1987.67,288.39 1994.98,295.15 2002.05,297.58 C2009.33,300.08 2023.41,300.07 2031.00,297.57 C2040.22,294.53 2044.99,288.07 2043.57,280.54 C2042.07,272.52 2036.26,269.45 2014.36,265.08 C1977.56,257.73 1966.90,249.36 1966.86,227.76 C1966.83,214.83 1972.90,204.67 1984.68,197.90 C1997.51,190.54 2022.41,190.10 2036.50,196.99 C2044.44,200.86 2048.99,204.77 2053.54,211.63 C2057.48,217.56 2061.61,228.85 2060.28,230.05 C2059.85,230.43 2055.45,231.04 2050.50,231.39 L 2041.50 232.02 L 2039.59 227.36 C2037.02,221.09 2032.72,216.41 2026.59,213.22 C2022.15,210.91 2020.29,210.57 2012.00,210.54 C2000.68,210.49 1994.57,212.45 1990.10,217.54 C1985.01,223.34 1984.76,232.18 1989.52,237.84 C1993.15,242.15 2000.78,244.94 2017.49,248.06 C2052.62,254.62 2063.02,262.67 2062.99,283.29 C2062.98,292.77 2060.21,298.78 2052.71,305.63 C2046.77,311.07 2037.83,315.04 2027.11,317.01 C2021.04,318.13 2009.26,318.14 2004.00,317.04 ZM 740.00 234.51 L 740.00 154.00 L 789.04 154.00 L 838.08 154.00 L 837.79 163.25 L 837.50 172.50 L 798.75 172.76 L 760.00 173.02 L 760.00 199.01 L 760.00 225.00 L 797.50 225.00 L 835.00 225.00 L 835.00 234.50 L 835.00 244.00 L 797.50 244.00 L 760.00 244.00 L 760.00 270.00 L 760.00 296.00 L 800.04 296.00 L 840.08 296.00 L 839.79 305.25 L 839.50 314.50 L 789.75 314.76 L 740.00 315.02 L 740.00 234.51 ZM 869.01 314.25 C869.01,313.84 872.28,308.93 876.26,303.34 C880.24,297.76 889.94,284.15 897.82,273.10 C906.63,260.74 911.84,252.56 911.38,251.81 C910.97,251.14 902.71,239.55 893.03,226.05 C883.35,212.55 874.40,200.04 873.14,198.25 L 870.86 195.00 L 881.91 195.00 L 892.95 195.00 L 897.72 201.84 C900.35,205.61 907.22,215.50 913.00,223.82 C918.78,232.15 923.81,238.86 924.19,238.73 C924.76,238.54 936.92,221.06 951.00,200.19 L 954.50 195.00 L 965.82 195.00 L 977.14 195.00 L 975.22 197.75 C974.17,199.26 965.67,211.30 956.34,224.50 C947.00,237.70 938.63,249.64 937.72,251.02 C936.07,253.54 936.14,253.64 957.46,283.48 C969.23,299.95 978.64,313.78 978.37,314.21 C978.10,314.64 973.45,315.00 968.03,315.00 L 958.17 315.00 L 955.27 311.25 C953.67,309.19 946.14,298.39 938.54,287.25 C930.93,276.11 924.44,267.00 924.10,267.00 C923.77,267.00 916.09,277.80 907.04,291.00 L 890.59 315.00 L 879.80 315.00 C873.86,315.00 869.00,314.66 869.01,314.25 ZM 1149.00 306.51 L 1149.00 298.00 L 1164.50 298.00 L 1180.00 298.00 L 1180.00 255.00 L 1180.00 212.00 L 1164.50 212.00 L 1149.00 212.00 L 1149.00 203.50 L 1149.00 195.00 L 1172.39 195.00 L 1195.78 195.00 L 1196.52 205.24 L 1197.25 215.47 L 1199.63 210.53 C1202.80,203.97 1206.44,200.25 1212.50,197.38 C1217.13,195.19 1218.73,195.02 1234.29,195.01 L 1251.08 195.00 L 1250.79 203.25 L 1250.50 211.50 L 1234.00 212.01 C1212.01,212.70 1207.00,214.93 1201.82,226.37 C1199.57,231.36 1199.49,232.44 1199.19,264.75 L 1198.88 298.00 L 1217.98 298.00 L 1237.08 298.00 L 1236.79 306.25 L 1236.50 314.50 L 1192.75 314.76 L 1149.00 315.02 L 1149.00 306.51 ZM 1727.00 301.00 L 1727.00 286.94 L 1740.75 287.22 L 1754.50 287.50 L 1754.50 301.00 L 1754.50 314.50 L 1740.75 314.78 L 1727.00 315.06 L 1727.00 301.00 ZM 279.31 302.49 C255.83,297.39 236.99,279.03 231.61,256.00 C228.81,244.04 227.00,233.34 227.00,228.73 C227.00,222.69 232.24,197.96 234.98,191.02 C241.89,173.58 257.46,159.10 275.42,153.42 C291.99,148.19 307.22,149.37 322.94,157.12 C345.13,168.06 357.96,191.54 357.99,221.25 L 358.00 229.00 L 298.85 229.00 L 239.70 229.00 L 240.31 238.75 C241.35,255.38 246.22,267.24 256.32,277.75 C267.11,288.99 277.80,293.50 293.50,293.43 C317.70,293.33 334.18,282.46 341.92,261.50 C345.44,251.96 346.33,251.00 351.65,251.00 L 356.26 251.00 L 355.59 255.14 C354.46,262.22 349.06,274.37 344.18,280.82 C330.36,299.08 304.04,307.87 279.31,302.49 ZM 346.00 214.16 C346.00,207.36 342.64,194.99 338.80,187.69 C334.53,179.55 324.11,169.10 316.87,165.70 C306.50,160.83 290.66,159.89 278.83,163.45 C257.86,169.76 243.09,188.98 240.58,213.25 L 239.98 219.00 L 292.99 219.00 L 346.00 219.00 L 346.00 214.16 ZM 364.52 300.04 C364.20,299.51 369.94,291.07 377.28,281.29 C417.16,228.17 420.30,223.72 419.21,221.97 C418.32,220.55 389.72,183.14 372.81,161.28 C370.17,157.86 368.00,154.82 368.00,154.53 C368.00,154.24 370.59,154.00 373.75,154.00 C381.86,154.01 384.56,156.04 394.68,169.73 C416.91,199.79 427.28,213.52 427.95,213.78 C428.36,213.94 437.72,202.01 448.75,187.28 C459.79,172.55 470.21,159.18 471.91,157.56 C474.45,155.15 476.06,154.55 481.00,154.19 C484.30,153.95 487.00,154.11 487.00,154.54 C487.00,155.40 474.74,171.86 451.80,201.83 C442.73,213.67 437.00,222.03 437.00,223.43 C437.00,224.85 447.30,239.41 464.55,262.37 C479.70,282.54 491.82,299.48 491.49,300.02 C491.15,300.56 489.06,301.00 486.83,301.00 C479.02,301.00 476.13,298.28 459.75,275.54 C435.30,241.60 428.88,233.00 428.02,233.00 C427.29,233.00 420.82,241.55 391.74,280.98 C379.97,296.94 379.41,297.58 375.68,299.35 C371.86,301.16 365.46,301.56 364.52,300.04 ZM 1889.00 165.04 L 1889.00 154.00 L 1899.03 154.00 L 1909.07 154.00 L 1908.78 164.75 L 1908.50 175.50 L 1898.75 175.79 L 1889.00 176.07 L 1889.00 165.04 ZM 2309.00 142.88 C2309.00,133.84 2305.95,116.81 2302.30,105.50 C2294.45,81.15 2281.46,60.38 2262.88,42.45 C2239.70,20.08 2215.42,8.01 2181.50,1.98 L 2171.50 0.21 L 2240.75 0.10 L 2310.00 0.00 L 2310.00 74.00 C2310.00,114.70 2309.77,148.00 2309.50,148.00 C2309.23,148.00 2309.00,145.70 2309.00,142.88 ZM 0.08 68.75 L 0.00 0.00 L 68.75 0.08 L 137.50 0.17 L 123.47 3.03 C92.69,9.29 68.79,21.63 47.24,42.39 C23.57,65.19 9.72,90.54 3.07,123.25 L 0.17 137.50 L 0.08 68.75 Z" fill="rgb(225,225,225)"/>
</g>
</svg>