<svg width="60" height="60" viewBox="0 0 60 60" fill="none" xmlns="http://www.w3.org/2000/svg">
<circle cx="30" cy="30" r="30" transform="matrix(-1 0 0 1 60 0)" fill="#27272A"/>
<circle cx="30" cy="30" r="29.25" transform="matrix(-1 0 0 1 60 0)" stroke="white" stroke-opacity="0.33" stroke-width="1.5"/>
<path d="M25.0242 20.3298C25.7755 20.5834 26.4901 20.9351 27.1492 21.3758C28.0807 21.1374 29.0387 21.0178 30.0002 21.0198C30.9932 21.0198 31.9512 21.1438 32.8492 21.3748C33.5081 20.9345 34.2223 20.5831 34.9732 20.3298C35.6702 20.0928 36.6632 19.7088 37.2532 20.3618C37.6532 20.8058 37.7532 21.5498 37.8242 22.1178C37.9042 22.7518 37.9232 23.5778 37.7132 24.3978C38.5162 25.4348 39.0002 26.6718 39.0002 28.0198C39.0002 30.0618 37.8942 31.8348 36.2572 33.0628C35.469 33.6458 34.5954 34.1032 33.6672 34.4188C33.8812 34.9088 34.0002 35.4508 34.0002 36.0198V39.0198C34.0002 39.2851 33.8949 39.5394 33.7073 39.7269C33.5198 39.9145 33.2654 40.0198 33.0002 40.0198H27.0002C26.735 40.0198 26.4807 39.9145 26.2931 39.7269C26.1056 39.5394 26.0002 39.2851 26.0002 39.0198V38.0288C25.0452 38.1458 24.2442 38.0418 23.5632 37.7528C22.8512 37.4508 22.3552 36.9828 21.9822 36.5348C21.6282 36.1108 21.2422 35.1548 20.6842 34.9688C20.5596 34.9273 20.4444 34.8617 20.3451 34.7757C20.2459 34.6896 20.1645 34.5849 20.1057 34.4674C19.987 34.2302 19.9674 33.9555 20.0512 33.7038C20.135 33.4521 20.3154 33.2441 20.5526 33.1253C20.7899 33.0066 21.0645 32.987 21.3162 33.0708C21.9822 33.2928 22.4162 33.7728 22.7132 34.1588C23.1932 34.7788 23.5832 35.5888 24.3432 35.9118C24.6562 36.0448 25.1152 36.1318 25.8332 36.0338L26.0002 35.9998C26.0025 35.4557 26.1158 34.9177 26.3332 34.4188C25.4051 34.1032 24.5314 33.6458 23.7432 33.0628C22.1062 31.8348 21.0002 30.0628 21.0002 28.0198C21.0002 26.6738 21.4832 25.4378 22.2842 24.4018C22.0742 23.5818 22.0922 22.7538 22.1722 22.1188L22.1772 22.0808C22.2502 21.4988 22.3352 20.8138 22.7432 20.3618C23.3332 19.7088 24.3272 20.0938 25.0232 20.3308L25.0242 20.3298Z" fill="white"/>
</svg>
