<svg width="220" height="60" viewBox="0 0 220 60" fill="none" xmlns="http://www.w3.org/2000/svg">
<g filter="url(#filter0_ii_2537_3686)">
<rect width="220" height="60" rx="19.1646" fill="#171717"/>
<g clip-path="url(#clip0_2537_3686)">
<path d="M46.7114 10H49.2811C49.4007 10.1049 50.0621 10.1062 50.2559 10.1226C51.2341 10.2058 52.2021 10.3827 53.1465 10.6509C61.1036 12.8339 66.834 19.3477 67.8875 27.5368C67.9223 27.8096 67.9324 28.5485 68 28.7271V31.3601C67.8461 32.5025 67.8043 33.2436 67.5348 34.4227C66.4887 39.0562 63.8312 43.1677 60.0359 46.0243C57.4419 48.0023 54.0653 49.3762 50.832 49.827C50.6019 49.859 50.1012 49.8953 49.9062 50H45.9343C45.7723 49.8937 45.4396 49.8602 45.2398 49.834C43.616 49.6215 42.1014 49.2023 40.5759 48.597C34.845 46.3147 30.4906 41.5118 28.7793 35.5852C28.501 34.6173 28.2933 33.6661 28.1477 32.6698C28.1021 32.3575 28.1116 31.5048 28 31.2841V28.7186C28.0781 28.6166 28.0915 27.831 28.1136 27.6451C29.0672 19.6198 34.6857 12.9933 42.487 10.7499C43.2532 10.5231 44.0346 10.3511 44.8251 10.2351C45.0879 10.1951 46.6123 10.0622 46.6948 10.0114C46.7005 10.0079 46.7059 10.0038 46.7114 10Z" fill="#0038FF"/>
<path d="M47.3575 11.5804C47.4865 11.5652 47.7484 11.5639 47.8814 11.5625C52.8038 11.5555 57.5329 13.4785 61.0536 16.9186C64.0876 19.9171 66.0209 23.8519 66.5403 28.0858C66.6325 28.8738 66.6376 29.9035 66.6445 30.696C65.7723 30.9361 65.1463 31.4915 64.1989 31.6943C61.8669 32.1935 61.098 30.5799 58.8485 30.5656C56.683 30.5519 55.8684 32.0861 53.6241 31.7378C52.5212 31.5666 51.8531 30.8579 50.6788 30.6615C49.3323 30.4362 48.1218 30.6969 46.9954 31.4525C46.8497 31.1931 46.3289 30.4927 46.1347 30.2146C46.5407 29.749 46.8341 29.3989 47.0552 28.8115C47.3522 28.0037 47.3179 27.1112 46.9597 26.3285C46.5377 25.398 45.8372 24.8933 44.9101 24.5409C44.19 24.3319 43.16 24.4183 42.4742 24.7592C41.683 25.1599 41.0818 25.8564 40.801 26.6976C40.4475 27.7627 40.6059 28.4917 41.1015 29.4772C42.0804 29.7367 42.7461 30.13 43.6691 30.5117C43.9605 30.6322 44.4673 30.6381 44.8064 30.7472C44.9534 30.9196 45.2384 31.5373 45.3242 31.7575C44.9373 31.7459 44.4624 31.7196 44.1002 31.5914C42.9537 31.1855 42.2532 30.5732 40.9612 30.5024C40.3158 30.4665 39.338 30.6773 38.7729 30.9826C37.6724 31.5773 36.9581 31.8859 35.6682 31.7285C34.5113 31.5873 33.7628 30.8321 32.6191 30.6088C31.4526 30.3811 30.2603 30.6231 29.2596 31.2753C29.241 31.1252 29.2261 30.9747 29.2149 30.8238C29.1668 30.0775 29.2385 29.3198 29.3056 28.5773C29.658 24.5786 31.2988 20.8023 33.9813 17.8161C36.8092 14.6572 40.62 12.5446 44.7973 11.82C45.6338 11.6769 46.5114 11.6322 47.3575 11.5804Z" fill="#FEFEFE"/>
<path d="M57.7247 24.4968C58.5156 24.4849 59.6297 24.412 60.3854 24.5627C63.0859 25.1009 63.8614 28.7867 61.4839 30.2927C60.7249 29.9992 60.6325 29.8342 59.7011 29.6043C60.3152 29.3997 60.6155 29.2951 61.0695 28.8148C62.0052 27.6591 61.2459 25.7003 59.692 25.6936C59.3741 25.6923 59.0561 25.698 58.7382 25.7025L58.7363 29.4949C58.3958 29.479 57.7404 29.5362 57.374 29.5589C57.3398 28.638 57.3843 27.6003 57.3655 26.667C57.3574 26.2675 57.3473 24.9563 57.4082 24.6538C57.4753 24.5537 57.6006 24.5356 57.7247 24.4968Z" fill="#0038FF"/>
<path d="M33.8737 24.4971C34.1459 24.4883 34.963 24.4276 35.155 24.5685C35.2834 24.9664 35.2253 28.5584 35.2228 29.2505C35.5558 29.2492 37.3043 29.1857 37.6686 29.334C37.759 29.3708 37.7547 30.1491 37.7332 30.3531C37.624 30.4797 37.6049 30.4558 37.4255 30.5213C36.0721 30.9244 35.0946 30.6851 33.8438 30.0247C33.7776 29.1115 33.8442 27.8661 33.8205 26.9286C33.8091 26.4815 33.7986 24.8726 33.8737 24.4971Z" fill="#0038FF"/>
<path d="M54.6258 24.4933L55.9918 24.4922C56.1388 25.3216 56.0137 29.153 56.0302 30.2404C56.0309 30.2849 55.8297 30.3729 55.7634 30.4073C55.3687 30.5518 55.0188 30.6279 54.6053 30.6869L54.6055 26.8227C54.6058 26.0757 54.588 25.228 54.6258 24.4933Z" fill="#0038FF"/>
<path d="M51.9793 24.4995C52.3967 24.4967 52.814 24.4891 53.2312 24.4766L53.2362 27.4159C53.2379 28.6552 53.43 29.4175 52.5427 30.4179L52.2864 30.2766C51.7869 30.0356 51.3077 29.8301 50.7969 29.613C52.0586 29.4191 51.8789 28.4477 51.9095 27.5052C51.9275 26.9475 51.8012 24.889 51.9793 24.4995Z" fill="#0038FF"/>
<path d="M38.6529 24.4892C38.9752 24.4814 39.7472 24.386 39.7808 24.8711C39.8142 25.3525 39.7994 25.856 39.7991 26.3407C39.7931 27.3977 39.7959 28.4546 39.8076 29.5115C39.6015 29.5355 39.4382 29.5818 39.2392 29.6336C38.9499 29.7331 38.6617 29.8357 38.3747 29.9416C38.342 28.4131 38.3199 26.2647 38.3898 24.7583L38.6529 24.4892Z" fill="#0038FF"/>
<path d="M48.1061 24.5004C48.5282 24.4922 48.9504 24.4901 49.3726 24.4943C49.507 25.7583 49.2592 27.6557 49.4802 28.9304C49.5015 29.0538 49.8086 29.2861 49.9048 29.4597C49.8157 29.5241 49.7247 29.4943 49.5902 29.4896C49.1991 29.4845 48.5837 29.5669 48.1823 29.6123C48.1023 29.1564 47.9331 28.3488 47.9727 27.9146C48.0257 27.3339 47.8178 24.7957 48.1061 24.5004Z" fill="#0038FF"/>
<path d="M30.8144 32.7482C32.5563 32.5883 32.7446 32.8552 34.1895 33.5298C35.3497 34.0695 36.6865 34.0813 37.856 33.5623C39.1748 32.985 39.5223 32.6003 41.0714 32.7338C42.0153 32.8152 42.4219 33.1563 43.233 33.5351C44.3791 34.0648 45.6968 34.0805 46.8551 33.5781C47.9517 33.1105 48.1711 32.7588 49.4448 32.732C50.8024 32.7034 51.0389 32.9644 52.2263 33.513C53.3768 34.045 54.6978 34.0686 55.8665 33.578C56.3393 33.3813 56.7944 33.107 57.2842 32.9287C57.9357 32.6914 58.9188 32.6695 59.5935 32.807C60.0873 32.9077 60.768 33.2652 61.245 33.4977C62.7248 34.2192 64.2756 33.9969 65.68 33.2065C65.9447 33.0576 66.271 32.9321 66.5433 32.8309C66.4015 33.3267 66.3088 33.9759 66.2318 34.4876C65.9102 34.5952 65.771 34.6503 65.4706 34.8057C64.1252 35.5205 62.9307 35.7286 61.4719 35.1109C60.8851 34.8624 60.3713 34.5216 59.7241 34.3803C59.2912 34.2859 58.5008 34.2495 58.0691 34.2966C56.4204 34.4765 55.6581 35.6227 53.7932 35.4663C52.4191 35.351 51.9105 34.6728 50.651 34.3661C50.2522 34.269 49.7264 34.2841 49.311 34.2881C47.4688 34.3058 46.8859 35.595 44.8751 35.4759C43.6313 35.4919 42.7631 34.6359 41.6293 34.3496C41.1256 34.2225 39.9338 34.2911 39.4046 34.3775C39.1434 34.4202 38.5646 34.6985 38.3354 34.8294C37.5463 35.2799 36.7308 35.5249 35.8155 35.474C34.5428 35.4392 33.8916 34.7402 32.7597 34.3989C32.217 34.2352 30.9647 34.251 30.3871 34.3747C30.1869 34.4176 29.9442 34.5531 29.7599 34.6571L29.4023 33.2502C29.7835 33.0546 30.3926 32.8214 30.8144 32.7482Z" fill="#FEFEFE"/>
<path d="M30.7528 36.7763C31.3064 36.7054 32.4186 36.7086 32.9025 36.9096C34.1239 37.4937 34.5542 37.8126 35.9181 37.9104C37.8159 38.0464 38.4917 36.8315 40.2385 36.7397C40.6595 36.7176 41.4035 36.7289 41.7992 36.8711C43.0268 37.3889 43.4939 37.8092 44.8457 37.9113C46.7042 38.0517 47.3807 37.0015 49.1081 36.7533C51.086 36.469 51.8532 37.7022 53.6562 37.8887C54.5862 37.985 55.5343 37.8002 56.3549 37.3422C57.3698 36.762 58.2207 36.6681 59.3819 36.7816C60.4085 36.8819 61.1741 37.6598 62.1825 37.822C63.2662 37.9963 64.3791 37.96 65.3182 37.331C65.0954 37.742 64.8351 38.3638 64.6151 38.8134C64.5376 38.9853 64.3957 39.1954 64.2927 39.3589C63.0446 39.5214 62.0453 39.5131 60.9419 38.8664C60.1543 38.4048 59.511 38.3494 58.6264 38.2863C56.9161 38.1644 55.8604 39.5136 54.1984 39.4562C52.758 39.4563 52.4589 39.0687 51.1813 38.5433C50.7171 38.3524 50.1836 38.3262 49.7023 38.2871C47.8252 38.1346 46.9884 39.4836 45.2451 39.4561C44.7759 39.4486 44.1996 39.4505 43.7604 39.2777C42.7361 38.8746 42.1952 38.3746 41.0419 38.2991C40.366 38.2548 39.5293 38.288 38.8998 38.5673C37.6908 39.1038 37.5152 39.4195 36.1591 39.4573C34.4888 39.5038 34.3119 38.9351 32.8545 38.4391C32.4459 38.3001 31.4958 38.2872 31.0122 38.2526C30.7955 37.9082 30.5809 37.245 30.3477 36.8014C30.4912 36.7978 30.6098 36.7897 30.7528 36.7763Z" fill="#FEFEFE"/>
<path d="M40.2151 40.7191C41.5315 40.4754 42.7267 41.4269 43.8759 41.7957C44.3043 41.9332 44.8873 41.9102 45.338 41.9175C46.9788 41.944 47.7304 40.7935 49.4189 40.7093C51.1919 40.6208 51.9813 41.7481 53.6111 41.8975C54.2459 41.9558 55.1107 41.9079 55.6961 41.663C56.7461 41.2239 57.527 40.6722 58.7362 40.7061C60.2708 40.7491 61.0827 41.6997 62.6202 41.9204C62.3541 42.1856 61.7934 42.8872 61.5264 43.1995C59.9174 42.282 58.5339 41.8862 56.7789 42.6872C55.9286 43.0753 55.4554 43.354 54.5138 43.5072C52.3999 43.6063 51.6162 42.3153 49.6155 42.2487C47.8919 42.1913 46.7501 43.5986 44.9817 43.5288C43.1045 43.4547 41.9836 41.9145 40.034 42.2824C38.1884 42.566 37.3122 43.8775 35.3011 43.4679C35.0105 43.4087 34.5654 43.2808 34.3371 43.0978C33.6916 42.5804 32.9102 41.4725 32.4453 40.7876C34 41.2205 34.311 41.9432 36.1279 41.9252C37.9286 41.9074 38.5564 40.9344 40.2151 40.7191Z" fill="#FEFEFE"/>
<path d="M39.8102 44.7719C40.1378 44.7653 41.1709 44.73 41.436 44.8005C42.9462 45.2017 43.3505 45.9539 45.0719 45.9727C46.8912 45.9926 47.4263 45.0095 49.0238 44.7734C49.3446 44.726 50.3259 44.7498 50.6475 44.8525C51.9421 45.2657 52.6277 45.9546 54.1033 45.9679C55.6489 45.9818 56.3482 45.2079 57.7155 44.8355C58.1831 44.7082 59.2021 44.7598 59.71 44.8148C59.2379 45.293 57.8992 46.1889 57.2886 46.4651C56.6248 46.7218 56.0118 47.1228 55.3257 47.3128C54.2584 47.6085 53.2628 47.5409 52.2637 47.0547C51.7868 46.8226 51.3218 46.5696 50.8064 46.4316C50.2598 46.2852 49.65 46.2887 49.0876 46.3237C47.4258 46.4273 46.7282 47.6473 44.7358 47.4905C43.439 47.3885 42.7581 46.6206 41.6169 46.3817C40.8405 46.2192 39.4848 46.229 38.8123 46.6684C38.4023 46.3819 37.8377 46.0549 37.3945 45.7609C38.0855 45.6094 38.7773 45.0097 39.8102 44.7719Z" fill="#FEFEFE"/>
<path d="M43.6475 25.8565C44.666 25.679 45.638 26.3527 45.8293 27.3686C46.0207 28.3845 45.3603 29.3656 44.3471 29.5707C43.6793 29.706 42.9904 29.4713 42.5441 28.9565C42.0977 28.4417 41.963 27.7265 42.1915 27.0846C42.42 26.4427 42.9763 25.9734 43.6475 25.8565Z" fill="#FEFEFE"/>
</g>
<path d="M90.8747 39.5V19.0897H93.3469V38.3501L92.1108 37.0853H103.523V39.5H90.8747ZM113.66 39.5V24.2642H116.074V39.5H113.66ZM107.537 39.5V37.3727H121.335V39.5H107.537ZM107.824 26.3914V24.2642H116.074V26.3914H107.824ZM113.43 21.8782V19.061H115.959V21.8782H113.43ZM137.422 43.812H135.007V36.2229L135.352 36.6253C135.18 37.2769 134.854 37.8423 134.375 38.3214C133.915 38.8005 133.34 39.1742 132.65 39.4425C131.979 39.7108 131.251 39.845 130.465 39.845C128.951 39.845 127.706 39.4713 126.728 38.7238C125.77 37.9764 125.061 36.999 124.601 35.7917C124.141 34.5843 123.911 33.2811 123.911 31.8821C123.911 30.4831 124.141 29.1799 124.601 27.9725C125.061 26.7652 125.77 25.7878 126.728 25.0403C127.706 24.2929 128.951 23.9192 130.465 23.9192C131.654 23.9192 132.688 24.2258 133.57 24.8391C134.471 25.4524 135.103 26.3531 135.467 27.5413L135.122 27.7138L135.18 24.2642H137.422V43.812ZM130.695 37.5452C131.596 37.5452 132.363 37.3344 132.995 36.9128C133.647 36.4912 134.145 35.8587 134.49 35.0155C134.835 34.1723 135.007 33.1278 135.007 31.8821C135.007 30.6364 134.825 29.5919 134.461 28.7487C134.116 27.9054 133.618 27.273 132.966 26.8514C132.334 26.4298 131.577 26.219 130.695 26.219C129.373 26.219 128.329 26.7172 127.562 27.7138C126.815 28.7104 126.441 30.0998 126.441 31.8821C126.441 33.6644 126.815 35.0538 127.562 36.0504C128.329 37.0469 129.373 37.5452 130.695 37.5452ZM147.271 39.845C145.757 39.845 144.55 39.3371 143.649 38.3214C142.748 37.2865 142.298 35.8683 142.298 34.0668V24.2642H144.713V33.4057C144.713 34.8813 144.971 35.9737 145.489 36.6828C146.025 37.3727 146.84 37.7177 147.932 37.7177C149.12 37.7177 150.059 37.3344 150.749 36.5678C151.439 35.7821 151.784 34.7089 151.784 33.3482V24.2642H154.199V39.5H151.899V35.7342L152.273 35.9354C151.966 37.1811 151.382 38.1489 150.519 38.8388C149.657 39.5096 148.574 39.845 147.271 39.845ZM165.37 39.5V24.2642H167.785V39.5H165.37ZM159.247 39.5V37.3727H173.046V39.5H159.247ZM159.535 26.3914V24.2642H167.785V26.3914H159.535ZM165.14 21.8782V19.061H167.67V21.8782H165.14ZM181.86 39.845C180.518 39.845 179.359 39.5192 178.381 38.8676C177.404 38.216 176.647 37.2961 176.11 36.1079C175.593 34.9197 175.334 33.5111 175.334 31.8821C175.334 30.2531 175.593 28.8445 176.11 27.6563C176.647 26.4681 177.404 25.5482 178.381 24.8966C179.359 24.245 180.518 23.9192 181.86 23.9192C182.933 23.9192 183.872 24.1779 184.677 24.6954C185.482 25.1937 186.066 25.759 186.431 26.3914V19.0897H188.845V39.5H186.66L186.574 37.2003C186.153 38.0243 185.53 38.6759 184.706 39.155C183.882 39.615 182.933 39.845 181.86 39.845ZM182.003 37.5452C182.923 37.5452 183.709 37.3152 184.361 36.8553C185.031 36.3953 185.539 35.7437 185.884 34.9005C186.248 34.0381 186.431 33.032 186.431 31.8821C186.431 30.6939 186.248 29.6782 185.884 28.8349C185.539 27.9917 185.031 27.3497 184.361 26.9089C183.69 26.4489 182.885 26.219 181.946 26.219C180.7 26.219 179.704 26.7268 178.956 27.7425C178.228 28.7391 177.864 30.1189 177.864 31.8821C177.864 33.6261 178.228 35.0059 178.956 36.0216C179.704 37.0374 180.719 37.5452 182.003 37.5452Z" fill="#D4D4D4"/>
</g>
<defs>
<filter id="filter0_ii_2537_3686" x="0" y="0" width="220" height="60" filterUnits="userSpaceOnUse" color-interpolation-filters="sRGB">
<feFlood flood-opacity="0" result="BackgroundImageFix"/>
<feBlend mode="normal" in="SourceGraphic" in2="BackgroundImageFix" result="shape"/>
<feColorMatrix in="SourceAlpha" type="matrix" values="0 0 0 0 0 0 0 0 0 0 0 0 0 0 0 0 0 0 127 0" result="hardAlpha"/>
<feMorphology radius="2.39557" operator="erode" in="SourceAlpha" result="effect1_innerShadow_2537_3686"/>
<feOffset/>
<feComposite in2="hardAlpha" operator="arithmetic" k2="-1" k3="1"/>
<feColorMatrix type="matrix" values="0 0 0 0 1 0 0 0 0 1 0 0 0 0 1 0 0 0 0.06 0"/>
<feBlend mode="normal" in2="shape" result="effect1_innerShadow_2537_3686"/>
<feColorMatrix in="SourceAlpha" type="matrix" values="0 0 0 0 0 0 0 0 0 0 0 0 0 0 0 0 0 0 127 0" result="hardAlpha"/>
<feOffset dy="2.39557"/>
<feComposite in2="hardAlpha" operator="arithmetic" k2="-1" k3="1"/>
<feColorMatrix type="matrix" values="0 0 0 0 1 0 0 0 0 1 0 0 0 0 1 0 0 0 0.1 0"/>
<feBlend mode="normal" in2="effect1_innerShadow_2537_3686" result="effect2_innerShadow_2537_3686"/>
</filter>
<clipPath id="clip0_2537_3686">
<rect width="40" height="40" fill="white" transform="translate(28 10)"/>
</clipPath>
</defs>
</svg>
