<svg width="362" height="58" viewBox="0 0 362 58" fill="none" xmlns="http://www.w3.org/2000/svg">
<g opacity="0.22">
<path d="M16.652 19.548C16.652 18.8825 16.5209 18.2234 16.2662 17.6086C16.0115 16.9937 15.6382 16.435 15.1676 15.9644C14.697 15.4938 14.1383 15.1205 13.5234 14.8658C12.9086 14.6111 12.2495 14.48 11.584 14.48C10.9185 14.48 10.2594 14.6111 9.64455 14.8658C9.02967 15.1205 8.47098 15.4938 8.00037 15.9644C7.52977 16.435 7.15646 16.9937 6.90177 17.6086C6.64708 18.2234 6.51599 18.8825 6.51599 19.548C6.51599 20.5522 6.81211 21.4862 7.31601 22.2739H7.31022L11.584 28.96L15.8578 22.2739H15.8527C16.3746 21.4605 16.6521 20.5144 16.652 19.548ZM11.584 21.72C11.0079 21.72 10.4555 21.4912 10.0482 21.0838C9.64083 20.6765 9.41199 20.1241 9.41199 19.548C9.41199 18.972 9.64083 18.4195 10.0482 18.0122C10.4555 17.6048 11.0079 17.376 11.584 17.376C12.16 17.376 12.7125 17.6048 13.1198 18.0122C13.5272 18.4195 13.756 18.972 13.756 19.548C13.756 20.1241 13.5272 20.6765 13.1198 21.0838C12.7125 21.4912 12.16 21.72 11.584 21.72Z" fill="url(#paint0_linear_1_1635)"/>
<path d="M4.38914 43.3232C4.69033 43.3232 4.95869 43.273 5.19423 43.1726C5.43363 43.0722 5.63442 42.9312 5.7966 42.7497C5.95878 42.5683 6.08234 42.3482 6.16729 42.0895C6.2561 41.8307 6.3005 41.5411 6.3005 41.2207V36.2048H7.85855V41.2207C7.85855 41.7188 7.77746 42.1802 7.61529 42.6049C7.45697 43.0258 7.22722 43.3907 6.92604 43.6996C6.62872 44.0047 6.26575 44.2441 5.83714 44.4178C5.40854 44.5877 4.92587 44.6727 4.38914 44.6727C3.84856 44.6727 3.36396 44.5877 2.93535 44.4178C2.50674 44.2441 2.14185 44.0047 1.84066 43.6996C1.54334 43.3907 1.31359 43.0258 1.15142 42.6049C0.993101 42.1802 0.913944 41.7188 0.913944 41.2207V36.2048H2.47199V41.2149C2.47199 41.5354 2.51447 41.825 2.59942 42.0837C2.68823 42.3424 2.81372 42.5644 2.9759 42.7497C3.14193 42.9312 3.34272 43.0722 3.57826 43.1726C3.81767 43.273 4.08796 43.3232 4.38914 43.3232ZM14.0755 37.7281C14.0292 37.8092 13.979 37.869 13.9249 37.9076C13.8748 37.9424 13.811 37.9598 13.7338 37.9598C13.6527 37.9598 13.5639 37.9308 13.4674 37.8729C13.3747 37.8111 13.2627 37.7435 13.1314 37.6702C13.0002 37.5968 12.8457 37.5312 12.6681 37.4732C12.4943 37.4115 12.2877 37.3806 12.0483 37.3806C11.8321 37.3806 11.6429 37.4076 11.4807 37.4616C11.3185 37.5118 11.1815 37.5833 11.0695 37.676C10.9614 37.7686 10.8803 37.8806 10.8262 38.0119C10.7722 38.1393 10.7451 38.2803 10.7451 38.4347C10.7451 38.6316 10.7992 38.7957 10.9073 38.927C11.0193 39.0583 11.166 39.1703 11.3475 39.263C11.529 39.3556 11.7356 39.4387 11.9673 39.512C12.1989 39.5854 12.4364 39.6645 12.6797 39.7495C12.9229 39.8306 13.1604 39.9271 13.3921 40.0391C13.6238 40.1472 13.8303 40.2862 14.0118 40.4561C14.1933 40.6222 14.3381 40.8268 14.4462 41.0701C14.5582 41.3133 14.6142 41.6087 14.6142 41.9562C14.6142 42.3347 14.5486 42.6899 14.4173 43.022C14.2898 43.3502 14.1006 43.6379 13.8497 43.885C13.6025 44.1282 13.2994 44.3213 12.9403 44.4642C12.5812 44.6032 12.17 44.6727 11.7066 44.6727C11.4402 44.6727 11.1776 44.6457 10.9189 44.5916C10.6602 44.5414 10.4111 44.468 10.1717 44.3715C9.93619 44.275 9.71416 44.1591 9.50565 44.024C9.29714 43.8888 9.1118 43.7382 8.94962 43.5722L9.40719 42.825C9.4458 42.771 9.496 42.7266 9.55778 42.6918C9.61956 42.6532 9.6852 42.6339 9.75471 42.6339C9.85124 42.6339 9.9555 42.6744 10.0675 42.7555C10.1795 42.8328 10.3127 42.9196 10.4671 43.0162C10.6216 43.1127 10.8011 43.2015 11.0058 43.2826C11.2143 43.3598 11.4633 43.3984 11.7529 43.3984C12.197 43.3984 12.5407 43.2942 12.7839 43.0857C13.0272 42.8733 13.1488 42.5702 13.1488 42.1763C13.1488 41.9562 13.0928 41.7767 12.9809 41.6377C12.8727 41.4987 12.7279 41.3828 12.5465 41.2902C12.365 41.1936 12.1584 41.1125 11.9267 41.0469C11.695 40.9813 11.4595 40.9098 11.2201 40.8326C10.9807 40.7554 10.7451 40.6627 10.5135 40.5546C10.2818 40.4465 10.0752 40.3055 9.89372 40.1318C9.71223 39.958 9.5655 39.7418 9.45352 39.4831C9.34541 39.2205 9.29135 38.8981 9.29135 38.5158C9.29135 38.2107 9.3512 37.9134 9.4709 37.6238C9.59446 37.3342 9.77208 37.0774 10.0038 36.8535C10.2354 36.6295 10.5212 36.45 10.861 36.3148C11.2008 36.1797 11.5908 36.1121 12.031 36.1121C12.5252 36.1121 12.9809 36.1893 13.3979 36.3438C13.8149 36.4982 14.1701 36.7145 14.4636 36.9925L14.0755 37.7281ZM20.2287 41.4176L19.2093 38.6316C19.1591 38.5081 19.107 38.3613 19.0529 38.1914C18.9989 38.0215 18.9448 37.8381 18.8908 37.6412C18.8406 37.8381 18.7884 38.0235 18.7344 38.1972C18.6803 38.3671 18.6282 38.5158 18.578 38.6432L17.5644 41.4176H20.2287ZM22.9799 44.58H21.7752C21.64 44.58 21.53 44.5472 21.445 44.4816C21.3601 44.412 21.2964 44.3271 21.2539 44.2267L20.6284 42.5181H17.159L16.5334 44.2267C16.5025 44.3155 16.4427 44.3966 16.3539 44.47C16.2651 44.5433 16.155 44.58 16.0237 44.58H14.8074L18.1031 36.2048H19.6901L22.9799 44.58Z" fill="white"/>
<path d="M103.532 5.068C103.532 4.40246 103.401 3.74344 103.146 3.12856C102.892 2.51368 102.518 1.95499 102.048 1.48438C101.577 1.01378 101.018 0.640469 100.403 0.385778C99.7886 0.131088 99.1295 0 98.464 0C97.7985 0 97.1394 0.131088 96.5246 0.385778C95.9097 0.640469 95.351 1.01378 94.8804 1.48438C94.4098 1.95499 94.0365 2.51368 93.7818 3.12856C93.5271 3.74344 93.396 4.40246 93.396 5.068C93.396 6.07219 93.6921 7.00615 94.196 7.79386H94.1902L98.464 14.48L102.738 7.79386H102.733C103.255 6.98052 103.532 6.03441 103.532 5.068ZM98.464 7.24C97.8879 7.24 97.3355 7.01117 96.9282 6.60384C96.5208 6.19651 96.292 5.64405 96.292 5.068C96.292 4.49195 96.5208 3.93949 96.9282 3.53216C97.3355 3.12484 97.8879 2.896 98.464 2.896C99.04 2.896 99.5925 3.12484 99.9998 3.53216C100.407 3.93949 100.636 4.49195 100.636 5.068C100.636 5.64405 100.407 6.19651 99.9998 6.60384C99.5925 7.01117 99.04 7.24 98.464 7.24Z" fill="url(#paint1_linear_1_1635)"/>
<path d="M79.8989 28.1249C79.9839 28.1249 80.0591 28.1578 80.1248 28.2234L80.7387 28.8895C80.3989 29.3104 79.98 29.6328 79.4819 29.8567C78.9876 30.0807 78.393 30.1927 77.6979 30.1927C77.0763 30.1927 76.5164 30.0865 76.0183 29.8741C75.524 29.6617 75.1012 29.3664 74.7498 28.9879C74.3984 28.6095 74.1281 28.1578 73.9389 27.6326C73.7536 27.1075 73.6609 26.5341 73.6609 25.9124C73.6609 25.283 73.7613 24.7077 73.9621 24.1864C74.1629 23.6612 74.4448 23.2095 74.8077 22.831C75.1746 22.4526 75.6109 22.1592 76.1167 21.9507C76.6226 21.7383 77.1825 21.6321 77.7964 21.6321C78.4065 21.6321 78.9471 21.7325 79.4182 21.9333C79.8931 22.1341 80.2966 22.3966 80.6287 22.721L80.1074 23.445C80.0765 23.4913 80.036 23.5319 79.9858 23.5666C79.9394 23.6014 79.8738 23.6188 79.7889 23.6188C79.7309 23.6188 79.6711 23.6033 79.6093 23.5724C79.5475 23.5377 79.4799 23.4971 79.4066 23.4508C79.3332 23.4006 79.2483 23.3465 79.1517 23.2886C79.0552 23.2307 78.9432 23.1786 78.8158 23.1322C78.6884 23.082 78.5397 23.0415 78.3698 23.0106C78.2038 22.9758 78.0107 22.9585 77.7906 22.9585C77.4161 22.9585 77.0724 23.026 76.7596 23.1612C76.4507 23.2925 76.1843 23.4855 75.9603 23.7404C75.7364 23.9914 75.5626 24.3003 75.4391 24.6671C75.3155 25.0301 75.2537 25.4452 75.2537 25.9124C75.2537 26.3835 75.3194 26.8024 75.4506 27.1693C75.5858 27.5361 75.7673 27.845 75.9951 28.096C76.2229 28.347 76.4913 28.54 76.8002 28.6752C77.1091 28.8065 77.4412 28.8721 77.7964 28.8721C78.0088 28.8721 78.1999 28.8605 78.3698 28.8374C78.5436 28.8142 78.7019 28.7775 78.8448 28.7273C78.9915 28.6771 79.1286 28.6134 79.256 28.5362C79.3873 28.4551 79.5166 28.3566 79.6441 28.2408C79.6827 28.206 79.7232 28.179 79.7657 28.1597C79.8082 28.1365 79.8526 28.1249 79.8989 28.1249ZM86.2311 26.9376L85.2117 24.1516C85.1615 24.0281 85.1094 23.8813 85.0553 23.7114C85.0013 23.5415 84.9472 23.3581 84.8931 23.1612C84.8429 23.3581 84.7908 23.5435 84.7368 23.7172C84.6827 23.8871 84.6306 24.0358 84.5804 24.1632L83.5668 26.9376H86.2311ZM88.9823 30.1H87.7776C87.6424 30.1 87.5324 30.0672 87.4474 30.0015C87.3625 29.932 87.2988 29.8471 87.2563 29.7467L86.6307 28.0381H83.1613L82.5358 29.7467C82.5049 29.8355 82.4451 29.9166 82.3562 29.99C82.2674 30.0633 82.1574 30.1 82.0261 30.1H80.8098L84.1054 21.7248H85.6924L88.9823 30.1ZM96.9096 21.7248V30.1H96.1103C95.9868 30.1 95.8825 30.0807 95.7976 30.0421C95.7165 29.9996 95.6373 29.9301 95.5601 29.8336L91.1871 24.2501C91.2103 24.5049 91.2219 24.7405 91.2219 24.9567V30.1H89.8492V21.7248H90.6659C90.7315 21.7248 90.7875 21.7286 90.8338 21.7364C90.884 21.7402 90.9265 21.7518 90.9613 21.7711C90.9999 21.7866 91.0366 21.8117 91.0713 21.8464C91.1061 21.8773 91.1447 21.9198 91.1871 21.9738L95.5775 27.5805C95.5659 27.4453 95.5562 27.3121 95.5485 27.1808C95.5408 27.0496 95.5369 26.9279 95.5369 26.8159V21.7248H96.9096ZM103.2 26.9376L102.18 24.1516C102.13 24.0281 102.078 23.8813 102.024 23.7114C101.97 23.5415 101.916 23.3581 101.862 23.1612C101.812 23.3581 101.76 23.5435 101.706 23.7172C101.651 23.8871 101.599 24.0358 101.549 24.1632L100.536 26.9376H103.2ZM105.951 30.1H104.746C104.611 30.1 104.501 30.0672 104.416 30.0015C104.331 29.932 104.268 29.8471 104.225 29.7467L103.599 28.0381H100.13L99.5045 29.7467C99.4737 29.8355 99.4138 29.9166 99.325 29.99C99.2362 30.0633 99.1261 30.1 98.9949 30.1H97.7785L101.074 21.7248H102.661L105.951 30.1ZM114.255 25.9124C114.255 26.5263 114.153 27.0901 113.948 27.6037C113.743 28.1172 113.456 28.5593 113.085 28.93C112.714 29.3007 112.268 29.5884 111.747 29.793C111.226 29.9977 110.646 30.1 110.009 30.1H106.818V21.7248H110.009C110.646 21.7248 111.226 21.829 111.747 22.0375C112.268 22.2422 112.714 22.5299 113.085 22.9006C113.456 23.2674 113.743 23.7076 113.948 24.2211C114.153 24.7347 114.255 25.2984 114.255 25.9124ZM112.656 25.9124C112.656 25.4529 112.594 25.0417 112.471 24.6787C112.351 24.3119 112.176 24.003 111.944 23.752C111.716 23.4971 111.438 23.3021 111.11 23.167C110.785 23.0318 110.419 22.9643 110.009 22.9643H108.382V28.8605H110.009C110.419 28.8605 110.785 28.7929 111.11 28.6578C111.438 28.5227 111.716 28.3296 111.944 28.0786C112.176 27.8238 112.351 27.5148 112.471 27.1519C112.594 26.7851 112.656 26.3719 112.656 25.9124ZM119.795 26.9376L118.776 24.1516C118.726 24.0281 118.674 23.8813 118.62 23.7114C118.565 23.5415 118.511 23.3581 118.457 23.1612C118.407 23.3581 118.355 23.5435 118.301 23.7172C118.247 23.8871 118.195 24.0358 118.145 24.1632L117.131 26.9376H119.795ZM122.546 30.1H121.342C121.207 30.1 121.097 30.0672 121.012 30.0015C120.927 29.932 120.863 29.8471 120.82 29.7467L120.195 28.0381H116.726L116.1 29.7467C116.069 29.8355 116.009 29.9166 115.92 29.99C115.832 30.0633 115.722 30.1 115.59 30.1H114.374L117.67 21.7248H119.257L122.546 30.1Z" fill="white"/>
<path d="M200.548 27.512C200.548 26.8465 200.417 26.1874 200.162 25.5726C199.908 24.9577 199.534 24.399 199.064 23.9284C198.593 23.4578 198.034 23.0845 197.42 22.8298C196.805 22.5751 196.146 22.444 195.48 22.444C194.815 22.444 194.156 22.5751 193.541 22.8298C192.926 23.0845 192.367 23.4578 191.896 23.9284C191.426 24.399 191.053 24.9577 190.798 25.5726C190.543 26.1874 190.412 26.8465 190.412 27.512C190.412 28.5162 190.708 29.4501 191.212 30.2379H191.206L195.48 36.924L199.754 30.2379H199.749C200.271 29.4245 200.548 28.4784 200.548 27.512ZM195.48 29.684C194.904 29.684 194.352 29.4552 193.944 29.0478C193.537 28.6405 193.308 28.0881 193.308 27.512C193.308 26.9359 193.537 26.3835 193.944 25.9762C194.352 25.5688 194.904 25.34 195.48 25.34C196.056 25.34 196.609 25.5688 197.016 25.9762C197.423 26.3835 197.652 26.9359 197.652 27.512C197.652 28.0881 197.423 28.6405 197.016 29.0478C196.609 29.4552 196.056 29.684 195.48 29.684Z" fill="url(#paint2_linear_1_1635)"/>
<path d="M192.05 51.2871C192.351 51.2871 192.62 51.2369 192.855 51.1366C193.095 51.0362 193.295 50.8952 193.458 50.7137C193.62 50.5323 193.743 50.3122 193.828 50.0534C193.917 49.7947 193.961 49.5051 193.961 49.1846V44.1688H195.52V49.1846C195.52 49.6828 195.438 50.1442 195.276 50.5689C195.118 50.9898 194.888 51.3547 194.587 51.6636C194.29 51.9687 193.927 52.2081 193.498 52.3818C193.07 52.5517 192.587 52.6367 192.05 52.6367C191.51 52.6367 191.025 52.5517 190.596 52.3818C190.168 52.2081 189.803 51.9687 189.502 51.6636C189.204 51.3547 188.975 50.9898 188.812 50.5689C188.654 50.1442 188.575 49.6828 188.575 49.1846V44.1688H190.133V49.1789C190.133 49.4993 190.175 49.7889 190.26 50.0477C190.349 50.3064 190.475 50.5284 190.637 50.7137C190.803 50.8952 191.004 51.0362 191.239 51.1366C191.479 51.2369 191.749 51.2871 192.05 51.2871ZM198.835 47.6787H199.2C199.346 47.6787 199.468 47.6594 199.565 47.6208C199.661 47.5783 199.744 47.5127 199.814 47.4239L202.125 44.4989C202.221 44.3754 202.322 44.2904 202.426 44.2441C202.534 44.1939 202.669 44.1688 202.831 44.1688H204.175L201.354 47.6498C201.188 47.8621 201.016 48.0127 200.839 48.1015C200.966 48.1479 201.08 48.2135 201.18 48.2985C201.285 48.3796 201.383 48.4877 201.476 48.6228L204.383 52.544H203.011C202.825 52.544 202.686 52.5189 202.594 52.4687C202.505 52.4147 202.43 52.3374 202.368 52.237L199.999 49.1441C199.926 49.0398 199.841 48.9665 199.744 48.924C199.648 48.8815 199.509 48.8603 199.327 48.8603H198.835V52.544H197.277V44.1688H198.835V47.6787Z" fill="white"/>
<path d="M335.212 16.652C335.212 15.9864 335.081 15.3274 334.826 14.7125C334.571 14.0977 334.198 13.539 333.728 13.0684C333.257 12.5978 332.698 12.2245 332.083 11.9698C331.468 11.7151 330.809 11.584 330.144 11.584C329.478 11.584 328.819 11.7151 328.204 11.9698C327.59 12.2245 327.031 12.5978 326.56 13.0684C326.09 13.539 325.716 14.0977 325.462 14.7125C325.207 15.3274 325.076 15.9864 325.076 16.652C325.076 17.6562 325.372 18.5901 325.876 19.3778H325.87L330.144 26.064L334.418 19.3778H334.413C334.935 18.5645 335.212 17.6184 335.212 16.652ZM330.144 18.824C329.568 18.824 329.015 18.5951 328.608 18.1878C328.201 17.7805 327.972 17.228 327.972 16.652C327.972 16.0759 328.201 15.5235 328.608 15.1161C329.015 14.7088 329.568 14.48 330.144 14.48C330.72 14.48 331.272 14.7088 331.68 15.1161C332.087 15.5235 332.316 16.0759 332.316 16.652C332.316 17.228 332.087 17.7805 331.68 18.1878C331.272 18.5951 330.72 18.824 330.144 18.824Z" fill="url(#paint3_linear_1_1635)"/>
<path d="M304.506 38.5216L303.486 35.7356C303.436 35.612 303.384 35.4653 303.33 35.2954C303.276 35.1255 303.222 34.9421 303.168 34.7452C303.118 34.9421 303.065 35.1274 303.011 35.3012C302.957 35.4711 302.905 35.6198 302.855 35.7472L301.841 38.5216H304.506ZM307.257 41.684H306.052C305.917 41.684 305.807 41.6512 305.722 41.5855C305.637 41.516 305.573 41.4311 305.531 41.3307L304.905 39.622H301.436L300.81 41.3307C300.779 41.4195 300.72 41.5006 300.631 41.5739C300.542 41.6473 300.432 41.684 300.301 41.684H299.084L302.38 33.3088H303.967L307.257 41.684ZM311.291 40.4271C311.592 40.4271 311.861 40.3769 312.096 40.2765C312.336 40.1761 312.536 40.0352 312.699 39.8537C312.861 39.6722 312.984 39.4521 313.069 39.1934C313.158 38.9347 313.202 38.6451 313.202 38.3246V33.3088H314.76V38.3246C314.76 38.8227 314.679 39.2842 314.517 39.7089C314.359 40.1298 314.129 40.4947 313.828 40.8036C313.531 41.1087 313.168 41.3481 312.739 41.5218C312.31 41.6917 311.828 41.7767 311.291 41.7767C310.75 41.7767 310.266 41.6917 309.837 41.5218C309.409 41.3481 309.044 41.1087 308.743 40.8036C308.445 40.4947 308.216 40.1298 308.053 39.7089C307.895 39.2842 307.816 38.8227 307.816 38.3246V33.3088H309.374V38.3188C309.374 38.6393 309.416 38.9289 309.501 39.1876C309.59 39.4463 309.716 39.6684 309.878 39.8537C310.044 40.0352 310.245 40.1761 310.48 40.2765C310.72 40.3769 310.99 40.4271 311.291 40.4271ZM320.977 34.8321C320.931 34.9131 320.881 34.973 320.827 35.0116C320.777 35.0464 320.713 35.0637 320.636 35.0637C320.555 35.0637 320.466 35.0348 320.369 34.9769C320.277 34.9151 320.165 34.8475 320.033 34.7741C319.902 34.7008 319.748 34.6351 319.57 34.5772C319.396 34.5154 319.19 34.4845 318.95 34.4845C318.734 34.4845 318.545 34.5116 318.383 34.5656C318.22 34.6158 318.083 34.6873 317.971 34.7799C317.863 34.8726 317.782 34.9846 317.728 35.1159C317.674 35.2433 317.647 35.3842 317.647 35.5387C317.647 35.7356 317.701 35.8997 317.809 36.031C317.921 36.1623 318.068 36.2743 318.249 36.3669C318.431 36.4596 318.638 36.5426 318.869 36.616C319.101 36.6894 319.338 36.7685 319.582 36.8535C319.825 36.9346 320.062 37.0311 320.294 37.1431C320.526 37.2512 320.732 37.3902 320.914 37.5601C321.095 37.7261 321.24 37.9308 321.348 38.174C321.46 38.4173 321.516 38.7127 321.516 39.0602C321.516 39.4386 321.45 39.7939 321.319 40.1259C321.192 40.4542 321.003 40.7418 320.752 40.989C320.504 41.2322 320.201 41.4253 319.842 41.5682C319.483 41.7072 319.072 41.7767 318.609 41.7767C318.342 41.7767 318.08 41.7496 317.821 41.6956C317.562 41.6454 317.313 41.572 317.074 41.4755C316.838 41.3789 316.616 41.2631 316.408 41.128C316.199 40.9928 316.014 40.8422 315.852 40.6762L316.309 39.929C316.348 39.875 316.398 39.8306 316.46 39.7958C316.521 39.7572 316.587 39.7379 316.657 39.7379C316.753 39.7379 316.857 39.7784 316.969 39.8595C317.081 39.9367 317.215 40.0236 317.369 40.1202C317.524 40.2167 317.703 40.3055 317.908 40.3866C318.116 40.4638 318.365 40.5024 318.655 40.5024C319.099 40.5024 319.443 40.3982 319.686 40.1897C319.929 39.9773 320.051 39.6742 320.051 39.2803C320.051 39.0602 319.995 38.8807 319.883 38.7417C319.775 38.6026 319.63 38.4868 319.448 38.3941C319.267 38.2976 319.06 38.2165 318.829 38.1509C318.597 38.0852 318.361 38.0138 318.122 37.9366C317.883 37.8593 317.647 37.7667 317.415 37.6586C317.184 37.5504 316.977 37.4095 316.796 37.2357C316.614 37.062 316.467 36.8457 316.355 36.587C316.247 36.3245 316.193 36.002 316.193 35.6198C316.193 35.3147 316.253 35.0174 316.373 34.7278C316.496 34.4382 316.674 34.1814 316.906 33.9575C317.137 33.7335 317.423 33.554 317.763 33.4188C318.103 33.2837 318.493 33.2161 318.933 33.2161C319.427 33.2161 319.883 33.2933 320.3 33.4478C320.717 33.6022 321.072 33.8185 321.366 34.0965L320.977 34.8321ZM328.725 34.5888H326.2V41.684H324.642V34.5888H322.117V33.3088H328.725V34.5888ZM332.352 37.2937C332.646 37.2937 332.901 37.257 333.117 37.1836C333.337 37.1102 333.516 37.0098 333.655 36.8824C333.798 36.7511 333.904 36.5967 333.974 36.4191C334.044 36.2414 334.078 36.0464 334.078 35.8341C334.078 35.4093 333.937 35.083 333.655 34.8552C333.377 34.6274 332.951 34.5135 332.375 34.5135H331.379V37.2937H332.352ZM336.36 41.684H334.953C334.686 41.684 334.493 41.5797 334.374 41.3712L332.613 38.6895C332.547 38.5891 332.474 38.5177 332.393 38.4752C332.316 38.4327 332.2 38.4115 332.045 38.4115H331.379V41.684H329.821V33.3088H332.375C332.943 33.3088 333.43 33.3686 333.835 33.4883C334.244 33.6042 334.578 33.7683 334.837 33.9806C335.1 34.193 335.293 34.4479 335.416 34.7452C335.54 35.0386 335.602 35.363 335.602 35.7182C335.602 36.0001 335.559 36.2665 335.474 36.5175C335.393 36.7685 335.273 36.9963 335.115 37.201C334.961 37.4056 334.768 37.5852 334.536 37.7396C334.308 37.8941 334.047 38.0157 333.754 38.1045C333.854 38.1625 333.947 38.232 334.032 38.313C334.117 38.3903 334.194 38.4829 334.264 38.5911L336.36 41.684ZM341.69 38.5216L340.67 35.7356C340.62 35.612 340.568 35.4653 340.514 35.2954C340.46 35.1255 340.406 34.9421 340.352 34.7452C340.302 34.9421 340.25 35.1274 340.196 35.3012C340.141 35.4711 340.089 35.6198 340.039 35.7472L339.026 38.5216H341.69ZM344.441 41.684H343.236C343.101 41.684 342.991 41.6512 342.906 41.5855C342.821 41.516 342.758 41.4311 342.715 41.3307L342.089 39.622H338.62L337.995 41.3307C337.964 41.4195 337.904 41.5006 337.815 41.5739C337.726 41.6473 337.616 41.684 337.485 41.684H336.269L339.564 33.3088H341.151L344.441 41.684ZM350.214 40.3982V41.684H345.308V33.3088H346.866V40.3982H350.214ZM352.89 41.684H351.326V33.3088H352.89V41.684ZM359.19 38.5216L358.171 35.7356C358.121 35.612 358.069 35.4653 358.015 35.2954C357.96 35.1255 357.906 34.9421 357.852 34.7452C357.802 34.9421 357.75 35.1274 357.696 35.3012C357.642 35.4711 357.59 35.6198 357.54 35.7472L356.526 38.5216H359.19ZM361.941 41.684H360.737C360.602 41.684 360.492 41.6512 360.407 41.5855C360.322 41.516 360.258 41.4311 360.215 41.3307L359.59 39.622H356.121L355.495 41.3307C355.464 41.4195 355.404 41.5006 355.315 41.5739C355.227 41.6473 355.117 41.684 354.985 41.684H353.769L357.065 33.3088H358.652L361.941 41.684Z" fill="white"/>
</g>
<defs>
<linearGradient id="paint0_linear_1_1635" x1="6.51599" y1="21.72" x2="16.652" y2="21.72" gradientUnits="userSpaceOnUse">
<stop stop-color="#8F74BF"/>
<stop offset="0.503526" stop-color="#D76D77"/>
<stop offset="1" stop-color="#FFAF7B"/>
</linearGradient>
<linearGradient id="paint1_linear_1_1635" x1="93.396" y1="7.24" x2="103.532" y2="7.24" gradientUnits="userSpaceOnUse">
<stop stop-color="#8F74BF"/>
<stop offset="0.503526" stop-color="#D76D77"/>
<stop offset="1" stop-color="#FFAF7B"/>
</linearGradient>
<linearGradient id="paint2_linear_1_1635" x1="190.412" y1="29.684" x2="200.548" y2="29.684" gradientUnits="userSpaceOnUse">
<stop stop-color="#8F74BF"/>
<stop offset="0.503526" stop-color="#D76D77"/>
<stop offset="1" stop-color="#FFAF7B"/>
</linearGradient>
<linearGradient id="paint3_linear_1_1635" x1="325.076" y1="18.824" x2="335.212" y2="18.824" gradientUnits="userSpaceOnUse">
<stop stop-color="#8F74BF"/>
<stop offset="0.503526" stop-color="#D76D77"/>
<stop offset="1" stop-color="#FFAF7B"/>
</linearGradient>
</defs>
</svg>
