<svg width="208" height="208" viewBox="0 0 208 208" fill="none" xmlns="http://www.w3.org/2000/svg">
<g clip-path="url(#clip0_440_41)">
<path d="M151.225 138.366L141.212 128.332L127.995 141.528L138.029 151.562L151.225 138.366Z" fill="#B0BDC6"/>
<path d="M148.063 141.549L138.029 131.536L131.178 138.387L141.212 148.421L148.063 141.57V141.549Z" fill="#DFE9EF"/>
<path d="M145.575 132.506L141.423 128.353L128.227 141.57L132.379 145.723L145.575 132.506Z" fill="#B0BDC6"/>
<path d="M136.785 136.912C105.65 168.046 54.8277 168.046 23.3559 136.912C-7.77854 105.777 -7.77854 54.9544 23.3349 23.4826C54.4693 -7.98912 105.292 -7.65185 136.764 23.4826C168.236 54.9544 168.236 105.798 136.764 136.912H136.785ZM129.512 31.0923C102.193 3.75218 58.2637 3.75218 31.3029 31.0923C3.98384 58.4114 3.98384 102.32 31.3029 129.302C58.622 156.621 102.552 156.621 129.512 129.302C156.494 102.32 156.494 58.4114 129.512 31.0923Z" fill="#DFE9EF"/>
<path d="M131.241 131.368C103.226 159.382 57.5681 159.382 29.2161 131.368C1.2014 103.353 1.2014 57.7157 29.2161 29.3426C57.2308 1.34901 102.889 1.34901 131.241 29.3426C159.256 57.6946 159.256 103.353 131.241 131.368ZM127.447 33.158C101.498 7.20912 58.9593 7.20912 33.0315 33.158C7.10367 59.0859 7.10367 101.624 33.0315 127.573C58.9593 153.501 101.498 153.501 127.447 127.573C153.396 101.645 153.375 59.1069 127.447 33.158Z" fill="#7A858C"/>
<path d="M202.532 178.754L154.85 131.072L130.883 155.04L178.565 202.722L202.532 178.754Z" fill="#333333"/>
<path d="M197.157 184.13L149.475 136.448L136.279 149.665L183.961 197.347L197.157 184.151V184.13Z" fill="#575B5E"/>
<path d="M207.338 176.33C211.133 180.124 180.356 211.259 176.204 207.464L173.78 205.04C169.985 201.246 200.761 170.112 204.914 173.906L207.338 176.33Z" fill="#B0BDC6"/>
<path d="M202.132 181.516C205.926 185.31 185.521 206.074 181.39 202.258L178.965 199.834C175.171 196.04 195.555 175.276 199.708 179.092L202.132 181.516Z" fill="#DFE9EF"/>
</g>
<defs>
<clipPath id="clip0_440_41">
<rect width="207.655" height="207.781" fill="white"/>
</clipPath>
</defs>
</svg>
