<svg width="10" height="13" viewBox="0 0 10 13" fill="none" xmlns="http://www.w3.org/2000/svg">
<path d="M3.95278 12.1789C4.28944 12.4715 4.64056 12.739 5 13C5.36022 12.7425 5.70963 12.4685 6.04722 12.1789C6.61 11.6922 7.13964 11.1644 7.63222 10.5994C8.76778 9.29148 10 7.39538 10 5.26695C10 4.57528 9.87067 3.89039 9.6194 3.25137C9.36812 2.61236 8.99983 2.03173 8.53553 1.54265C8.07124 1.05357 7.52005 0.665612 6.91342 0.400923C6.30679 0.136234 5.65661 0 5 0C4.34339 0 3.69321 0.136234 3.08658 0.400923C2.47995 0.665612 1.92876 1.05357 1.46447 1.54265C1.00017 2.03173 0.631876 2.61236 0.380602 3.25137C0.129329 3.89039 -9.78424e-09 4.57528 0 5.26695C0 7.39538 1.23222 9.2909 2.36778 10.5994C2.86034 11.1646 3.38998 11.692 3.95278 12.1789ZM5 7.1689C4.52114 7.1689 4.06189 6.96852 3.72328 6.61183C3.38467 6.25515 3.19444 5.77138 3.19444 5.26695C3.19444 4.76252 3.38467 4.27875 3.72328 3.92206C4.06189 3.56538 4.52114 3.365 5 3.365C5.47886 3.365 5.93811 3.56538 6.27672 3.92206C6.61533 4.27875 6.80556 4.76252 6.80556 5.26695C6.80556 5.77138 6.61533 6.25515 6.27672 6.61183C5.93811 6.96852 5.47886 7.1689 5 7.1689Z" fill="#BDBDBD"/>
</svg>
