<?xml version="1.0" encoding="UTF-8"?>
<svg version="1.1" xmlns="http://www.w3.org/2000/svg" width="2144" height="512">
<path d="M0 0 C707.52 0 1415.04 0 2144 0 C2144 168.96 2144 337.92 2144 512 C1436.48 512 728.96 512 0 512 C0 343.04 0 174.08 0 0 Z " fill="#181818" transform="translate(0,0)"/>
<path d="M0 0 C707.52 0 1415.04 0 2144 0 C2144 59.73 2144 119.46 2144 181 C2143.67 181 2143.34 181 2143 181 C2142.94054199 180.41323486 2142.88108398 179.82646973 2142.81982422 179.22192383 C2138.46410687 137.90678169 2122.50649059 103.90871769 2095 73 C2094.39671875 72.32195312 2093.7934375 71.64390625 2093.171875 70.9453125 C2064.95866598 41.16470298 2020.51345147 23.14141633 1979.9760236 21.90798991 C1976.6377741 21.87171115 1973.30088124 21.86621458 1969.96243918 21.8723495 C1968.04531087 21.86987333 1968.04531087 21.86987333 1966.0894527 21.86734714 C1962.55014422 21.86291872 1959.01086207 21.86466719 1955.47155291 21.86744892 C1951.60355028 21.86937788 1947.73555263 21.86548499 1943.86755139 21.86235213 C1937.06501186 21.85764455 1930.26247961 21.8566523 1923.45993872 21.85808048 C1913.27612079 21.8602028 1903.09231038 21.85658658 1892.90849361 21.8518657 C1875.55186614 21.84399371 1858.19524072 21.84090373 1840.8386116 21.84041977 C1823.24698791 21.83991744 1805.65536652 21.83727114 1788.06374359 21.83201218 C1786.95300597 21.83168204 1785.84226836 21.83135191 1784.69787203 21.83101177 C1780.17405731 21.82966178 1775.65024259 21.82829911 1771.12642788 21.82691967 C1717.56287847 21.81061555 1663.9993295 21.80423093 1610.43577803 21.7994718 C1583.7663714 21.79708882 1557.09696501 21.79338541 1530.42755857 21.7894347 C1444.20761291 21.77666952 1357.98766728 21.76592578 1271.76772071 21.7625134 C1268.36016976 21.76237782 1264.95261881 21.76223879 1261.54506786 21.76209986 C1256.08198573 21.76187738 1250.6189036 21.76165601 1245.15582147 21.76143598 C1244.1403744 21.76139507 1244.1403744 21.76139507 1243.10441325 21.76135334 C1241.7362161 21.76129823 1240.36801894 21.76124312 1238.99982179 21.76118801 C1229.40239832 21.76080139 1219.80497484 21.76041345 1210.20755136 21.76001888 C1206.77340851 21.75987777 1203.33926567 21.75973769 1199.90512282 21.75959998 C1135.04937738 21.75699592 1070.19363432 21.75166663 1005.33789062 21.73571777 C1004.65518769 21.73554998 1003.97248476 21.73538219 1003.26909386 21.73520931 C981.93834767 21.72995859 960.60760156 21.72438424 939.27685547 21.71875 C917.38958044 21.71296892 895.5023054 21.70723831 873.61503029 21.70179367 C872.94108865 21.70162586 872.267147 21.70145806 871.57278289 21.70128516 C829.35723976 21.69079018 787.1416976 21.68393549 744.92615318 21.68092728 C743.62215275 21.68083379 742.31815232 21.6807403 740.97463673 21.68064399 C712.3488665 21.67862496 683.7230963 21.6774689 655.097326 21.6771154 C644.85448294 21.67697923 634.61163988 21.67677023 624.36879682 21.67652215 C621.82061613 21.67646059 619.27243544 21.67640227 616.72425475 21.6763472 C576.11790254 21.67542733 535.51155883 21.66545853 494.90520941 21.65088971 C454.00613679 21.63627458 413.10707459 21.63123138 372.20799982 21.63930925 C366.55542224 21.64042462 360.90284464 21.64143528 355.25026703 21.64238358 C354.14221583 21.64257354 353.03416463 21.64276351 351.89253613 21.64295924 C334.35309402 21.64569206 316.8136712 21.63835356 299.27423328 21.62681021 C282.02416068 21.61566706 264.77411533 21.61524053 247.52404231 21.62618039 C237.41362652 21.63227204 227.30329301 21.63019481 217.192885 21.61592842 C210.47109697 21.60726722 203.74936926 21.6095663 197.02758492 21.62062713 C193.22174899 21.62658729 189.4160739 21.62804949 185.6102489 21.61594227 C165.5929339 21.55637606 146.06262466 22.35841502 126.625 27.5625 C125.21927734 27.93604614 125.21927734 27.93604614 123.78515625 28.31713867 C81.61412126 40.15493004 44.2718444 69.62030775 22.8125 107.75 C10.69471102 129.96119439 3.89710607 152.91716063 1 178 C0.67 178 0.34 178 0 178 C0 119.26 0 60.52 0 0 Z " fill="#3A3A3A" transform="translate(0,0)"/>
<path d="M0 0 C0.53093262 0.43844238 1.06186523 0.87688477 1.60888672 1.32861328 C8.61932142 7.21176465 14.45358795 13.74147924 20 21 C20.66644531 21.85078125 21.33289063 22.7015625 22.01953125 23.578125 C32.66718962 37.60699243 39.58698529 52.77236952 44.6875 69.5625 C44.99155762 70.55237915 44.99155762 70.55237915 45.30175781 71.56225586 C48.48801063 82.47876227 49.36485597 93.2230701 49.3125 104.5625 C49.30827026 105.54902557 49.30827026 105.54902557 49.30395508 106.55548096 C49.06086769 144.45303418 34.97240094 179.22709906 8 206 C6.0334628 207.71407634 4.02929816 209.35935397 2 211 C-4.57752116 202.82895567 -11.10157754 194.62856261 -17.46484375 186.2890625 C-19.30508474 183.88670887 -21.17747646 181.512692 -23.06640625 179.1484375 C-23.5761499 178.50849854 -24.08589355 177.86855957 -24.61108398 177.20922852 C-25.60266663 175.96691187 -26.598137 174.72768604 -27.59790039 173.49194336 C-31 169.22190459 -31 169.22190459 -31 167 C-30.34 167 -29.68 167 -29 167 C-29 127.4 -29 87.8 -29 47 C-35.6 47 -42.2 47 -49 47 C-49 79.01 -49 111.02 -49 144 C-52.62776169 140.37223831 -55.83209717 136.8425813 -58.9375 132.8125 C-59.40567139 132.21083008 -59.87384277 131.60916016 -60.35620117 130.98925781 C-61.37208644 129.68295376 -62.38643765 128.37545555 -63.39941406 127.06689453 C-65.04128263 124.94669024 -66.68797622 122.83031516 -68.3359375 120.71484375 C-71.2939361 116.91685235 -74.24831179 113.11606123 -77.20166016 109.31445312 C-80.13299363 105.54184366 -83.06659198 101.77099645 -86 98 C-87.16667794 96.50000877 -88.3333446 95.00000876 -89.5 93.5 C-90.0775 92.7575 -90.655 92.015 -91.25 91.25 C-96.5 84.5 -96.5 84.5 -98.25244141 82.24682617 C-99.41092492 80.75737049 -100.56945305 79.26794952 -101.72802734 77.77856445 C-104.77027635 73.86753006 -107.811587 69.95577063 -110.8515625 66.04296875 C-111.48320312 65.23021484 -112.11484375 64.41746094 -112.765625 63.58007812 C-113.9716418 62.02821828 -115.17738748 60.47614768 -116.3828125 58.92382812 C-116.929375 58.22064453 -117.4759375 57.51746094 -118.0390625 56.79296875 C-118.51553223 56.1796167 -118.99200195 55.56626465 -119.48291016 54.93432617 C-121.30578222 52.61012029 -123.15479046 50.30651193 -125 48 C-133.25 47.67 -141.5 47.34 -150 47 C-150 86.6 -150 126.2 -150 167 C-143.4 167 -136.8 167 -130 167 C-130 135.98 -130 104.96 -130 73 C-124.38035811 78.61964189 -124.38035811 78.61964189 -122.2734375 81.49609375 C-121.80502441 82.12950684 -121.33661133 82.76291992 -120.85400391 83.41552734 C-120.36593262 84.08277832 -119.87786133 84.7500293 -119.375 85.4375 C-115.52360053 90.637186 -111.63869616 95.79935757 -107.625 100.875 C-106.72264433 102.01691766 -105.82030088 103.15884499 -104.91796875 104.30078125 C-104.21873291 105.18564209 -104.21873291 105.18564209 -103.50537109 106.08837891 C-95.80546325 115.86623788 -88.2035415 125.72170252 -80.625 135.59375 C-77.43372025 139.74241368 -74.215787 143.87032481 -71 148 C-66.18648277 154.18146123 -61.39575121 160.37921882 -56.625 166.59375 C-53.43372025 170.74241368 -50.215787 174.87032481 -47 179 C-42.19544714 185.1699493 -37.4088673 191.3524134 -32.65625 197.5625 C-30.57579691 200.26904556 -28.46300036 202.94873928 -26.34375 205.625 C-25.70824219 206.43130859 -25.07273437 207.23761719 -24.41796875 208.06835938 C-23.16503485 209.656855 -21.90741408 211.24166806 -20.64453125 212.82226562 C-15.33689472 219.56713857 -15.33689472 219.56713857 -14 224 C-47.71192163 244.18616584 -86.2368298 252.36735998 -124.9152832 242.69262695 C-161.58256668 232.69919024 -192.81074373 209.05119207 -211.82714844 176.09863281 C-230.46387724 142.75114723 -235.4197509 104.94108156 -225 68 C-218.04515645 45.24960698 -206.30638799 26.27904973 -190 9 C-189.32710938 8.26265625 -188.65421875 7.5253125 -187.9609375 6.765625 C-138.44993902 -45.52689025 -53.665684 -44.32860555 0 0 Z " fill="#000000" transform="translate(496,149)"/>
<path d="M0 0 C0.78793945 0.64219482 0.78793945 0.64219482 1.59179688 1.29736328 C31.07751844 25.40438936 52.84141958 59.44081781 57.33642578 97.87670898 C60.92632603 137.31102474 53.31288655 177.72831521 28.203125 209.37890625 C24.57391435 213.69663736 20.87765875 217.90308753 17 222 C16.12988281 222.94617188 15.25976562 223.89234375 14.36328125 224.8671875 C-10.21845677 251.01897388 -46.9063193 266.94618965 -82.5703125 268.34375 C-123.80695083 269.52320804 -162.94130355 257.2461678 -193.31567383 228.58886719 C-194.88911891 227.07093849 -196.44759768 225.53942404 -198 224 C-198.93585938 223.07703125 -199.87171875 222.1540625 -200.8359375 221.203125 C-217.77928445 203.62865051 -229.22248792 181.32593741 -236 158 C-236.33773438 156.87851562 -236.67546875 155.75703125 -237.0234375 154.6015625 C-243.07818372 132.27165845 -242.85816282 108.52357357 -237.49951172 86.11083984 C-237.07539443 84.31860229 -236.7055527 82.51365823 -236.34765625 80.70703125 C-231.24530073 56.52920278 -216.93414427 33.62589853 -200 16 C-199.10796875 15.04480469 -198.2159375 14.08960938 -197.296875 13.10546875 C-147.033814 -39.77919601 -56.84390353 -46.8177549 0 0 Z M-198 28 C-222.60422697 57.11594523 -233.83090458 94.12365222 -231 132 C-227.42435092 167.61763069 -209.75991701 201.95547399 -182.37890625 225.14453125 C-166.20503775 238.33075747 -147.9888019 248.04188558 -128 254 C-127.30165039 254.21172852 -126.60330078 254.42345703 -125.88378906 254.64160156 C-101.62631291 261.67259258 -72.825082 259.941694 -49 252 C-48.37657715 251.79391113 -47.7531543 251.58782227 -47.11083984 251.37548828 C-36.12873193 247.68534546 -26.1073868 242.62911394 -16 237 C-16 232.28612944 -16.7899103 231.4936054 -19.625 227.875 C-20.01888916 227.36638428 -20.41277832 226.85776855 -20.81860352 226.33374023 C-21.70732624 225.18873625 -22.60060815 224.04726161 -23.49755859 222.90869141 C-25.12918743 220.83588116 -26.74710164 218.75284503 -28.36328125 216.66796875 C-30.76765557 213.5680978 -33.17675314 210.47199658 -35.58984375 207.37890625 C-38.4082469 203.76391331 -41.2094103 200.13650156 -44 196.5 C-47.97898977 191.31684228 -51.98534375 186.15557352 -56 181 C-60.81351723 174.81853877 -65.60424879 168.62078118 -70.375 162.40625 C-73.56627975 158.25758632 -76.784213 154.12967519 -80 150 C-84.81351723 143.81853877 -89.60424879 137.62078118 -94.375 131.40625 C-97.56628025 127.25758568 -100.78430032 123.12974395 -104 119 C-118.61542961 100.22360097 -118.61542961 100.22360097 -123.578125 93.53515625 C-123.99537842 92.9736084 -124.41263184 92.41206055 -124.8425293 91.83349609 C-125.99337541 90.28076356 -127.13942145 88.72447665 -128.28515625 87.16796875 C-128.85105469 86.45253906 -129.41695313 85.73710937 -130 85 C-130.33 85 -130.66 85 -131 85 C-131 116.02 -131 147.04 -131 179 C-137.6 179 -144.2 179 -151 179 C-151 139.4 -151 99.8 -151 59 C-126 60 -126 60 -118.6875 67.0625 C-116.94238281 69.42382812 -116.94238281 69.42382812 -115.765625 71.46875 C-113.09346565 75.90339744 -110.08980134 79.96101526 -106.9375 84.0625 C-105.94769611 85.39209701 -104.95940873 86.72282433 -103.97265625 88.0546875 C-100.5393208 92.64681615 -96.95294348 97.11000916 -93.35473633 101.57324219 C-89.81577474 105.96675466 -86.34889008 110.40620831 -82.92041016 114.88671875 C-78.80346035 120.26581098 -74.64610999 125.61302715 -70.48217773 130.95581055 C-67.3202715 135.01348245 -64.16680245 139.07726951 -61.02734375 143.15234375 C-60.38442383 143.98483643 -59.74150391 144.8173291 -59.07910156 145.67504883 C-57.83508982 147.28625919 -56.5934815 148.89932859 -55.35449219 150.5144043 C-54.79793945 151.234104 -54.24138672 151.95380371 -53.66796875 152.6953125 C-53.17578857 153.33484863 -52.6836084 153.97438477 -52.17651367 154.63330078 C-51.78826416 155.08431152 -51.40001465 155.53532227 -51 156 C-50.67 156 -50.34 156 -50 156 C-50 123.99 -50 91.98 -50 59 C-43.4 59 -36.8 59 -30 59 C-30 98.6 -30 138.2 -30 179 C-30.66 179 -31.32 179 -32 179 C-30.38860208 182.61707406 -28.18105107 185.5097127 -25.75 188.625 C-25.32033936 189.17768555 -24.89067871 189.73037109 -24.44799805 190.29980469 C-23.49399163 191.52621673 -22.53842178 192.7514137 -21.58154297 193.97558594 C-19.87468684 196.16040394 -18.17324562 198.34936353 -16.47265625 200.5390625 C-13.56066567 204.28780529 -10.64560721 208.03414224 -7.72900391 211.77929688 C-4.81782961 215.51835948 -1.90895375 219.25920973 1 223 C3.35987991 221.0254066 5.69010151 219.03198171 8 217 C8.54011719 216.52820313 9.08023438 216.05640625 9.63671875 215.5703125 C32.76900272 193.9503086 46.3061107 159.48813136 48.22290039 128.3828125 C49.37239219 91.67852134 40.25084541 56.29028751 15.1875 28.4375 C14.45015625 27.65632813 13.7128125 26.87515625 12.953125 26.0703125 C11.34730847 24.36814698 9.8806457 22.65010552 8.4375 20.8125 C-13.54952047 -4.55713901 -49.25092756 -18.46755406 -82.04003906 -21.25878906 C-126.92289777 -23.60705314 -168.18541402 -5.3439234 -198 28 Z " fill="#FAFAFA" transform="translate(497,137)"/>
<path d="M0 0 C10.56 0 21.12 0 32 0 C38.56925654 15.1660614 45.00780848 30.35957731 51.1875 45.6875 C56.53358356 58.94657112 61.9486378 72.17436555 67.4375 85.375 C73.97489098 101.09902018 80.46347236 116.8422944 86.91186523 132.60302734 C87.23204117 133.38506531 87.5522171 134.16710327 87.88209534 134.97283936 C88.47348085 136.4174855 89.06437637 137.86233239 89.65464783 139.30743408 C89.92056229 139.95702087 90.18647675 140.60660767 90.46044922 141.27587891 C90.68675018 141.82950104 90.91305115 142.38312317 91.14620972 142.95352173 C92.40824154 145.97852769 93.70884662 148.98730878 95 152 C95.33 101.84 95.66 51.68 96 0 C103.26 0 110.52 0 118 0 C118 60.06 118 120.12 118 182 C107.44 182 96.88 182 86 182 C85.15824219 179.72351563 84.31648437 177.44703125 83.44921875 175.1015625 C80.09387302 166.11309792 76.4747713 157.24183841 72.8125 148.375 C72.11829409 146.68888256 71.42428938 145.00268227 70.73046875 143.31640625 C68.49083156 137.87601203 66.24584548 132.43783377 64 127 C63.61551697 126.06885376 63.23103394 125.13770752 62.8348999 124.17834473 C59.25745165 115.5145292 55.67854257 106.85131761 52.09814453 98.1887207 C46.77969264 85.31941964 41.47518673 72.44447264 36.1875 59.5625 C35.86265625 58.77174072 35.5378125 57.98098145 35.203125 57.16625977 C34.27399148 54.90411475 33.34582498 52.64157542 32.41796875 50.37890625 C32.15932541 49.74940567 31.90068207 49.11990509 31.63420105 48.47132874 C28.70982181 41.33224094 25.86555749 34.16389372 23 27 C22.67 78.15 22.34 129.3 22 182 C14.74 182 7.48 182 0 182 C0 121.94 0 61.88 0 0 Z " fill="#D1D1D1" transform="translate(829,160)"/>
<path d="M0 0 C15.11883932 11.39912488 22.93143439 27.58860631 26 46 C26 53.26 26 60.52 26 68 C-6.67 68 -39.34 68 -73 68 C-67.84853677 92.00127361 -67.84853677 92.00127361 -51.30078125 107.70703125 C-41.8298519 113.02940411 -29.22794569 112.19162656 -19.0625 109.4375 C-12.36985748 107.08359264 -6.87405673 103.89008746 -3.7109375 97.32421875 C-3.29070312 96.41285156 -2.87046875 95.50148438 -2.4375 94.5625 C-1.01953125 91.984375 -1.01953125 91.984375 1 90 C6.09860191 89.00004615 10.86455914 89.41356225 16 90 C17.36318359 90.12955078 17.36318359 90.12955078 18.75390625 90.26171875 C20.50941432 90.45328582 22.25714624 90.71545245 24 91 C19.8692267 106.00122936 10.47498978 118.19151604 -3 126 C-19.11015395 134.03376725 -36.94582327 135.57612854 -54.21484375 130.37890625 C-67.71929109 125.76989157 -79.85929605 115.21460343 -86.7265625 102.73046875 C-96.30789886 82.18643772 -99.13874493 56.43974406 -92.37890625 34.55859375 C-85.31851174 16.33757561 -75.91592425 3.01925847 -57.74609375 -5.53125 C-39.13233326 -12.88685239 -16.88062028 -10.58388097 0 0 Z " fill="#D1D1D1" transform="translate(1077,212)"/>
<path d="M0 0 C0.79664063 0.350625 1.59328125 0.70125 2.4140625 1.0625 C14.29496397 6.94170898 22.9282919 17.16053221 27.9375 29.3125 C28.94450761 32.80740878 29.08619314 35.40523922 29 39 C26.45887768 39.33801152 23.91723254 39.67053379 21.375 40 C20.66214844 40.09539062 19.94929688 40.19078125 19.21484375 40.2890625 C15.11178391 40.81606101 11.14754258 41.10466984 7 41 C6.79246094 40.3709375 6.58492187 39.741875 6.37109375 39.09375 C3.51849931 31.16855038 -0.31799861 24.69671784 -7.9375 20.625 C-18.57977545 16.04375381 -30.7557483 15.08353107 -41.8125 18.95703125 C-46.6458537 21.26150524 -49.87801318 24.40750258 -52.9375 28.75 C-54.78714391 34.40773432 -55.17663337 40.32042164 -52.5625 45.8125 C-46.69369127 54.08568182 -36.0414996 55.40861359 -26.75 57.125 C-24.26534314 57.60531507 -21.78096557 58.08707722 -19.296875 58.5703125 C-18.08217529 58.80500244 -16.86747559 59.03969238 -15.6159668 59.28149414 C-0.25771531 62.33323502 14.98348818 65.73302952 26.25 77.3125 C27.11625 78.6428125 27.11625 78.6428125 28 80 C28.37125 80.55429687 28.7425 81.10859375 29.125 81.6796875 C33.77507069 89.978772 33.22686951 100.97300354 31.375 110.0703125 C27.7536296 120.38475142 19.60056812 127.3421576 10 132 C-8.0916821 139.94460823 -29.16643683 140.44697352 -47.75 133.75 C-53.35177281 131.45252985 -58.18427327 128.6509473 -63 125 C-64.5778125 123.8553125 -64.5778125 123.8553125 -66.1875 122.6875 C-72.40672922 116.74468097 -78.49687951 107.64666343 -80 99 C-80 96.36 -80 93.72 -80 91 C-72.74 91 -65.48 91 -58 91 C-57.34 92.815 -56.68 94.63 -56 96.5 C-52.65957994 104.45695564 -48.18696488 109.75576185 -40.3125 113.4375 C-29.52114857 117.83689921 -13.45660685 118.07598822 -2.5 114.3125 C1.61885586 112.44510876 4.84495951 110.23806788 8 107 C9.80523746 101.58428762 9.84175886 95.47266665 8 90.0625 C3.09019649 84.99926513 -4.08046858 83.1599754 -10.75 81.5 C-11.56710449 81.28915771 -12.38420898 81.07831543 -13.22607422 80.86108398 C-19.15504868 79.366133 -25.11645647 78.18498158 -31.125 77.0625 C-45.4346717 74.32042706 -60.83661808 70.63202773 -70.671875 59.02734375 C-71.99648877 57.06769456 -73.02592891 55.15364242 -74 53 C-74.47373047 51.98679687 -74.47373047 51.98679687 -74.95703125 50.953125 C-78.86846125 41.16561979 -77.68223882 30.77943327 -74.32421875 21.01171875 C-69.45385006 9.93486252 -60.59891889 3.9091501 -49.90625 -0.921875 C-34.9858167 -6.45687445 -14.55781546 -6.80857831 0 0 Z " fill="#D1D1D1" transform="translate(1834,207)"/>
<path d="M0 0 C6.93 0 13.86 0 21 0 C21 10.56 21 21.12 21 32 C39.15 32 57.3 32 76 32 C76 38.27 76 44.54 76 51 C58.18 51 40.36 51 22 51 C22.09078234 66.31654803 22.09078234 66.31654803 22.20898438 81.6328125 C22.26328829 87.88083615 22.31439923 94.12877045 22.34643555 100.37695312 C22.37246883 105.4150982 22.41287172 110.4529429 22.46318626 115.49090195 C22.47985475 117.41175471 22.49136914 119.33265943 22.49761391 121.25357437 C22.50725511 123.94687544 22.53531466 126.6394081 22.56762695 129.33251953 C22.56619186 130.12446213 22.56475677 130.91640472 22.5632782 131.73234558 C22.64456018 136.53141009 23.36757528 139.8350072 26 144 C30.19547631 147.11971316 34.06757063 148.09405245 39.21777344 148.20532227 C40.03832214 148.22526749 40.85887085 148.24521271 41.70428467 148.26576233 C42.58046448 148.28247482 43.45664429 148.29918732 44.359375 148.31640625 C45.26375305 148.33718735 46.1681311 148.35796844 47.09991455 148.37937927 C49.98320055 148.4446594 52.8665761 148.50365952 55.75 148.5625 C57.70704044 148.60570571 59.66407188 148.64932065 61.62109375 148.69335938 C66.41397213 148.80108735 71.20692042 148.90032091 76 149 C76 155.27 76 161.54 76 168 C69.81060416 168.06928428 63.6225817 168.12889309 57.43310547 168.16479492 C55.33247286 168.17977873 53.23187099 168.20017281 51.13134766 168.22631836 C20.74897304 168.5947209 20.74897304 168.5947209 8.25390625 157.44140625 C-1.65332052 147.13887866 -0.53664829 133.49108495 -0.390625 120.23828125 C-0.38315253 118.23618641 -0.37746436 116.23408418 -0.37347412 114.23197937 C-0.35829698 108.9958124 -0.31908442 103.76009847 -0.2746582 98.52410889 C-0.2262865 92.22393402 -0.20813374 85.92360657 -0.18484497 79.62329865 C-0.1462279 70.08188527 -0.06951886 60.54146339 0 51 C-14.85 51 -29.7 51 -45 51 C-45 44.73 -45 38.46 -45 32 C-30.15 32 -15.3 32 0 32 C0 21.44 0 10.88 0 0 Z " fill="#D0D0D0" transform="translate(1330,174)"/>
<path d="M0 0 C8.26181714 -1.40230249 16.86956602 -2.50029399 25 0 C31.26264323 4.73283725 34.67793299 12.12822685 38.29394531 18.92871094 C41.01975395 23.83579061 44.28498916 28.32605218 47.5625 32.875 C48.66894555 34.4550456 49.77446093 36.0357431 50.87890625 37.6171875 C53.83778019 41.80699016 56.8965379 45.91646052 60 50 C60.61705811 49.06655762 60.61705811 49.06655762 61.24658203 48.11425781 C79.39841294 20.68773204 79.39841294 20.68773204 88.66699219 7.98193359 C90.19809881 5.83000858 90.19809881 5.83000858 91.5625 2.46875 C94.61477436 -0.62265609 95.81973679 -0.42570239 100.078125 -0.5859375 C102.46945168 -0.54608206 104.86041461 -0.47456606 107.25 -0.375 C108.47203125 -0.34792969 109.6940625 -0.32085937 110.953125 -0.29296875 C113.97052741 -0.22224838 116.9843757 -0.12359116 120 0 C115.74805558 6.91769216 111.23144392 13.5126734 106.39892578 20.03198242 C101.33303314 26.87290499 96.44208539 33.83221321 91.55126953 40.79882812 C89.94723312 43.07487349 88.33242747 45.34294081 86.71484375 47.609375 C86.17657959 48.36557129 85.63831543 49.12176758 85.08374023 49.90087891 C84.06097046 51.33720273 83.03590347 52.77189482 82.00805664 54.20458984 C79.0655113 58.34640146 76.45112568 62.54866328 74 67 C74.3309668 67.45624756 74.66193359 67.91249512 75.00292969 68.38256836 C81.04885802 76.72224617 87.07528052 85.07364385 93 93.5 C97.16745058 99.42587437 101.37814913 105.31826365 105.625 111.1875 C106.16342529 111.93257813 106.70185059 112.67765625 107.2565918 113.4453125 C109.84559778 117.02688224 112.44005724 120.60430507 115.04296875 124.17578125 C115.96630575 125.450405 116.88949148 126.72513836 117.8125 128 C118.23934082 128.58160889 118.66618164 129.16321777 119.10595703 129.76245117 C122 133.77318424 122 133.77318424 122 136 C113.74649316 137.40089196 105.11513418 138.53081289 97 136 C90.69405645 131.16341458 87.17873505 123.75538573 83.54199219 116.84667969 C81.39774687 112.88817741 78.86879082 109.27890995 76.25 105.625 C75.38147711 104.36900723 74.51556921 103.11120199 73.65234375 101.8515625 C73.22550293 101.2318457 72.79866211 100.61212891 72.35888672 99.97363281 C69.84134675 96.31718418 67.3271965 92.65840449 64.8125 89 C63.88152361 87.64582426 62.95053533 86.2916567 62.01953125 84.9375 C61.35308594 83.968125 60.68664063 82.99875 60 82 C56.78804638 85.90181894 53.90273248 89.95212691 51.0625 94.125 C50.59013916 94.81513184 50.11777832 95.50526367 49.63110352 96.21630859 C47.54418725 99.2666001 45.46284506 102.32067641 43.38183594 105.375 C42.84075195 106.1690625 42.29966797 106.963125 41.7421875 107.78125 C40.92754028 108.98019897 40.92754028 108.98019897 40.09643555 110.20336914 C38.98923315 111.81960763 37.87082776 113.42822752 36.74145508 115.02905273 C34.16201305 118.70085768 31.78806434 122.27256718 29.83203125 126.31640625 C25.9366478 133.85086152 25.9366478 133.85086152 22 136 C13.78810741 137.65830495 5.27365 136.8604596 -3 136 C-1.75153755 132.59025271 -0.3501845 129.8477451 1.8359375 126.953125 C2.68103882 125.8228186 2.68103882 125.8228186 3.54321289 124.66967773 C4.44994751 123.47193726 4.44994751 123.47193726 5.375 122.25 C6.65375046 120.53881073 7.93106892 118.82655052 9.20703125 117.11328125 C9.84721191 116.25428223 10.48739258 115.3952832 11.14697266 114.51025391 C13.84239002 110.85883344 16.4590318 107.15479828 19.0625 103.4375 C22.70963928 98.23630373 26.3854561 93.05862022 30.11083984 87.91308594 C31.23080194 86.36602782 32.34838201 84.81724202 33.46337891 83.26660156 C35.75175663 80.08576354 38.04505055 76.91787977 40.4453125 73.8203125 C41.10273437 72.95148438 41.76015625 72.08265625 42.4375 71.1875 C42.99308594 70.47980469 43.54867188 69.77210938 44.12109375 69.04296875 C45.22750896 67.01131523 45.22750896 67.01131523 44.52734375 64.75390625 C42.36273329 60.85096412 39.78096982 57.3312556 37.125 53.75 C35.93926955 52.1308192 34.75439269 50.511013 33.5703125 48.890625 C32.9712207 48.07271484 32.37212891 47.25480469 31.75488281 46.41210938 C29.12925578 42.80315068 26.56299805 39.15357154 24 35.5 C18.70034755 27.96141911 13.31665941 20.48564528 7.91015625 13.0234375 C7.18143311 12.01361816 7.18143311 12.01361816 6.43798828 10.98339844 C5.46976996 9.64794757 4.4940108 8.31793519 3.51123047 6.99316406 C0 2.21532534 0 2.21532534 0 0 Z " fill="#D1D1D1" transform="translate(1136,206)"/>
<path d="M0 0 C50.49 0 100.98 0 153 0 C153 50.82 153 101.64 153 154 C152.67 154 152.34 154 152 154 C151.90501221 153.36199463 151.81002441 152.72398926 151.7121582 152.06665039 C148.61618476 131.60382767 144.04592318 113.63570646 135 95 C134.67628418 94.33194336 134.35256836 93.66388672 134.01904297 92.97558594 C114.26762111 52.83009301 78.1248661 23.05223628 36 8.6875 C24.3022846 4.8701602 12.21543545 2.39881971 0 1 C0 0.67 0 0.34 0 0 Z " fill="#000000" transform="translate(1991,0)"/>
<path d="M0 0 C0.33 0 0.66 0 1 0 C1 50.82 1 101.64 1 154 C-49.49 154 -99.98 154 -152 154 C-152 153.67 -152 153.34 -152 153 C-150.87207031 152.85304688 -149.74414062 152.70609375 -148.58203125 152.5546875 C-104.20562436 146.3952766 -63.0712928 124.53733992 -35.4375 88.8125 C-15.57625278 62.54216778 -3.77770825 32.69026745 0 0 Z " fill="#000000" transform="translate(2143,358)"/>
<path d="M0 0 C0.33 0 0.66 0 1 0 C1.14695313 1.12792969 1.29390625 2.25585938 1.4453125 3.41796875 C6.80858522 42.05847782 23.23094241 74.89248953 50 103 C50.66515625 103.71800781 51.3303125 104.43601562 52.015625 105.17578125 C78.24442769 132.67194205 116.1381454 146.97338346 153 152 C153 152.33 153 152.66 153 153 C102.51 153 52.02 153 0 153 C0 102.51 0 52.02 0 0 Z " fill="#000000" transform="translate(0,359)"/>
<path d="M0 0 C50.49 0 100.98 0 153 0 C153 0.33 153 0.66 153 1 C151.87207031 1.14695313 150.74414062 1.29390625 149.58203125 1.4453125 C110.94152218 6.80858522 78.10751047 23.23094241 50 50 C49.28199219 50.66515625 48.56398437 51.3303125 47.82421875 52.015625 C20.32805795 78.24442769 6.02661654 116.1381454 1 153 C0.67 153 0.34 153 0 153 C0 102.51 0 52.02 0 0 Z " fill="#000000" transform="translate(0,0)"/>
<path d="M0 0 C27.06 0 54.12 0 82 0 C82.16121214 36.12943112 82.16121214 36.12943112 82.1953125 51.3125 C82.21901281 61.78067904 82.24681849 72.24872893 82.30175781 82.71679688 C82.34175726 90.34190783 82.3674639 97.96691364 82.37635398 105.59212661 C82.38154666 109.62576176 82.39366078 113.65909625 82.42292023 117.69263458 C82.4502972 121.49789947 82.45840066 125.30274305 82.45243073 129.10809708 C82.4535211 130.49632948 82.46134159 131.88457763 82.4768219 133.27272415 C82.61371274 146.19401309 80.58084545 156.51238105 71.3671875 165.9375 C68.147335 168.74291604 65.03490335 170.63021731 61 172 C60.06808838 172.3407959 59.13617676 172.6815918 58.17602539 173.03271484 C52.58725787 174.60878908 46.82382807 174.24530515 41.06640625 174.1953125 C39.83333237 174.1924826 38.60025848 174.18965271 37.32981873 174.18673706 C33.40727875 174.1755786 29.4849705 174.15048151 25.5625 174.125 C22.89648772 174.11383396 20.23047761 174.10583976 17.56445312 174.09765625 C11.04288002 174.07565338 4.52147925 174.04115297 -2 174 C-2 167.73 -2 161.46 -2 155 C0.11039673 154.97812622 0.11039673 154.97812622 2.26342773 154.95581055 C7.51367839 154.89757182 12.76351161 154.82034077 18.01342773 154.73754883 C20.27996006 154.70441948 22.54657251 154.67635072 24.81323242 154.65356445 C28.08286488 154.61979765 31.35177098 154.56747028 34.62109375 154.51171875 C36.12632851 154.50213387 36.12632851 154.50213387 37.66197205 154.49235535 C43.69346488 154.36803347 49.5966399 153.92114451 55 151 C58.73924129 146.63740948 60.11770202 141.63941923 60.15821838 136.00764465 C60.1680072 134.97699387 60.17779602 133.94634308 60.18788147 132.88446045 C60.19363693 131.75445618 60.1993924 130.6244519 60.20532227 129.46020508 C60.21522186 128.26983139 60.22512146 127.0794577 60.23532104 125.85301208 C60.26151306 122.58884365 60.2833734 119.32468039 60.30332303 116.06046891 C60.32519096 112.64914713 60.3525757 109.23786979 60.37937927 105.82658386 C60.42929525 99.36683565 60.47423814 92.90706276 60.51740164 86.44726628 C60.57162671 78.37171202 60.63247689 70.29620947 60.69335938 62.22070312 C60.8019456 47.81384179 60.90049583 33.40693329 61 19 C40.87 19 20.74 19 0 19 C0 12.73 0 6.46 0 0 Z " fill="#D2D2D2" transform="translate(1610,206)"/>
<path d="M0 0 C8.16746144 5.79036446 13.08950431 12.89794838 15.71875 22.609375 C15.71875 25.909375 15.71875 29.209375 15.71875 32.609375 C-8.70125 32.609375 -33.12125 32.609375 -58.28125 32.609375 C-56.83291509 19.57436082 -53.21047301 10.42277328 -43.28125 1.609375 C-30.29941905 -7.61684265 -13.63415053 -8.31122875 0 0 Z " fill="#181818" transform="translate(1063.28125,228.390625)"/>
<path d="M0 0 C10.56 0 21.12 0 32 0 C32 10.56 32 21.12 32 32 C21.44 32 10.88 32 0 32 C0 21.44 0 10.88 0 0 Z " fill="#CDCDCD" transform="translate(1487,310)"/>
<path d="M0 0 C7.59 0 15.18 0 23 0 C23 8.58 23 17.16 23 26 C15.41 26 7.82 26 0 26 C0 17.42 0 8.84 0 0 Z " fill="#C9C9C9" transform="translate(1669,159)"/>
</svg>
