<svg width="70" height="69" viewBox="0 0 70 69" fill="none" xmlns="http://www.w3.org/2000/svg">
<rect width="70" height="69" rx="14" fill="white" fill-opacity="0.1"/>
<g filter="url(#filter0_ii_1_995)">
<rect width="70" height="69" rx="14" fill="white" fill-opacity="0.01"/>
</g>
<g clip-path="url(#clip0_1_995)">
<path d="M39.6875 39.2969L38.9062 40.625C38.7946 40.8216 38.6335 40.9856 38.4389 41.1007C38.2443 41.2158 38.0229 41.2781 37.7969 41.2812H31.9219C31.4531 41.2812 31.0312 41.0312 30.7969 40.625L30.0156 39.2969H39.6875ZM41.8281 35.5625L40.4844 37.9063H29.2187L27.8594 35.5625H41.8125H41.8281ZM40.5312 31.9219L41.8281 34.1875H27.875L29.1875 31.9219H40.5312ZM37.7969 28.4844C38.2656 28.4844 38.6875 28.7188 38.9219 29.1094L39.7344 30.5313H29.9844L30.7969 29.125C30.9099 28.9261 31.0734 28.7607 31.271 28.6454C31.4686 28.5302 31.6931 28.4692 31.9219 28.4688H37.7969V28.4844Z" fill="#00435B"/>
<path d="M23.359 27.8593C22.7183 24.6875 22.5777 22.2656 22.9996 20.5156C23.1945 19.5509 23.6862 18.6713 24.4058 18C25.1511 17.356 26.1085 17.0108 27.0933 17.0312C28.8121 17.0312 30.6246 17.8125 32.5621 19.3125C33.3433 19.9218 34.1558 20.6562 35.0152 21.5L35.234 21.2656C37.6558 19.125 39.6871 17.7968 41.4215 17.2812C42.4527 16.9687 43.4058 16.9375 44.2965 17.2343C45.234 17.5468 45.9683 18.2031 46.484 19.1093C47.3433 20.5937 47.5777 22.5468 47.2652 24.9843C47.109 25.9687 46.8902 27.0468 46.5777 28.2187C46.7027 28.2187 46.8121 28.25 46.9371 28.2968C49.984 29.2968 52.1402 30.3906 53.4527 31.6406C54.234 32.375 54.734 33.2031 54.9215 34.1093C55.1246 35.0625 54.9215 36.0312 54.4058 36.9375C53.5465 38.4218 51.9683 39.5937 49.7183 40.5312C48.8121 40.9062 47.7808 41.25 46.6402 41.5625L46.7652 41.9218C47.4058 45.0937 47.5465 47.5 47.1246 49.2656C46.9296 50.2303 46.4379 51.1098 45.7183 51.7812C44.969 52.4289 44.0053 52.7742 43.0152 52.75C41.2965 52.75 39.484 51.9687 37.5465 50.4687C36.7652 49.8437 35.9215 49.1093 35.0621 48.25C34.984 48.3906 34.8746 48.5156 34.7496 48.625C32.3433 50.7812 30.3121 52.0937 28.5777 52.6093C27.5465 52.9218 26.5933 52.9531 25.7027 52.6562C24.7652 52.3437 24.0308 51.6875 23.5152 50.7812C22.6558 49.2968 22.4215 47.3437 22.734 44.9062C22.8902 43.8906 23.1246 42.7656 23.4527 41.5468C23.3277 41.5468 23.1871 41.5156 23.0621 41.4687C20.0152 40.4531 17.859 39.375 16.5465 38.125C15.7652 37.3906 15.2652 36.5625 15.0777 35.6562C14.8746 34.6875 15.0777 33.7343 15.5933 32.8281C16.4527 31.3281 18.0308 30.1562 20.2808 29.2343C21.2183 28.8437 22.2808 28.4843 23.4683 28.1718L23.359 27.8593Z" fill="#002B3B"/>
<path d="M44.6242 42.2344C44.9367 42.1875 45.2179 42.3906 45.296 42.6719V42.7031L45.3273 42.8594C46.3742 48.375 45.6398 51.1406 43.1085 51.1406C40.6398 51.1406 37.4835 48.7813 33.671 44.0781C33.6042 43.994 33.5622 43.8929 33.5496 43.7862C33.537 43.6795 33.5544 43.5714 33.5998 43.4741C33.6453 43.3767 33.7169 43.2939 33.8068 43.235C33.8967 43.1761 34.0011 43.1434 34.1085 43.1406H34.3273C37.7856 43.1616 41.2382 42.8582 44.6398 42.2344H44.6242ZM27.2804 38.0781H27.296L27.4054 38.2656C29.1362 41.2846 31.1449 44.1355 33.4054 46.7812C33.5015 46.8946 33.5503 47.0407 33.5416 47.1891C33.5329 47.3375 33.4673 47.4768 33.3585 47.5781V47.5938L33.2023 47.7031C28.9523 51.3594 26.171 52.0781 24.8898 49.8906C23.6398 47.75 24.1085 43.8438 26.2648 38.1719C26.3054 38.0753 26.3715 37.9917 26.456 37.9298C26.5405 37.8679 26.6402 37.8301 26.7445 37.8205C26.8488 37.8109 26.9537 37.8297 27.0481 37.8751C27.1425 37.9205 27.2228 37.9907 27.2804 38.0781ZM46.796 29.9531H46.8117L46.9679 30C52.2335 31.8281 54.2492 33.8437 52.9835 36.0469C51.7335 38.1875 48.1398 39.75 42.2023 40.7344C42.0931 40.7556 41.9802 40.7449 41.877 40.7036C41.7738 40.6622 41.6847 40.592 41.6204 40.5013C41.556 40.4106 41.5192 40.3033 41.5144 40.1922C41.5095 40.0811 41.5368 39.971 41.5929 39.875C43.3909 36.831 44.8976 33.624 46.0929 30.2969C46.1426 30.1624 46.2404 30.0512 46.3674 29.9848C46.4945 29.9184 46.6417 29.9015 46.7804 29.9375H46.796V29.9531ZM28.2023 29.0156C28.4679 29.1719 28.5617 29.5312 28.4054 29.7969C26.6074 32.8409 25.1007 36.0478 23.9054 39.375C23.8556 39.5129 23.7553 39.6267 23.6248 39.6934C23.4942 39.7602 23.3432 39.7748 23.2023 39.7344H23.1867L23.0304 39.6719C17.7648 37.8438 15.7492 35.8281 17.0148 33.6406C18.2648 31.4844 21.8585 29.9219 27.796 28.9531C27.9523 28.9219 28.0773 28.9531 28.1867 29.0156H28.2023ZM45.0929 20C46.3429 22.1406 45.8742 26.0469 43.7179 31.7188C43.6773 31.8153 43.6112 31.899 43.5267 31.9608C43.4422 32.0227 43.3425 32.0605 43.2382 32.0701C43.1339 32.0798 43.029 32.0609 42.9346 32.0155C42.8402 31.9701 42.7599 31.9 42.7023 31.8125H42.6867L42.5773 31.625C40.8465 28.606 38.8378 25.7551 36.5773 23.1094C36.4812 22.996 36.4324 22.8499 36.4411 22.7015C36.4498 22.5532 36.5154 22.4138 36.6242 22.3125V22.2969L36.7804 22.1875C41.0304 18.5313 43.8117 17.8125 45.0929 20ZM27.0929 18.6875C29.5773 18.6875 32.7179 21.0312 36.5304 25.7344C36.5966 25.8175 36.6386 25.9172 36.6518 26.0226C36.665 26.1279 36.649 26.2349 36.6054 26.3318C36.5618 26.4286 36.4924 26.5116 36.4047 26.5716C36.3171 26.6316 36.2146 26.6663 36.1085 26.6719H35.8898C32.4315 26.6509 28.9789 26.9543 25.5773 27.5781C25.2648 27.625 24.9835 27.4375 24.921 27.1406V27.125L24.8898 26.9531C23.8429 21.4375 24.5773 18.6719 27.0929 18.6719V18.6875Z" fill="#FF4154"/>
<path d="M32.3906 28.5469H37.3281C38.0469 28.5469 38.7188 28.9219 39.0781 29.5469L41.5469 33.875C41.9062 34.5 41.9062 35.25 41.5469 35.875L39.0781 40.1875C38.7188 40.8125 38.0469 41.2031 37.3281 41.2031H32.3906C31.6719 41.2031 31 40.8125 30.6406 40.1875L28.1719 35.875C27.8125 35.25 27.8125 34.4844 28.1719 33.875L30.625 29.5313C30.9844 28.9063 31.6562 28.5312 32.375 28.5312L32.3906 28.5469ZM36.5625 29.8438C37.2812 29.8438 37.9375 30.2344 38.2969 30.8594L40.0312 33.875C40.3906 34.5 40.3906 35.25 40.0312 35.875L38.3125 38.8906C37.9375 39.5156 37.2812 39.9062 36.5625 39.9062H33.125C32.4062 39.9062 31.7344 39.5156 31.375 38.8906L29.6563 35.875C29.2969 35.25 29.2969 34.4844 29.6563 33.875L31.375 30.8594C31.7344 30.2344 32.4062 29.8438 33.125 29.8438H36.5625ZM35.75 31.2656H33.9375C33.2187 31.2656 32.5469 31.6562 32.1875 32.2812L31.2812 33.875C30.9219 34.5 30.9219 35.25 31.2812 35.875L32.1875 37.4688C32.5469 38.0938 33.2187 38.4688 33.9375 38.4688H35.75C36.4688 38.4688 37.125 38.0938 37.4844 37.4688L38.4062 35.875C38.7656 35.25 38.7656 34.4844 38.4062 33.875L37.5 32.2812C37.1406 31.6562 36.4844 31.2656 35.7656 31.2656H35.75ZM34.9688 32.6406C35.6875 32.6406 36.3437 33.0156 36.7031 33.6406L36.8438 33.875C37.2031 34.5 37.2031 35.25 36.8438 35.875L36.7031 36.1094C36.3437 36.7344 35.6875 37.1094 34.9688 37.1094H34.7187C34 37.1094 33.3281 36.7344 32.9688 36.1094L32.8437 35.875C32.4844 35.25 32.4844 34.4844 32.8437 33.875L32.9688 33.6406C33.3281 33.0156 34 32.6406 34.7187 32.6406H34.9688ZM34.8438 33.9844C34.6075 33.9844 34.381 34.0782 34.214 34.2452C34.047 34.4123 33.9531 34.6388 33.9531 34.875C33.9531 35.1112 34.047 35.3377 34.214 35.5048C34.381 35.6718 34.6075 35.7656 34.8438 35.7656C35.08 35.7656 35.3065 35.6718 35.4735 35.5048C35.6405 35.3377 35.7344 35.1112 35.7344 34.875C35.7344 34.6388 35.6405 34.4123 35.4735 34.2452C35.3065 34.0782 35.08 33.9844 34.8438 33.9844ZM27.5781 34.875H29.1875H27.5781Z" fill="#FFD94C"/>
</g>
<defs>
<filter id="filter0_ii_1_995" x="0" y="0" width="70" height="69" filterUnits="userSpaceOnUse" color-interpolation-filters="sRGB">
<feFlood flood-opacity="0" result="BackgroundImageFix"/>
<feBlend mode="normal" in="SourceGraphic" in2="BackgroundImageFix" result="shape"/>
<feColorMatrix in="SourceAlpha" type="matrix" values="0 0 0 0 0 0 0 0 0 0 0 0 0 0 0 0 0 0 127 0" result="hardAlpha"/>
<feMorphology radius="1" operator="erode" in="SourceAlpha" result="effect1_innerShadow_1_995"/>
<feOffset/>
<feComposite in2="hardAlpha" operator="arithmetic" k2="-1" k3="1"/>
<feColorMatrix type="matrix" values="0 0 0 0 1 0 0 0 0 1 0 0 0 0 1 0 0 0 0.06 0"/>
<feBlend mode="normal" in2="shape" result="effect1_innerShadow_1_995"/>
<feColorMatrix in="SourceAlpha" type="matrix" values="0 0 0 0 0 0 0 0 0 0 0 0 0 0 0 0 0 0 127 0" result="hardAlpha"/>
<feOffset dy="1"/>
<feComposite in2="hardAlpha" operator="arithmetic" k2="-1" k3="1"/>
<feColorMatrix type="matrix" values="0 0 0 0 1 0 0 0 0 1 0 0 0 0 1 0 0 0 0.1 0"/>
<feBlend mode="normal" in2="effect1_innerShadow_1_995" result="effect2_innerShadow_1_995"/>
</filter>
<clipPath id="clip0_1_995">
<rect x="15" y="15" width="40" height="40" rx="6" fill="white"/>
</clipPath>
</defs>
</svg>
