<svg width="68" height="70" viewBox="0 0 68 70" fill="none" xmlns="http://www.w3.org/2000/svg">
<rect width="68" height="70" rx="14" fill="white" fill-opacity="0.1"/>
<g filter="url(#filter0_ii_1_888)">
<rect width="68" height="70" rx="14" fill="white" fill-opacity="0.01"/>
</g>
<g clip-path="url(#clip0_1_888)">
<g clip-path="url(#clip1_1_888)">
<path d="M14 15H47.6C49.2974 15 50.9253 15.6743 52.1255 16.8745C53.3257 18.0747 54 19.7026 54 21.4V48.6C54 50.2974 53.3257 51.9253 52.1255 53.1255C50.9253 54.3257 49.2974 55 47.6 55H20.4C18.7026 55 17.0747 54.3257 15.8745 53.1255C14.6743 51.9253 14 50.2974 14 48.6V15Z" fill="#663399"/>
<path d="M46.6635 51.7961C45.3679 51.7961 44.3771 51.4193 43.6835 50.6621C42.9975 49.9009 42.6403 48.8149 42.6083 47.3965H45.4003C45.4163 48.6509 45.8571 49.2797 46.7235 49.2797C47.1651 49.2797 47.4779 49.1397 47.6583 48.8629C47.8347 48.5869 47.9271 48.1457 47.9271 47.5409C47.9271 47.0601 47.8067 46.6593 47.5739 46.3429C47.258 45.9666 46.8525 45.6758 46.3947 45.4973L45.3599 45.0001C44.4375 44.5593 43.7675 44.0385 43.3543 43.4293C42.9531 42.8241 42.7527 41.9749 42.7527 40.8893C42.7527 39.6749 43.1059 38.6893 43.8075 37.9317C44.5295 37.1745 45.5123 36.7981 46.7675 36.7981C47.9795 36.7981 48.9179 37.1705 49.5795 37.9117C50.2535 38.6573 50.6063 39.7229 50.6347 41.1173H47.9471C47.9631 40.6613 47.8711 40.2085 47.6783 39.7949C47.5263 39.4909 47.2291 39.3385 46.7879 39.3385C46.0019 39.3385 45.6087 39.8069 45.6087 40.7405C45.6087 41.2137 45.7047 41.5821 45.8975 41.8625C46.1752 42.1727 46.5232 42.4119 46.9123 42.5601L47.9031 42.9969C48.9259 43.4657 49.6639 44.0389 50.1171 44.7321C50.5743 45.4213 50.7991 46.3429 50.7991 47.4969C50.7991 48.8793 50.4379 49.9409 49.7039 50.6821C48.9739 51.4233 47.9591 51.7961 46.6639 51.7961H46.6635ZM37.6467 51.7961C36.3507 51.7961 35.3603 51.4193 34.6663 50.6621C33.9803 49.9009 33.6235 48.8149 33.5915 47.3965H36.3831C36.3991 48.6509 36.8403 49.2797 37.7071 49.2797C38.1479 49.2797 38.4607 49.1397 38.6371 48.8629C38.8179 48.5869 38.9059 48.1457 38.9059 47.5409C38.9059 47.0601 38.7899 46.6593 38.5571 46.3429C38.2412 45.9666 37.8357 45.6758 37.3779 45.4973L36.3431 45.0001C35.4203 44.5593 34.7507 44.0385 34.3375 43.4293C33.9363 42.8241 33.7359 41.9749 33.7359 40.8893C33.7359 39.6749 34.0887 38.6893 34.7907 37.9317C35.5127 37.1745 36.4955 36.7981 37.7507 36.7981C38.9623 36.7981 39.9007 37.1705 40.5587 37.9117C41.2407 38.6573 41.5895 39.7229 41.6175 41.1173H38.9303C38.9463 40.6613 38.8543 40.2085 38.6615 39.7949C38.5091 39.4909 38.2123 39.3385 37.7711 39.3385C36.9847 39.3385 36.5915 39.8069 36.5915 40.7405C36.5915 41.2137 36.6879 41.5821 36.8803 41.8625C37.158 42.1727 37.506 42.4119 37.8951 42.5601L38.8859 42.9969C39.9087 43.4657 40.6467 44.0389 41.1003 44.7321C41.5535 45.4213 41.7819 46.3429 41.7819 47.4969C41.7819 48.8793 41.4171 49.9409 40.6871 50.6821C39.9571 51.4233 38.9423 51.7961 37.6467 51.7961ZM28.2567 51.7961C26.9887 51.7961 25.9823 51.4513 25.2363 50.7621C24.4903 50.0773 24.1211 49.0473 24.1211 47.6849V40.9533C24.1211 39.5993 24.5143 38.5733 25.3003 37.8681C26.0987 37.1709 27.1455 36.8185 28.4411 36.8185C29.6967 36.8185 30.6871 37.1789 31.4211 37.8921C32.1635 38.6093 32.5363 39.6753 32.5363 41.0977V41.6305H29.5803V41.1137C29.5803 40.5649 29.4599 40.1601 29.2271 39.8957C29.1254 39.7635 28.9939 39.6572 28.8434 39.5854C28.6928 39.5137 28.5274 39.4786 28.3607 39.4829C27.8795 39.4829 27.5387 39.6469 27.3459 39.9797C27.1407 40.4401 27.0485 40.9429 27.0771 41.4461V47.2965C27.0771 48.5185 27.5067 49.1397 28.3611 49.1517C28.7619 49.1517 29.0627 49.0073 29.2715 48.7189C29.4982 48.3546 29.6062 47.9288 29.5803 47.5005V47.0641H32.5363V47.5209C32.5363 48.4705 32.3519 49.2637 31.9787 49.8969C31.624 50.5149 31.0916 51.0119 30.4507 51.3233C29.7663 51.65 29.0149 51.8119 28.2567 51.7961Z" fill="white"/>
</g>
</g>
<defs>
<filter id="filter0_ii_1_888" x="0" y="0" width="68" height="70" filterUnits="userSpaceOnUse" color-interpolation-filters="sRGB">
<feFlood flood-opacity="0" result="BackgroundImageFix"/>
<feBlend mode="normal" in="SourceGraphic" in2="BackgroundImageFix" result="shape"/>
<feColorMatrix in="SourceAlpha" type="matrix" values="0 0 0 0 0 0 0 0 0 0 0 0 0 0 0 0 0 0 127 0" result="hardAlpha"/>
<feMorphology radius="1" operator="erode" in="SourceAlpha" result="effect1_innerShadow_1_888"/>
<feOffset/>
<feComposite in2="hardAlpha" operator="arithmetic" k2="-1" k3="1"/>
<feColorMatrix type="matrix" values="0 0 0 0 1 0 0 0 0 1 0 0 0 0 1 0 0 0 0.06 0"/>
<feBlend mode="normal" in2="shape" result="effect1_innerShadow_1_888"/>
<feColorMatrix in="SourceAlpha" type="matrix" values="0 0 0 0 0 0 0 0 0 0 0 0 0 0 0 0 0 0 127 0" result="hardAlpha"/>
<feOffset dy="1"/>
<feComposite in2="hardAlpha" operator="arithmetic" k2="-1" k3="1"/>
<feColorMatrix type="matrix" values="0 0 0 0 1 0 0 0 0 1 0 0 0 0 1 0 0 0 0.1 0"/>
<feBlend mode="normal" in2="effect1_innerShadow_1_888" result="effect2_innerShadow_1_888"/>
</filter>
<clipPath id="clip0_1_888">
<rect x="14" y="15" width="40" height="40" rx="6" fill="white"/>
</clipPath>
<clipPath id="clip1_1_888">
<rect width="40" height="40" fill="white" transform="translate(14 15)"/>
</clipPath>
</defs>
</svg>
