<svg width="40" height="41" viewBox="0 0 40 41" fill="none" xmlns="http://www.w3.org/2000/svg">
<rect width="40" height="40" rx="9.09091" fill="white" fill-opacity="0.1"/>
<g filter="url(#filter0_ii_1_548)">
<rect width="39.5455" height="40.4545" rx="9.09091" fill="white" fill-opacity="0.01"/>
</g>
<path d="M15 12.001C14.9997 12.5314 14.7888 13.04 14.4135 13.4149C14.0382 13.7898 13.5294 14.0003 12.999 14C12.4686 13.9997 11.96 13.7888 11.5851 13.4135C11.2102 13.0382 10.9997 12.5294 11 11.999C11.0003 11.4686 11.2112 10.96 11.5865 10.5851C11.9618 10.2102 12.4706 9.99974 13.001 10C13.5314 10.0003 14.04 10.2112 14.4149 10.5865C14.7898 10.9618 15.0003 11.4706 15 12.001ZM15.06 15.481H11.06V28.001H15.06V15.481ZM21.38 15.481H17.4V28.001H21.34V21.431C21.34 17.771 26.11 17.431 26.11 21.431V28.001H30.06V20.071C30.06 13.901 23 14.131 21.34 17.161L21.38 15.481Z" fill="#BDBDBD"/>
<defs>
<filter id="filter0_ii_1_548" x="0" y="0" width="39.5455" height="40.4546" filterUnits="userSpaceOnUse" color-interpolation-filters="sRGB">
<feFlood flood-opacity="0" result="BackgroundImageFix"/>
<feBlend mode="normal" in="SourceGraphic" in2="BackgroundImageFix" result="shape"/>
<feColorMatrix in="SourceAlpha" type="matrix" values="0 0 0 0 0 0 0 0 0 0 0 0 0 0 0 0 0 0 127 0" result="hardAlpha"/>
<feMorphology radius="0.909091" operator="erode" in="SourceAlpha" result="effect1_innerShadow_1_548"/>
<feOffset/>
<feComposite in2="hardAlpha" operator="arithmetic" k2="-1" k3="1"/>
<feColorMatrix type="matrix" values="0 0 0 0 1 0 0 0 0 1 0 0 0 0 1 0 0 0 0.06 0"/>
<feBlend mode="normal" in2="shape" result="effect1_innerShadow_1_548"/>
<feColorMatrix in="SourceAlpha" type="matrix" values="0 0 0 0 0 0 0 0 0 0 0 0 0 0 0 0 0 0 127 0" result="hardAlpha"/>
<feOffset dy="0.909091"/>
<feComposite in2="hardAlpha" operator="arithmetic" k2="-1" k3="1"/>
<feColorMatrix type="matrix" values="0 0 0 0 1 0 0 0 0 1 0 0 0 0 1 0 0 0 0.1 0"/>
<feBlend mode="normal" in2="effect1_innerShadow_1_548" result="effect2_innerShadow_1_548"/>
</filter>
</defs>
</svg>
