<svg width="70" height="69" viewBox="0 0 70 69" fill="none" xmlns="http://www.w3.org/2000/svg">
<rect width="70" height="69" rx="14" fill="white" fill-opacity="0.1"/>
<g filter="url(#filter0_ii_1_1003)">
<rect width="70" height="69" rx="14" fill="white" fill-opacity="0.01"/>
</g>
<g clip-path="url(#clip0_1_1003)">
<g clip-path="url(#clip1_1_1003)">
<path d="M44.9986 15.3126C44.5679 15.3496 44.146 15.4551 43.7486 15.6251L42.8111 15.9376C42.6061 16.1493 42.3978 16.3576 42.1861 16.5626C41.8751 16.8766 41.5626 17.1891 41.2486 17.5001C40.9021 17.7766 40.5876 18.0911 40.3111 18.4376V18.7501H39.9986C39.8371 18.9245 39.7287 19.1413 39.6861 19.3751V19.6876C39.6686 19.791 39.6686 19.8966 39.6861 20.0001L39.3736 20.3126C37.4395 19.7937 35.4358 19.5828 33.4361 19.6876C33.3323 19.6745 33.2273 19.6745 33.1236 19.6876H32.8111C30.6512 19.831 28.5344 20.3602 26.5611 21.2501C26.4223 21.1874 26.3112 21.0763 26.2486 20.9376L25.9361 20.6251C25.6661 20.1781 25.3521 19.7594 24.9986 19.3751L24.3736 18.7501L21.8736 18.1251H21.5611C21.3273 18.1677 21.1105 18.2761 20.9361 18.4376H20.6236L19.0611 20.0001C18.4361 20.6251 18.1236 21.5626 18.1236 22.5001L17.8111 24.3751H18.1236L17.8111 24.6876C17.798 24.7913 17.798 24.8963 17.8111 25.0001L18.1236 25.3126V25.9376C18.2132 26.5649 18.3174 27.1901 18.4361 27.8126C18.1727 28.0846 17.9609 28.4023 17.8111 28.7501C17.6043 29.0636 17.396 29.3761 17.1861 29.6876C16.2006 31.4225 15.5636 33.3333 15.3111 35.3126C15.125 35.5915 15.017 35.9153 14.9986 36.2501C14.9536 36.7699 14.9536 37.2927 14.9986 37.8126L14.9986 40.0001C15.231 40.9624 15.5446 41.9033 15.9361 42.8126V43.1251C16.1821 43.9819 16.4955 44.8178 16.8736 45.6251L17.4986 46.5626C17.7882 46.9959 18.1012 47.4132 18.4361 47.8126L18.7486 48.1251L19.3736 48.7501L19.6861 49.3751C20.0076 49.6784 20.3202 49.9911 20.6236 50.3126L21.5611 50.9376C22.065 51.2775 22.5865 51.5904 23.1236 51.8751C23.53 52.201 23.9469 52.5137 24.3736 52.8126L25.3111 53.1251L27.1861 53.7501L28.1236 54.0626C28.3311 54.0364 28.5411 54.0364 28.7486 54.0626C29.8909 54.29 31.0368 54.4984 32.1861 54.6876C32.6023 54.7154 33.0199 54.7154 33.4361 54.6876C34.2682 54.7518 35.104 54.7518 35.9361 54.6876L36.8736 54.3751C37.1844 54.266 37.497 54.1618 37.8111 54.0626C38.2195 53.9278 38.6373 53.8234 39.0611 53.7501C39.5788 53.5341 40.0997 53.3257 40.6236 53.1251L41.2486 52.8126H41.5611L42.8111 52.1876L43.1236 51.8751C43.2275 51.8855 43.3322 51.8855 43.4361 51.8751C43.879 51.5991 44.2972 51.2855 44.6861 50.9376C45.0043 50.738 45.3169 50.5295 45.6236 50.3126C46.1895 49.8389 46.7124 49.316 47.1861 48.7501C47.3556 48.5063 47.5673 48.2946 47.8111 48.1251C48.0288 47.9264 48.2374 47.7178 48.4361 47.5001C49.4837 46.1751 50.3264 44.7003 50.9361 43.1251L51.2486 42.8126V42.5001C51.2355 42.3963 51.2355 42.2913 51.2486 42.1876V41.8751C51.3264 41.7475 51.4335 41.6404 51.5611 41.5626V40.9376C51.6695 40.8764 51.7572 40.7842 51.8128 40.6728C51.8685 40.5615 51.8897 40.436 51.8736 40.3126C51.9265 40.1076 51.9265 39.8925 51.8736 39.6876C52.0399 38.8632 52.1444 38.0275 52.1861 37.1876C52.1525 36.876 52.1525 36.5617 52.1861 36.2501C52.1332 36.0451 52.1332 35.83 52.1861 35.6251V35.3126C52.1332 35.1076 52.1332 34.8925 52.1861 34.6876C52.5209 34.6691 52.8446 34.5612 53.1236 34.3751C53.3373 34.2821 53.5459 34.1778 53.7486 34.0626C53.9294 33.9023 54.0413 33.6784 54.0611 33.4376L54.3736 33.1251V32.8126H54.6861C54.9387 32.3328 55.0472 31.7901 54.9986 31.2501C55.026 31.2026 55.0404 31.1487 55.0404 31.0938C55.0404 31.039 55.026 30.9851 54.9986 30.9376C54.9448 30.6105 54.8393 30.294 54.6861 30.0001C54.6861 29.9172 54.6532 29.8377 54.5946 29.7791C54.5359 29.7205 54.4565 29.6876 54.3736 29.6876C54.3736 29.6465 54.3655 29.6059 54.3498 29.568C54.3341 29.5301 54.3111 29.4956 54.2821 29.4666C54.253 29.4376 54.2186 29.4146 54.1807 29.3989C54.1428 29.3832 54.1021 29.3751 54.0611 29.3751C53.8457 29.2856 53.6369 29.1812 53.4361 29.0626L52.8111 28.7501H51.8736C51.6498 28.8201 51.4388 28.9256 51.2486 29.0626C50.9298 29.1469 50.6167 29.2512 50.3111 29.3751C49.4888 27.7719 48.4359 26.2979 47.1861 25.0001V24.6876L47.4986 23.4376C48.1236 22.5001 48.1236 21.5626 48.4361 20.3126L48.1236 17.5001C48.0388 17.3782 47.933 17.2724 47.8111 17.1876L46.2486 15.6251C46.0617 15.4827 45.8497 15.3767 45.6236 15.3126C45.4156 15.2965 45.2066 15.2965 44.9986 15.3126ZM44.9986 15.9376C45.1026 15.9311 45.207 15.9311 45.3111 15.9376C45.4151 15.9311 45.5195 15.9311 45.6236 15.9376C45.4161 15.9114 45.2061 15.9114 44.9986 15.9376ZM46.8736 16.8751C46.901 16.9226 46.9154 16.9765 46.9154 17.0313C46.9154 17.0862 46.901 17.1401 46.8736 17.1876V16.8751ZM44.3736 17.5001C44.2695 17.4943 44.1652 17.4943 44.0611 17.5001H44.3736ZM42.8111 18.1251L42.1861 18.4376C41.8278 18.7006 41.5116 19.0168 41.2486 19.3751C41.1093 19.6748 41.0045 19.9893 40.9361 20.3126L41.2486 19.3751C41.5116 19.0168 41.8278 18.7006 42.1861 18.4376L42.8111 18.1251ZM44.3736 17.8126L45.6236 18.1251L45.9361 18.4376C46.0791 18.8435 46.1838 19.262 46.2486 19.6876V21.2501C46.276 21.2976 46.2904 21.3515 46.2904 21.4063C46.2904 21.4612 46.276 21.5151 46.2486 21.5626V21.8751L45.9361 22.1876V22.5001C45.9087 22.5476 45.8942 22.6015 45.8942 22.6563C45.8942 22.7112 45.9087 22.7651 45.9361 22.8126L45.6236 23.1251C45.5971 23.2276 45.5971 23.3351 45.6236 23.4376C45.6236 23.7501 45.6236 23.7501 45.6236 23.4376C44.0611 22.5001 42.8111 21.5626 40.9361 20.9376L41.5611 20.3126C41.8736 19.3751 42.8111 18.4376 43.7486 18.1251L44.3736 17.8126ZM48.1236 19.6876V20.0001C48.1268 19.8959 48.1268 19.7917 48.1236 19.6876ZM48.1236 20.9376C48.0492 21.1595 47.944 21.3699 47.8111 21.5626L48.1236 20.9376ZM33.1236 20.6251C32.9153 20.6164 32.7068 20.6164 32.4986 20.6251C32.6027 20.6272 32.7069 20.6272 32.8111 20.6251H33.1236ZM39.3736 20.6251H39.6861L39.9986 20.9376C39.9097 20.8191 39.8045 20.7139 39.6861 20.6251C39.5819 20.6227 39.4777 20.6227 39.3736 20.6251ZM47.4986 21.2501V21.5626C47.4899 21.4586 47.4899 21.3541 47.4986 21.2501ZM22.1861 21.5626H22.4986C22.6011 21.589 22.7086 21.589 22.8111 21.5626L24.3736 22.5001V22.8126L25.3111 23.7501L25.9361 24.6876C25.9163 24.9284 25.8044 25.1523 25.6236 25.3126V25.0001H25.3111V25.6251L24.9986 25.9376H24.6861V25.6251H24.3736C24.5236 25.8071 24.6304 26.0208 24.6861 26.2501C24.512 26.49 24.3011 26.701 24.0611 26.8751H23.7486V27.1876L23.1236 27.8126C22.9848 27.7499 22.8737 27.6388 22.8111 27.5001C22.8286 27.3966 22.8286 27.291 22.8111 27.1876H22.4986C22.4721 27.2901 22.4721 27.3976 22.4986 27.5001V27.8126L22.8111 28.1251L22.1861 28.4376C22.1083 28.31 22.0012 28.2029 21.8736 28.1251V28.4376L22.1861 28.7501L21.5611 29.0626C21.4296 28.7598 21.325 28.4461 21.2486 28.1251C21.1267 28.0403 21.0209 27.9345 20.9361 27.8126V27.5001C20.8886 27.5275 20.8347 27.5419 20.7798 27.5419C20.725 27.5419 20.6711 27.5275 20.6236 27.5001H20.9361C20.9492 27.3963 20.9492 27.2913 20.9361 27.1876C20.8085 27.1098 20.7014 27.0027 20.6236 26.8751C20.6471 26.563 20.6471 26.2496 20.6236 25.9376V25.3126C20.6411 25.2091 20.6411 25.1035 20.6236 25.0001V24.3751C20.6784 24.2801 20.7073 24.1723 20.7073 24.0626C20.7073 23.9529 20.6784 23.8451 20.6236 23.7501C20.5971 23.6476 20.5971 23.5401 20.6236 23.4376C20.7 23.1165 20.8046 22.8028 20.9361 22.5001C21.1105 22.3386 21.3273 22.2302 21.5611 22.1876C21.7564 21.9666 21.9651 21.7579 22.1861 21.5626ZM24.0611 21.5626V21.8751C24.0715 21.7712 24.0715 21.6665 24.0611 21.5626ZM32.8111 21.5626L33.1236 21.8751C33.2606 22.0653 33.3661 22.2763 33.4361 22.5001L33.7486 22.8126V23.1251H33.4361C33.4375 23.0209 33.4375 22.9167 33.4361 22.8126C33.0704 22.5582 32.7529 22.2408 32.4986 21.8751V21.5626H32.8111ZM42.1861 22.1876C42.5033 22.2771 42.8161 22.3814 43.1236 22.5001L44.3736 23.1251C43.9588 22.9131 43.5421 22.7047 43.1236 22.5001C42.9187 22.3891 42.7103 22.2849 42.4986 22.1876C42.3944 22.186 42.2902 22.186 42.1861 22.1876ZM38.7486 22.5001V22.8126C38.8612 23.3317 38.9654 23.8526 39.0611 24.3751V24.6876H38.7486C38.6808 24.3787 38.6808 24.0589 38.7486 23.7501C38.623 23.4451 38.5186 23.1319 38.4361 22.8126L38.7486 22.5001ZM29.6861 22.5001L30.3111 23.1251V23.4376L30.6236 23.7501V24.0626C30.3998 23.9926 30.1888 23.8871 29.9986 23.7501L29.3736 22.8126L29.6861 22.5001ZM25.3111 23.4376L25.6236 23.7501C25.5347 23.6316 25.4295 23.5264 25.3111 23.4376ZM35.9361 23.7501V24.0626L36.2486 24.3751V25.0001L36.5611 25.6251C36.4782 25.6251 36.3987 25.5922 36.3401 25.5335C36.2815 25.4749 36.2486 25.3955 36.2486 25.3126C36.1364 25.2168 36.0319 25.1123 35.9361 25.0001C35.7088 24.6242 35.5999 24.1887 35.6236 23.7501H35.9361ZM39.0611 24.0626L38.7486 24.3751H39.0611V24.0626ZM32.8111 24.3751L33.1236 24.6876L33.4361 25.0001C33.4087 25.0476 33.3942 25.1015 33.3942 25.1563C33.3942 25.2112 33.4087 25.2651 33.4361 25.3126L34.0611 25.9376L33.7486 26.2501C33.4079 25.9671 33.094 25.6533 32.8111 25.3126V25.0001L32.4986 24.6876L32.8111 24.3751ZM46.5611 25.9376H46.8736L47.1861 27.1876V27.8126H46.2486V26.2501L46.5611 25.9376ZM47.8111 26.2501L48.1236 26.8751C48.5312 27.4031 48.9479 27.924 49.3736 28.4376C49.2772 28.2254 49.173 28.017 49.0611 27.8126C48.7449 27.5037 48.4324 27.1912 48.1236 26.8751C48.0257 26.6636 47.9215 26.4552 47.8111 26.2501ZM40.9361 26.5626C41.2663 26.6033 41.585 26.7096 41.8736 26.8751H42.8111L43.4361 27.1876L44.3736 27.8126L45.3111 28.4376C46.0569 29.0539 46.6911 29.7938 47.1861 30.6251L47.4986 30.3126V30.6251H47.1861C47.2605 30.847 47.3657 31.0574 47.4986 31.2501C47.9041 32.0455 48.2186 32.8841 48.4361 33.7501V35.3126C48.449 37.397 47.6899 39.4124 46.305 40.9704C44.9202 42.5283 43.0076 43.5185 40.9361 43.7501C40.8886 43.7775 40.8347 43.7919 40.7798 43.7919C40.725 43.7919 40.6711 43.7775 40.6236 43.7501H38.4361C38.1403 43.6013 37.8245 43.496 37.4986 43.4376C37.2945 43.3251 37.086 43.2209 36.8736 43.1251C36.0765 42.8405 35.336 42.4173 34.6861 41.8751C33.4361 40.6251 32.4986 39.3751 31.8736 37.5001V36.8751C31.8605 36.7713 31.8605 36.6663 31.8736 36.5626V36.2501L31.5611 35.9376C31.2486 35.9376 31.2486 35.9376 31.5611 35.9376H31.8736L31.5611 35.3126V35.0001L31.8736 34.3751C31.9321 33.9483 32.0369 33.5292 32.1861 33.1251C32.2715 32.3663 32.4827 31.627 32.8111 30.9376L33.1236 30.3126C33.4627 29.825 33.886 29.4017 34.3736 29.0626L34.9986 28.4376L35.6236 28.1251C35.8181 27.9953 36.0281 27.8904 36.2486 27.8126L37.8111 27.1876C38.0304 27.1071 38.2401 27.0023 38.4361 26.8751L40.9361 26.5626L41.8736 26.8751C41.7778 26.7629 41.6733 26.6584 41.5611 26.5626C41.3536 26.5364 41.1436 26.5364 40.9361 26.5626ZM30.9361 26.5626C31.2268 26.8961 31.54 27.2094 31.8736 27.5001V27.8126L32.1861 28.1251H31.8736C31.3633 27.814 30.9347 27.3854 30.6236 26.8751L30.9361 26.5626ZM36.2486 27.5001H36.5611H35.9361C36.0386 27.4736 36.1461 27.4736 36.2486 27.5001ZM27.4986 27.8126H27.8111L28.1236 28.1251L28.4361 28.4376C28.6462 28.6442 28.8545 28.8525 29.0611 29.0626L28.1236 28.4376C27.996 28.3598 27.8889 28.2527 27.8111 28.1251H27.4986V27.8126ZM18.7486 28.4376C18.6552 28.552 18.5505 28.6567 18.4361 28.7501C18.4909 28.8451 18.5198 28.9529 18.5198 29.0626C18.5198 29.1723 18.4909 29.2801 18.4361 29.3751V28.7501L18.7486 28.4376ZM52.1861 29.0626C52.479 29.0068 52.7818 29.036 53.0587 29.1467C53.3355 29.2575 53.5749 29.4452 53.7486 29.6876L54.0611 30.0001V30.6251L54.3736 31.2501H54.0611L54.3736 31.5626V31.8751H54.0611V32.5001L53.7486 32.8126H54.0611V33.1251H53.7486L53.4361 33.4376V33.7501C53.3886 33.7226 53.3347 33.7082 53.2798 33.7082C53.225 33.7082 53.1711 33.7226 53.1236 33.7501L52.8111 34.0626L52.4986 34.3751H51.5611L50.6236 34.0626L50.3111 33.7501C49.6861 33.1251 49.3736 32.5001 49.3736 31.5626L49.6861 31.2501V30.9376C49.6861 30.8547 49.719 30.7752 49.7776 30.7166C49.8362 30.658 49.9157 30.6251 49.9986 30.6251V30.3126H50.3111C50.3537 30.0788 50.4621 29.862 50.6236 29.6876L52.1861 29.0626ZM39.9986 29.6876C39.8946 29.6789 39.7901 29.6789 39.6861 29.6876C38.7486 29.6876 37.8111 30.0001 37.1861 30.6251L36.8736 31.5626V31.8751C36.9514 32.0027 37.0585 32.1098 37.1861 32.1876H39.3736V34.3751H39.6861V35.6251H39.0611C38.8589 35.5536 38.6383 35.5536 38.4361 35.6251C38.3326 35.6076 38.227 35.6076 38.1236 35.6251H37.8111C37.4988 35.6083 37.1859 35.6083 36.8736 35.6251L36.2486 35.3126H35.9361L35.3111 35.6251L34.9986 35.9376C34.9721 36.0401 34.9721 36.1476 34.9986 36.2501C34.9012 36.3608 34.7968 36.4652 34.6861 36.5626C34.5473 36.6252 34.4362 36.7363 34.3736 36.8751L34.6861 37.5001V37.8126H34.9986V38.1251C35.1931 38.2548 35.4031 38.3598 35.6236 38.4376L35.9361 38.7501L37.1861 39.0626V39.3751C37.1584 39.8955 37.1584 40.4171 37.1861 40.9376L37.4986 42.1876L37.8111 42.5001L39.0611 42.8126L39.3736 42.5001L39.6861 42.1876C39.9134 41.8117 40.0223 41.3762 39.9986 40.9376C40.0997 40.4216 40.0997 39.891 39.9986 39.3751H39.6861V39.0626L40.3111 38.7501H40.6236C40.8258 38.6786 41.0464 38.6786 41.2486 38.7501L41.5611 38.4376H41.8736C42.2924 38.2335 42.7091 38.0252 43.1236 37.8126C43.2275 37.823 43.3322 37.823 43.4361 37.8126L43.7486 37.5001L44.0611 37.1876V36.8751C44.4076 36.5986 44.7221 36.2841 44.9986 35.9376C45.0952 35.7256 45.1994 35.5171 45.3111 35.3126V35.0001V34.3751L44.9986 34.0626L44.3736 33.7501H44.0611L42.8111 34.3751C42.7636 34.4025 42.7097 34.4169 42.6548 34.4169C42.6 34.4169 42.5461 34.4025 42.4986 34.3751L41.5611 35.0001C41.2439 35.0896 40.9311 35.1939 40.6236 35.3126H40.3111L39.9986 35.6251C39.9437 35.5301 39.9148 35.4223 39.9148 35.3126C39.9148 35.2029 39.9437 35.0951 39.9986 35.0001V34.3751C39.9628 33.7406 39.858 33.1119 39.6861 32.5001L39.3736 32.1876H40.3111L40.9361 31.5626C41.2486 31.2501 41.5611 31.2501 41.5611 30.6251L41.2486 30.0001L40.6236 29.6876C40.5195 29.6828 40.4152 29.6828 40.3111 29.6876C40.2072 29.6771 40.1025 29.6771 39.9986 29.6876ZM43.4361 37.8126C43.3322 37.823 43.2275 37.823 43.1236 37.8126C42.7091 38.0252 42.2924 38.2335 41.8736 38.4376L41.5611 38.7501V39.0626L41.8736 38.7501L42.4986 38.4376C43.0486 38.1766 43.5719 37.8626 44.0611 37.5001L43.4361 37.8126ZM19.6861 29.6876V30.0001C19.7135 29.9526 19.7279 29.8987 19.7279 29.8438C19.7279 29.789 19.7135 29.7351 19.6861 29.6876ZM17.8111 30.6251C17.8385 30.6726 17.8529 30.7265 17.8529 30.7813C17.8529 30.8362 17.8385 30.8901 17.8111 30.9376H17.4986C17.6011 30.964 17.7086 30.964 17.8111 30.9376V30.6251ZM27.4986 30.6251L28.1236 31.2501V31.8751C28.1784 31.9701 28.2073 32.0779 28.2073 32.1876C28.2073 32.2973 28.1784 32.4051 28.1236 32.5001C28.0679 32.7293 27.9611 32.943 27.8111 33.1251H27.4986L27.1861 32.8126H26.8736L26.5611 31.5626C26.6887 31.4848 26.7958 31.3777 26.8736 31.2501V30.9376C27.0681 30.8078 27.2781 30.7029 27.4986 30.6251ZM49.0611 30.9376C48.9395 31.2382 48.9395 31.5744 49.0611 31.8751C49.048 31.7713 49.048 31.6663 49.0611 31.5626V30.9376ZM50.9361 34.3751L51.5611 34.6876C51.357 34.5751 51.1485 34.4709 50.9361 34.3751ZM42.8111 34.3751C42.7131 34.4853 42.6088 34.5896 42.4986 34.6876L42.8111 34.3751ZM25.9361 35.6251L27.1861 35.9376H27.4986V36.2501L27.8111 36.5626C27.9125 36.6695 28.0167 36.7737 28.1236 36.8751V37.1876C28.285 37.362 28.3934 37.5788 28.4361 37.8126V38.7501C28.4413 38.9584 28.4413 39.1668 28.4361 39.3751C28.1204 39.7893 27.8079 40.206 27.4986 40.6251C27.4511 40.5977 27.3972 40.5832 27.3423 40.5832C27.2875 40.5832 27.2336 40.5977 27.1861 40.6251L26.8736 40.9376H25.9361V41.2501H25.6236L25.3111 40.9376L24.9986 41.2501C24.7578 41.2303 24.5339 41.1184 24.3736 40.9376C24.2658 40.8371 24.1615 40.7329 24.0611 40.6251C23.9586 40.6515 23.8511 40.6515 23.7486 40.6251V40.3126H23.4361L23.1236 39.6876V39.3751H22.8111C22.8111 39.2922 22.844 39.2127 22.9026 39.1541C22.9612 39.0955 23.0407 39.0626 23.1236 39.0626V38.4376C23.0687 38.3426 23.0398 38.2348 23.0398 38.1251C23.0398 38.0154 23.0687 37.9076 23.1236 37.8126L23.4361 37.5001C23.4361 36.8751 23.7486 36.5626 24.3736 36.2501V35.9376L25.6236 35.6251H25.9361ZM42.1861 35.9376C42.1596 36.0401 42.1596 36.1476 42.1861 36.2501C42.0836 36.2236 41.9761 36.2236 41.8736 36.2501C41.9362 36.1113 42.0473 36.0002 42.1861 35.9376ZM40.3111 35.9376C40.3036 36.0416 40.3036 36.146 40.3111 36.2501V35.9376ZM42.8111 36.2501H42.4986C42.5461 36.2226 42.6 36.2082 42.6548 36.2082C42.7097 36.2082 42.7636 36.2226 42.8111 36.2501ZM36.3401 36.6541C36.2815 36.7127 36.2486 36.7922 36.2486 36.8751H36.5611C36.4586 36.9015 36.3511 36.9015 36.2486 36.8751C36.2486 36.7922 36.2815 36.7127 36.3401 36.6541ZM37.4986 36.5626V36.8751C37.4712 36.8276 37.4567 36.7737 37.4567 36.7188C37.4567 36.664 37.4712 36.6101 37.4986 36.5626ZM40.3111 36.8751C40.3163 36.9792 40.3163 37.0835 40.3111 37.1876C40.3059 37.0835 40.3059 36.9792 40.3111 36.8751ZM36.5611 37.5001C36.4586 37.4736 36.3511 37.4736 36.2486 37.5001C36.3511 37.5265 36.4586 37.5265 36.5611 37.5001ZM38.1236 38.1251C38.0198 38.112 37.9148 38.112 37.8111 38.1251H38.1236ZM38.4361 38.4376V39.0626C38.4361 39.3751 38.7486 39.3751 38.4361 39.0626V40.6251L38.7486 40.9376C38.7058 40.6265 38.7058 40.3111 38.7486 40.0001V38.7501C38.7011 38.7226 38.6472 38.7082 38.5923 38.7082C38.5375 38.7082 38.4836 38.7226 38.4361 38.7501V38.4376L39.0611 38.7501H39.3736V39.0626L39.6861 40.6251V41.5626C39.6304 41.7918 39.5236 42.0055 39.3736 42.1876L39.0611 42.5001C38.8589 42.5716 38.6383 42.5716 38.4361 42.5001L38.1236 42.1876L37.8111 41.5626C37.6611 41.3805 37.5542 41.1668 37.4986 40.9376V39.3751C37.4855 39.2713 37.4855 39.1663 37.4986 39.0626V38.7501L38.4361 38.4376ZM40.9361 38.7501C40.8336 38.7236 40.7261 38.7236 40.6236 38.7501L39.9986 39.0626H41.2486V38.7501H40.9361ZM44.9986 42.5001L44.3736 42.8126C44.5856 42.716 44.7941 42.6117 44.9986 42.5001ZM45.9361 43.1251L45.3111 43.7501C45.1098 43.8678 44.901 43.9722 44.6861 44.0626C45.1493 43.8175 45.5711 43.5012 45.9361 43.1251ZM32.4986 43.1251L32.1861 44.0626C32.1663 44.3034 32.0544 44.5273 31.8736 44.6876C31.8261 44.715 31.7722 44.7294 31.7173 44.7294C31.6625 44.7294 31.6086 44.715 31.5611 44.6876V44.3751L31.8736 44.0626L32.1861 43.1251H32.4986ZM29.0611 43.7501C28.8803 43.9104 28.7683 44.1343 28.7486 44.3751H28.4361C28.4504 44.5444 28.4301 44.7148 28.3764 44.876C28.3227 45.0372 28.2367 45.1858 28.1236 45.3126V44.6876L28.4361 44.0626L29.0611 43.7501ZM39.0611 44.0626H39.6861C39.4777 44.0618 39.2694 44.0618 39.0611 44.0626ZM49.9986 44.0626C49.871 44.1404 49.7639 44.2475 49.6861 44.3751L49.9986 44.0626ZM24.3736 45.0001C24.2622 45.0967 24.1577 45.2012 24.0611 45.3126C23.9663 45.4258 23.8618 45.5303 23.7486 45.6251C23.6295 45.9324 23.5252 46.2453 23.4361 46.5626H23.1236V46.2501L24.3736 45.0001ZM40.6236 45.3126H40.9361L40.6236 45.6251V46.5626H39.9986V46.2501C40.0461 46.2227 40.1 46.2082 40.1548 46.2082C40.2097 46.2082 40.2636 46.2227 40.3111 46.2501V45.9376C40.4611 45.7555 40.5679 45.5418 40.6236 45.3126ZM44.9986 45.3126H45.3111V45.6251H44.9986V45.3126ZM44.9986 45.6251H45.3111V45.9376C45.2295 46.2572 45.1251 46.5705 44.9986 46.8751C44.9712 46.8276 44.9567 46.7737 44.9567 46.7188C44.9567 46.664 44.9712 46.6101 44.9986 46.5626V46.2501C44.9457 46.0451 44.9457 45.83 44.9986 45.6251ZM48.4361 46.2501C48.4186 46.3535 48.4186 46.4591 48.4361 46.5626V46.2501ZM33.7486 46.5626H34.0611C33.941 46.8696 33.8367 47.1825 33.7486 47.5001L32.8111 48.4376L33.1236 48.1251V47.8126C33.2908 47.3766 33.5001 46.958 33.7486 46.5626ZM37.1861 46.8751C37.1991 47.0832 37.1991 47.2919 37.1861 47.5001L36.8736 47.8126C36.8823 47.9166 36.8823 48.0211 36.8736 48.1251L36.5611 48.4376C36.4984 48.5763 36.3873 48.6874 36.2486 48.7501V48.4376C36.2799 48.1053 36.3868 47.7846 36.5611 47.5001L36.8736 47.1876L37.1861 46.8751ZM43.4361 46.8751C43.1352 47.1003 42.8222 47.309 42.4986 47.5001C42.5038 47.6042 42.5038 47.7085 42.4986 47.8126V48.1251C42.4673 48.4573 42.3604 48.778 42.1861 49.0626H41.8736V48.4376L42.1861 48.1251V47.5001L42.4986 47.1876V47.5001L43.4361 46.8751ZM29.6861 47.5001C29.6663 47.7409 29.5544 47.9648 29.3736 48.1251C29.2575 48.2166 29.1526 48.3215 29.0611 48.4376V48.7501L28.7486 49.0626V48.4376L29.3736 47.5001H29.6861ZM41.8736 47.8126C41.7348 47.8752 41.6237 47.9863 41.5611 48.1251L41.8736 47.8126ZM39.3736 48.7501V49.0626C39.2741 49.1713 39.1698 49.2756 39.0611 49.3751V50.0001C38.8867 50.1615 38.6699 50.2699 38.4361 50.3126V50.0001L39.0611 48.7501C39.1645 48.7326 39.2701 48.7326 39.3736 48.7501ZM25.6236 48.7501V49.0626C25.4806 49.414 25.268 49.7329 24.9986 50.0001L24.6861 50.3126C24.6861 50.6251 24.6861 50.6251 24.6861 50.3126L24.9986 49.3751L25.6236 49.0626C25.5962 49.0151 25.5817 48.9612 25.5817 48.9063C25.5817 48.8515 25.5962 48.7976 25.6236 48.7501ZM23.4361 49.3751L23.7486 49.6876C23.6528 49.5754 23.5483 49.4709 23.4361 49.3751ZM21.5611 49.6876L22.8111 50.3126C22.3892 50.1149 21.9724 49.9065 21.5611 49.6876ZM45.3111 49.6876C45.1915 49.8878 45.0871 50.0968 44.9986 50.3126L45.3111 49.6876ZM32.4986 50.3126V50.6251C32.526 50.6726 32.5404 50.7265 32.5404 50.7813C32.5404 50.8362 32.526 50.8901 32.4986 50.9376C32.4511 50.9102 32.3972 50.8957 32.3423 50.8957C32.2875 50.8957 32.2336 50.9102 32.1861 50.9376C32.1323 51.2647 32.0268 51.5811 31.8736 51.8751H31.5611C31.5611 52.1876 31.5611 52.1876 31.5611 51.8751L32.1861 50.9376V50.6251L32.4986 50.3126ZM29.0611 50.3126V50.6251C29.0346 50.5226 29.0346 50.4151 29.0611 50.3126ZM29.3736 50.6251H29.9986C30.3089 50.5726 30.6258 50.5726 30.9361 50.6251H31.2486C31.1451 50.6426 31.0395 50.6426 30.9361 50.6251C30.6258 50.5726 30.3089 50.5726 29.9986 50.6251C29.7903 50.6291 29.5819 50.6291 29.3736 50.6251ZM40.3111 50.6251V50.9376L39.9986 51.2501V52.1876C39.8951 52.2051 39.7895 52.2051 39.6861 52.1876C39.6562 51.9803 39.6562 51.7698 39.6861 51.5626L39.9986 50.9376V50.6251H40.3111ZM35.3111 50.6251L35.6236 50.9376C35.4234 51.3583 35.2151 51.775 34.9986 52.1876L34.6861 51.8751V51.5626L35.3111 50.9376V50.6251ZM28.7486 50.9376V51.2501L28.4361 51.5626C28.3278 51.7688 28.2236 51.9772 28.1236 52.1876H27.8111C28.0561 51.7244 28.3725 51.3025 28.7486 50.9376ZM31.8736 54.0626C31.7696 54.0539 31.6651 54.0539 31.5611 54.0626H31.8736Z" fill="#FAFAFA"/>
</g>
</g>
<defs>
<filter id="filter0_ii_1_1003" x="0" y="0" width="70" height="69" filterUnits="userSpaceOnUse" color-interpolation-filters="sRGB">
<feFlood flood-opacity="0" result="BackgroundImageFix"/>
<feBlend mode="normal" in="SourceGraphic" in2="BackgroundImageFix" result="shape"/>
<feColorMatrix in="SourceAlpha" type="matrix" values="0 0 0 0 0 0 0 0 0 0 0 0 0 0 0 0 0 0 127 0" result="hardAlpha"/>
<feMorphology radius="1" operator="erode" in="SourceAlpha" result="effect1_innerShadow_1_1003"/>
<feOffset/>
<feComposite in2="hardAlpha" operator="arithmetic" k2="-1" k3="1"/>
<feColorMatrix type="matrix" values="0 0 0 0 1 0 0 0 0 1 0 0 0 0 1 0 0 0 0.06 0"/>
<feBlend mode="normal" in2="shape" result="effect1_innerShadow_1_1003"/>
<feColorMatrix in="SourceAlpha" type="matrix" values="0 0 0 0 0 0 0 0 0 0 0 0 0 0 0 0 0 0 127 0" result="hardAlpha"/>
<feOffset dy="1"/>
<feComposite in2="hardAlpha" operator="arithmetic" k2="-1" k3="1"/>
<feColorMatrix type="matrix" values="0 0 0 0 1 0 0 0 0 1 0 0 0 0 1 0 0 0 0.1 0"/>
<feBlend mode="normal" in2="effect1_innerShadow_1_1003" result="effect2_innerShadow_1_1003"/>
</filter>
<clipPath id="clip0_1_1003">
<rect x="15" y="15" width="40" height="40" rx="6" fill="white"/>
</clipPath>
<clipPath id="clip1_1_1003">
<rect width="40" height="40" fill="white" transform="translate(15 15)"/>
</clipPath>
</defs>
</svg>
