<svg width="69" height="70" viewBox="0 0 69 70" fill="none" xmlns="http://www.w3.org/2000/svg">
<rect width="69" height="70" rx="14" fill="white" fill-opacity="0.1"/>
<g filter="url(#filter0_ii_1_859)">
<rect width="69" height="70" rx="14" fill="white" fill-opacity="0.01"/>
</g>
<g clip-path="url(#clip0_1_859)">
<path d="M35.0696 31.1335C32.9536 31.1335 31.2383 32.8489 31.2383 34.9648C31.2383 37.0808 32.9536 38.7961 35.0696 38.7961C37.1855 38.7961 38.9008 37.0808 38.9008 34.9648C38.9008 32.8489 37.1855 31.1335 35.0696 31.1335Z" fill="#58C4DC"/>
<path d="M54.9972 34.9995C54.9972 31.9917 52.2118 29.3536 47.7769 27.6175C47.8362 27.2265 47.8898 26.8398 47.9279 26.4601C48.3653 22.1381 47.324 19.0188 44.9972 17.6751C42.3938 16.1718 38.7167 17.2629 34.9986 20.2383C31.2805 17.2629 27.6034 16.1718 25 17.6751C22.6732 19.0188 21.6319 22.1381 22.0693 26.4601C22.1074 26.8398 22.1596 27.2279 22.2203 27.6203C21.8506 27.7615 21.4879 27.9111 21.1394 28.0678C17.18 29.8476 15 32.3121 15 34.9995C15 38.0074 17.7854 40.6454 22.2203 42.3815C22.1596 42.7725 22.1074 43.1592 22.0693 43.5389C21.6319 47.8609 22.6732 50.9802 25 52.324C25.8 52.7776 26.7065 53.0095 27.6259 52.9958C29.83 52.9958 32.4037 51.8356 34.9986 49.7607C37.5921 51.8356 40.1672 52.9958 42.3741 52.9958C43.2935 53.0093 44.1999 52.7774 45 52.324C47.3268 50.9802 48.3681 47.8609 47.9307 43.5389C47.8926 43.1592 47.839 42.7725 47.7797 42.3815C52.2146 40.6482 55 38.0059 55 34.9995M42.3571 18.9087C42.9483 18.8944 43.5327 19.0376 44.0504 19.3237C45.666 20.2567 46.3913 22.7874 46.0385 26.2667C46.0145 26.5038 45.9863 26.7438 45.9524 26.9852C44.1084 26.4296 42.2201 26.0334 40.3083 25.8009C39.1494 24.2599 37.8606 22.8211 36.4562 21.5002C38.6616 19.7951 40.7316 18.9087 42.3557 18.9087M41.598 38.8105C40.8844 40.0495 40.1073 41.2509 39.2698 42.4097C37.8503 42.5556 36.4242 42.6282 34.9972 42.6271C33.5707 42.6281 32.145 42.5556 30.726 42.4097C29.8907 41.2508 29.116 40.0495 28.4048 38.8105C27.6912 37.5749 27.0427 36.3028 26.4618 34.9995C27.0427 33.6962 27.6912 32.4241 28.4048 31.1885C29.1149 29.9545 29.8872 28.7574 30.7189 27.602C32.1406 27.4525 33.5691 27.3781 34.9986 27.3789C36.4251 27.3781 37.8507 27.4506 39.2698 27.5963C40.1043 28.7536 40.8795 29.9525 41.5924 31.1885C42.3054 32.4244 42.9539 33.6965 43.5353 34.9995C42.9539 36.3026 42.3054 37.5746 41.5924 38.8105M44.5061 37.399C44.954 38.6205 45.3216 39.87 45.6067 41.1394C44.3694 41.5253 43.108 41.8294 41.8308 42.0498C42.3162 41.3177 42.7866 40.556 43.2418 39.7646C43.692 38.9827 44.1139 38.1937 44.5118 37.4047M32.319 44.4465C33.1967 44.5001 34.0927 44.5312 35 44.5312C35.9073 44.5312 36.8089 44.5001 37.688 44.4465C36.8545 45.4451 35.9566 46.3881 35 47.2695C34.0455 46.3883 33.1499 45.4453 32.319 44.4465ZM28.1678 42.047C26.8901 41.8276 25.6283 41.5244 24.3904 41.1394C24.6744 39.872 25.0406 38.6244 25.4868 37.4047C25.8791 38.1937 26.2996 38.9827 26.7567 39.7646C27.2139 40.5466 27.6866 41.3173 28.1678 42.0498M25.4868 32.5929C25.0422 31.3777 24.677 30.1349 24.3933 28.8723C25.6281 28.4869 26.8865 28.1818 28.1607 27.9591C27.6781 28.6888 27.2054 29.4454 26.7497 30.2344C26.2939 31.0234 25.8777 31.8025 25.4798 32.5929M37.6796 25.5511C36.8019 25.4975 35.9059 25.4664 34.9915 25.4664C34.0847 25.4664 33.1911 25.4946 32.3106 25.5511C33.1414 24.5523 34.037 23.6093 34.9915 22.7281C35.9485 23.6091 36.8464 24.5521 37.6796 25.5511ZM43.239 30.2344C42.7819 29.4421 42.3092 28.6799 41.8209 27.9478C43.1015 28.1682 44.3662 28.4728 45.6067 28.8596C45.3221 30.1268 44.9559 31.3744 44.5104 32.5944C44.1181 31.8053 43.6962 31.0163 43.2404 30.2358M23.9643 26.2681C23.6073 22.7902 24.3368 20.2581 25.951 19.3251C26.4689 19.0395 27.0531 18.8963 27.6443 18.9101C29.2684 18.9101 31.3384 19.7965 33.5438 21.5016C32.1384 22.8234 30.8487 24.2632 29.6889 25.8052C27.7776 26.0388 25.8895 26.4335 24.0447 26.9852C24.0123 26.7438 23.9826 26.5052 23.9601 26.2681M21.9211 29.8053C22.1384 29.7112 22.36 29.6171 22.5857 29.523C23.0296 31.3961 23.6314 33.2282 24.3848 34.9995C23.63 36.7743 23.0276 38.6102 22.5843 40.4873C18.989 39.0123 16.9049 36.9685 16.9049 34.9995C16.9049 33.1335 18.7392 31.2407 21.9211 29.8053ZM25.951 50.6739C24.3368 49.741 23.6073 47.2088 23.9643 43.7309C23.9869 43.4938 24.0165 43.2552 24.049 43.0124C25.8931 43.5678 27.7813 43.964 29.6931 44.1967C30.8524 45.7382 32.1411 47.178 33.5452 48.5003C30.4706 50.8758 27.6612 51.6591 25.9553 50.6739M46.0371 43.7309C46.3899 47.2102 45.6646 49.741 44.049 50.6739C42.3444 51.662 39.5337 50.8758 36.4604 48.5003C37.8641 47.1779 39.1523 45.7382 40.3111 44.1967C42.2229 43.9642 44.1112 43.568 45.9553 43.0124C45.9891 43.2552 46.0174 43.4938 46.0413 43.7309M47.4213 40.4845C46.9767 38.6085 46.374 36.7736 45.6194 34.9995C46.3736 33.2244 46.9759 31.3886 47.4199 29.5117C51.0082 30.9867 53.0979 33.0305 53.0979 34.9995C53.0979 36.9685 51.0138 39.0123 47.4185 40.4873" fill="#58C4DC"/>
</g>
<defs>
<filter id="filter0_ii_1_859" x="0" y="0" width="69" height="70" filterUnits="userSpaceOnUse" color-interpolation-filters="sRGB">
<feFlood flood-opacity="0" result="BackgroundImageFix"/>
<feBlend mode="normal" in="SourceGraphic" in2="BackgroundImageFix" result="shape"/>
<feColorMatrix in="SourceAlpha" type="matrix" values="0 0 0 0 0 0 0 0 0 0 0 0 0 0 0 0 0 0 127 0" result="hardAlpha"/>
<feMorphology radius="1" operator="erode" in="SourceAlpha" result="effect1_innerShadow_1_859"/>
<feOffset/>
<feComposite in2="hardAlpha" operator="arithmetic" k2="-1" k3="1"/>
<feColorMatrix type="matrix" values="0 0 0 0 1 0 0 0 0 1 0 0 0 0 1 0 0 0 0.06 0"/>
<feBlend mode="normal" in2="shape" result="effect1_innerShadow_1_859"/>
<feColorMatrix in="SourceAlpha" type="matrix" values="0 0 0 0 0 0 0 0 0 0 0 0 0 0 0 0 0 0 127 0" result="hardAlpha"/>
<feOffset dy="1"/>
<feComposite in2="hardAlpha" operator="arithmetic" k2="-1" k3="1"/>
<feColorMatrix type="matrix" values="0 0 0 0 1 0 0 0 0 1 0 0 0 0 1 0 0 0 0.1 0"/>
<feBlend mode="normal" in2="effect1_innerShadow_1_859" result="effect2_innerShadow_1_859"/>
</filter>
<clipPath id="clip0_1_859">
<rect x="15" y="15" width="40" height="40" rx="6" fill="white"/>
</clipPath>
</defs>
</svg>
