<svg width="80" height="80" viewBox="0 0 80 80" fill="none" xmlns="http://www.w3.org/2000/svg">
<rect x="11.9817" width="69" height="69" rx="14" transform="rotate(10 11.9817 0)" fill="white" fill-opacity="0.1"/>
<g filter="url(#filter0_ii_1_1103)">
<rect x="11.9817" width="69" height="69" rx="14" transform="rotate(10 11.9817 0)" fill="white" fill-opacity="0.01"/>
</g>
<g clip-path="url(#clip0_1_1103)">
<g clip-path="url(#clip1_1_1103)">
<path d="M44.6736 20.9957C44.4192 20.9509 44.1543 20.9177 43.8797 20.8913C36.847 20.2148 37.3921 27.8826 36.8539 30.311C36.4131 32.0814 35.7963 33.4297 34.2565 34.964C32.4997 36.4329 29.9694 38.8621 28.4901 41.5985C27.7931 42.8836 27.3298 44.2439 27.2987 45.6007C27.2132 45.6481 27.1384 45.7127 27.0791 45.7905C26.5748 46.1551 26.1669 46.6451 25.7481 46.9757C25.3639 47.2447 24.8748 47.2736 24.3242 47.4016C23.7711 47.5342 23.1663 47.6527 22.7092 48.2676C22.5068 48.5518 22.372 48.875 22.3184 49.2175C22.2608 49.5441 22.2469 49.8819 22.2535 50.1132C22.2332 50.7849 22.2332 51.3417 22.0384 51.7169C21.4329 52.7609 21.2475 53.5152 21.4349 54.122C21.6239 54.7205 22.177 55.0482 22.8039 55.3805C24.0755 55.9431 25.8998 56.1548 27.1833 57.1681C28.5683 58.201 30.0522 58.8078 31.3411 58.6966C32.238 58.6585 33.0675 58.2158 33.5976 57.4935C34.5619 57.6585 35.6943 57.408 37.4037 57.5994C38.5678 57.7065 39.9099 58.4932 41.5756 58.6735C41.5778 58.9007 41.6217 59.0167 41.6663 59.253L41.6704 59.2588C42.087 60.649 43.1696 61.439 44.4527 61.562C45.7355 61.6866 47.2208 61.143 48.5352 60.0716C49.7923 58.9986 51.6113 58.7794 52.8733 58.2929C53.5021 58.067 54.0414 57.7051 54.1854 57.0806C54.3389 56.4307 54.0918 55.6916 53.4117 54.6155L53.4398 54.4563L53.4357 54.4505C53.2146 54.073 53.1802 53.5 53.1489 52.8328C53.1255 52.15 53.0777 51.49 52.6441 50.9735L52.6392 50.9727C52.558 50.867 52.4567 50.8271 52.3697 50.6967C52.2892 50.6164 52.1874 50.5609 52.0764 50.5366C53.1537 48.5637 53.2477 46.4276 52.8615 44.4234C52.3948 41.9549 51.2204 39.6696 50.2996 38.0772C49.284 36.1972 48.2792 34.4089 48.7139 32.0976C49.3794 28.573 50.8762 22.0995 44.6736 20.9957ZM44.5565 26.7376L44.5778 26.7414C44.9274 26.803 45.2098 26.9577 45.479 27.2354C45.7518 27.5119 45.9246 27.8758 46.0437 28.237C46.1411 28.6925 46.1702 29.0361 46.1066 29.4733C46.1124 29.4405 46.128 29.4094 46.1338 29.3766L46.1034 29.5489C46.1018 29.5371 46.1016 29.5252 46.103 29.5133L46.1033 29.4728C46.0297 29.8711 45.8765 30.2504 45.6528 30.5881C45.5399 30.7804 45.3877 30.9468 45.2062 31.0764C45.1644 31.0419 45.1202 31.0103 45.074 30.9819C44.9163 30.878 44.7675 30.8196 44.6463 30.6815C44.5376 30.6142 44.4231 30.5567 44.3043 30.5095C44.4038 30.4254 44.5824 30.3334 44.662 30.2374C44.786 30.0427 44.873 29.8278 44.9228 29.6031L44.9286 29.5702C44.9716 29.348 44.9769 29.1201 44.9442 28.8961C44.9091 28.6631 44.8363 28.5386 44.7402 28.2965C44.6214 28.1639 44.5043 28.0315 44.3402 28.0026L44.3139 27.998C44.1613 27.971 44.0164 27.9963 43.8457 28.1388C43.663 28.2633 43.5142 28.4313 43.4125 28.6277C43.2886 28.8209 43.1994 29.0342 43.1491 29.2582L43.1436 29.2894C43.1211 29.436 43.1049 29.5855 43.0991 29.7334C42.8017 29.5676 42.4193 29.385 42.1613 29.2262C42.1639 29.1145 42.1733 29.0031 42.1896 28.8927L42.1954 28.8598C42.2589 28.4243 42.419 28.0084 42.6639 27.6427C42.8621 27.3053 43.1622 27.0435 43.5239 26.8923C43.842 26.7291 44.2043 26.6759 44.5565 26.7376ZM39.6777 25.9772L39.7368 25.9876C39.9699 26.0287 40.1661 26.1445 40.3526 26.3247C40.5549 26.5787 40.7026 26.8738 40.7827 27.1875C40.8728 27.5401 40.8967 27.8845 40.8408 28.3265L40.8396 28.3331C40.8123 28.555 40.7916 28.6631 40.7593 28.7691L40.7362 28.9004C40.6849 28.9032 40.6391 28.9137 40.593 28.9158C40.3276 28.9621 40.1042 29.0581 39.8901 29.1303C39.9358 28.9861 39.9635 28.8386 39.9723 28.6929L39.9766 28.6683C39.9954 28.4465 39.9688 28.3285 39.9384 28.098C39.9167 27.9217 39.8494 27.7541 39.7432 27.6117C39.7092 27.5678 39.6668 27.5312 39.6184 27.504C39.5699 27.4769 39.5165 27.4598 39.4614 27.4537L39.4269 27.4476C39.3086 27.4369 39.2019 27.4757 39.0834 27.6105C38.9563 27.7191 38.8612 27.8603 38.8083 28.0189C38.7327 28.188 38.6876 28.3691 38.675 28.5539L38.6707 28.5785C38.6513 28.8036 38.6735 28.9175 38.7053 29.1499C38.7421 29.3831 38.8083 29.5065 38.9002 29.6378C38.9141 29.6555 38.9279 29.6731 38.9491 29.687C38.8177 29.7603 38.7368 29.7681 38.6209 29.8593C38.5499 29.9028 38.4693 29.9281 38.3862 29.933C38.2518 29.6975 38.1396 29.4499 38.0511 29.1936C37.9568 28.8213 37.9359 28.4342 37.9898 28.054C38.0279 27.6787 38.1382 27.3142 38.3144 26.9807C38.4617 26.6742 38.6729 26.4027 38.9338 26.1845C39.1823 26.0032 39.4184 25.9315 39.6777 25.9772ZM41.4326 29.1738C41.9775 29.2699 42.6169 29.4927 43.313 30.1807C43.7361 30.5937 44.0936 30.7735 44.9043 31.2533L44.9092 31.2541C45.2884 31.5512 45.497 31.8079 45.5783 32.0474L45.6162 31.8324C45.6541 31.9621 45.6638 32.0984 45.6449 32.2322C45.626 32.366 45.5788 32.4943 45.5064 32.6084C45.2148 33.0816 44.4734 33.5145 43.518 33.6828L43.5174 33.6861C43.0385 33.8301 42.5987 34.0876 42.1108 34.225C41.6187 34.3667 41.0612 34.5341 40.3725 34.3704C40.1202 34.3392 39.8767 34.2577 39.6565 34.1307C39.4922 33.9998 39.3349 33.8602 39.1853 33.7125C38.9043 33.4345 38.6856 33.0626 38.3154 32.7722L38.3169 32.764L38.3087 32.7625C37.7233 32.243 37.4458 31.7439 37.3882 31.3987C37.3508 30.9385 37.516 30.6258 37.8786 30.4697C38.2853 30.3129 38.5807 30.1349 38.7686 30.058C38.9607 29.9666 39.0328 29.932 39.0954 29.8939L39.0987 29.8945L39.0996 29.8896C39.4354 29.6069 39.9512 29.2443 40.6506 29.1459C40.8891 29.1271 41.152 29.1243 41.4343 29.1741L41.4326 29.1738ZM45.4085 33.5C45.586 35.9293 46.3658 39.5498 46.9617 41.3438C47.2765 42.3031 47.8849 44.3143 47.8952 46.6262C48.1527 46.6631 48.4317 46.7512 48.7187 46.8797C50.2626 44.324 48.8259 41.0311 48.0791 40.055C47.7759 39.663 47.7953 39.438 47.9742 39.4695C48.788 40.5167 49.7597 42.4448 49.8779 44.4711C49.9365 45.3868 49.821 46.3294 49.4291 47.2182C49.5309 47.2835 49.6333 47.3558 49.7461 47.3875C51.2855 48.5627 51.7939 49.336 51.3202 50.2662L51.3326 50.1956C51.235 50.1734 51.1357 50.1609 51.0372 50.1436L51.0109 50.1389C51.3939 49.4161 50.951 48.7321 49.6171 47.8217C48.2311 46.9003 47.0127 46.7938 46.5774 48.0727C46.5518 48.1409 46.5369 48.1772 46.5087 48.289C46.3905 48.3071 46.2653 48.3358 46.1472 48.3336C45.3638 48.649 44.867 49.2401 44.5021 50.0524C44.1344 50.8896 43.8885 51.9006 43.6247 53.0607L43.6238 53.0656C43.4943 53.6081 43.1023 54.3919 42.7095 55.1891C39.9372 56.5145 36.3884 56.6774 33.8349 54.1895C33.7089 53.8391 33.5391 53.5061 33.3294 53.1984C33.243 52.9731 33.1233 52.762 32.9744 52.5722C33.2731 52.6249 33.5378 52.6208 33.757 52.5968C34.0123 52.5289 34.2316 52.3651 34.369 52.1395C34.6236 51.7325 34.5708 50.9955 34.1394 50.1307C33.7082 49.2644 32.8992 48.2282 31.6448 47.1168C30.7265 46.2779 30.2782 45.4035 30.1613 44.4926C30.045 43.5684 30.2406 42.6704 30.6128 41.7883C31.3246 40.103 32.6563 38.5777 33.5035 37.622C33.6979 37.5462 33.5251 37.8543 32.5519 39.1026C31.6846 40.2206 29.9581 42.8711 31.2363 45.393C31.586 43.779 32.228 42.2426 33.1306 40.8597C34.4262 38.9253 37.0056 35.6129 37.6687 32.7445C37.7371 32.8175 37.9858 33.0289 38.0846 33.1597C38.4039 33.4411 38.612 33.8162 38.9184 34.0937C39.205 34.4843 39.6044 34.7816 40.2593 34.897C40.3224 34.9132 40.3807 34.9286 40.4381 34.9387C41.1144 35.058 41.6751 34.93 42.1521 34.7874C42.6669 34.6514 43.1023 34.3897 43.4825 34.345L43.4907 34.3465C44.2962 34.26 44.9775 33.9283 45.4068 33.4997L45.4085 33.5ZM46.4022 48.8355C46.2893 49.831 46.6049 50.9782 47.4514 51.3509C48.3777 51.741 49.9015 51.2193 50.6124 50.6136L50.9617 50.6583C51.4807 50.7379 51.9058 50.8417 52.2743 51.3433L52.2784 51.3491C52.5622 51.7359 52.6256 52.3072 52.6666 52.9C52.6904 53.5812 52.6936 54.2249 53.0294 54.7681C53.6746 55.7737 53.8259 56.4418 53.7434 56.8233L53.7503 56.8127L53.7451 56.8422L53.7434 56.8233C53.6429 57.249 53.3254 57.4181 52.7541 57.6541C51.604 58.13 49.6822 58.3174 48.2669 59.5199C47.0393 60.5508 45.6883 60.9946 44.5804 60.8855C43.4752 60.7804 42.608 60.1993 42.2568 58.9561L42.2495 58.9497C42.0206 58.2324 42.3492 57.2326 42.8305 56.192C43.3127 55.1466 43.922 54.1099 44.1395 53.2124C44.4069 52.0512 44.6506 51.0432 44.9845 50.2914C45.3161 49.5629 45.7207 49.0724 46.3214 48.8619L46.4017 48.8388L46.4022 48.8355ZM28.6385 45.7862L28.655 45.7891C28.7419 45.8044 28.8258 45.8277 28.9086 45.8575C29.5098 46.0566 29.971 46.6084 30.3701 47.3879L31.3821 50.3824L31.3861 50.3882C31.6307 51.3334 32.3158 52.3528 32.8639 53.4192C33.4032 54.5264 33.8005 55.4984 33.6061 56.2071L33.6044 56.217C33.2955 57.4216 32.4843 57.9623 31.3834 58.0153C30.2856 58.0502 28.8879 57.5787 27.5866 56.5606C26.1529 55.4006 24.246 55.1778 23.0715 54.7456C22.485 54.5305 22.1282 54.2408 22.0006 53.8798C21.8779 53.5197 21.9893 52.859 22.5585 51.8966L22.5596 51.89L22.5638 51.8857C22.8525 51.3713 22.8306 50.6601 22.843 50.0428C22.8688 49.3687 22.9123 48.8534 23.1856 48.5124C23.5449 48.0105 23.9514 47.9705 24.4724 47.8373C24.994 47.7008 25.5813 47.6909 26.1103 47.3306L26.1136 47.3312L26.1141 47.3279C26.6119 46.9621 27.0185 46.4703 27.4531 46.1458C27.8231 45.8709 28.174 45.7043 28.6385 45.7862ZM43.0151 32.9645C42.2429 33.1686 41.3092 33.5692 40.4179 33.412C39.5283 33.2552 38.9031 32.693 38.4519 32.2767C38.2379 32.0122 38.0698 31.7558 37.9366 31.6189C37.7062 31.3515 37.7966 31.0307 37.9115 31.0509C38.0858 31.1087 38.0845 31.3082 38.1803 31.4368C38.3187 31.5729 38.4753 31.8273 38.6748 32.0875C39.0962 32.5003 39.6557 33.0508 40.4551 33.1918C41.2511 33.3322 42.2607 33.0583 42.8845 32.8315C43.2437 32.6664 43.7116 32.4121 44.0833 32.2525C44.3787 32.0745 44.4051 31.8574 44.6185 31.8951C44.8239 31.9584 44.6355 32.1248 44.2811 32.3974C43.8685 32.6086 43.4453 32.7983 43.0131 32.9659L43.0151 32.9645ZM41.6973 30.0531L41.7037 30.017C41.6996 29.9825 41.7371 29.9519 41.7657 29.9434C41.8996 29.8942 42.069 29.9511 42.1913 30.0252C42.2947 30.0434 42.4345 30.1815 42.3984 30.2902C42.3744 30.3689 42.2398 30.3739 42.1578 30.3594C42.0675 30.3435 42.0192 30.2622 41.946 30.207C41.8659 30.1624 41.7087 30.1516 41.6973 30.0531ZM40.7929 29.8937C40.7433 29.9831 40.5932 29.9414 40.5013 29.954C40.417 29.9814 40.3405 30.0407 40.2519 30.0251C40.1698 30.0106 40.0443 29.9546 40.0483 29.8741C40.051 29.7629 40.2313 29.6813 40.333 29.6992C40.4733 29.6715 40.6486 29.6753 40.7596 29.766C40.7882 29.7862 40.81 29.8256 40.7943 29.8567L40.7886 29.8895L40.7935 29.8904L40.7929 29.8937Z" fill="#FCC624"/>
</g>
</g>
<defs>
<filter id="filter0_ii_1_1103" x="2.2161" y="2.21606" width="75.5013" height="75.5015" filterUnits="userSpaceOnUse" color-interpolation-filters="sRGB">
<feFlood flood-opacity="0" result="BackgroundImageFix"/>
<feBlend mode="normal" in="SourceGraphic" in2="BackgroundImageFix" result="shape"/>
<feColorMatrix in="SourceAlpha" type="matrix" values="0 0 0 0 0 0 0 0 0 0 0 0 0 0 0 0 0 0 127 0" result="hardAlpha"/>
<feMorphology radius="1" operator="erode" in="SourceAlpha" result="effect1_innerShadow_1_1103"/>
<feOffset/>
<feComposite in2="hardAlpha" operator="arithmetic" k2="-1" k3="1"/>
<feColorMatrix type="matrix" values="0 0 0 0 1 0 0 0 0 1 0 0 0 0 1 0 0 0 0.06 0"/>
<feBlend mode="normal" in2="shape" result="effect1_innerShadow_1_1103"/>
<feColorMatrix in="SourceAlpha" type="matrix" values="0 0 0 0 0 0 0 0 0 0 0 0 0 0 0 0 0 0 127 0" result="hardAlpha"/>
<feOffset dy="1"/>
<feComposite in2="hardAlpha" operator="arithmetic" k2="-1" k3="1"/>
<feColorMatrix type="matrix" values="0 0 0 0 1 0 0 0 0 1 0 0 0 0 1 0 0 0 0.1 0"/>
<feBlend mode="normal" in2="effect1_innerShadow_1_1103" result="effect2_innerShadow_1_1103"/>
</filter>
<clipPath id="clip0_1_1103">
<rect x="24.1497" y="17.377" width="40" height="40" rx="6" transform="rotate(10 24.1497 17.377)" fill="white"/>
</clipPath>
<clipPath id="clip1_1_1103">
<rect width="40" height="40" fill="white" transform="translate(24.1497 17.377) rotate(10)"/>
</clipPath>
</defs>
</svg>
