<svg width="68" height="70" viewBox="0 0 68 70" fill="none" xmlns="http://www.w3.org/2000/svg">
<rect width="68" height="70" rx="14" fill="white" fill-opacity="0.1"/>
<g filter="url(#filter0_ii_1_936)">
<rect width="68" height="70" rx="14" fill="white" fill-opacity="0.01"/>
</g>
<g clip-path="url(#clip0_1_936)">
<path d="M52.4375 44.2187C50.2969 45.3125 39.2344 49.875 36.8906 51.0937C34.5312 52.3281 33.2188 52.3125 31.3594 51.4219C29.5 50.5312 17.75 45.7812 15.6094 44.7656C14.5625 44.2656 14 43.8281 14 43.4375V39.375C14 39.375 29.3125 36.0469 31.7969 35.1562C34.2656 34.2812 35.125 34.25 37.2344 35.0156C39.3281 35.7969 51.9219 38.0625 54 38.8125V42.8125C54 43.2031 53.5312 43.6406 52.4375 44.2187Z" fill="#912626"/>
<path d="M52.4379 40.1876C50.2972 41.297 39.2347 45.8438 36.891 47.0626C34.5316 48.3126 33.2191 48.2969 31.3597 47.4063C29.5003 46.5157 17.7347 41.7657 15.6097 40.7501C13.5003 39.7345 13.4535 39.0313 15.5316 38.2188C17.6253 37.4063 29.3128 32.8126 31.7816 31.922C34.2816 31.047 35.1254 31.0157 37.2347 31.7657C39.3285 32.547 50.3285 36.922 52.4066 37.6876C54.4847 38.4532 54.5629 39.0782 52.4379 40.1876Z" fill="#C6302B"/>
<path d="M52.4375 37.6563C50.2969 38.7813 39.2344 43.3282 36.8906 44.5625C34.5312 45.7813 33.2188 45.7657 31.3594 44.875C29.5 44 17.7344 39.25 15.6094 38.2188C14.5625 37.7188 14 37.2813 14 36.8907V32.8438C14 32.8438 29.3125 29.5157 31.7969 28.625C34.2656 27.7344 35.125 27.7032 37.2344 28.4688C39.3281 29.25 51.9219 31.5157 54 32.2813V36.25C54 36.6407 53.5312 37.0938 52.4375 37.6563Z" fill="#912626"/>
<path d="M52.4379 33.6564C50.2972 34.7501 39.2347 39.3126 36.891 40.5314C34.5316 41.7657 33.2191 41.7501 31.3597 40.8595C29.5003 39.9689 17.7503 35.2189 15.6097 34.2189C13.5003 33.2032 13.4535 32.5001 15.5316 31.7032C17.6253 30.8595 29.3128 26.2501 31.7816 25.3907C34.2816 24.5001 35.1254 24.4532 37.2347 25.2345C39.3285 26.0157 50.3285 30.3907 52.4066 31.1407C54.4847 31.922 54.5629 32.547 52.4379 33.6407" fill="#C6302B"/>
<path d="M52.4375 30.8906C50.2969 31.9844 39.2344 36.5469 36.8906 37.7656C34.5312 39 33.2188 38.9844 31.3594 38.0937C29.5 37.2031 17.75 32.4531 15.6094 31.4375C14.5625 30.9375 14 30.5 14 30.1094V26.0469C14 26.0469 29.3125 22.7187 31.7969 21.8281C34.2656 20.9531 35.125 20.9219 37.2344 21.6875C39.3281 22.4687 51.9219 24.7344 54 25.5V29.4844C54 29.875 53.5312 30.3125 52.4375 30.8906Z" fill="#912626"/>
<path d="M52.4379 26.875C50.2972 27.9687 39.2347 32.5156 36.891 33.75C34.5316 34.9844 33.2191 34.9687 31.3597 34.0625C29.5003 33.2031 17.7503 28.4375 15.6097 27.4375C13.5003 26.4219 13.4535 25.7187 15.5316 24.9062C17.6253 24.0781 29.3128 19.4844 31.7816 18.5937C34.2816 17.7187 35.1254 17.6875 37.2347 18.4531C39.3285 19.2344 50.3285 23.6094 52.4066 24.3594C54.4847 25.125 54.5629 25.7656 52.4379 26.8594" fill="#C6302B"/>
<path d="M38.8906 22.9375L35.4531 23.2812L34.6719 25.1406L33.4219 23.0781L29.4688 22.7188L32.4375 21.6406L31.5312 20L34.3125 21.0938L36.9219 20.2344L36.2188 21.9375L38.875 22.9375M34.4688 31.9219L28.0625 29.2656L37.25 27.8437L34.4688 31.9062M25.5625 23.9531C28.2969 23.9531 30.4844 24.8125 30.4844 25.8594C30.4844 26.9219 28.2969 27.7656 25.5781 27.7656C22.8594 27.7656 20.6562 26.9219 20.6562 25.8594C20.6562 24.8125 22.8594 23.9531 25.5781 23.9531" fill="white"/>
<path d="M42.9531 23.4375L48.375 25.5938L42.9375 27.7344V23.4375" fill="#621B1C"/>
<path d="M36.9375 25.8125L42.9531 23.4375V27.7344L42.3594 27.9688L36.9375 25.8125Z" fill="#9A2928"/>
</g>
<defs>
<filter id="filter0_ii_1_936" x="0" y="0" width="68" height="70" filterUnits="userSpaceOnUse" color-interpolation-filters="sRGB">
<feFlood flood-opacity="0" result="BackgroundImageFix"/>
<feBlend mode="normal" in="SourceGraphic" in2="BackgroundImageFix" result="shape"/>
<feColorMatrix in="SourceAlpha" type="matrix" values="0 0 0 0 0 0 0 0 0 0 0 0 0 0 0 0 0 0 127 0" result="hardAlpha"/>
<feMorphology radius="1" operator="erode" in="SourceAlpha" result="effect1_innerShadow_1_936"/>
<feOffset/>
<feComposite in2="hardAlpha" operator="arithmetic" k2="-1" k3="1"/>
<feColorMatrix type="matrix" values="0 0 0 0 1 0 0 0 0 1 0 0 0 0 1 0 0 0 0.06 0"/>
<feBlend mode="normal" in2="shape" result="effect1_innerShadow_1_936"/>
<feColorMatrix in="SourceAlpha" type="matrix" values="0 0 0 0 0 0 0 0 0 0 0 0 0 0 0 0 0 0 127 0" result="hardAlpha"/>
<feOffset dy="1"/>
<feComposite in2="hardAlpha" operator="arithmetic" k2="-1" k3="1"/>
<feColorMatrix type="matrix" values="0 0 0 0 1 0 0 0 0 1 0 0 0 0 1 0 0 0 0.1 0"/>
<feBlend mode="normal" in2="effect1_innerShadow_1_936" result="effect2_innerShadow_1_936"/>
</filter>
<clipPath id="clip0_1_936">
<rect x="14" y="15" width="40" height="40" rx="6" fill="white"/>
</clipPath>
</defs>
</svg>
