<svg width="81" height="81" viewBox="0 0 81 81" fill="none" xmlns="http://www.w3.org/2000/svg">
<rect y="12.1554" width="70" height="69" rx="14" transform="rotate(-10 0 12.1554)" fill="white" fill-opacity="0.1"/>
<g filter="url(#filter0_ii_1_1097)">
<rect y="12.1554" width="70" height="69" rx="14" transform="rotate(-10 0 12.1554)" fill="white" fill-opacity="0.01"/>
</g>
<g clip-path="url(#clip0_1_1097)">
<g clip-path="url(#clip1_1_1097)">
<path d="M37.0949 22.8511C28.5694 24.3543 29.0613 27.6798 29.1814 28.3609C29.3636 29.3943 29.9104 32.4951 29.9104 32.4951L38.6916 30.9468L38.9105 32.188C38.9105 32.188 29.7675 33.8001 26.6414 34.3513C24.032 34.8114 21.0326 36.9762 22.2723 44.0067C23.411 50.4647 26.4093 52.5112 28.9908 52.056C29.7573 51.9208 32.0581 51.5151 32.0581 51.5151C32.0581 51.5151 31.4929 48.3096 31.2984 47.2066C30.9806 45.4041 31.2854 41.9097 35.4495 41.1755C40.6723 40.2546 42.0054 40.0195 44.1589 39.6398C45.4398 39.4139 48.9539 38.2203 48.2182 34.048C47.4395 29.6321 47.1827 28.1752 46.8163 26.0976C46.6341 25.0625 45.7914 21.3176 37.0949 22.8511ZM32.7431 26.4849C33.617 26.3309 34.4475 26.9121 34.6016 27.7863C34.7557 28.6598 34.1741 29.4908 33.3003 29.6449C32.4264 29.7989 31.5958 29.2173 31.4417 28.3435C31.2876 27.4693 31.8692 26.639 32.7431 26.4849Z" fill="#387EB8"/>
<path d="M43.5862 58.9388C52.1077 57.4363 51.6192 54.0459 51.5101 53.4271C51.3279 52.3937 50.7812 49.2929 50.7812 49.2929L41.9895 50.8431L41.7706 49.6019C41.7706 49.6019 50.9726 47.9794 54.0397 47.4386C56.6688 46.975 59.6414 44.774 58.4087 37.7832C57.0588 30.1273 53.3703 29.4377 51.6903 29.7339C50.9234 29.8691 48.6229 30.2748 48.6229 30.2748C48.6229 30.2748 49.2142 33.6284 49.3826 34.5833C49.7005 36.3858 49.4252 39.875 45.2315 40.6144C40.0087 41.5353 38.8381 41.7417 36.5219 42.1502C35.2442 42.3754 31.7384 43.6354 32.4625 47.742C33.3004 52.4937 33.5198 53.7378 33.8644 55.6924C34.1671 57.4092 35.7619 60.3185 43.5862 58.9388ZM47.9383 55.3049C47.0644 55.459 46.2338 54.8774 46.0797 54.0035C45.9256 53.1297 46.5069 52.2991 47.3811 52.145C48.2546 51.991 49.0856 52.5725 49.2396 53.4464C49.3937 54.3202 48.8118 55.1509 47.9383 55.3049Z" fill="#FFE052"/>
</g>
</g>
<defs>
<filter id="filter0_ii_1_1097" x="2.21606" y="2.21616" width="76.4862" height="75.6748" filterUnits="userSpaceOnUse" color-interpolation-filters="sRGB">
<feFlood flood-opacity="0" result="BackgroundImageFix"/>
<feBlend mode="normal" in="SourceGraphic" in2="BackgroundImageFix" result="shape"/>
<feColorMatrix in="SourceAlpha" type="matrix" values="0 0 0 0 0 0 0 0 0 0 0 0 0 0 0 0 0 0 127 0" result="hardAlpha"/>
<feMorphology radius="1" operator="erode" in="SourceAlpha" result="effect1_innerShadow_1_1097"/>
<feOffset/>
<feComposite in2="hardAlpha" operator="arithmetic" k2="-1" k3="1"/>
<feColorMatrix type="matrix" values="0 0 0 0 1 0 0 0 0 1 0 0 0 0 1 0 0 0 0.06 0"/>
<feBlend mode="normal" in2="shape" result="effect1_innerShadow_1_1097"/>
<feColorMatrix in="SourceAlpha" type="matrix" values="0 0 0 0 0 0 0 0 0 0 0 0 0 0 0 0 0 0 127 0" result="hardAlpha"/>
<feOffset dy="1"/>
<feComposite in2="hardAlpha" operator="arithmetic" k2="-1" k3="1"/>
<feColorMatrix type="matrix" values="0 0 0 0 1 0 0 0 0 1 0 0 0 0 1 0 0 0 0.1 0"/>
<feBlend mode="normal" in2="effect1_innerShadow_1_1097" result="effect2_innerShadow_1_1097"/>
</filter>
<clipPath id="clip0_1_1097">
<rect x="17.3768" y="24.3229" width="40" height="40" rx="6" transform="rotate(-10 17.3768 24.3229)" fill="white"/>
</clipPath>
<clipPath id="clip1_1_1097">
<rect width="40" height="40" fill="white" transform="translate(17.3768 24.3229) rotate(-10)"/>
</clipPath>
</defs>
</svg>
