<svg width="68" height="69" viewBox="0 0 68 69" fill="none" xmlns="http://www.w3.org/2000/svg">
<rect width="68" height="69" rx="14" fill="white" fill-opacity="0.1"/>
<g filter="url(#filter0_ii_1_1049)">
<rect width="68" height="69" rx="14" fill="white" fill-opacity="0.01"/>
</g>
<g clip-path="url(#clip0_1_1049)">
<path d="M49.5459 27.8701C49.4659 27.7851 49.3809 27.7001 49.2959 27.6201C49.2109 27.5401 49.1309 27.4501 49.0459 27.3701C48.9609 27.2901 48.8809 27.2001 48.7959 27.1201C48.7109 27.0401 48.6309 26.9501 48.5459 26.8701C48.4609 26.7901 48.3809 26.7001 48.2959 26.6201C48.2109 26.5401 48.1309 26.4501 48.0459 26.3701C47.9609 26.2901 47.8809 26.2001 47.7959 26.1201C50.276 28.5575 51.6968 31.8733 51.7509 35.3501C51.7509 43.6351 43.3409 50.3751 33.0009 50.3751C27.2109 50.3751 22.0309 48.2601 18.5859 44.9451L18.8359 45.1951L19.0859 45.4451L19.3359 45.6951L19.5859 45.9451L19.8359 46.1951L20.0859 46.4451L20.3359 46.6951C23.7759 50.1501 29.0709 52.3751 35.0009 52.3751C45.3409 52.3751 53.7509 45.6351 53.7509 37.3751C53.7509 33.8451 52.2309 30.5001 49.5459 27.8701Z" fill="black"/>
<path d="M50.5 35.35C50.5 42.955 42.665 49.12 33 49.12C23.335 49.12 15.5 42.955 15.5 35.35C15.5 30.635 18.5 26.47 23.11 24C27.72 21.53 30.59 19 33 19C35.41 19 37.47 21.065 42.89 24C47.5 26.47 50.5 30.635 50.5 35.35Z" fill="#FBF0DF"/>
<path d="M50.5014 35.35C50.499 34.373 50.3644 33.4009 50.1014 32.46C48.7364 49.11 28.4264 49.91 20.4414 44.93C24.0309 47.7121 28.4604 49.1898 33.0014 49.12C42.6514 49.12 50.5014 42.945 50.5014 35.35Z" fill="#F6DECE"/>
<path d="M26.265 23.085C28.5 21.745 31.47 19.23 34.39 19.225C33.9408 19.0798 33.4721 19.0039 33 19C31.79 19 30.5 19.625 28.875 20.565C28.31 20.895 27.725 21.26 27.105 21.64C25.94 22.36 24.605 23.175 23.105 23.99C18.345 26.565 15.5 30.81 15.5 35.35V35.945C18.53 25.24 24.035 24.425 26.265 23.085Z" fill="#FFFEFC"/>
<path fill-rule="evenodd" clip-rule="evenodd" d="M31.5583 20.265C31.5653 21.4456 31.3174 22.6138 30.8316 23.6899C30.3458 24.7659 29.6335 25.7245 28.7433 26.5C28.6033 26.625 28.7133 26.865 28.8933 26.795C30.5783 26.14 32.8533 24.18 31.8933 20.225C31.8533 20 31.5583 20.06 31.5583 20.265ZM32.6933 20.265C33.3051 21.2632 33.6938 22.3819 33.8327 23.5444C33.9717 24.7069 33.8576 25.8857 33.4983 27C33.4383 27.175 33.6533 27.325 33.7733 27.18C34.8683 25.78 35.8233 23 32.9633 20C32.8183 19.87 32.5933 20.07 32.6933 20.245V20.265ZM34.0733 20.18C35.0313 20.8583 35.8328 21.7341 36.4237 22.7485C37.0145 23.7628 37.3809 24.892 37.4983 26.06C37.4932 26.1021 37.5045 26.1445 37.5299 26.1785C37.5553 26.2124 37.5928 26.2353 37.6346 26.2424C37.6764 26.2495 37.7193 26.2402 37.7544 26.2165C37.7896 26.1928 37.8142 26.1564 37.8233 26.115C38.2833 24.37 38.0233 21.395 34.2383 19.85C34.0383 19.77 33.9083 20.04 34.0733 20.16V20.18ZM24.8433 25.38C25.9829 25.0396 27.0381 24.4629 27.94 23.6875C28.842 22.9122 29.5706 21.9556 30.0783 20.88C30.1683 20.7 30.4533 20.77 30.4083 20.97C29.5433 24.97 26.6483 25.805 24.8483 25.695C24.6583 25.7 24.6633 25.435 24.8433 25.38Z" fill="#CCBEA7"/>
<path d="M33 50.375C22.66 50.375 14.25 43.635 14.25 35.35C14.25 30.35 17.34 25.685 22.515 22.89C24.015 22.09 25.3 21.285 26.445 20.58C27.075 20.19 27.67 19.825 28.245 19.485C30 18.445 31.5 17.75 33 17.75C34.5 17.75 35.81 18.35 37.45 19.32C37.95 19.605 38.45 19.915 38.985 20.255C40.23 21.025 41.635 21.895 43.485 22.89C48.66 25.685 51.75 30.345 51.75 35.35C51.75 43.635 43.34 50.375 33 50.375ZM33 19C31.79 19 30.5 19.625 28.875 20.565C28.31 20.895 27.725 21.26 27.105 21.64C25.94 22.36 24.605 23.175 23.105 23.99C18.345 26.565 15.5 30.81 15.5 35.35C15.5 42.945 23.35 49.125 33 49.125C42.65 49.125 50.5 42.945 50.5 35.35C50.5 30.81 47.655 26.565 42.89 24C41 23 39.525 22.06 38.33 21.32C37.785 20.985 37.285 20.675 36.83 20.4C35.315 19.5 34.21 19 33 19Z" fill="black"/>
<path d="M36.5231 39.0001C36.2985 39.9201 35.7872 40.7448 35.0631 41.3551C34.5195 41.8821 33.8157 42.2129 33.0631 42.2951C32.2878 42.2259 31.5594 41.8943 30.9981 41.3551C30.2814 40.7419 29.7773 39.9175 29.5581 39.0001C29.5508 38.9457 29.5561 38.8903 29.5736 38.8382C29.591 38.7861 29.6202 38.7386 29.6588 38.6996C29.6974 38.6605 29.7445 38.6307 29.7963 38.6126C29.8482 38.5945 29.9035 38.5885 29.9581 38.5951H36.1281C36.1823 38.5894 36.237 38.596 36.2883 38.6144C36.3395 38.6329 36.3859 38.6628 36.4239 38.7018C36.4619 38.7407 36.4906 38.7879 36.5078 38.8395C36.525 38.8912 36.5302 38.9461 36.5231 39.0001Z" fill="#B71422"/>
<path d="M30.9993 41.3951C31.5595 41.9346 32.2853 42.2693 33.0593 42.3451C33.8316 42.2682 34.5554 41.9336 35.1143 41.3951C35.2931 41.2285 35.4601 41.0497 35.6143 40.8601C35.3063 40.5106 34.93 40.2279 34.5087 40.0293C34.0874 39.8307 33.6299 39.7203 33.1643 39.7051C32.6662 39.7169 32.1783 39.8496 31.7428 40.0917C31.3073 40.3338 30.9372 40.6782 30.6643 41.0951C30.7793 41.2001 30.8793 41.3001 30.9993 41.3951Z" fill="#FF6164"/>
<path d="M31.0784 41.0001C31.3263 40.6797 31.6436 40.4196 32.0064 40.2395C32.3693 40.0593 32.7683 39.9638 33.1734 39.9601C33.9222 39.9822 34.6356 40.2836 35.1734 40.8051C35.2884 40.6801 35.3984 40.5501 35.5034 40.4201C34.8673 39.8143 34.0267 39.4698 33.1484 39.4551C32.679 39.4591 32.2163 39.567 31.7936 39.771C31.3709 39.9751 30.9986 40.2701 30.7034 40.6351C30.8216 40.7635 30.9468 40.8854 31.0784 41.0001Z" fill="black"/>
<path d="M33.045 42.595C32.2118 42.522 31.4278 42.1696 30.82 41.595C30.0461 40.9404 29.5013 40.0558 29.265 39.07C29.2481 38.9823 29.251 38.8918 29.2735 38.8053C29.2959 38.7188 29.3375 38.6384 29.395 38.57C29.4635 38.4873 29.5501 38.4213 29.648 38.3771C29.7459 38.3329 29.8526 38.3117 29.96 38.315H36.13C36.2372 38.3128 36.3436 38.3345 36.4414 38.3786C36.5391 38.4227 36.6258 38.4881 36.695 38.57C36.752 38.6387 36.7928 38.7193 36.8145 38.8058C36.8361 38.8924 36.838 38.9827 36.82 39.07C36.5838 40.0558 36.039 40.9404 35.265 41.595C34.6586 42.1686 33.8765 42.5209 33.045 42.595ZM29.96 38.895C29.88 38.895 29.86 38.93 29.855 38.94C30.0664 39.7949 30.5445 40.5602 31.22 41.125C31.714 41.6117 32.3563 41.9196 33.045 42C33.732 41.9205 34.3736 41.6165 34.87 41.135C35.5435 40.5692 36.0197 39.8041 36.23 38.95C36.2191 38.9341 36.204 38.9214 36.1864 38.9134C36.1687 38.9055 36.1492 38.9026 36.13 38.905L29.96 38.895Z" fill="black"/>
<path d="M40.6125 39.3099C42.2279 39.3099 43.5375 38.5398 43.5375 37.5899C43.5375 36.6399 42.2279 35.8699 40.6125 35.8699C38.9971 35.8699 37.6875 36.6399 37.6875 37.5899C37.6875 38.5398 38.9971 39.3099 40.6125 39.3099Z" fill="#FEBBD0"/>
<path d="M25.4758 39.3099C27.0912 39.3099 28.4008 38.5398 28.4008 37.5899C28.4008 36.6399 27.0912 35.8699 25.4758 35.8699C23.8603 35.8699 22.5508 36.6399 22.5508 37.5899C22.5508 38.5398 23.8603 39.3099 25.4758 39.3099Z" fill="#FEBBD0"/>
<path fill-rule="evenodd" clip-rule="evenodd" d="M26.8516 36.8999C27.3967 36.9009 27.9298 36.7401 28.3835 36.438C28.8372 36.1359 29.1911 35.706 29.4004 35.2027C29.6097 34.6993 29.665 34.1452 29.5592 33.6105C29.4535 33.0757 29.1915 32.5844 28.8064 32.1986C28.4213 31.8128 27.9304 31.5499 27.3959 31.4432C26.8613 31.3365 26.3071 31.3908 25.8034 31.5991C25.2997 31.8075 24.8692 32.1606 24.5662 32.6138C24.2633 33.0669 24.1016 33.5998 24.1016 34.1449C24.1016 34.8747 24.3911 35.5747 24.9067 36.0912C25.4223 36.6077 26.1218 36.8986 26.8516 36.8999ZM39.2366 36.8999C39.7823 36.9039 40.3169 36.7456 40.7726 36.4453C41.2283 36.145 41.5845 35.7162 41.7961 35.2131C42.0077 34.7101 42.0651 34.1555 41.961 33.6198C41.857 33.0841 41.5962 32.5913 41.2117 32.204C40.8272 31.8167 40.3364 31.5523 39.8014 31.4444C39.2665 31.3364 38.7115 31.3898 38.2069 31.5977C37.7024 31.8057 37.2709 32.1588 36.9673 32.6122C36.6637 33.0657 36.5016 33.5992 36.5016 34.1449C36.5002 34.8725 36.7873 35.571 37.2999 36.0874C37.8126 36.6038 38.509 36.8959 39.2366 36.8999Z" fill="black"/>
<path fill-rule="evenodd" clip-rule="evenodd" d="M26.0027 34.32C26.2076 34.321 26.4082 34.2611 26.579 34.148C26.7499 34.0349 26.8833 33.8736 26.9624 33.6845C27.0415 33.4955 27.0627 33.2873 27.0234 33.0862C26.984 32.8851 26.8858 32.7002 26.7413 32.5549C26.5967 32.4097 26.4123 32.3106 26.2114 32.2703C26.0105 32.2299 25.8022 32.2501 25.6127 32.3283C25.4233 32.4065 25.2614 32.5391 25.1474 32.7095C25.0335 32.8798 24.9727 33.0801 24.9727 33.285C24.9727 33.5586 25.081 33.8211 25.274 34.0151C25.4671 34.209 25.729 34.3187 26.0027 34.32ZM38.3877 34.32C38.5926 34.321 38.7932 34.2611 38.964 34.148C39.1349 34.0349 39.2683 33.8736 39.3474 33.6845C39.4265 33.4955 39.4477 33.2873 39.4084 33.0862C39.369 32.8851 39.2708 32.7002 39.1263 32.5549C38.9817 32.4097 38.7973 32.3106 38.5964 32.2703C38.3955 32.2299 38.1872 32.2501 37.9977 32.3283C37.8083 32.4065 37.6464 32.5391 37.5324 32.7095C37.4185 32.8798 37.3577 33.0801 37.3577 33.285C37.3576 33.5569 37.4646 33.8179 37.6555 34.0116C37.8463 34.2053 38.1058 34.316 38.3777 34.32H38.3877Z" fill="white"/>
</g>
<defs>
<filter id="filter0_ii_1_1049" x="0" y="0" width="68" height="69" filterUnits="userSpaceOnUse" color-interpolation-filters="sRGB">
<feFlood flood-opacity="0" result="BackgroundImageFix"/>
<feBlend mode="normal" in="SourceGraphic" in2="BackgroundImageFix" result="shape"/>
<feColorMatrix in="SourceAlpha" type="matrix" values="0 0 0 0 0 0 0 0 0 0 0 0 0 0 0 0 0 0 127 0" result="hardAlpha"/>
<feMorphology radius="1" operator="erode" in="SourceAlpha" result="effect1_innerShadow_1_1049"/>
<feOffset/>
<feComposite in2="hardAlpha" operator="arithmetic" k2="-1" k3="1"/>
<feColorMatrix type="matrix" values="0 0 0 0 1 0 0 0 0 1 0 0 0 0 1 0 0 0 0.06 0"/>
<feBlend mode="normal" in2="shape" result="effect1_innerShadow_1_1049"/>
<feColorMatrix in="SourceAlpha" type="matrix" values="0 0 0 0 0 0 0 0 0 0 0 0 0 0 0 0 0 0 127 0" result="hardAlpha"/>
<feOffset dy="1"/>
<feComposite in2="hardAlpha" operator="arithmetic" k2="-1" k3="1"/>
<feColorMatrix type="matrix" values="0 0 0 0 1 0 0 0 0 1 0 0 0 0 1 0 0 0 0.1 0"/>
<feBlend mode="normal" in2="effect1_innerShadow_1_1049" result="effect2_innerShadow_1_1049"/>
</filter>
<clipPath id="clip0_1_1049">
<rect x="14" y="15" width="40" height="40" rx="6" fill="white"/>
</clipPath>
</defs>
</svg>
