<svg width="82" height="82" viewBox="0 0 82 82" fill="none" xmlns="http://www.w3.org/2000/svg">
<rect y="12.1554" width="70" height="70" rx="14" transform="rotate(-10 0 12.1554)" fill="white" fill-opacity="0.1"/>
<g filter="url(#filter0_ii_1_920)">
<rect y="12.1554" width="70" height="70" rx="14" transform="rotate(-10 0 12.1554)" fill="white" fill-opacity="0.01"/>
</g>
<g clip-path="url(#clip0_1_920)">
<g clip-path="url(#clip1_1_920)">
<path d="M21.7198 32.3444L55.4305 26.4003C55.9328 26.3117 56.4497 26.4263 56.8675 26.7188C57.2853 27.0114 57.5697 27.4579 57.6583 27.9602L60.9309 46.52C61.0195 47.0223 60.9049 47.5392 60.6123 47.957C60.3198 48.3748 59.8733 48.6593 59.371 48.7478L25.6603 54.6919C25.158 54.7805 24.6411 54.6659 24.2233 54.3734C23.8055 54.0808 23.521 53.6343 23.4325 53.132L20.1599 34.5722C20.0713 34.0699 20.1859 33.553 20.4784 33.1352C20.771 32.7174 21.2175 32.4329 21.7198 32.3444Z" stroke="#FFFF00" stroke-width="1.92308"/>
<path d="M27.667 49.4562L25.3962 36.578L29.184 35.9101L33.8065 39.9769L36.7594 34.5743L40.5471 33.9065L42.8179 46.7847L39.0302 47.4526L37.7278 40.0665L34.775 45.4691L30.1524 41.4023L31.4547 48.7884L27.667 49.4562ZM51.3403 45.282L44.5567 40.0341L48.3444 39.3662L47.1756 32.7377L50.9634 32.0698L52.1321 38.6983L55.9199 38.0304L51.3403 45.282Z" fill="#FFFF00"/>
</g>
</g>
<defs>
<filter id="filter0_ii_1_920" x="2.21606" y="2.21616" width="76.6598" height="76.6597" filterUnits="userSpaceOnUse" color-interpolation-filters="sRGB">
<feFlood flood-opacity="0" result="BackgroundImageFix"/>
<feBlend mode="normal" in="SourceGraphic" in2="BackgroundImageFix" result="shape"/>
<feColorMatrix in="SourceAlpha" type="matrix" values="0 0 0 0 0 0 0 0 0 0 0 0 0 0 0 0 0 0 127 0" result="hardAlpha"/>
<feMorphology radius="1" operator="erode" in="SourceAlpha" result="effect1_innerShadow_1_920"/>
<feOffset/>
<feComposite in2="hardAlpha" operator="arithmetic" k2="-1" k3="1"/>
<feColorMatrix type="matrix" values="0 0 0 0 1 0 0 0 0 1 0 0 0 0 1 0 0 0 0.06 0"/>
<feBlend mode="normal" in2="shape" result="effect1_innerShadow_1_920"/>
<feColorMatrix in="SourceAlpha" type="matrix" values="0 0 0 0 0 0 0 0 0 0 0 0 0 0 0 0 0 0 127 0" result="hardAlpha"/>
<feOffset dy="1"/>
<feComposite in2="hardAlpha" operator="arithmetic" k2="-1" k3="1"/>
<feColorMatrix type="matrix" values="0 0 0 0 1 0 0 0 0 1 0 0 0 0 1 0 0 0 0.1 0"/>
<feBlend mode="normal" in2="effect1_innerShadow_1_920" result="effect2_innerShadow_1_920"/>
</filter>
<clipPath id="clip0_1_920">
<rect x="17.3768" y="24.3229" width="40" height="40" rx="6" transform="rotate(-10 17.3768 24.3229)" fill="white"/>
</clipPath>
<clipPath id="clip1_1_920">
<rect width="40" height="40" fill="white" transform="translate(17.3768 24.3229) rotate(-10)"/>
</clipPath>
</defs>
</svg>
