<svg width="80" height="81" viewBox="0 0 80 81" fill="none" xmlns="http://www.w3.org/2000/svg">
<rect y="11.8081" width="68" height="70" rx="14" transform="rotate(-10 0 11.8081)" fill="white" fill-opacity="0.1"/>
<g filter="url(#filter0_ii_1_868)">
<rect y="11.8081" width="68" height="70" rx="14" transform="rotate(-10 0 11.8081)" fill="white" fill-opacity="0.01"/>
</g>
<g clip-path="url(#clip0_1_868)">
<g clip-path="url(#clip1_1_868)">
<path d="M42.9182 59.4117C53.4335 57.5576 60.4548 47.5302 58.6006 37.0149C56.7465 26.4996 46.7191 19.4784 36.2038 21.3325C25.6885 23.1866 18.6673 33.214 20.5214 43.7293C22.3755 54.2446 32.4029 61.2659 42.9182 59.4117Z" fill="black" stroke="white" stroke-width="1.33333"/>
<path d="M55.1894 52.8525L33.6069 33.2987L30.2931 33.8831L33.0703 49.6334L35.7213 49.166L33.5378 36.7823L53.391 54.8225C54.0346 54.2056 54.6351 53.5471 55.1894 52.8525Z" fill="white"/>
<path d="M46.2708 31.0655L43.6447 31.5286L46.4231 47.2855L49.0492 46.8224L46.2708 31.0655Z" fill="white"/>
</g>
</g>
<defs>
<filter id="filter0_ii_1_868" x="2.21603" y="2.21606" width="74.6902" height="76.3125" filterUnits="userSpaceOnUse" color-interpolation-filters="sRGB">
<feFlood flood-opacity="0" result="BackgroundImageFix"/>
<feBlend mode="normal" in="SourceGraphic" in2="BackgroundImageFix" result="shape"/>
<feColorMatrix in="SourceAlpha" type="matrix" values="0 0 0 0 0 0 0 0 0 0 0 0 0 0 0 0 0 0 127 0" result="hardAlpha"/>
<feMorphology radius="1" operator="erode" in="SourceAlpha" result="effect1_innerShadow_1_868"/>
<feOffset/>
<feComposite in2="hardAlpha" operator="arithmetic" k2="-1" k3="1"/>
<feColorMatrix type="matrix" values="0 0 0 0 1 0 0 0 0 1 0 0 0 0 1 0 0 0 0.06 0"/>
<feBlend mode="normal" in2="shape" result="effect1_innerShadow_1_868"/>
<feColorMatrix in="SourceAlpha" type="matrix" values="0 0 0 0 0 0 0 0 0 0 0 0 0 0 0 0 0 0 127 0" result="hardAlpha"/>
<feOffset dy="1"/>
<feComposite in2="hardAlpha" operator="arithmetic" k2="-1" k3="1"/>
<feColorMatrix type="matrix" values="0 0 0 0 1 0 0 0 0 1 0 0 0 0 1 0 0 0 0.1 0"/>
<feBlend mode="normal" in2="effect1_innerShadow_1_868" result="effect2_innerShadow_1_868"/>
</filter>
<clipPath id="clip0_1_868">
<rect x="16.3906" y="24.1492" width="40" height="40" rx="6" transform="rotate(-10 16.3906 24.1492)" fill="white"/>
</clipPath>
<clipPath id="clip1_1_868">
<rect width="40" height="40" fill="white" transform="translate(16.3906 24.1492) rotate(-10)"/>
</clipPath>
</defs>
</svg>
