<svg width="69" height="69" viewBox="0 0 69 69" fill="none" xmlns="http://www.w3.org/2000/svg">
<rect width="69" height="69" rx="14" fill="white" fill-opacity="0.1"/>
<g filter="url(#filter0_ii_1_989)">
<rect width="69" height="69" rx="14" fill="white" fill-opacity="0.01"/>
</g>
<g clip-path="url(#clip0_1_989)">
<g clip-path="url(#clip1_1_989)">
<path d="M34.8177 21.9287C27.7113 21.9287 21.9297 27.7103 21.9297 34.8167C21.9297 41.9231 27.7113 47.7047 34.8177 47.7047C41.9241 47.7047 47.7057 41.9231 47.7057 34.8167C47.7057 27.7103 41.9241 21.9287 34.8177 21.9287ZM34.8177 41.4863C31.1337 41.4863 28.1481 38.5007 28.1481 34.8167C28.1481 31.1327 31.1337 28.1471 34.8177 28.1471C38.5017 28.1471 41.4873 31.1327 41.4873 34.8167C41.4873 38.5007 38.5017 41.4863 34.8177 41.4863Z" fill="#FAFAFA"/>
<path fill-rule="evenodd" clip-rule="evenodd" d="M35.8968 19.812V15C46.356 15.5592 54.6648 24.2184 54.6648 34.8168C54.6648 45.4152 46.356 54.072 35.8968 54.6336V49.8216C43.692 49.2648 49.8648 42.7512 49.8648 34.8168C49.8648 26.8824 43.692 20.3688 35.8968 19.812ZM23.4504 44.6568C21.384 42.2712 20.052 39.2328 19.8144 35.8968H15C15.2496 40.5648 17.1168 44.8008 20.0424 48.0624L23.448 44.6568H23.4504ZM33.7368 54.6336V49.8216C30.3984 49.584 27.36 48.2544 24.9744 46.1856L21.5688 49.5912C24.8328 52.5192 29.0688 54.384 33.7344 54.6336H33.7368Z" fill="url(#paint0_linear_1_989)"/>
</g>
</g>
<defs>
<filter id="filter0_ii_1_989" x="0" y="0" width="69" height="69" filterUnits="userSpaceOnUse" color-interpolation-filters="sRGB">
<feFlood flood-opacity="0" result="BackgroundImageFix"/>
<feBlend mode="normal" in="SourceGraphic" in2="BackgroundImageFix" result="shape"/>
<feColorMatrix in="SourceAlpha" type="matrix" values="0 0 0 0 0 0 0 0 0 0 0 0 0 0 0 0 0 0 127 0" result="hardAlpha"/>
<feMorphology radius="1" operator="erode" in="SourceAlpha" result="effect1_innerShadow_1_989"/>
<feOffset/>
<feComposite in2="hardAlpha" operator="arithmetic" k2="-1" k3="1"/>
<feColorMatrix type="matrix" values="0 0 0 0 1 0 0 0 0 1 0 0 0 0 1 0 0 0 0.06 0"/>
<feBlend mode="normal" in2="shape" result="effect1_innerShadow_1_989"/>
<feColorMatrix in="SourceAlpha" type="matrix" values="0 0 0 0 0 0 0 0 0 0 0 0 0 0 0 0 0 0 127 0" result="hardAlpha"/>
<feOffset dy="1"/>
<feComposite in2="hardAlpha" operator="arithmetic" k2="-1" k3="1"/>
<feColorMatrix type="matrix" values="0 0 0 0 1 0 0 0 0 1 0 0 0 0 1 0 0 0 0.1 0"/>
<feBlend mode="normal" in2="effect1_innerShadow_1_989" result="effect2_innerShadow_1_989"/>
</filter>
<linearGradient id="paint0_linear_1_989" x1="31.5772" y1="19.6149" x2="19.2227" y2="31.9694" gradientUnits="userSpaceOnUse">
<stop stop-color="#0096FF"/>
<stop offset="1" stop-color="#FF1E56"/>
</linearGradient>
<clipPath id="clip0_1_989">
<rect x="15" y="15" width="40" height="40" rx="6" fill="white"/>
</clipPath>
<clipPath id="clip1_1_989">
<rect width="40" height="40" fill="white" transform="translate(15 15)"/>
</clipPath>
</defs>
</svg>
