<svg width="69" height="69" viewBox="0 0 69 69" fill="none" xmlns="http://www.w3.org/2000/svg">
<rect width="69" height="69" rx="14" fill="white" fill-opacity="0.1"/>
<g filter="url(#filter0_ii_1_968)">
<rect width="69" height="69" rx="14" fill="white" fill-opacity="0.01"/>
</g>
<g clip-path="url(#clip0_1_968)">
<path d="M49.1964 43.7048L37.7031 19.2972C37.5603 18.9969 37.339 18.7407 37.0625 18.5559C36.786 18.3711 36.4648 18.2644 36.1327 18.2472C35.7999 18.2249 35.4674 18.2943 35.1714 18.4478C34.8753 18.6013 34.627 18.833 34.4534 19.1177L21.9878 39.3079C21.7982 39.6128 21.6995 39.9653 21.7032 40.3243C21.7069 40.6832 21.8129 41.0337 22.0087 41.3346L28.1031 50.7725C28.3337 51.1268 28.6726 51.3971 29.0694 51.543C29.4661 51.6889 29.8994 51.7027 30.3045 51.5822L47.9909 46.3506C48.2572 46.2727 48.5037 46.1386 48.7137 45.9573C48.9237 45.776 49.0924 45.5517 49.2082 45.2996C49.3224 45.0488 49.3806 44.7761 49.3788 44.5005C49.3769 44.225 49.3149 43.9531 49.1973 43.7039L49.1964 43.7048ZM46.6232 44.7516L31.6154 49.1894C31.1575 49.3256 30.7181 48.9288 30.8133 48.4667L36.1752 22.7928C36.2755 22.3124 36.9388 22.2363 37.1485 22.6809L47.0744 43.759C47.1183 43.8529 47.1413 43.9553 47.1418 44.0589C47.1423 44.1626 47.1203 44.2651 47.0773 44.3595C47.0344 44.4538 46.9715 44.5377 46.8929 44.6054C46.8144 44.6731 46.7221 44.7229 46.6225 44.7515L46.6232 44.7516Z" fill="#FAFAFA"/>
</g>
<defs>
<filter id="filter0_ii_1_968" x="0" y="0" width="69" height="69" filterUnits="userSpaceOnUse" color-interpolation-filters="sRGB">
<feFlood flood-opacity="0" result="BackgroundImageFix"/>
<feBlend mode="normal" in="SourceGraphic" in2="BackgroundImageFix" result="shape"/>
<feColorMatrix in="SourceAlpha" type="matrix" values="0 0 0 0 0 0 0 0 0 0 0 0 0 0 0 0 0 0 127 0" result="hardAlpha"/>
<feMorphology radius="1" operator="erode" in="SourceAlpha" result="effect1_innerShadow_1_968"/>
<feOffset/>
<feComposite in2="hardAlpha" operator="arithmetic" k2="-1" k3="1"/>
<feColorMatrix type="matrix" values="0 0 0 0 1 0 0 0 0 1 0 0 0 0 1 0 0 0 0.06 0"/>
<feBlend mode="normal" in2="shape" result="effect1_innerShadow_1_968"/>
<feColorMatrix in="SourceAlpha" type="matrix" values="0 0 0 0 0 0 0 0 0 0 0 0 0 0 0 0 0 0 127 0" result="hardAlpha"/>
<feOffset dy="1"/>
<feComposite in2="hardAlpha" operator="arithmetic" k2="-1" k3="1"/>
<feColorMatrix type="matrix" values="0 0 0 0 1 0 0 0 0 1 0 0 0 0 1 0 0 0 0.1 0"/>
<feBlend mode="normal" in2="effect1_innerShadow_1_968" result="effect2_innerShadow_1_968"/>
</filter>
<clipPath id="clip0_1_968">
<rect x="15" y="15" width="40" height="40" rx="6" fill="white"/>
</clipPath>
</defs>
</svg>
