<svg width="69" height="69" viewBox="0 0 69 69" fill="none" xmlns="http://www.w3.org/2000/svg">
<rect width="69" height="69" rx="14" fill="white" fill-opacity="0.1"/>
<g filter="url(#filter0_ii_1_1008)">
<rect width="69" height="69" rx="14" fill="white" fill-opacity="0.01"/>
</g>
<g clip-path="url(#clip0_1_1008)">
<path d="M33.4303 31.013C33.6917 30.6208 34.0839 30.4901 34.3453 30.4901C34.476 30.4901 34.9989 30.6208 35.2603 31.013C37.3518 33.8888 40.8813 39.7711 43.4956 44.2156L46.8943 49.4443C47.8094 50.4901 49.2473 49.8365 50.0316 48.66C50.8159 47.4836 51.0773 46.6992 51.0773 45.7842C51.0773 45.2613 39.5741 23.8234 38.3976 21.9934C37.2211 20.294 36.9597 19.9019 34.9989 19.9019H33.561C31.7309 19.9019 31.4695 20.294 30.293 21.9934C29.1165 23.8234 17.6133 45.2613 17.6133 45.7842C17.6133 46.6992 17.8747 47.4836 18.659 48.66C19.4433 49.8365 20.8813 50.4901 21.7963 49.4443L25.195 44.2156C27.8094 39.7711 31.3388 33.8888 33.4303 31.013Z" fill="white"/>
</g>
<defs>
<filter id="filter0_ii_1_1008" x="0" y="0" width="69" height="69" filterUnits="userSpaceOnUse" color-interpolation-filters="sRGB">
<feFlood flood-opacity="0" result="BackgroundImageFix"/>
<feBlend mode="normal" in="SourceGraphic" in2="BackgroundImageFix" result="shape"/>
<feColorMatrix in="SourceAlpha" type="matrix" values="0 0 0 0 0 0 0 0 0 0 0 0 0 0 0 0 0 0 127 0" result="hardAlpha"/>
<feMorphology radius="1" operator="erode" in="SourceAlpha" result="effect1_innerShadow_1_1008"/>
<feOffset/>
<feComposite in2="hardAlpha" operator="arithmetic" k2="-1" k3="1"/>
<feColorMatrix type="matrix" values="0 0 0 0 1 0 0 0 0 1 0 0 0 0 1 0 0 0 0.06 0"/>
<feBlend mode="normal" in2="shape" result="effect1_innerShadow_1_1008"/>
<feColorMatrix in="SourceAlpha" type="matrix" values="0 0 0 0 0 0 0 0 0 0 0 0 0 0 0 0 0 0 127 0" result="hardAlpha"/>
<feOffset dy="1"/>
<feComposite in2="hardAlpha" operator="arithmetic" k2="-1" k3="1"/>
<feColorMatrix type="matrix" values="0 0 0 0 1 0 0 0 0 1 0 0 0 0 1 0 0 0 0.1 0"/>
<feBlend mode="normal" in2="effect1_innerShadow_1_1008" result="effect2_innerShadow_1_1008"/>
</filter>
<clipPath id="clip0_1_1008">
<rect x="15" y="15" width="40" height="40" rx="6" fill="white"/>
</clipPath>
</defs>
</svg>
