<svg width="82" height="82" viewBox="0 0 82 82" fill="none" xmlns="http://www.w3.org/2000/svg">
<rect y="12.1554" width="70" height="70" rx="14" transform="rotate(-10 0 12.1554)" fill="white" fill-opacity="0.1"/>
<g filter="url(#filter0_ii_1_904)">
<rect y="12.1554" width="70" height="70" rx="14" transform="rotate(-10 0 12.1554)" fill="white" fill-opacity="0.01"/>
</g>
<g clip-path="url(#clip0_1_904)">
<path d="M37.9404 57.2524C40.8396 56.7412 42.7778 53.9732 42.2666 51.074L41.3404 45.8217L36.0881 46.7478C33.1888 47.259 31.2507 50.0269 31.7619 52.9262C32.2732 55.8255 35.0411 57.7637 37.9404 57.2524Z" fill="#0ACF83"/>
<path d="M29.9084 42.4216C29.3972 39.5223 31.3353 36.7544 34.2346 36.2432L39.4869 35.317L41.3392 45.8217L36.0868 46.7478C33.1876 47.259 30.4196 45.3209 29.9084 42.4216Z" fill="#A259FF"/>
<path d="M28.0569 31.9169C27.5456 29.0177 29.4838 26.2497 32.383 25.7385L37.6354 24.8124L39.4876 35.317L34.2353 36.2432C31.336 36.7544 28.5681 34.8162 28.0569 31.9169Z" fill="#F24E1E"/>
<path d="M37.6366 24.8121L42.8889 23.886C45.7882 23.3748 48.5561 25.3129 49.0673 28.2122C49.5786 31.1114 47.6405 33.8794 44.7412 34.3906L39.4888 35.3167L37.6366 24.8121Z" fill="#FF7262"/>
<path d="M50.9189 38.7168C51.4301 41.6161 49.492 44.384 46.5927 44.8952C43.6935 45.4065 40.9255 43.4683 40.4143 40.569C39.9031 37.6698 41.8412 34.9018 44.7405 34.3906C47.6398 33.8794 50.4077 35.8175 50.9189 38.7168Z" fill="#1ABCFE"/>
</g>
<defs>
<filter id="filter0_ii_1_904" x="2.21606" y="2.21616" width="76.6598" height="76.6597" filterUnits="userSpaceOnUse" color-interpolation-filters="sRGB">
<feFlood flood-opacity="0" result="BackgroundImageFix"/>
<feBlend mode="normal" in="SourceGraphic" in2="BackgroundImageFix" result="shape"/>
<feColorMatrix in="SourceAlpha" type="matrix" values="0 0 0 0 0 0 0 0 0 0 0 0 0 0 0 0 0 0 127 0" result="hardAlpha"/>
<feMorphology radius="1" operator="erode" in="SourceAlpha" result="effect1_innerShadow_1_904"/>
<feOffset/>
<feComposite in2="hardAlpha" operator="arithmetic" k2="-1" k3="1"/>
<feColorMatrix type="matrix" values="0 0 0 0 1 0 0 0 0 1 0 0 0 0 1 0 0 0 0.06 0"/>
<feBlend mode="normal" in2="shape" result="effect1_innerShadow_1_904"/>
<feColorMatrix in="SourceAlpha" type="matrix" values="0 0 0 0 0 0 0 0 0 0 0 0 0 0 0 0 0 0 127 0" result="hardAlpha"/>
<feOffset dy="1"/>
<feComposite in2="hardAlpha" operator="arithmetic" k2="-1" k3="1"/>
<feColorMatrix type="matrix" values="0 0 0 0 1 0 0 0 0 1 0 0 0 0 1 0 0 0 0.1 0"/>
<feBlend mode="normal" in2="effect1_innerShadow_1_904" result="effect2_innerShadow_1_904"/>
</filter>
<clipPath id="clip0_1_904">
<rect x="17.3768" y="24.3229" width="40" height="40" rx="6" transform="rotate(-10 17.3768 24.3229)" fill="white"/>
</clipPath>
</defs>
</svg>
