<svg width="81" height="81" viewBox="0 0 81 81" fill="none" xmlns="http://www.w3.org/2000/svg">
<rect y="11.9817" width="69" height="70" rx="14" transform="rotate(-10 0 11.9817)" fill="white" fill-opacity="0.1"/>
<g filter="url(#filter0_ii_1_894)">
<rect y="11.9817" width="69" height="70" rx="14" transform="rotate(-10 0 11.9817)" fill="white" fill-opacity="0.01"/>
</g>
<g clip-path="url(#clip0_1_894)">
<g clip-path="url(#clip1_1_894)">
<path d="M34.5064 34.33L29.1518 49.4758L22.0612 50.7261L26.2422 38.8997C26.8904 37.0664 29.003 35.3004 30.9611 34.9551L34.5064 34.33ZM52.5017 34.7074C52.1664 32.8056 53.4818 30.9841 55.4399 30.6389C57.3979 30.2936 59.257 31.5554 59.5923 33.4571C59.9276 35.3588 58.6122 37.1803 56.6542 37.5256C54.6961 37.8708 52.837 36.609 52.5017 34.7074ZM35.8359 34.0956L42.9265 32.8453L37.5719 47.9911L30.4813 49.2414L35.8359 34.0956ZM44.2105 32.6189L51.3012 31.3686L47.12 43.1951C46.4719 45.0283 44.3592 46.7943 42.4012 47.1396L38.8559 47.7647L44.2105 32.6189Z" fill="#FFF312"/>
</g>
</g>
<defs>
<filter id="filter0_ii_1_894" x="2.21606" y="2.2161" width="75.675" height="76.4861" filterUnits="userSpaceOnUse" color-interpolation-filters="sRGB">
<feFlood flood-opacity="0" result="BackgroundImageFix"/>
<feBlend mode="normal" in="SourceGraphic" in2="BackgroundImageFix" result="shape"/>
<feColorMatrix in="SourceAlpha" type="matrix" values="0 0 0 0 0 0 0 0 0 0 0 0 0 0 0 0 0 0 127 0" result="hardAlpha"/>
<feMorphology radius="1" operator="erode" in="SourceAlpha" result="effect1_innerShadow_1_894"/>
<feOffset/>
<feComposite in2="hardAlpha" operator="arithmetic" k2="-1" k3="1"/>
<feColorMatrix type="matrix" values="0 0 0 0 1 0 0 0 0 1 0 0 0 0 1 0 0 0 0.06 0"/>
<feBlend mode="normal" in2="shape" result="effect1_innerShadow_1_894"/>
<feColorMatrix in="SourceAlpha" type="matrix" values="0 0 0 0 0 0 0 0 0 0 0 0 0 0 0 0 0 0 127 0" result="hardAlpha"/>
<feOffset dy="1"/>
<feComposite in2="hardAlpha" operator="arithmetic" k2="-1" k3="1"/>
<feColorMatrix type="matrix" values="0 0 0 0 1 0 0 0 0 1 0 0 0 0 1 0 0 0 0.1 0"/>
<feBlend mode="normal" in2="effect1_innerShadow_1_894" result="effect2_innerShadow_1_894"/>
</filter>
<clipPath id="clip0_1_894">
<rect x="17.375" y="24.1492" width="40" height="40" rx="6" transform="rotate(-10 17.375 24.1492)" fill="white"/>
</clipPath>
<clipPath id="clip1_1_894">
<rect width="40" height="40" fill="white" transform="translate(17.375 24.1492) rotate(-10)"/>
</clipPath>
</defs>
</svg>
