<svg width="70" height="70" viewBox="0 0 70 70" fill="none" xmlns="http://www.w3.org/2000/svg">
<rect width="70" height="70" rx="14" fill="white" fill-opacity="0.1"/>
<g filter="url(#filter0_ii_1_926)">
<rect width="70" height="70" rx="14" fill="white" fill-opacity="0.01"/>
</g>
<g clip-path="url(#clip0_1_926)">
<g clip-path="url(#clip1_1_926)">
<path d="M34.9951 54.9999C34.4601 54.9999 33.9267 54.8599 33.4584 54.5883L28.5651 51.6933C27.8351 51.2849 28.1917 51.1399 28.4317 51.0549C29.4067 50.7166 29.6034 50.6383 30.6451 50.0483C30.7534 49.9866 30.8967 50.0099 31.0084 50.0766L34.7684 52.3083C34.9051 52.3833 35.0967 52.3833 35.2217 52.3083L49.8801 43.8483C50.0167 43.7699 50.1034 43.6133 50.1034 43.4516V26.5349C50.1034 26.3699 50.0151 26.2149 49.8751 26.1316L35.2234 17.6783C35.0884 17.5999 34.9084 17.5999 34.7717 17.6783L20.1234 26.1333C19.9817 26.2149 19.8917 26.3749 19.8917 26.5349V43.4516C19.8917 43.6133 19.9817 43.7666 20.1234 43.8433L24.1384 46.1633C26.3167 47.2533 27.6517 45.9699 27.6517 44.6799V27.9783C27.6517 27.7416 27.8417 27.5566 28.0784 27.5566H29.9367C30.1684 27.5566 30.3617 27.7433 30.3617 27.9783V44.6799C30.3617 47.5883 28.7784 49.2549 26.0217 49.2549C25.1751 49.2549 24.5067 49.2549 22.6451 48.3366L18.7984 46.1249C17.8484 45.5766 17.2617 44.5499 17.2617 43.4516V26.5349C17.2617 25.4366 17.8501 24.4099 18.7984 23.8633L33.4567 15.3933C34.3851 14.8683 35.6167 14.8683 36.5367 15.3933L51.1934 23.8633C52.1434 24.4116 52.7334 25.4366 52.7334 26.5349V43.4516C52.7334 44.5499 52.1434 45.5733 51.1934 46.1249L36.5367 54.5883C36.0701 54.8599 35.5384 54.9999 34.9951 54.9999ZM46.8301 38.3216C46.8301 35.1549 44.6901 34.3116 40.1851 33.7166C35.6334 33.1149 35.1701 32.8033 35.1701 31.7383C35.1701 30.8583 35.5617 29.6833 38.9334 29.6833C41.9451 29.6833 43.0551 30.3316 43.5117 32.3616C43.5517 32.5533 43.7267 32.6933 43.9234 32.6933H45.8251C45.9434 32.6933 46.055 32.6416 46.135 32.5583C46.215 32.4683 46.2584 32.3533 46.2467 32.2316C45.9517 28.7349 43.6284 27.1049 38.9334 27.1049C34.7534 27.1049 32.2601 28.8683 32.2601 31.8266C32.2601 35.0349 34.7401 35.9216 38.7517 36.3183C43.5517 36.7883 43.9234 37.4899 43.9234 38.4333C43.9234 40.0716 42.6084 40.7699 39.5201 40.7699C35.6417 40.7699 34.7884 39.7966 34.5017 37.8666C34.4684 37.6599 34.2917 37.5083 34.0801 37.5083H32.1851C31.9501 37.5083 31.7617 37.6949 31.7617 37.9299C31.7617 40.3999 33.1051 43.3433 39.5201 43.3433C44.1667 43.3449 46.8301 41.5166 46.8301 38.3216Z" fill="#5FA04E"/>
</g>
</g>
<defs>
<filter id="filter0_ii_1_926" x="0" y="0" width="70" height="70" filterUnits="userSpaceOnUse" color-interpolation-filters="sRGB">
<feFlood flood-opacity="0" result="BackgroundImageFix"/>
<feBlend mode="normal" in="SourceGraphic" in2="BackgroundImageFix" result="shape"/>
<feColorMatrix in="SourceAlpha" type="matrix" values="0 0 0 0 0 0 0 0 0 0 0 0 0 0 0 0 0 0 127 0" result="hardAlpha"/>
<feMorphology radius="1" operator="erode" in="SourceAlpha" result="effect1_innerShadow_1_926"/>
<feOffset/>
<feComposite in2="hardAlpha" operator="arithmetic" k2="-1" k3="1"/>
<feColorMatrix type="matrix" values="0 0 0 0 1 0 0 0 0 1 0 0 0 0 1 0 0 0 0.06 0"/>
<feBlend mode="normal" in2="shape" result="effect1_innerShadow_1_926"/>
<feColorMatrix in="SourceAlpha" type="matrix" values="0 0 0 0 0 0 0 0 0 0 0 0 0 0 0 0 0 0 127 0" result="hardAlpha"/>
<feOffset dy="1"/>
<feComposite in2="hardAlpha" operator="arithmetic" k2="-1" k3="1"/>
<feColorMatrix type="matrix" values="0 0 0 0 1 0 0 0 0 1 0 0 0 0 1 0 0 0 0.1 0"/>
<feBlend mode="normal" in2="effect1_innerShadow_1_926" result="effect2_innerShadow_1_926"/>
</filter>
<clipPath id="clip0_1_926">
<rect x="15" y="15" width="40" height="40" rx="6" fill="white"/>
</clipPath>
<clipPath id="clip1_1_926">
<rect width="40" height="40" fill="white" transform="translate(15 15)"/>
</clipPath>
</defs>
</svg>
