<svg width="69" height="69" viewBox="0 0 69 69" fill="none" xmlns="http://www.w3.org/2000/svg">
<rect width="69" height="69" rx="14" fill="white" fill-opacity="0.1"/>
<g filter="url(#filter0_ii_1_1069)">
<rect width="69" height="69" rx="14" fill="white" fill-opacity="0.01"/>
</g>
<g clip-path="url(#clip0_1_1069)">
<g clip-path="url(#clip1_1_1069)">
<path d="M35.5394 18.3987L27.834 31.7446C30.7578 30.8432 33.9032 30.7096 36.9523 31.4288L39.5565 32.0435L37.1063 42.4327L34.4984 41.818C31.2934 41.0619 28.213 42.7455 26.9114 45.4315L24.5008 44.2653C26.3405 40.4658 30.676 38.1653 35.1149 39.2126L36.3362 34.0347C31.9612 33.0033 27.3503 34.0298 23.8254 36.8201C20.3009 39.6097 18.2422 43.8623 18.2422 48.3574L52.8368 48.3578L35.5394 18.3987Z" fill="#60A5FA"/>
</g>
</g>
<defs>
<filter id="filter0_ii_1_1069" x="0" y="0" width="69" height="69" filterUnits="userSpaceOnUse" color-interpolation-filters="sRGB">
<feFlood flood-opacity="0" result="BackgroundImageFix"/>
<feBlend mode="normal" in="SourceGraphic" in2="BackgroundImageFix" result="shape"/>
<feColorMatrix in="SourceAlpha" type="matrix" values="0 0 0 0 0 0 0 0 0 0 0 0 0 0 0 0 0 0 127 0" result="hardAlpha"/>
<feMorphology radius="1" operator="erode" in="SourceAlpha" result="effect1_innerShadow_1_1069"/>
<feOffset/>
<feComposite in2="hardAlpha" operator="arithmetic" k2="-1" k3="1"/>
<feColorMatrix type="matrix" values="0 0 0 0 1 0 0 0 0 1 0 0 0 0 1 0 0 0 0.06 0"/>
<feBlend mode="normal" in2="shape" result="effect1_innerShadow_1_1069"/>
<feColorMatrix in="SourceAlpha" type="matrix" values="0 0 0 0 0 0 0 0 0 0 0 0 0 0 0 0 0 0 127 0" result="hardAlpha"/>
<feOffset dy="1"/>
<feComposite in2="hardAlpha" operator="arithmetic" k2="-1" k3="1"/>
<feColorMatrix type="matrix" values="0 0 0 0 1 0 0 0 0 1 0 0 0 0 1 0 0 0 0.1 0"/>
<feBlend mode="normal" in2="effect1_innerShadow_1_1069" result="effect2_innerShadow_1_1069"/>
</filter>
<clipPath id="clip0_1_1069">
<rect x="15" y="15" width="40" height="40" rx="6" fill="white"/>
</clipPath>
<clipPath id="clip1_1_1069">
<rect width="40" height="40" fill="white" transform="translate(15 15)"/>
</clipPath>
</defs>
</svg>
