<svg width="79" height="80" viewBox="0 0 79 80" fill="none" xmlns="http://www.w3.org/2000/svg">
<rect y="11.8081" width="68" height="69" rx="14" transform="rotate(-10 0 11.8081)" fill="white" fill-opacity="0.1"/>
<g filter="url(#filter0_ii_1_1123)">
<rect y="11.8081" width="68" height="69" rx="14" transform="rotate(-10 0 11.8081)" fill="white" fill-opacity="0.01"/>
</g>
<g clip-path="url(#clip0_1_1123)">
<g clip-path="url(#clip1_1_1123)">
<path fill-rule="evenodd" clip-rule="evenodd" d="M23.5985 23.4874C27.1954 22.8532 30.6251 25.2548 31.2593 28.8516C31.8936 32.4485 29.4921 35.8782 25.8952 36.5125C22.2983 37.1467 18.8685 34.7452 18.2343 31.1483C17.6001 27.5514 20.0016 24.1216 23.5985 23.4874Z" stroke="#2088FF" stroke-width="1.46957" stroke-linecap="round" stroke-linejoin="round"/>
<path fill-rule="evenodd" clip-rule="evenodd" d="M35.3026 34.8541C37.7004 34.4313 39.9872 36.0325 40.41 38.4303C40.8328 40.8281 39.2315 43.1147 36.8337 43.5375C34.4359 43.9603 32.1493 42.3593 31.7265 39.9614C31.3037 37.5636 32.9048 35.2769 35.3026 34.8541Z" stroke="#2088FF" stroke-width="1.46957" stroke-linecap="round" stroke-linejoin="round"/>
<path fill-rule="evenodd" clip-rule="evenodd" d="M37.3416 46.432C39.7394 46.0092 42.0262 47.6102 42.449 50.0082C42.8718 52.406 41.2706 54.6926 38.8727 55.1154C36.4749 55.5382 34.1884 53.9371 33.7656 51.5393C33.3427 49.1413 34.9438 46.8548 37.3416 46.432Z" stroke="#2088FF" stroke-width="1.46957" stroke-linecap="round" stroke-linejoin="round"/>
<path fill-rule="evenodd" clip-rule="evenodd" d="M50.3692 44.1353C52.767 43.7125 55.0535 45.3136 55.4764 47.7116C55.8992 50.1094 54.2981 52.3959 51.9003 52.8187C49.5023 53.2416 47.2157 51.6405 46.7929 49.2427C46.3701 46.8447 47.9712 44.5581 50.3692 44.1353Z" stroke="#79B8FF" stroke-width="1.46957" stroke-linecap="round" stroke-linejoin="round"/>
<path d="M37.3622 37.9279L35.5323 40.5375L34.264 39.6527" stroke="#2088FF" stroke-width="1.46957" stroke-linecap="round" stroke-linejoin="round"/>
<path fill-rule="evenodd" clip-rule="evenodd" d="M48.3262 32.5572C50.724 32.1344 53.0106 33.7356 53.4334 36.1334C53.8562 38.5313 52.2551 40.8178 49.8573 41.2406C47.4593 41.6635 45.1728 40.0624 44.75 37.6646C44.3272 35.2668 45.9282 32.98 48.3262 32.5572Z" stroke="#2088FF" stroke-width="1.46957" stroke-linecap="round" stroke-linejoin="round"/>
<path d="M50.3893 35.6311L48.5595 38.2407L47.2914 37.3559" stroke="#2088FF" stroke-width="1.46957" stroke-linecap="round" stroke-linejoin="round"/>
<path d="M22.1669 28.0764C22.0664 27.5068 22.6328 27.0499 23.1682 27.2685L27.2792 28.9469C27.7819 29.1521 27.896 29.813 27.4913 30.1749L24.1957 33.1215C23.7664 33.5054 23.0824 33.2685 22.9824 32.7013L22.1669 28.0764Z" stroke="#2088FF" stroke-width="1.46957" stroke-linecap="round" stroke-linejoin="round"/>
<path d="M25.168 36.6404L27.0819 47.4947C27.5751 50.2922 30.2741 52.1546 33.0403 51.6668L33.764 51.5392" stroke="#2088FF" stroke-width="1.46957" stroke-linecap="round" stroke-linejoin="round"/>
<path d="M31.8135 40.6915C32.2132 40.621 32.4801 40.2401 32.4096 39.8402C32.3391 39.4406 31.958 39.1739 31.5584 39.2444L31.8135 40.6915ZM24.4492 36.7935C24.94 39.5769 27.5943 41.4354 30.3778 40.9446L30.1226 39.4976C28.1384 39.8474 26.2463 38.5225 25.8965 36.5383L24.4492 36.7935ZM30.3778 40.9446L31.8135 40.6915L31.5584 39.2444L30.1226 39.4976L30.3778 40.9446Z" fill="#2088FF"/>
<path d="M40.4492 38.4231L44.7509 37.6646" stroke="#2088FF" stroke-width="1.46957" stroke-linecap="round" stroke-linejoin="round"/>
<path fill-rule="evenodd" clip-rule="evenodd" d="M36.5361 50.3048C36.9356 50.2343 37.3169 50.5014 37.3874 50.9008C37.4579 51.3006 37.1908 51.6816 36.7913 51.752C36.3921 51.8224 36.0106 51.5558 35.9401 51.156C35.8697 50.7566 36.1369 50.3752 36.5361 50.3048Z" fill="#79B8FF"/>
<path fill-rule="evenodd" clip-rule="evenodd" d="M39.4307 49.7948C39.8299 49.7244 40.2115 49.9914 40.2819 50.3908C40.3524 50.7906 40.0851 51.1716 39.6859 51.242C39.2866 51.3124 38.9051 51.0458 38.8346 50.646C38.7642 50.2466 39.0314 49.8652 39.4307 49.7948Z" fill="#79B8FF"/>
<path d="M46.0725 49.3745L45.3441 49.5277" stroke="#79B8FF" stroke-width="1.46957" stroke-linecap="round"/>
</g>
</g>
<defs>
<filter id="filter0_ii_1_1123" x="2.21606" y="2.21606" width="74.5165" height="75.3276" filterUnits="userSpaceOnUse" color-interpolation-filters="sRGB">
<feFlood flood-opacity="0" result="BackgroundImageFix"/>
<feBlend mode="normal" in="SourceGraphic" in2="BackgroundImageFix" result="shape"/>
<feColorMatrix in="SourceAlpha" type="matrix" values="0 0 0 0 0 0 0 0 0 0 0 0 0 0 0 0 0 0 127 0" result="hardAlpha"/>
<feMorphology radius="1" operator="erode" in="SourceAlpha" result="effect1_innerShadow_1_1123"/>
<feOffset/>
<feComposite in2="hardAlpha" operator="arithmetic" k2="-1" k3="1"/>
<feColorMatrix type="matrix" values="0 0 0 0 1 0 0 0 0 1 0 0 0 0 1 0 0 0 0.06 0"/>
<feBlend mode="normal" in2="shape" result="effect1_innerShadow_1_1123"/>
<feColorMatrix in="SourceAlpha" type="matrix" values="0 0 0 0 0 0 0 0 0 0 0 0 0 0 0 0 0 0 127 0" result="hardAlpha"/>
<feOffset dy="1"/>
<feComposite in2="hardAlpha" operator="arithmetic" k2="-1" k3="1"/>
<feColorMatrix type="matrix" values="0 0 0 0 1 0 0 0 0 1 0 0 0 0 1 0 0 0 0.1 0"/>
<feBlend mode="normal" in2="effect1_innerShadow_1_1123" result="effect2_innerShadow_1_1123"/>
</filter>
<clipPath id="clip0_1_1123">
<rect x="16.3906" y="24.1492" width="40" height="40" rx="6" transform="rotate(-10 16.3906 24.1492)" fill="white"/>
</clipPath>
<clipPath id="clip1_1_1123">
<rect width="40" height="40" fill="white" transform="translate(16.3906 24.1492) rotate(-10)"/>
</clipPath>
</defs>
</svg>
