<svg width="80" height="81" viewBox="0 0 80 81" fill="none" xmlns="http://www.w3.org/2000/svg">
<rect y="11.8081" width="68" height="70" rx="14" transform="rotate(-10 0 11.8081)" fill="white" fill-opacity="0.1"/>
<g filter="url(#filter0_ii_1_931)">
<rect y="11.8081" width="68" height="70" rx="14" transform="rotate(-10 0 11.8081)" fill="white" fill-opacity="0.01"/>
</g>
<g clip-path="url(#clip0_1_931)">
<g clip-path="url(#clip1_1_931)">
<path d="M61.1672 47.7262C59.7985 48.3432 58.8508 48.1511 57.845 47.0973L50.8101 40.2701L49.8017 39.331L44.7725 49.4289C44.2074 50.6367 43.4984 51.244 42.023 51.112L48.4783 38.2684L38.7967 29.4024C40.1043 28.9002 41.0636 28.8694 42.1083 29.9354L49.3708 36.8227L53.8905 27.9023C54.4581 26.6942 55.1997 26.142 56.6286 26.2988L54.2894 30.8846L51.1029 36.9996C50.719 37.7019 50.8609 38.111 51.4188 38.6257L61.1672 47.7262ZM19.7513 43.1383L19.8432 39.6138C20.5393 32.548 27.7643 28.389 33.8209 31.6112C37.3632 33.51 38.7466 36.8353 39.2765 40.7401L21.742 43.8319C22.7093 50.8582 28.4758 54.1848 34.5018 50.9061C36.6153 49.7554 37.6285 47.7629 37.9026 45.4451C38.0442 44.2829 38.5702 44.0124 39.6623 44.1448C39.6183 46.9907 38.8297 49.5007 36.5599 51.3848C33.1692 54.2039 27.6643 54.4561 24.3051 51.9615C22.3124 50.522 21.2275 48.4438 20.4998 46.1452C20.382 45.7649 20.2182 45.4117 20.0785 45.0518C19.9728 44.4138 19.8638 43.7763 19.7515 43.1395L19.7513 43.1383ZM21.5129 42.3453L37.3584 39.5513C36.3651 34.5224 32.5902 31.4919 28.2898 32.2184C23.5685 33.0128 20.8003 37.1095 21.5129 42.3453Z" fill="white"/>
</g>
</g>
<defs>
<filter id="filter0_ii_1_931" x="2.21606" y="2.21606" width="74.6902" height="76.3125" filterUnits="userSpaceOnUse" color-interpolation-filters="sRGB">
<feFlood flood-opacity="0" result="BackgroundImageFix"/>
<feBlend mode="normal" in="SourceGraphic" in2="BackgroundImageFix" result="shape"/>
<feColorMatrix in="SourceAlpha" type="matrix" values="0 0 0 0 0 0 0 0 0 0 0 0 0 0 0 0 0 0 127 0" result="hardAlpha"/>
<feMorphology radius="1" operator="erode" in="SourceAlpha" result="effect1_innerShadow_1_931"/>
<feOffset/>
<feComposite in2="hardAlpha" operator="arithmetic" k2="-1" k3="1"/>
<feColorMatrix type="matrix" values="0 0 0 0 1 0 0 0 0 1 0 0 0 0 1 0 0 0 0.06 0"/>
<feBlend mode="normal" in2="shape" result="effect1_innerShadow_1_931"/>
<feColorMatrix in="SourceAlpha" type="matrix" values="0 0 0 0 0 0 0 0 0 0 0 0 0 0 0 0 0 0 127 0" result="hardAlpha"/>
<feOffset dy="1"/>
<feComposite in2="hardAlpha" operator="arithmetic" k2="-1" k3="1"/>
<feColorMatrix type="matrix" values="0 0 0 0 1 0 0 0 0 1 0 0 0 0 1 0 0 0 0.1 0"/>
<feBlend mode="normal" in2="effect1_innerShadow_1_931" result="effect2_innerShadow_1_931"/>
</filter>
<clipPath id="clip0_1_931">
<rect x="16.3926" y="24.1492" width="40" height="40" rx="6" transform="rotate(-10 16.3926 24.1492)" fill="white"/>
</clipPath>
<clipPath id="clip1_1_931">
<rect width="40" height="40" fill="white" transform="translate(16.3926 24.1492) rotate(-10)"/>
</clipPath>
</defs>
</svg>
