<svg width="70" height="69" viewBox="0 0 70 69" fill="none" xmlns="http://www.w3.org/2000/svg">
<rect width="70" height="69" rx="14" fill="white" fill-opacity="0.1"/>
<g filter="url(#filter0_ii_1_1019)">
<rect width="70" height="69" rx="14" fill="white" fill-opacity="0.01"/>
</g>
<g clip-path="url(#clip0_1_1019)">
<path d="M23.7134 36.7649C23.6468 36.8976 23.5447 37.0092 23.4184 37.0872C23.2921 37.1651 23.1466 37.2064 22.9982 37.2064C22.8497 37.2064 22.7042 37.1651 22.5779 37.0872C22.4516 37.0092 22.3495 36.8976 22.283 36.7649L21.5774 35.3545C21.5219 35.2435 21.493 35.121 21.493 34.9969C21.493 34.8728 21.5219 34.7503 21.5774 34.6393L22.283 33.2289C22.3495 33.0962 22.4516 32.9846 22.5779 32.9066C22.7042 32.8287 22.8497 32.7874 22.9982 32.7874C23.1466 32.7874 23.2921 32.8287 23.4184 32.9066C23.5447 32.9846 23.6468 33.0962 23.7134 33.2289L24.419 34.6393C24.4744 34.7503 24.5033 34.8728 24.5033 34.9969C24.5033 35.121 24.4744 35.2435 24.419 35.3545L23.7134 36.7649ZM23.7134 44.7625C23.6468 44.8952 23.5447 45.0068 23.4184 45.0848C23.2921 45.1627 23.1466 45.204 22.9982 45.204C22.8497 45.204 22.7042 45.1627 22.5779 45.0848C22.4516 45.0068 22.3495 44.8952 22.283 44.7625L21.5766 43.3521C21.5211 43.2411 21.4922 43.1186 21.4922 42.9945C21.4922 42.8704 21.5211 42.7479 21.5766 42.6369L22.2822 41.2265C22.3487 41.0938 22.4508 40.9822 22.5771 40.9042C22.7034 40.8263 22.8489 40.785 22.9974 40.785C23.1458 40.785 23.2913 40.8263 23.4176 40.9042C23.5439 40.9822 23.646 41.0938 23.7126 41.2265L24.4182 42.6369C24.4736 42.7479 24.5025 42.8704 24.5025 42.9945C24.5025 43.1186 24.4736 43.2411 24.4182 43.3521L23.7134 44.7625Z" fill="#1D4AFF"/>
<path d="M15 41.7265C15 41.0145 15.8616 40.6569 16.3656 41.1609L20.032 44.8273C20.536 45.3313 20.1792 46.1937 19.4664 46.1937H15.8C15.5878 46.1937 15.3843 46.1094 15.2343 45.9593C15.0843 45.8093 15 45.6058 15 45.3937V41.7265ZM15 37.8641C14.9999 37.9692 15.0206 38.0734 15.0608 38.1706C15.101 38.2678 15.16 38.3561 15.2344 38.4305L22.7632 45.9585C22.8374 46.0329 22.9255 46.092 23.0226 46.1323C23.1196 46.1727 23.2237 46.1935 23.3288 46.1937H27.4648C28.1768 46.1937 28.5344 45.3321 28.0304 44.8281L16.3664 33.1641C15.8616 32.6593 15 33.0161 15 33.7281V37.8641ZM15 29.8665C15 30.0786 15.0844 30.2821 15.2344 30.4321L30.76 45.9601C30.91 46.1101 31.1134 46.1944 31.3256 46.1945H35.4616C36.1736 46.1945 36.5312 45.3321 36.0272 44.8281L16.3656 25.1657C15.8616 24.6617 15 25.0185 15 25.7313V29.8665ZM22.9976 29.8665C22.9976 30.0786 23.082 30.2821 23.232 30.4321L37.6272 44.8281C38.1312 45.3321 38.9928 44.9745 38.9928 44.2617V40.1265C38.9928 39.9143 38.9084 39.7109 38.7584 39.5609L24.3632 25.1657C23.8592 24.6617 22.9976 25.0185 22.9976 25.7313V29.8665ZM32.3608 25.1657C31.8568 24.6617 30.9952 25.0185 30.9952 25.7313V29.8673C30.9955 30.0791 31.0798 30.2823 31.2296 30.4321L37.6272 36.8305C38.1312 37.3345 38.9928 36.9769 38.9928 36.2641V32.1289C38.9928 31.9167 38.9084 31.7133 38.7584 31.5633L32.3608 25.1657Z" fill="#F9BD2B"/>
<path d="M49.021 41.8239L41.4906 34.2943C40.9866 33.7903 40.125 34.1471 40.125 34.8599V45.3935C40.125 45.6057 40.2093 45.8092 40.3593 45.9592C40.5093 46.1092 40.7128 46.1935 40.925 46.1935H52.589C52.8012 46.1935 53.0047 46.1092 53.1547 45.9592C53.3047 45.8092 53.389 45.6057 53.389 45.3935V44.4335C53.389 43.9919 53.0298 43.6391 52.5914 43.5823C51.24 43.4063 49.9847 42.7875 49.021 41.8239ZM43.9642 43.6343C43.6247 43.6343 43.2991 43.4995 43.0591 43.2594C42.8191 43.0194 42.6842 42.6938 42.6842 42.3543C42.6842 42.0148 42.8191 41.6893 43.0591 41.4492C43.2991 41.2092 43.6247 41.0743 43.9642 41.0743C44.3037 41.0743 44.6292 41.2092 44.8693 41.4492C45.1093 41.6893 45.2442 42.0148 45.2442 42.3543C45.2442 42.6938 45.1093 43.0194 44.8693 43.2594C44.6292 43.4995 44.3037 43.6343 43.9642 43.6343Z" fill="#FAFAFA"/>
<path d="M15 45.3937C15 45.6058 15.0843 45.8093 15.2343 45.9593C15.3843 46.1094 15.5878 46.1937 15.8 46.1937H19.4664C20.1792 46.1937 20.536 45.3313 20.032 44.8273L16.3656 41.1609C15.8616 40.6569 15 41.0137 15 41.7265V45.3937ZM22.9976 31.7977L16.3656 25.1657C15.8616 24.6617 15 25.0185 15 25.7313V29.8673C15.0003 30.0791 15.0846 30.2823 15.2344 30.4321L22.9976 38.1961V31.7977ZM16.3656 33.1633C15.8616 32.6593 15 33.0161 15 33.7289V37.8649C15.0003 38.0767 15.0846 38.2799 15.2344 38.4297L22.9976 46.1937V39.7953L16.3656 33.1633Z" fill="#1D4AFF"/>
<path d="M30.9937 32.1289C30.9936 31.9167 30.9093 31.7133 30.7593 31.5633L24.3617 25.1657C23.8577 24.6617 22.9961 25.0185 22.9961 25.7313V29.8673C22.9964 30.0791 23.0807 30.2823 23.2305 30.4321L30.9937 38.1961V32.1281V32.1289ZM22.9961 46.1929H27.4625C28.1753 46.1929 28.5321 45.3313 28.0281 44.8273L22.9961 39.7953V46.1937V46.1929ZM22.9961 31.7977V37.8641C22.996 37.9692 23.0167 38.0734 23.0569 38.1706C23.0971 38.2678 23.1561 38.3561 23.2305 38.4305L30.9937 46.1937V40.1265C30.9936 39.9143 30.9093 39.7108 30.7593 39.5609L22.9961 31.7977Z" fill="#F54E00"/>
</g>
<defs>
<filter id="filter0_ii_1_1019" x="0" y="0" width="70" height="69" filterUnits="userSpaceOnUse" color-interpolation-filters="sRGB">
<feFlood flood-opacity="0" result="BackgroundImageFix"/>
<feBlend mode="normal" in="SourceGraphic" in2="BackgroundImageFix" result="shape"/>
<feColorMatrix in="SourceAlpha" type="matrix" values="0 0 0 0 0 0 0 0 0 0 0 0 0 0 0 0 0 0 127 0" result="hardAlpha"/>
<feMorphology radius="1" operator="erode" in="SourceAlpha" result="effect1_innerShadow_1_1019"/>
<feOffset/>
<feComposite in2="hardAlpha" operator="arithmetic" k2="-1" k3="1"/>
<feColorMatrix type="matrix" values="0 0 0 0 1 0 0 0 0 1 0 0 0 0 1 0 0 0 0.06 0"/>
<feBlend mode="normal" in2="shape" result="effect1_innerShadow_1_1019"/>
<feColorMatrix in="SourceAlpha" type="matrix" values="0 0 0 0 0 0 0 0 0 0 0 0 0 0 0 0 0 0 127 0" result="hardAlpha"/>
<feOffset dy="1"/>
<feComposite in2="hardAlpha" operator="arithmetic" k2="-1" k3="1"/>
<feColorMatrix type="matrix" values="0 0 0 0 1 0 0 0 0 1 0 0 0 0 1 0 0 0 0.1 0"/>
<feBlend mode="normal" in2="effect1_innerShadow_1_1019" result="effect2_innerShadow_1_1019"/>
</filter>
<clipPath id="clip0_1_1019">
<rect x="15" y="15" width="40" height="40" rx="6" fill="white"/>
</clipPath>
</defs>
</svg>
