<svg width="69" height="69" viewBox="0 0 69 69" fill="none" xmlns="http://www.w3.org/2000/svg">
<rect width="69" height="69" rx="14" fill="white" fill-opacity="0.1"/>
<g filter="url(#filter0_ii_1_1075)">
<rect width="69" height="69" rx="14" fill="white" fill-opacity="0.01"/>
</g>
<g clip-path="url(#clip0_1_1075)">
<g clip-path="url(#clip1_1_1075)">
<path d="M43.6173 55C42.0529 54.9982 40.5239 54.5342 39.2223 53.6663C37.9203 54.5341 36.3909 54.9981 34.8261 55C33.2648 55 31.7261 54.5312 30.4311 53.6663C29.1472 54.5301 27.6361 54.9942 26.0886 55H26.0411C24.9916 55.0007 23.9527 54.7901 22.9863 54.3808C22.0199 53.9715 21.1458 53.3718 20.4161 52.6175C18.9441 51.1245 18.1195 49.1116 18.1211 47.015V31.7025C18.1236 22.4938 25.6161 15 34.8261 15C44.0373 15 51.5298 22.4925 51.5298 31.7038V47.02C51.5298 51.2612 48.2473 54.76 44.0573 54.9888C43.9111 54.9975 43.7648 55 43.6173 55Z" fill="#3551F3"/>
<path d="M43.6191 53.2413C42.2193 53.2402 40.8615 52.7628 39.7691 51.8875C39.6205 51.7679 39.4348 51.7038 39.2441 51.7063C39.0221 51.7086 38.8075 51.7861 38.6353 51.9263C37.5494 52.7793 36.2087 53.2437 34.8278 53.245C33.4473 53.2434 32.1072 52.7791 31.0216 51.9263C30.8547 51.792 30.647 51.7187 30.4328 51.7187C30.2186 51.7187 30.0109 51.792 29.8441 51.9263C28.7729 52.7746 27.448 53.239 26.0816 53.245H26.0403C25.226 53.2449 24.4201 53.0808 23.6706 52.7626C22.9211 52.4443 22.2434 51.9784 21.6778 51.3925C20.5281 50.2276 19.8833 48.6568 19.8828 47.02V31.7088C19.8828 23.4625 26.5878 16.7588 34.8291 16.7588C43.0691 16.7588 49.7741 23.4625 49.7741 31.7038V47.02C49.7741 50.3263 47.2216 53.0538 43.9616 53.2325C43.8475 53.2384 43.7333 53.2413 43.6191 53.2413Z" fill="black"/>
<path d="M48.0144 31.7039V47.0201C48.0144 49.3651 46.2056 51.3489 43.8644 51.4776C42.7806 51.5398 41.7123 51.1973 40.8669 50.5164C39.8944 49.7339 38.5256 49.7689 37.5444 50.5426C36.7698 51.1542 35.8113 51.4859 34.8244 51.4839C33.8387 51.4856 32.8814 51.1539 32.1081 50.5426C31.6315 50.1627 31.0401 49.9558 30.4306 49.9558C29.8211 49.9558 29.2297 50.1627 28.7531 50.5426C27.9874 51.1474 27.0414 51.4788 26.0656 51.4839C23.6306 51.5014 21.6406 49.4501 21.6406 47.0151V31.7026C21.6406 24.4214 27.5456 18.5164 34.8281 18.5164C42.1094 18.5164 48.0144 24.4214 48.0144 31.7039Z" fill="white"/>
<path d="M32.225 30.5462L27.3125 27.7087C27.005 27.5315 26.6397 27.4836 26.2968 27.5754C25.954 27.6673 25.6615 27.8915 25.4838 28.1987C25.3065 28.5061 25.2584 28.8713 25.35 29.2141C25.4416 29.557 25.6655 29.8495 25.9725 30.0274L28.88 31.7062L25.9725 33.3849C25.6813 33.5704 25.4728 33.8612 25.3907 34.1966C25.3086 34.532 25.3592 34.8862 25.5318 35.1852C25.7045 35.4843 25.9859 35.7051 26.3175 35.8017C26.649 35.8983 27.005 35.8632 27.3113 35.7037L32.2263 32.8662C32.4295 32.7486 32.5982 32.5796 32.7155 32.3763C32.8328 32.1729 32.8945 31.9422 32.8945 31.7074C32.8945 31.4727 32.8328 31.242 32.7155 31.0386C32.5982 30.8352 32.4295 30.6663 32.2263 30.5487V30.5462H32.225ZM43.3525 30.3637H36.8975C36.5423 30.3637 36.2016 30.5048 35.9504 30.756C35.6993 31.0072 35.5582 31.3478 35.5582 31.7031C35.5582 32.0583 35.6993 32.399 35.9504 32.6501C36.2016 32.9013 36.5423 33.0424 36.8975 33.0424H43.3525C43.7078 33.0424 44.0484 32.9013 44.2996 32.6501C44.5508 32.399 44.6919 32.0583 44.6919 31.7031C44.6919 31.3478 44.5508 31.0072 44.2996 30.756C44.0484 30.5048 43.7078 30.3637 43.3525 30.3637Z" fill="black"/>
</g>
</g>
<defs>
<filter id="filter0_ii_1_1075" x="0" y="0" width="69" height="69" filterUnits="userSpaceOnUse" color-interpolation-filters="sRGB">
<feFlood flood-opacity="0" result="BackgroundImageFix"/>
<feBlend mode="normal" in="SourceGraphic" in2="BackgroundImageFix" result="shape"/>
<feColorMatrix in="SourceAlpha" type="matrix" values="0 0 0 0 0 0 0 0 0 0 0 0 0 0 0 0 0 0 127 0" result="hardAlpha"/>
<feMorphology radius="1" operator="erode" in="SourceAlpha" result="effect1_innerShadow_1_1075"/>
<feOffset/>
<feComposite in2="hardAlpha" operator="arithmetic" k2="-1" k3="1"/>
<feColorMatrix type="matrix" values="0 0 0 0 1 0 0 0 0 1 0 0 0 0 1 0 0 0 0.06 0"/>
<feBlend mode="normal" in2="shape" result="effect1_innerShadow_1_1075"/>
<feColorMatrix in="SourceAlpha" type="matrix" values="0 0 0 0 0 0 0 0 0 0 0 0 0 0 0 0 0 0 127 0" result="hardAlpha"/>
<feOffset dy="1"/>
<feComposite in2="hardAlpha" operator="arithmetic" k2="-1" k3="1"/>
<feColorMatrix type="matrix" values="0 0 0 0 1 0 0 0 0 1 0 0 0 0 1 0 0 0 0.1 0"/>
<feBlend mode="normal" in2="effect1_innerShadow_1_1075" result="effect2_innerShadow_1_1075"/>
</filter>
<clipPath id="clip0_1_1075">
<rect x="15" y="15" width="40" height="40" rx="6" fill="white"/>
</clipPath>
<clipPath id="clip1_1_1075">
<rect width="40" height="40" fill="white" transform="translate(15 15)"/>
</clipPath>
</defs>
</svg>
