<svg width="69" height="69" viewBox="0 0 69 69" fill="none" xmlns="http://www.w3.org/2000/svg">
<rect width="69" height="69" rx="14" fill="white" fill-opacity="0.1"/>
<g filter="url(#filter0_ii_1_1083)">
<rect width="69" height="69" rx="14" fill="white" fill-opacity="0.01"/>
</g>
<g clip-path="url(#clip0_1_1083)">
<path d="M26.3174 31.7105L26.5806 32.8947C26.5806 33.2894 26.7122 33.5526 26.9753 33.9473V34.2105L26.8438 34.6052L25.9227 35.1315L25.6595 35.2631L25.2648 35.1315L24.7385 34.4736L24.3438 33.6841C23.2911 34.8684 21.9753 35.5263 20.528 35.5263C19.3438 35.5263 18.4227 35.1315 17.8964 34.4736C17.2385 33.9473 16.8438 33.0263 16.8438 31.9736C16.8438 30.921 17.2385 29.9999 18.028 29.342C18.8174 28.5526 19.8701 28.2894 21.3174 28.2894C22.2961 28.2841 23.2707 28.417 24.2122 28.6841V27.7631C24.2122 26.7105 23.949 26.0526 23.5543 25.6578C23.1595 25.1315 22.5016 24.9999 21.449 24.9999L20.0016 25.1315C19.3685 25.2932 18.7518 25.5134 18.1595 25.7894H17.8964C17.7648 25.7894 17.6332 25.6578 17.6332 25.3947V24.7368L17.7648 24.342C17.7648 24.2105 17.8964 24.0789 18.1595 24.0789L19.7385 23.421L21.8438 23.1578C23.4227 23.1578 24.4753 23.5526 25.2648 24.2105C25.9227 24.9999 26.3174 26.0526 26.3174 27.4999V31.7105ZM21.0543 33.8157L22.3701 33.5526C22.8964 33.421 23.2911 33.0263 23.6859 32.6315L24.0806 31.842L24.2122 30.6578V30.1315C23.3916 29.949 22.5528 29.8607 21.7122 29.8684C20.9227 29.8684 20.2648 29.9999 19.7385 30.3947C19.3438 30.6578 19.2122 31.1841 19.2122 31.842C19.2122 32.4999 19.3438 32.8947 19.6069 33.2894C20.0016 33.5526 20.3964 33.8157 21.0543 33.8157ZM31.5806 35.1315L31.0543 34.9999L30.7911 34.6052L27.7648 24.342L27.6332 23.8157L27.8964 23.5526H29.2122L29.7385 23.6841L30.0016 24.2105L32.2385 32.8947L34.2122 24.2105L34.4753 23.6841L35.0016 23.5526H36.0543L36.5806 23.6841L36.8438 24.2105L38.949 33.0263L41.1859 24.2105L41.449 23.6841L41.9753 23.5526H43.1595C43.4227 23.5526 43.5543 23.6841 43.5543 23.8157V24.0789L43.4227 24.342L40.2648 34.6052L40.0016 35.1315L39.4753 35.2631H38.2911L37.7648 35.1315L37.6332 34.6052L35.528 26.0526L33.5543 34.4736L33.2911 34.9999L32.7648 35.1315H31.5806ZM48.5543 35.5263C47.3276 35.517 46.1168 35.2479 45.0016 34.7368L44.6069 34.342L44.4753 34.0789V33.421C44.4753 33.1578 44.6069 33.0263 44.7385 33.0263H45.0016L45.3964 33.1578C46.3445 33.597 47.3778 33.8216 48.4227 33.8157C49.2122 33.8157 49.8701 33.5526 50.2648 33.2894C50.7911 33.0263 50.9227 32.6315 50.9227 32.1052L50.6595 31.1841L49.3438 30.5263L47.3701 29.8684C46.449 29.6052 45.6595 29.0789 45.2648 28.5526C45.0091 28.2176 44.8231 27.8349 44.7176 27.4269C44.6121 27.0189 44.5894 26.5939 44.6507 26.177C44.712 25.7601 44.8561 25.3597 45.0746 24.9994C45.293 24.639 45.5814 24.3261 45.9227 24.0789L47.2385 23.421C48.0836 23.1314 48.9843 23.0413 49.8701 23.1578C50.4034 23.2597 50.9305 23.3915 51.449 23.5526L51.9753 23.8157L52.3701 24.0789L52.5016 24.6052V25.1315C52.5016 25.5263 52.3701 25.6578 52.2385 25.6578L51.7122 25.3947C50.9227 25.1315 50.1332 24.9999 49.2122 24.9999C48.4227 24.9999 47.7648 24.9999 47.3701 25.2631C46.9753 25.5263 46.8438 25.921 46.8438 26.4473C46.8438 26.842 46.9753 27.1052 47.2385 27.3684C47.5016 27.6315 47.8964 27.8947 48.6859 28.1578L50.528 28.6841C51.449 29.0789 52.1069 29.4736 52.5016 29.9999C52.8964 30.5263 53.1595 31.1841 53.1595 31.842L52.7648 33.421L51.8438 34.4736C51.449 34.8684 50.9227 35.1315 50.3964 35.2631L48.5543 35.5263Z" fill="#FAFAFA"/>
<path d="M51.0534 41.9736C45.686 45.5584 39.2744 47.2466 32.8375 46.7698C26.4007 46.293 20.3078 43.6786 15.5271 39.342C15.0008 38.9473 15.3955 38.5525 15.7903 38.8157C21.0178 41.777 26.8524 43.5059 32.8494 43.8708C38.8464 44.2356 44.8475 43.2267 50.3955 40.9209C51.0534 40.6578 51.7113 41.4473 51.0534 41.9736Z" fill="#FF9900"/>
<path d="M52.7645 39.8684C52.2382 39.2105 49.0803 39.4736 47.7645 39.7368C47.2382 39.7368 47.2382 39.3421 47.6329 39.0789C50.1329 37.3684 54.2119 37.8947 54.6066 38.421C55.1329 39.0789 54.475 43.1578 52.2382 45.1315C51.8435 45.3947 51.4487 45.2631 51.5803 44.8684C52.2382 43.5526 53.2908 40.5263 52.7645 39.8684Z" fill="#FF9900"/>
</g>
<defs>
<filter id="filter0_ii_1_1083" x="0" y="0" width="69" height="69" filterUnits="userSpaceOnUse" color-interpolation-filters="sRGB">
<feFlood flood-opacity="0" result="BackgroundImageFix"/>
<feBlend mode="normal" in="SourceGraphic" in2="BackgroundImageFix" result="shape"/>
<feColorMatrix in="SourceAlpha" type="matrix" values="0 0 0 0 0 0 0 0 0 0 0 0 0 0 0 0 0 0 127 0" result="hardAlpha"/>
<feMorphology radius="1" operator="erode" in="SourceAlpha" result="effect1_innerShadow_1_1083"/>
<feOffset/>
<feComposite in2="hardAlpha" operator="arithmetic" k2="-1" k3="1"/>
<feColorMatrix type="matrix" values="0 0 0 0 1 0 0 0 0 1 0 0 0 0 1 0 0 0 0.06 0"/>
<feBlend mode="normal" in2="shape" result="effect1_innerShadow_1_1083"/>
<feColorMatrix in="SourceAlpha" type="matrix" values="0 0 0 0 0 0 0 0 0 0 0 0 0 0 0 0 0 0 127 0" result="hardAlpha"/>
<feOffset dy="1"/>
<feComposite in2="hardAlpha" operator="arithmetic" k2="-1" k3="1"/>
<feColorMatrix type="matrix" values="0 0 0 0 1 0 0 0 0 1 0 0 0 0 1 0 0 0 0.1 0"/>
<feBlend mode="normal" in2="effect1_innerShadow_1_1083" result="effect2_innerShadow_1_1083"/>
</filter>
<clipPath id="clip0_1_1083">
<rect x="15" y="15" width="40" height="40" rx="6" fill="white"/>
</clipPath>
</defs>
</svg>
