<svg width="69" height="69" viewBox="0 0 69 69" fill="none" xmlns="http://www.w3.org/2000/svg">
<rect width="69" height="69" rx="14" fill="white" fill-opacity="0.1"/>
<g filter="url(#filter0_ii_1_949)">
<rect width="69" height="69" rx="14" fill="white" fill-opacity="0.01"/>
</g>
<g clip-path="url(#clip0_1_949)">
<g clip-path="url(#clip1_1_949)">
<path d="M44.6231 44.1191C44.8775 41.9995 44.8013 41.6887 46.3801 42.032L46.7809 42.0672C47.9949 42.1225 49.5829 41.872 50.5158 41.4386C52.5242 40.5067 53.7151 38.9508 51.7347 39.3596C47.2176 40.2915 46.907 38.762 46.907 38.762C51.6769 31.6846 53.6709 22.7006 51.9498 20.5015C47.2554 14.5032 39.1295 17.3397 38.9935 17.4133L38.9502 17.4213C38.0577 17.2361 37.0588 17.1255 35.9367 17.1073C33.8926 17.0737 32.3415 17.6432 31.1649 18.5357C31.1649 18.5357 16.6687 12.5635 17.3431 26.0463C17.4866 28.9145 21.4544 47.7495 26.1868 42.0604C27.9164 39.9801 29.588 38.2212 29.588 38.2212C30.418 38.7726 31.4117 39.0539 32.454 38.9529L32.5346 38.8842C32.5093 39.1425 32.5205 39.3951 32.5668 39.6942C31.3479 41.0563 31.7061 41.2955 29.2687 41.7972C26.8028 42.3054 28.2515 43.2103 29.1971 43.4467C30.3438 43.7335 32.9965 44.1397 34.7894 41.6304L34.718 41.9167C35.1963 42.2993 35.1639 44.6666 35.2317 46.358C35.2996 48.0495 35.4129 49.6279 35.7577 50.5585C36.1024 51.489 36.5093 53.886 39.7126 53.1995C42.3897 52.6258 44.4366 51.8002 44.6231 44.1191Z" fill="black" stroke="black" stroke-width="3.35848"/>
<path d="M51.7356 39.3594C47.218 40.2912 46.9074 38.7617 46.9074 38.7617C51.6773 31.6839 53.6713 22.6997 51.9505 20.5009C47.2562 14.5029 39.1299 17.3396 38.9943 17.4132L38.9507 17.421C38.0581 17.2357 37.0593 17.1254 35.9366 17.107C33.8925 17.0735 32.3419 17.6429 31.1653 18.5352C31.1653 18.5352 16.6689 12.5633 17.3431 26.046C17.4865 28.9144 21.4543 47.7493 26.1868 42.0603C27.9166 39.98 29.5879 38.2211 29.5879 38.2211C30.418 38.7725 31.4117 39.0538 32.4535 38.9528L32.5345 38.8841C32.5093 39.1424 32.5208 39.395 32.5669 39.6941C31.3477 41.0562 31.7059 41.2954 29.2688 41.7971C26.8027 42.3053 28.2514 43.2101 29.1973 43.4466C30.344 43.7334 32.9969 44.1396 34.7894 41.6303L34.7179 41.9166C35.1956 42.2992 35.5311 44.4053 35.4748 46.3145C35.4186 48.2238 35.3811 49.5346 35.7575 50.5584C36.1339 51.5823 36.509 53.8859 39.7129 53.1994C42.3901 52.6257 43.7774 51.139 43.9704 48.659C44.1073 46.896 44.4173 47.1566 44.4368 45.5803L44.6854 44.8341C44.9721 42.4442 44.731 41.6731 46.3803 42.0317L46.7812 42.067C47.9951 42.1222 49.584 41.8717 50.5165 41.4383C52.5244 40.5064 53.7153 38.9505 51.7355 39.3594H51.7356Z" fill="#336791"/>
<path d="M34.9842 40.7293C34.8598 45.1764 35.0155 49.6544 35.4506 50.7427C35.886 51.831 36.8178 53.9479 40.0219 53.2615C42.6988 52.6876 43.6728 51.577 44.0955 49.1256C44.4068 47.322 45.0069 42.3131 45.0838 41.2869M31.1437 18.4359C31.1437 18.4359 16.6375 12.507 17.3119 25.9897C17.4553 28.8581 21.4233 47.6937 26.1558 42.0044C27.8852 39.9238 29.4492 38.292 29.4492 38.292M38.9792 17.3538C38.4771 17.5112 47.0485 14.2204 51.9197 20.4448C53.6404 22.6437 51.6465 31.6278 46.8766 38.7058" stroke="white" stroke-width="1.11949" stroke-linecap="round" stroke-linejoin="round"/>
<path d="M46.8768 38.7058C46.8768 38.7058 47.1876 40.2358 51.7053 39.3033C53.6848 38.8945 52.4935 40.4505 50.486 41.3829C48.8384 42.1475 45.1446 42.3435 45.0843 41.2868C44.929 38.5607 47.0283 39.3889 46.8768 38.7058ZM46.8768 38.7058C46.7398 38.0906 45.801 37.4868 45.18 35.9811C44.6378 34.6669 37.7441 24.5888 47.0918 26.0856C47.4342 26.0147 44.6538 17.1941 35.9056 17.0507C27.1595 16.9073 27.4464 27.8066 27.4464 27.8066" stroke="white" stroke-width="1.11949" stroke-linecap="round" stroke-linejoin="bevel"/>
<path d="M32.5366 39.6382C31.3172 41.0003 31.6758 41.2395 29.2385 41.7413C26.7724 42.2497 28.2213 43.1543 29.1669 43.3907C30.3136 43.6776 32.9665 44.0838 34.759 41.5739C35.3049 40.8097 34.7558 39.5904 34.006 39.2795C33.6437 39.1295 33.1592 38.9414 32.5366 39.6382Z" stroke="white" stroke-width="1.11949" stroke-linecap="round" stroke-linejoin="round"/>
<path d="M32.4569 39.6143C32.3341 38.8135 32.7201 37.8605 33.1337 36.7456C33.7554 35.0728 35.1898 33.3997 34.0423 28.0934C33.1871 24.1391 27.4506 27.2704 27.447 27.8066C27.4435 28.3426 27.7065 30.5243 27.3512 33.0648C26.8876 36.38 29.4607 39.1838 32.4236 38.8969" stroke="white" stroke-width="1.11949" stroke-linecap="round" stroke-linejoin="round"/>
<path d="M31.091 27.7262C31.0652 27.9094 31.4263 28.398 31.8972 28.4633C32.3672 28.5289 32.7696 28.147 32.7951 27.964C32.8206 27.7809 32.4599 27.5792 31.9889 27.5136C31.5185 27.448 31.116 27.5436 31.0911 27.7262H31.091Z" fill="white" stroke="white" stroke-width="0.373162"/>
<path d="M45.4089 27.3529C45.4344 27.536 45.0738 28.0247 44.6028 28.09C44.1324 28.1555 43.73 27.7737 43.7042 27.5907C43.6794 27.4076 44.0401 27.2059 44.5107 27.1403C44.9812 27.0748 45.3834 27.1702 45.4089 27.353V27.3529Z" fill="white" stroke="white" stroke-width="0.186581"/>
<path d="M47.0899 26.0854C47.1674 27.5219 46.7805 28.5003 46.7318 30.0294C46.6596 32.252 47.7914 34.796 46.0859 37.3431" stroke="white" stroke-width="1.11949" stroke-linecap="round" stroke-linejoin="round"/>
</g>
</g>
<defs>
<filter id="filter0_ii_1_949" x="0" y="0" width="69" height="69" filterUnits="userSpaceOnUse" color-interpolation-filters="sRGB">
<feFlood flood-opacity="0" result="BackgroundImageFix"/>
<feBlend mode="normal" in="SourceGraphic" in2="BackgroundImageFix" result="shape"/>
<feColorMatrix in="SourceAlpha" type="matrix" values="0 0 0 0 0 0 0 0 0 0 0 0 0 0 0 0 0 0 127 0" result="hardAlpha"/>
<feMorphology radius="1" operator="erode" in="SourceAlpha" result="effect1_innerShadow_1_949"/>
<feOffset/>
<feComposite in2="hardAlpha" operator="arithmetic" k2="-1" k3="1"/>
<feColorMatrix type="matrix" values="0 0 0 0 1 0 0 0 0 1 0 0 0 0 1 0 0 0 0.06 0"/>
<feBlend mode="normal" in2="shape" result="effect1_innerShadow_1_949"/>
<feColorMatrix in="SourceAlpha" type="matrix" values="0 0 0 0 0 0 0 0 0 0 0 0 0 0 0 0 0 0 127 0" result="hardAlpha"/>
<feOffset dy="1"/>
<feComposite in2="hardAlpha" operator="arithmetic" k2="-1" k3="1"/>
<feColorMatrix type="matrix" values="0 0 0 0 1 0 0 0 0 1 0 0 0 0 1 0 0 0 0.1 0"/>
<feBlend mode="normal" in2="effect1_innerShadow_1_949" result="effect2_innerShadow_1_949"/>
</filter>
<clipPath id="clip0_1_949">
<rect x="15" y="15" width="40" height="40" rx="6" fill="white"/>
</clipPath>
<clipPath id="clip1_1_949">
<rect width="40" height="40" fill="white" transform="translate(15 15)"/>
</clipPath>
</defs>
</svg>
