<svg width="81" height="81" viewBox="0 0 81 81" fill="none" xmlns="http://www.w3.org/2000/svg">
<rect y="12.1554" width="70" height="69" rx="14" transform="rotate(-10 0 12.1554)" fill="white" fill-opacity="0.1"/>
<g filter="url(#filter0_ii_1_1146)">
<rect y="12.1554" width="70" height="69" rx="14" transform="rotate(-10 0 12.1554)" fill="white" fill-opacity="0.01"/>
</g>
<g clip-path="url(#clip0_1_1146)">
<g clip-path="url(#clip1_1_1146)">
<path d="M43.5302 38.4628L47.0098 37.8492C47.0508 37.842 47.0899 37.8268 47.125 37.8044C47.1601 37.7821 47.1904 37.7531 47.2142 37.719C47.2381 37.6849 47.255 37.6465 47.264 37.6059C47.273 37.5653 47.2739 37.5233 47.2667 37.4824L46.7226 34.3966C46.7154 34.3557 46.7002 34.3166 46.6778 34.2815C46.6555 34.2464 46.6264 34.2161 46.5924 34.1922C46.5583 34.1684 46.5199 34.1515 46.4793 34.1425C46.4387 34.1335 46.3967 34.1325 46.3558 34.1398L42.8761 34.7533C42.7977 34.7671 42.7281 34.8115 42.6825 34.8767C42.6368 34.9419 42.6189 35.0225 42.6328 35.1009L43.1826 38.2194C43.2116 38.3836 43.366 38.4917 43.5302 38.4628ZM37.1167 30.404L40.5963 29.7905C40.6754 29.7722 40.7445 29.7242 40.7892 29.6565C40.834 29.5888 40.851 29.5064 40.8368 29.4265L40.2898 26.3244C40.2723 26.248 40.227 26.1808 40.1628 26.1359C40.0986 26.091 40.02 26.0714 39.9423 26.081L36.4626 26.6946C36.4221 26.6994 36.3829 26.7125 36.3476 26.733C36.3123 26.7535 36.2815 26.781 36.2572 26.8138C36.2329 26.8466 36.2155 26.8841 36.2062 26.9238C36.1968 26.9636 36.1957 27.0048 36.2029 27.045L36.7527 30.1636C36.7817 30.3277 36.9526 30.433 37.1167 30.404ZM37.901 34.8521L41.3807 34.2385C41.457 34.221 41.5242 34.1757 41.5691 34.1115C41.6141 34.0473 41.6336 33.9688 41.624 33.891L41.077 30.7888C41.0595 30.7125 41.0142 30.6453 40.95 30.6004C40.8858 30.5554 40.8072 30.5359 40.7295 30.5455L37.2498 31.1591C37.2093 31.1639 37.1701 31.177 37.1348 31.1975C37.0995 31.218 37.0687 31.2455 37.0444 31.2783C37.0201 31.3111 37.0027 31.3485 36.9934 31.3883C36.984 31.428 36.9829 31.4693 36.9901 31.5095L37.5371 34.6116C37.566 34.7758 37.7369 34.881 37.901 34.8521ZM33.0919 35.7001L36.5715 35.0865C36.6479 35.069 36.715 35.0237 36.76 34.9595C36.8049 34.8953 36.8245 34.8167 36.8149 34.739L36.2679 31.6368C36.2541 31.5585 36.2097 31.4888 36.1445 31.4432C36.0793 31.3975 35.9987 31.3797 35.9203 31.3935L32.4407 32.007C32.3623 32.0208 32.2927 32.0652 32.247 32.1304C32.2014 32.1956 32.1835 32.2762 32.1973 32.3546L32.7443 35.4567C32.7733 35.6208 32.9277 35.729 33.0919 35.7001ZM28.2335 36.5567L31.6967 35.9461C31.7767 35.9321 31.8482 35.8879 31.8966 35.8227C31.9449 35.7575 31.9663 35.6762 31.9565 35.5956L31.4095 32.4935C31.4025 32.4533 31.3873 32.4149 31.3649 32.3807C31.3425 32.3466 31.3134 32.3173 31.2793 32.2948C31.2453 32.2723 31.2069 32.257 31.1667 32.2498C31.1265 32.2426 31.0853 32.2437 31.0455 32.253L27.5823 32.8637C27.5023 32.8777 27.4308 32.9218 27.3825 32.9871C27.3341 33.0523 27.3127 33.1336 27.3225 33.2141L27.8695 36.3163C27.8985 36.4804 28.0529 36.5886 28.2335 36.5567ZM38.6882 39.3165L42.1679 38.703C42.247 38.6847 42.316 38.6367 42.3607 38.569C42.4055 38.5013 42.4225 38.419 42.4083 38.339L41.8642 35.2533C41.8502 35.1733 41.8061 35.1018 41.7409 35.0535C41.6756 35.0051 41.5944 34.9837 41.5138 34.9935L38.0341 35.6071C37.9936 35.6119 37.9544 35.625 37.9191 35.6455C37.8838 35.666 37.853 35.6935 37.8287 35.7263C37.8044 35.7591 37.787 35.7966 37.7777 35.8363C37.7683 35.8761 37.7672 35.9173 37.7744 35.9575L38.3243 39.0761C38.3532 39.2402 38.5241 39.3455 38.6882 39.3165ZM33.8791 40.1645L37.3587 39.551C37.3989 39.5439 37.4373 39.5288 37.4715 39.5064C37.5056 39.484 37.5349 39.4549 37.5574 39.4208C37.5799 39.3867 37.5952 39.3484 37.6024 39.3082C37.6096 39.268 37.6085 39.2268 37.5992 39.187L37.0551 36.1013C37.0502 36.0607 37.0372 36.0216 37.0166 35.9863C36.9961 35.951 36.9687 35.9202 36.9358 35.8959C36.903 35.8716 36.8656 35.8542 36.8259 35.8448C36.7861 35.8355 36.7448 35.8344 36.7046 35.8415L33.225 36.4551C33.1466 36.4689 33.077 36.5133 33.0313 36.5784C32.9857 36.6436 32.9678 36.7243 32.9816 36.8026L33.5315 39.9212C33.5605 40.0853 33.7149 40.1935 33.8791 40.1645ZM29.0207 41.0212L32.4839 40.4105C32.5259 40.4056 32.5664 40.3918 32.6027 40.3701C32.639 40.3484 32.6703 40.3193 32.6946 40.2847C32.7188 40.25 32.7355 40.2106 32.7434 40.1691C32.7514 40.1276 32.7505 40.0848 32.7408 40.0437L32.1967 36.9579C32.1918 36.9174 32.1788 36.8783 32.1583 36.8429C32.1378 36.8076 32.1103 36.7769 32.0775 36.7525C32.0446 36.7282 32.0072 36.7109 31.9675 36.7015C31.9277 36.6922 31.8865 36.691 31.8463 36.6982L28.3666 37.3117C28.2839 37.3263 28.2104 37.3732 28.1622 37.442C28.114 37.5108 28.0952 37.5959 28.1097 37.6786L28.6538 40.7643C28.6828 40.9285 28.8401 41.053 29.0207 41.0212ZM24.2279 41.8663L27.7076 41.2527C27.7478 41.2457 27.7862 41.2305 27.8204 41.2081C27.8545 41.1858 27.8838 41.1566 27.9063 41.1226C27.9288 41.0885 27.9441 41.0502 27.9513 41.01C27.9585 40.9698 27.9574 40.9285 27.9481 40.8888L27.404 37.803C27.3991 37.7625 27.386 37.7234 27.3655 37.688C27.345 37.6527 27.3175 37.6219 27.2847 37.5976C27.2519 37.5733 27.2145 37.5559 27.1747 37.5466C27.135 37.5373 27.0937 37.5361 27.0535 37.5433L23.5739 38.1568C23.5333 38.1617 23.4942 38.1748 23.4589 38.1953C23.4235 38.2158 23.3928 38.2433 23.3685 38.2761C23.3441 38.3089 23.3268 38.3463 23.3174 38.3861C23.3081 38.4258 23.307 38.4671 23.3141 38.5073L23.864 41.6258C23.8929 41.79 24.0474 41.8981 24.2279 41.8663ZM59.2381 33.6791C59.1252 33.6144 57.9908 33.0359 55.8899 33.4064C55.3319 33.5048 54.7825 33.6524 54.2582 33.8464C53.9605 33.0093 53.4886 32.2449 52.8738 31.6036C52.2589 30.9623 51.5151 30.4587 50.6913 30.1259L50.0754 29.8961L49.7934 30.5043C49.4618 31.3062 49.2687 32.1585 49.2224 33.025C49.1092 34.6866 49.6024 36.1397 50.6488 37.2753C49.8174 37.8473 48.8834 38.2534 47.898 38.4711L21.9647 43.0438C21.8013 43.0704 21.6448 43.1292 21.5043 43.2167C21.3638 43.3043 21.242 43.4189 21.1462 43.5539C21.0503 43.6889 20.9822 43.8416 20.9459 44.0031C20.9095 44.1646 20.9056 44.3318 20.9344 44.4948C21.3094 46.772 22.097 48.9616 23.2583 50.9561C24.3318 52.9317 26.0367 54.4902 28.1005 55.3825C30.2486 56.2392 33.5186 56.3564 37.0968 55.7255C38.7053 55.4419 40.2906 55.027 41.8307 54.4508C43.9616 53.6511 45.9439 52.5008 47.6954 51.0473C49.1388 49.8368 50.3772 48.4012 51.3629 46.7959C53.0036 44.1034 53.7773 41.293 54.2749 38.836L54.6524 38.7694C56.901 38.3729 58.1206 37.2271 58.7618 36.3524C59.1674 35.7732 59.4735 35.11 59.604 34.41L59.6871 33.9215L59.2381 33.6791Z" fill="#008FE2"/>
</g>
</g>
<defs>
<filter id="filter0_ii_1_1146" x="2.21606" y="2.21616" width="76.4861" height="75.6748" filterUnits="userSpaceOnUse" color-interpolation-filters="sRGB">
<feFlood flood-opacity="0" result="BackgroundImageFix"/>
<feBlend mode="normal" in="SourceGraphic" in2="BackgroundImageFix" result="shape"/>
<feColorMatrix in="SourceAlpha" type="matrix" values="0 0 0 0 0 0 0 0 0 0 0 0 0 0 0 0 0 0 127 0" result="hardAlpha"/>
<feMorphology radius="1" operator="erode" in="SourceAlpha" result="effect1_innerShadow_1_1146"/>
<feOffset/>
<feComposite in2="hardAlpha" operator="arithmetic" k2="-1" k3="1"/>
<feColorMatrix type="matrix" values="0 0 0 0 1 0 0 0 0 1 0 0 0 0 1 0 0 0 0.06 0"/>
<feBlend mode="normal" in2="shape" result="effect1_innerShadow_1_1146"/>
<feColorMatrix in="SourceAlpha" type="matrix" values="0 0 0 0 0 0 0 0 0 0 0 0 0 0 0 0 0 0 127 0" result="hardAlpha"/>
<feOffset dy="1"/>
<feComposite in2="hardAlpha" operator="arithmetic" k2="-1" k3="1"/>
<feColorMatrix type="matrix" values="0 0 0 0 1 0 0 0 0 1 0 0 0 0 1 0 0 0 0.1 0"/>
<feBlend mode="normal" in2="effect1_innerShadow_1_1146" result="effect2_innerShadow_1_1146"/>
</filter>
<clipPath id="clip0_1_1146">
<rect x="17.3768" y="24.3229" width="40" height="40" rx="6" transform="rotate(-10 17.3768 24.3229)" fill="white"/>
</clipPath>
<clipPath id="clip1_1_1146">
<rect width="40" height="40" fill="white" transform="translate(17.3768 24.3229) rotate(-10)"/>
</clipPath>
</defs>
</svg>
