<svg width="40" height="41" viewBox="0 0 40 41" fill="none" xmlns="http://www.w3.org/2000/svg">
<rect x="0.273438" width="39" height="40" rx="9.09091" fill="white" fill-opacity="0.1"/>
<g filter="url(#filter0_ii_1_518)">
<rect width="38.5455" height="40.4545" rx="9.09091" fill="white" fill-opacity="0.01"/>
</g>
<path d="M9.72164 19.4554C9.72115 21.2336 10.1858 22.9699 11.0692 24.5002L9.63715 29.7291L14.9882 28.326C16.4682 29.1317 18.1265 29.5539 19.8116 29.554H19.8161C25.379 29.554 29.9074 25.0273 29.9098 19.4634C29.9108 16.7672 28.8618 14.232 26.9559 12.3246C25.0503 10.4174 22.516 9.36646 19.8157 9.36523C14.2521 9.36523 9.72402 13.8917 9.72172 19.4554" fill="url(#paint0_linear_1_518)"/>
<path d="M9.36121 19.4521C9.36064 21.2943 9.84191 23.0926 10.7569 24.6778L9.27344 30.0941L14.8164 28.6407C16.3436 29.4734 18.0632 29.9125 19.8129 29.9131H19.8174C25.5799 29.9131 30.271 25.2236 30.2734 19.4605C30.2744 16.6675 29.1877 14.0411 27.2137 12.0653C25.2394 10.0899 22.6144 9.00115 19.8174 9C14.0539 9 9.36351 13.6889 9.36121 19.4521ZM12.6622 24.4048L12.4553 24.0763C11.5852 22.6929 11.126 21.0943 11.1267 19.4528C11.1285 14.6625 15.0269 10.7653 19.8207 10.7653C22.1422 10.7663 24.3239 11.6713 25.9648 13.3132C27.6057 14.9553 28.5086 17.1382 28.508 19.4598C28.5059 24.25 24.6074 28.1477 19.8174 28.1477H19.814C18.2543 28.1469 16.7247 27.7281 15.3907 26.9365L15.0732 26.7483L11.7839 27.6107L12.6622 24.4048Z" fill="url(#paint1_linear_1_518)"/>
<path d="M17.2042 15.0825C17.0084 14.6475 16.8025 14.6387 16.6163 14.6311C16.4639 14.6245 16.2897 14.625 16.1156 14.625C15.9414 14.625 15.6583 14.6906 15.419 14.9518C15.1795 15.2133 14.5045 15.8453 14.5045 17.1307C14.5045 18.416 15.4407 19.6583 15.5713 19.8328C15.7019 20.0069 17.3786 22.729 20.0342 23.7762C22.2411 24.6465 22.6903 24.4734 23.1692 24.4298C23.6483 24.3863 24.715 23.798 24.9327 23.1879C25.1504 22.5779 25.1505 22.0551 25.0852 21.9458C25.0199 21.8369 24.8456 21.7716 24.5844 21.641C24.3231 21.5104 23.0386 20.8783 22.7991 20.7911C22.5596 20.7039 22.3854 20.6605 22.2112 20.9221C22.037 21.1832 21.5366 21.7716 21.3841 21.9458C21.2318 22.1205 21.0793 22.1422 20.8181 22.0115C20.5567 21.8804 19.7153 21.6049 18.7171 20.7149C17.9404 20.0224 17.4161 19.1672 17.2636 18.9056C17.1112 18.6445 17.2473 18.5029 17.3783 18.3727C17.4957 18.2556 17.6397 18.0676 17.7704 17.9151C17.9007 17.7625 17.9442 17.6537 18.0313 17.4794C18.1185 17.3051 18.0748 17.1525 18.0096 17.0218C17.9442 16.8911 17.4365 15.599 17.2042 15.0825Z" fill="white"/>
<defs>
<filter id="filter0_ii_1_518" x="0" y="0" width="38.5455" height="40.4546" filterUnits="userSpaceOnUse" color-interpolation-filters="sRGB">
<feFlood flood-opacity="0" result="BackgroundImageFix"/>
<feBlend mode="normal" in="SourceGraphic" in2="BackgroundImageFix" result="shape"/>
<feColorMatrix in="SourceAlpha" type="matrix" values="0 0 0 0 0 0 0 0 0 0 0 0 0 0 0 0 0 0 127 0" result="hardAlpha"/>
<feMorphology radius="0.909091" operator="erode" in="SourceAlpha" result="effect1_innerShadow_1_518"/>
<feOffset/>
<feComposite in2="hardAlpha" operator="arithmetic" k2="-1" k3="1"/>
<feColorMatrix type="matrix" values="0 0 0 0 1 0 0 0 0 1 0 0 0 0 1 0 0 0 0.06 0"/>
<feBlend mode="normal" in2="shape" result="effect1_innerShadow_1_518"/>
<feColorMatrix in="SourceAlpha" type="matrix" values="0 0 0 0 0 0 0 0 0 0 0 0 0 0 0 0 0 0 127 0" result="hardAlpha"/>
<feOffset dy="0.909091"/>
<feComposite in2="hardAlpha" operator="arithmetic" k2="-1" k3="1"/>
<feColorMatrix type="matrix" values="0 0 0 0 1 0 0 0 0 1 0 0 0 0 1 0 0 0 0.1 0"/>
<feBlend mode="normal" in2="effect1_innerShadow_1_518" result="effect2_innerShadow_1_518"/>
</filter>
<linearGradient id="paint0_linear_1_518" x1="19.7735" y1="29.7291" x2="19.7735" y2="9.36523" gradientUnits="userSpaceOnUse">
<stop stop-color="#1FAF38"/>
<stop offset="1" stop-color="#60D669"/>
</linearGradient>
<linearGradient id="paint1_linear_1_518" x1="19.7734" y1="30.0941" x2="19.7734" y2="9" gradientUnits="userSpaceOnUse">
<stop stop-color="#F9F9F9"/>
<stop offset="1" stop-color="white"/>
</linearGradient>
</defs>
</svg>
