<svg width="69" height="70" viewBox="0 0 69 70" fill="none" xmlns="http://www.w3.org/2000/svg">
<rect width="69" height="70" rx="14" fill="white" fill-opacity="0.1"/>
<g filter="url(#filter0_ii_1_876)">
<rect width="69" height="70" rx="14" fill="white" fill-opacity="0.01"/>
</g>
<g clip-path="url(#clip0_1_876)">
<g clip-path="url(#clip1_1_876)">
<path d="M18.125 15H51.875C53.6009 15 55 16.3991 55 18.125V51.875C55 53.6009 53.6009 55 51.875 55H18.125C16.3991 55 15 53.6009 15 51.875V18.125C15 16.3991 16.3991 15 18.125 15Z" fill="#3178C6"/>
<path d="M38.5184 46.3242V50.6398C39.2203 50.9995 40.0505 51.2692 41.0087 51.4491C41.967 51.6289 42.977 51.7188 44.0389 51.7188C45.0736 51.7188 46.0567 51.6198 46.988 51.422C47.9192 51.2242 48.7359 50.8983 49.4377 50.4444C50.1395 49.9903 50.6952 49.3969 51.1047 48.6641C51.5141 47.9314 51.7188 47.0256 51.7188 45.9467C51.7188 45.1645 51.6017 44.4789 51.3678 43.89C51.1365 43.3051 50.7925 42.7713 50.3555 42.3189C49.9147 41.8603 49.3859 41.4491 48.7697 41.0848C48.1533 40.7208 47.4581 40.3769 46.6842 40.0533C46.1173 39.8194 45.6091 39.5925 45.1591 39.3722C44.7092 39.1519 44.3267 38.9272 44.0119 38.6978C43.6969 38.4686 43.4539 38.2258 43.283 37.9695C43.112 37.7133 43.0266 37.4234 43.0266 37.0997C43.0266 36.803 43.103 36.5356 43.2559 36.2973C43.4089 36.0591 43.625 35.8545 43.9039 35.6838C44.1828 35.5128 44.5247 35.3803 44.9297 35.2858C45.3345 35.1914 45.7845 35.1442 46.2794 35.1442C46.6394 35.1442 47.0195 35.1712 47.4198 35.2252C47.8203 35.2791 48.223 35.3622 48.628 35.4747C49.0317 35.5866 49.4264 35.7286 49.8089 35.8995C50.1798 36.0639 50.5345 36.2625 50.8684 36.4928V32.4605C50.2116 32.2088 49.4939 32.0222 48.7156 31.9008C47.9373 31.7794 47.0442 31.7188 46.0364 31.7188C45.0106 31.7188 44.0389 31.8289 43.1211 32.0492C42.2033 32.2694 41.3956 32.6133 40.6983 33.0808C40.0009 33.5484 39.4498 34.1441 39.0448 34.8678C38.64 35.5916 38.4375 36.4569 38.4375 37.4639C38.4375 38.7495 38.8086 39.8464 39.5511 40.7545C40.2934 41.6625 41.4203 42.4312 42.932 43.0606C43.4901 43.2879 44.0436 43.5262 44.5922 43.7755C45.1052 44.0092 45.5483 44.2519 45.9217 44.5036C46.2952 44.7553 46.5898 45.0295 46.8058 45.3263C47.0217 45.623 47.1297 45.9602 47.1297 46.3378C47.1315 46.6096 47.0616 46.8771 46.9272 47.1133C46.7923 47.3514 46.5875 47.5583 46.3131 47.7336C46.0388 47.9089 45.6967 48.0459 45.2873 48.1448C44.878 48.2437 44.3988 48.2933 43.8498 48.2933C42.9141 48.2933 41.9873 48.1292 41.0695 47.8009C40.1516 47.4728 39.3013 46.9806 38.5184 46.3242ZM31.3253 35.5847H36.875V32.0312H21.4062V35.5847H26.9289V51.4062H31.3253V35.5847Z" fill="white"/>
</g>
</g>
<defs>
<filter id="filter0_ii_1_876" x="0" y="0" width="69" height="70" filterUnits="userSpaceOnUse" color-interpolation-filters="sRGB">
<feFlood flood-opacity="0" result="BackgroundImageFix"/>
<feBlend mode="normal" in="SourceGraphic" in2="BackgroundImageFix" result="shape"/>
<feColorMatrix in="SourceAlpha" type="matrix" values="0 0 0 0 0 0 0 0 0 0 0 0 0 0 0 0 0 0 127 0" result="hardAlpha"/>
<feMorphology radius="1" operator="erode" in="SourceAlpha" result="effect1_innerShadow_1_876"/>
<feOffset/>
<feComposite in2="hardAlpha" operator="arithmetic" k2="-1" k3="1"/>
<feColorMatrix type="matrix" values="0 0 0 0 1 0 0 0 0 1 0 0 0 0 1 0 0 0 0.06 0"/>
<feBlend mode="normal" in2="shape" result="effect1_innerShadow_1_876"/>
<feColorMatrix in="SourceAlpha" type="matrix" values="0 0 0 0 0 0 0 0 0 0 0 0 0 0 0 0 0 0 127 0" result="hardAlpha"/>
<feOffset dy="1"/>
<feComposite in2="hardAlpha" operator="arithmetic" k2="-1" k3="1"/>
<feColorMatrix type="matrix" values="0 0 0 0 1 0 0 0 0 1 0 0 0 0 1 0 0 0 0.1 0"/>
<feBlend mode="normal" in2="effect1_innerShadow_1_876" result="effect2_innerShadow_1_876"/>
</filter>
<clipPath id="clip0_1_876">
<rect x="15" y="15" width="40" height="40" rx="6" fill="white"/>
</clipPath>
<clipPath id="clip1_1_876">
<rect width="40" height="40" fill="white" transform="translate(15 15)"/>
</clipPath>
</defs>
</svg>
