<svg width="81" height="81" viewBox="0 0 81 81" fill="none" xmlns="http://www.w3.org/2000/svg">
<rect x="11.9818" width="70" height="69" rx="14" transform="rotate(10 11.9818 0)" fill="white" fill-opacity="0.1"/>
<g filter="url(#filter0_ii_1_1108)">
<rect x="11.9818" width="70" height="69" rx="14" transform="rotate(10 11.9818 0)" fill="white" fill-opacity="0.01"/>
</g>
<g clip-path="url(#clip0_1_1108)">
<g clip-path="url(#clip1_1_1108)">
<path fill-rule="evenodd" clip-rule="evenodd" d="M57.2716 31.5054L46.1342 21.9284C45.4871 21.3719 44.7021 21 43.8616 20.8518C43.0211 20.7036 42.1562 20.7845 41.3578 21.0862L27.6141 26.276C26.7968 26.5868 26.0746 27.105 25.5183 27.7796C24.962 28.4542 24.591 29.262 24.4415 30.1235L21.8377 44.8907C21.6816 45.749 21.7511 46.6331 22.0394 47.4564C22.3276 48.2797 22.8247 49.0141 23.482 49.5876L34.6195 59.1646C35.2665 59.7211 36.0516 60.093 36.892 60.2412C37.7325 60.3894 38.5974 60.3085 39.3958 60.0068L53.1395 54.817C53.9534 54.5029 54.6717 53.9828 55.2241 53.3078C55.7766 52.6327 56.1443 51.8257 56.2912 50.9658L58.895 36.1986C59.053 35.3429 58.9866 34.4608 58.7023 33.6383C58.418 32.8159 57.9255 32.0811 57.2728 31.5056L57.2716 31.5054ZM43.5705 52.8657L43.3838 53.9244C43.3715 53.9895 43.3432 54.0505 43.3013 54.1019C43.2595 54.1533 43.2054 54.1933 43.1441 54.2185L42.4502 54.468C42.3426 54.5024 42.2681 54.4359 42.2926 54.2968L42.4764 53.2542C41.9929 53.3943 41.475 53.354 41.019 53.1406C40.9518 53.0754 40.9396 52.9717 40.9935 52.8822L41.3881 51.9618C41.4212 51.8839 41.478 51.8184 41.5505 51.7746C41.5716 51.76 41.595 51.7491 41.6197 51.7424C41.6535 51.7356 41.6887 51.7418 41.7182 51.7598C42.1367 51.9552 42.6153 51.9785 43.0509 51.8247C43.3565 51.7369 43.6327 51.568 43.8501 51.3359C44.0676 51.1039 44.2182 50.8173 44.286 50.5066C44.3811 49.9675 44.1252 49.6913 43.4123 49.5593C42.5087 49.4 41.7192 49.083 41.9176 47.7421C42.0284 47.1743 42.2634 46.638 42.6059 46.1717C42.9484 45.7054 43.3898 45.3207 43.8985 45.0451L44.0878 43.9717C44.1018 43.9067 44.1308 43.8459 44.1726 43.7942C44.2143 43.7425 44.2676 43.7013 44.3282 43.6739L45.0044 43.3946C45.112 43.3603 45.1866 43.4267 45.1614 43.5695L44.9722 44.643C45.3746 44.5393 45.7992 44.5627 46.1877 44.7101C46.2652 44.7745 46.2806 44.8889 46.2231 44.9702L45.8423 45.8842C45.8008 45.9786 45.725 46.0537 45.6301 46.0943C45.6029 46.1047 45.5669 46.0933 45.539 46.0782C45.1623 45.9233 44.7406 45.9179 44.36 46.0632C44.0898 46.1273 43.8434 46.2669 43.6496 46.4658C43.4558 46.6648 43.3227 46.9147 43.2658 47.1865C43.1801 47.6728 43.4101 47.8657 44.2673 48.0359C45.4183 48.2388 45.8213 48.8468 45.631 50.0051C45.5148 50.6009 45.2702 51.1643 44.9144 51.6561C44.5585 52.1479 44.0998 52.5563 43.5702 52.853L43.5705 52.8657ZM50.401 52.2297C50.4005 52.2758 50.3874 52.3209 50.363 52.36C50.3387 52.3991 50.304 52.4308 50.2628 52.4516L46.793 53.8097C46.7592 53.8291 46.7142 53.825 46.6844 53.7994C46.6547 53.7738 46.646 53.7292 46.6612 53.6938L46.8044 52.8813C46.8142 52.8382 46.8362 52.7989 46.8678 52.768C46.8993 52.7371 46.9391 52.7159 46.9824 52.707L50.4067 51.398C50.4406 51.3786 50.4856 51.3827 50.5153 51.4083C50.5451 51.4339 50.5537 51.4785 50.5386 51.5139L50.4123 52.2304L50.401 52.2297ZM55.7758 34.4529L42.7229 39.6477C41.1011 40.2579 39.8539 41.0179 39.5422 42.7856L36.9857 57.2844C36.799 58.3431 37.1163 59.0845 37.7285 59.4209C37.5061 59.4231 37.284 59.4064 37.0645 59.3711C36.3734 59.2476 35.7283 58.9405 35.1968 58.482L24.0591 48.9062C23.5175 48.436 23.1079 47.8327 22.8707 47.1558C22.6334 46.4789 22.5768 45.7519 22.7063 45.0464L25.3106 30.2768C25.4298 29.5685 25.7315 28.9035 26.1862 28.3475C26.6408 27.7915 27.2326 27.3637 27.9031 27.1063L41.6443 21.9161C42.9766 21.4148 44.4735 21.6787 45.554 22.6054L56.6915 32.1824C57.6075 32.9837 58.1218 34.1482 58.1027 35.3506C57.8537 34.4017 56.9649 34.0077 55.7732 34.4385L55.7769 34.4392L55.7758 34.4529Z" fill="#FAFAFA"/>
</g>
</g>
<defs>
<filter id="filter0_ii_1_1108" x="2.21613" y="2.21606" width="76.4861" height="75.675" filterUnits="userSpaceOnUse" color-interpolation-filters="sRGB">
<feFlood flood-opacity="0" result="BackgroundImageFix"/>
<feBlend mode="normal" in="SourceGraphic" in2="BackgroundImageFix" result="shape"/>
<feColorMatrix in="SourceAlpha" type="matrix" values="0 0 0 0 0 0 0 0 0 0 0 0 0 0 0 0 0 0 127 0" result="hardAlpha"/>
<feMorphology radius="1" operator="erode" in="SourceAlpha" result="effect1_innerShadow_1_1108"/>
<feOffset/>
<feComposite in2="hardAlpha" operator="arithmetic" k2="-1" k3="1"/>
<feColorMatrix type="matrix" values="0 0 0 0 1 0 0 0 0 1 0 0 0 0 1 0 0 0 0.06 0"/>
<feBlend mode="normal" in2="shape" result="effect1_innerShadow_1_1108"/>
<feColorMatrix in="SourceAlpha" type="matrix" values="0 0 0 0 0 0 0 0 0 0 0 0 0 0 0 0 0 0 127 0" result="hardAlpha"/>
<feOffset dy="1"/>
<feComposite in2="hardAlpha" operator="arithmetic" k2="-1" k3="1"/>
<feColorMatrix type="matrix" values="0 0 0 0 1 0 0 0 0 1 0 0 0 0 1 0 0 0 0.1 0"/>
<feBlend mode="normal" in2="effect1_innerShadow_1_1108" result="effect2_innerShadow_1_1108"/>
</filter>
<clipPath id="clip0_1_1108">
<rect x="24.1497" y="17.377" width="40" height="40" rx="6" transform="rotate(10 24.1497 17.377)" fill="white"/>
</clipPath>
<clipPath id="clip1_1_1108">
<rect width="40" height="40" fill="white" transform="translate(24.1497 17.377) rotate(10)"/>
</clipPath>
</defs>
</svg>
