<svg width="289" height="194" viewBox="0 0 289 194" fill="none" xmlns="http://www.w3.org/2000/svg">
<rect width="288.255" height="194" rx="5" fill="#1B1C1F"/>
<rect x="18.3027" y="41.1792" width="60.3962" height="38.434" rx="3" fill="url(#paint0_linear_1_1163)"/>
<rect x="18.3027" y="89.6792" width="60.3962" height="37.5189" rx="3" fill="url(#paint1_linear_1_1163)"/>
<rect x="18.3027" y="137.264" width="60.3962" height="38.434" rx="3" fill="url(#paint2_linear_1_1163)"/>
<rect x="86.9336" y="45.3032" width="56.911" height="3.55694" rx="1.77847" fill="url(#paint3_linear_1_1163)"/>
<rect x="86.9336" y="54.1953" width="183.182" height="3.55694" rx="1.77847" fill="#414244"/>
<rect x="86.9336" y="63.0879" width="183.182" height="3.55694" rx="1.77847" fill="#414244"/>
<rect x="86.9336" y="71.9805" width="183.182" height="3.55694" rx="1.77847" fill="#414244"/>
<rect x="86.7695" y="93.3218" width="56.911" height="3.55694" rx="1.77847" fill="url(#paint4_linear_1_1163)"/>
<rect x="86.7695" y="102.214" width="183.182" height="3.55694" rx="1.77847" fill="#414244"/>
<rect x="86.7695" y="111.106" width="183.182" height="3.55694" rx="1.77847" fill="#414244"/>
<rect x="86.7695" y="119.999" width="183.182" height="3.55694" rx="1.77847" fill="#414244"/>
<rect x="86.7695" y="141.341" width="56.911" height="3.55694" rx="1.77847" fill="url(#paint5_linear_1_1163)"/>
<rect x="86.7695" y="150.233" width="183.182" height="3.55694" rx="1.77847" fill="#414244"/>
<rect x="86.7695" y="159.125" width="183.182" height="3.55694" rx="1.77847" fill="#414244"/>
<rect x="86.7695" y="168.018" width="183.182" height="3.55694" rx="1.77847" fill="#414244"/>
<g opacity="0.2">
<circle cx="258.972" cy="18.3015" r="4.57547" fill="#D9D9D9"/>
<circle cx="244.329" cy="18.3015" r="4.57547" fill="#D9D9D9"/>
<circle cx="229.689" cy="18.3015" r="4.57547" fill="#D9D9D9"/>
</g>
<defs>
<linearGradient id="paint0_linear_1_1163" x1="71.2628" y1="40.3871" x2="39.6671" y2="92.7639" gradientUnits="userSpaceOnUse">
<stop stop-color="#FFD2ED"/>
<stop offset="1" stop-color="#C691FF"/>
</linearGradient>
<linearGradient id="paint1_linear_1_1163" x1="71.2628" y1="88.906" x2="40.771" y2="140.686" gradientUnits="userSpaceOnUse">
<stop stop-color="#FFD2ED"/>
<stop offset="1" stop-color="#C691FF"/>
</linearGradient>
<linearGradient id="paint2_linear_1_1163" x1="71.2628" y1="136.472" x2="39.6671" y2="188.849" gradientUnits="userSpaceOnUse">
<stop stop-color="#FFD2ED"/>
<stop offset="1" stop-color="#C691FF"/>
</linearGradient>
<linearGradient id="paint3_linear_1_1163" x1="136.838" y1="45.2299" x2="136.447" y2="51.818" gradientUnits="userSpaceOnUse">
<stop stop-color="#FFD2ED"/>
<stop offset="1" stop-color="#C691FF"/>
</linearGradient>
<linearGradient id="paint4_linear_1_1163" x1="136.674" y1="93.2485" x2="136.283" y2="99.8366" gradientUnits="userSpaceOnUse">
<stop stop-color="#FFD2ED"/>
<stop offset="1" stop-color="#C691FF"/>
</linearGradient>
<linearGradient id="paint5_linear_1_1163" x1="136.674" y1="141.268" x2="136.283" y2="147.856" gradientUnits="userSpaceOnUse">
<stop stop-color="#FFD2ED"/>
<stop offset="1" stop-color="#C691FF"/>
</linearGradient>
</defs>
</svg>
