<svg width="20" height="20" viewBox="0 0 20 20" fill="none" xmlns="http://www.w3.org/2000/svg">
<path d="M4.60144 11.9787C4.75394 11.9787 4.90019 12.0393 5.00802 12.1471C5.11586 12.2549 5.17644 12.4012 5.17644 12.5537V19.2639C5.17644 19.4164 5.11586 19.5627 5.00802 19.6705C4.90019 19.7784 4.75394 19.8389 4.60144 19.8389H0.577875C0.502123 19.8393 0.427043 19.8247 0.356949 19.796C0.286855 19.7673 0.223127 19.725 0.169429 19.6715C0.11573 19.6181 0.0731187 19.5546 0.0440426 19.4846C0.0149665 19.4147 -9.46868e-07 19.3397 0 19.2639V12.5537C0 12.2374 0.25875 11.9787 0.577875 11.9787H4.60144ZM1.15719 18.6875H4.02356V13.1273H1.15719V18.6875ZM11.9313 1.79704e-06C12.0069 -0.000187281 12.0818 0.014546 12.1517 0.0433578C12.2217 0.0721695 12.2852 0.114494 12.3388 0.167906C12.3923 0.221319 12.4348 0.28477 12.4638 0.354626C12.4928 0.424482 12.5077 0.499371 12.5077 0.575002V19.2625C12.5077 19.5788 12.2489 19.8375 11.9327 19.8375H7.90913C7.83337 19.8379 7.75829 19.8233 7.6882 19.7946C7.6181 19.7658 7.55438 19.7235 7.50068 19.6701C7.44698 19.6167 7.40437 19.5532 7.37529 19.4832C7.34622 19.4133 7.33125 19.3383 7.33125 19.2625V0.575002C7.33125 0.258752 7.59 1.79704e-06 7.90913 1.79704e-06H11.9313ZM8.48844 18.6875H11.3534V1.15H8.48844V18.6875ZM19.2625 5.12181C19.415 5.12181 19.5613 5.18239 19.6691 5.29023C19.7769 5.39806 19.8375 5.54432 19.8375 5.69681V19.2625C19.8375 19.415 19.7769 19.5613 19.6691 19.6691C19.5613 19.7769 19.415 19.8375 19.2625 19.8375H15.2404C15.1646 19.8379 15.0895 19.8233 15.0194 19.7946C14.9494 19.7658 14.8856 19.7235 14.8319 19.6701C14.7782 19.6167 14.7356 19.5532 14.7065 19.4832C14.6775 19.4133 14.6625 19.3383 14.6625 19.2625V5.69681C14.6625 5.38056 14.9212 5.12181 15.2404 5.12181H19.2625ZM15.8182 18.6889H18.6846V6.27325H15.8182V18.6889Z" fill="white"/>
</svg>
