<?xml version="1.0" encoding="UTF-8"?>
<svg version="1.1" xmlns="http://www.w3.org/2000/svg" width="1837" height="512">
<path d="M0 0 C606.21 0 1212.42 0 1837 0 C1837 168.96 1837 337.92 1837 512 C1230.79 512 624.58 512 0 512 C0 343.04 0 174.08 0 0 Z " fill="#171717" transform="translate(0,0)"/>
<path d="M0 0 C9.53192481 2.12044937 18.22080262 5.83439145 27 10 C28.02552979 10.48315674 28.02552979 10.48315674 29.07177734 10.97607422 C49.90360308 20.95111492 69.55836251 35.86476399 84 54 C84.76570313 54.93972656 85.53140625 55.87945312 86.3203125 56.84765625 C172.80010242 164.70879984 124 415.35764201 124 484 C-482.21 484 -1088.42 484 -1713 484 C-1713 136.81336957 -1713 136.81336957 -1706.8125 116.8125 C-1706.51134277 115.81476563 -1706.21018555 114.81703125 -1705.89990234 113.7890625 C-1699.70754515 93.91754336 -1690.12276226 75.18258532 -1677 59 C-1676.56929199 58.46777832 -1676.13858398 57.93555664 -1675.69482422 57.38720703 C-1654.99801479 31.96182926 -1626.80993028 10.55097153 -1595 1 C-1592.578125 1.34765625 -1592.578125 1.34765625 -1591 2 C-1591.76441406 2.268125 -1592.52882813 2.53625 -1593.31640625 2.8125 C-1629.96120573 16.21805842 -1660.2855293 43.7462417 -1677 79 C-1687.74746893 103.03700386 -1691.32638006 127.4932264 -1691.25878906 153.62670898 C-1691.26150763 155.42264954 -1691.26507337 157.21858898 -1691.26940918 159.01452637 C-1691.27843326 163.838983 -1691.27503049 168.66335294 -1691.26865101 173.48781085 C-1691.26353797 178.5709013 -1691.26829711 183.65398502 -1691.27142334 188.73707581 C-1691.27504801 197.2694734 -1691.27030379 205.80183622 -1691.26074219 214.33422852 C-1691.24986406 224.15391309 -1691.25338466 233.97351454 -1691.264395 243.7931971 C-1691.273515 252.27104058 -1691.27473014 260.74885927 -1691.26951766 269.22670609 C-1691.26642328 274.26955878 -1691.26591796 279.31237261 -1691.27259064 284.3552227 C-1691.27843242 289.10044812 -1691.27424437 293.84556797 -1691.26280212 298.59078217 C-1691.26019148 300.31673318 -1691.26085773 302.04269332 -1691.26532745 303.76864052 C-1691.35174107 340.57264398 -1682.332274 375.94443297 -1659.23828125 405.234375 C-1658 407 -1658 407 -1658 409 C-1657.34 409 -1656.68 409 -1656 409 C-1654.58984375 410.43359375 -1654.58984375 410.43359375 -1652.9375 412.4375 C-1633.319807 435.30474951 -1606.50080466 450.75082753 -1577.3125 457.875 C-1576.53100586 458.06618408 -1575.74951172 458.25736816 -1574.94433594 458.4543457 C-1558.18914803 462.21930684 -1541.43726401 462.28657408 -1524.36061954 462.25168228 C-1521.76935079 462.25377109 -1519.17808262 462.25673547 -1516.58681574 462.26049101 C-1510.95635232 462.26724154 -1505.3259277 462.26664008 -1499.69546349 462.26112393 C-1491.26643751 462.25290348 -1482.83744273 462.25630466 -1474.40841601 462.26188921 C-1460.03944235 462.2710714 -1445.67048287 462.27079789 -1431.30150795 462.26532745 C-1416.74562544 462.25981966 -1402.18975225 462.2586685 -1387.63386917 462.26280212 C-1386.25341958 462.26318964 -1386.25341958 462.26318964 -1384.84508212 462.26358499 C-1381.09667474 462.26465156 -1377.34826738 462.26574898 -1373.59986003 462.26688554 C-1338.70714634 462.27745791 -1303.81443891 462.27818439 -1268.92172432 462.27259064 C-1267.88830435 462.27242505 -1266.85488439 462.27225946 -1265.79014867 462.27208885 C-1264.23753238 462.27184006 -1264.23753238 462.27184006 -1262.6535501 462.27158624 C-1231.11602196 462.26653938 -1199.5784964 462.26523732 -1168.04096794 462.26763153 C-1165.92885767 462.26778649 -1163.81674741 462.2679408 -1161.70463714 462.26809447 C-1153.21687443 462.26871541 -1144.72911173 462.26935274 -1136.24134902 462.270014 C-1112.51462067 462.271848 -1088.78789231 462.27298921 -1065.0611639 462.27358627 C-1063.44048649 462.27362721 -1063.44048649 462.27362721 -1061.78706812 462.27366897 C-1027.36023751 462.2744875 -992.93340781 462.27223389 -958.50657749 462.26788712 C-957.39001033 462.26774662 -956.27344317 462.26760612 -955.12304065 462.26746136 C-936.99086457 462.26517148 -918.85868852 462.26273255 -900.72651247 462.26028102 C-828.81531246 462.25056873 -756.9041199 462.25101888 -684.99291992 462.26074219 C-666.87106864 462.26318458 -648.74921736 462.26560669 -630.62736607 462.26788712 C-629.51152523 462.26802801 -628.3956844 462.26816891 -627.24603021 462.26831407 C-592.85589643 462.27262673 -558.46576328 462.27445494 -524.07562923 462.27358627 C-522.99595815 462.2735591 -521.91628706 462.27353194 -520.80389867 462.27350394 C-497.10288971 462.27287897 -473.40188081 462.27161167 -449.70087191 462.26976527 C-441.22039434 462.26910699 -432.73991677 462.26848083 -424.2594392 462.26786385 C-422.14973142 462.26770907 -420.04002363 462.26755161 -417.93031585 462.26739145 C-386.40217472 462.26500465 -354.87403651 462.26703642 -323.34589576 462.27208885 C-322.31255859 462.27225444 -321.27922142 462.27242003 -320.214571 462.27259064 C-319.1831414 462.272756 -318.15171181 462.27292137 -317.08902677 462.27309174 C-282.29559696 462.27860902 -247.50217464 462.27657728 -212.7087459 462.26602915 C-208.97167457 462.26492445 -205.23460324 462.26385104 -201.49753189 462.26280212 C-200.58039655 462.26254171 -199.66326121 462.2622813 -198.71833389 462.26201299 C-184.20278233 462.25806994 -169.68724011 462.26081285 -155.1716894 462.26634014 C-140.89482741 462.27163387 -126.61798114 462.26976778 -112.34112114 462.26031196 C-103.97418783 462.25498158 -95.60729765 462.25507407 -87.24036641 462.26327515 C-81.02290949 462.26875479 -74.80550168 462.26376708 -68.58804979 462.2547626 C-66.09275249 462.25275197 -63.59744965 462.25407077 -61.10215676 462.25917448 C-35.98645554 462.33638915 -35.98645554 462.33638915 -11.375 457.75 C-10.59125 457.53239014 -9.8075 457.31478027 -9 457.09057617 C12.48397246 450.96564511 31.77897754 441.31710339 49 427 C49.57975586 426.51805176 50.15951172 426.03610352 50.75683594 425.53955078 C79.76952666 400.99099041 97.96080648 364.11491301 101.22767067 326.36948776 C101.56534219 320.35065769 101.54638958 314.33478427 101.51757812 308.30859375 C101.52301952 306.35091639 101.5301533 304.39324314 101.53881836 302.43557739 C101.55681529 297.19166342 101.55008355 291.94806962 101.53730202 286.70415115 C101.52705004 281.17051694 101.53660106 275.63690697 101.54284668 270.10327148 C101.55008805 260.81717089 101.54062826 251.53119827 101.52148438 242.24511719 C101.49972254 231.56702763 101.5067764 220.88924378 101.52879 210.21116161 C101.54704478 200.98070028 101.54945344 191.75033003 101.53903532 182.51985645 C101.53285539 177.03425411 101.53181068 171.5487946 101.54518127 166.0632019 C101.55688727 160.90166053 101.54845019 155.74050649 101.52560425 150.5790062 C101.52039478 148.70476799 101.52169417 146.83049615 101.53065491 144.95627213 C101.67402658 111.87344918 92.3608951 77.87430827 71 52 C70.56606934 51.46358887 70.13213867 50.92717773 69.68505859 50.37451172 C52.83028933 29.61105497 33.42812913 15.76560178 9 5 C7.2915515 4.23984211 5.58321239 3.47943833 3.875 2.71875 C2.58344022 2.14559242 1.29181585 1.57258021 0 1 C0 0.67 0 0.34 0 0 Z " fill="#242424" transform="translate(1713,28)"/>
<path d="M0 0 C0.91136719 0.64710938 1.82273437 1.29421875 2.76171875 1.9609375 C6.32193155 4.29016716 6.32193155 4.29016716 10.3125 5.625 C12.85087702 4.38372889 12.85087702 4.38372889 15.25 2.25 C30.5628708 -9.65087543 49.43075048 -19.32419113 69.3125 -17.375 C81.50954396 -14.89041697 90.00850481 -9.41129656 97.3125 0.625 C108.22461129 18.66399156 108.8261352 42.43454255 104.3125 62.625 C104.86429932 62.79298096 105.41609863 62.96096191 105.98461914 63.1340332 C111.53658552 64.89395293 116.62005147 67.06397385 121.75 69.8125 C122.48573242 70.20397217 123.22146484 70.59544434 123.97949219 70.9987793 C129.97410355 74.27234347 135.17990468 78.11950749 140.3125 82.625 C141.14265625 83.25792969 141.9728125 83.89085937 142.828125 84.54296875 C151.11327682 91.48634284 157.38100251 102.34613025 158.75390625 113.07421875 C159.22915074 127.00961354 154.42094946 137.27961771 145.5390625 147.70703125 C134.4133231 159.60734744 119.90347624 166.05481853 105.3125 172.625 C105.47331055 173.64376221 105.63412109 174.66252441 105.79980469 175.7121582 C106.59010533 181.74365747 106.53783962 187.73679999 106.5625 193.8125 C106.5934375 195.68905273 106.5934375 195.68905273 106.625 197.60351562 C106.69399553 214.17106824 102.1670745 229.9322787 90.796875 242.26953125 C82.31065063 250.40559588 72.24605386 252.3690494 60.88134766 252.21435547 C41.2647205 251.36338066 24.53665438 240.07243812 9.3125 228.625 C8.81363281 228.9653125 8.31476563 229.305625 7.80078125 229.65625 C-2.30372305 236.47724392 -12.38319524 242.97236752 -23.6875 247.625 C-24.41839844 247.93308594 -25.14929688 248.24117188 -25.90234375 248.55859375 C-35.99548002 252.60747183 -50.75757299 253.89390176 -61.1875 250.0625 C-73.22819059 244.22645099 -80.17018319 235.52517766 -84.5859375 223.08984375 C-89.89602224 206.38755594 -89.36529156 189.88554395 -87.6875 172.625 C-88.26604736 172.36396484 -88.84459473 172.10292969 -89.44067383 171.83398438 C-110.64682135 162.19616904 -110.64682135 162.19616904 -119.6875 154.625 C-120.75097656 153.80128906 -120.75097656 153.80128906 -121.8359375 152.9609375 C-131.92365277 144.80573473 -139.40710141 133.27897878 -141.12890625 120.296875 C-141.6396495 106.39147803 -135.66909455 96.60196245 -126.7421875 86.40234375 C-119.24842811 78.52934553 -110.39045503 73.32118098 -100.875 68.25 C-99.63786255 67.58798584 -99.63786255 67.58798584 -98.37573242 66.91259766 C-97.1900769 66.29457275 -97.1900769 66.29457275 -95.98046875 65.6640625 C-95.2743042 65.29490723 -94.56813965 64.92575195 -93.84057617 64.54541016 C-91.47473349 63.53404527 -89.21960188 63.04770949 -86.6875 62.625 C-86.831875 61.93019531 -86.97625 61.23539062 -87.125 60.51953125 C-90.80895084 40.33455062 -90.22827687 18.27081692 -79.27734375 0.3125 C-58.81184898 -28.50291664 -24.43338836 -16.47833168 0 0 Z " fill="#56C1D8" transform="translate(396.6875,138.375)"/>
<path d="M0 0 C606.21 0 1212.42 0 1837 0 C1837 59.4 1837 118.8 1837 180 C1836.67 180 1836.34 180 1836 180 C1835.86537354 179.02897339 1835.86537354 179.02897339 1835.72802734 178.03833008 C1832.61677964 156.06780693 1827.83245054 135.95574647 1818 116 C1817.67773438 115.33774414 1817.35546875 114.67548828 1817.0234375 113.99316406 C1810.50903551 100.74588928 1802.34947049 89.14729493 1792.2421875 78.39453125 C1790.371071 76.39628314 1788.61006894 74.36490836 1786.875 72.25 C1760.24542705 41.15777884 1715.44378489 25.45074152 1676 22 C1667.18638612 21.51505667 1658.36072978 21.59534739 1649.53700829 21.62247658 C1646.92942082 21.61934033 1644.32183467 21.61489152 1641.7142514 21.60926348 C1636.0666297 21.59917238 1630.41909519 21.60001485 1624.77147178 21.60831411 C1616.31681915 21.62068181 1607.86223614 21.61552726 1599.40758177 21.60716619 C1584.99251063 21.59341555 1570.57747134 21.59379203 1556.16239738 21.60200882 C1541.56548989 21.61027843 1526.96860333 21.61199091 1512.37169456 21.60579681 C1511.44786448 21.6054093 1510.52403439 21.60502178 1509.57220946 21.60462252 C1505.80926036 21.60302261 1502.04631129 21.60137647 1498.28336224 21.59967169 C1463.27819224 21.58382405 1428.27303626 21.58271854 1393.26786423 21.59111404 C1392.23171188 21.59136243 1391.19555953 21.59161082 1390.12800863 21.59186673 C1389.09018985 21.59211552 1388.05237106 21.59236431 1386.98310323 21.59262064 C1355.3472098 21.60019444 1323.71132216 21.60214238 1292.07542801 21.5985527 C1289.95577202 21.59832027 1287.83611602 21.5980888 1285.71646003 21.59785829 C1277.19815725 21.59692687 1268.67985448 21.59597087 1260.16155171 21.594979 C1236.350548 21.59222819 1212.53954427 21.59051623 1188.72854042 21.58962059 C1187.1021961 21.58955918 1187.1021961 21.58955918 1185.44299635 21.58949654 C1150.90276906 21.58826899 1116.36254378 21.59164793 1081.82231712 21.59816933 C1080.70228625 21.59838007 1079.58225538 21.59859082 1078.42828419 21.59880795 C1060.24044714 21.60224268 1042.05261013 21.60590112 1023.86477313 21.60957848 C951.7275515 21.62414817 879.59034656 21.62347 807.453125 21.60888672 C789.27201527 21.60522307 771.09090554 21.60158989 752.90979576 21.59816933 C751.79027955 21.59795798 750.67076335 21.59774664 749.51732241 21.59752889 C715.01083911 21.59105935 680.50435719 21.58831769 645.99787331 21.58962059 C644.91446994 21.58966134 643.83106657 21.5897021 642.7148328 21.58974408 C618.93137838 21.59068156 595.14792411 21.59258256 571.36446983 21.5953521 C562.85447752 21.5963395 554.3444852 21.59727874 545.83449288 21.59820423 C543.71748197 21.5984364 541.60047106 21.59867259 539.48346015 21.59891282 C507.85560516 21.60249198 476.2277567 21.59944743 444.59990252 21.59186673 C443.56358459 21.59161834 442.52726665 21.59136996 441.45954514 21.59111404 C440.42514391 21.590866 439.39074268 21.59061795 438.32499597 21.59036239 C403.42170828 21.58208418 368.5184374 21.58513879 333.61515211 21.60095628 C329.86526919 21.6026133 326.11538626 21.60422342 322.36550331 21.60579681 C320.98509907 21.60638274 320.98509907 21.60638274 319.57680787 21.60698051 C305.01998836 21.61289182 290.4631898 21.60878423 275.90637219 21.6004898 C261.58415299 21.5925433 247.26196903 21.59535902 232.93975428 21.60953206 C224.54960074 21.61751872 216.15954399 21.61740464 207.76939513 21.60508727 C201.52950914 21.59685165 195.28973292 21.60436894 189.04985815 21.61785609 C186.54943296 21.62086587 184.0489953 21.61891027 181.54858007 21.61123828 C162.93034266 21.55818729 144.68946439 22.72605474 126.625 27.5625 C125.21927734 27.93604614 125.21927734 27.93604614 123.78515625 28.31713867 C81.61412126 40.15493004 44.2718444 69.62030775 22.8125 107.75 C10.69471102 129.96119439 3.89710607 152.91716063 1 178 C0.67 178 0.34 178 0 178 C0 119.26 0 60.52 0 0 Z " fill="#3A3A3A" transform="translate(0,0)"/>
<path d="M0 0 C77.96914597 0 77.96914597 0 90.3125 6.5625 C90.97491699 6.90619629 91.63733398 7.24989258 92.31982422 7.60400391 C103.23200903 13.56649612 111.33321552 22.96631176 115.25 34.765625 C119.23732715 48.66526355 119.58600613 62.411981 112.875 75.625 C106.8157124 85.55000521 99.29043333 91.74160598 89 97 C89.70125 97.20753906 90.4025 97.41507812 91.125 97.62890625 C100.03011901 100.52065006 106.23267363 104.31199697 110.875 112.625 C115.37087637 122.71440817 115.35413267 134.32315309 116.24633789 145.18701172 C116.81488363 152.10779982 117.5096519 159.0011339 118.390625 165.8894043 C119.05359706 171.37830506 119 176.34641255 119 182 C111.74 182 104.48 182 97 182 C96.33802722 178.69013608 95.81829224 175.71488122 95.53515625 172.39453125 C95.45861816 171.50596436 95.38208008 170.61739746 95.30322266 169.7019043 C95.18406494 168.27164917 95.18406494 168.27164917 95.0625 166.8125 C94.97532715 165.81452393 94.8881543 164.81654785 94.79833984 163.78833008 C94.31956527 158.21340994 93.90502381 152.63992216 93.56640625 147.0546875 C93.49220459 145.90895264 93.41800293 144.76321777 93.34155273 143.58276367 C93.20076787 141.37544115 93.07324159 139.16721905 92.96118164 136.95825195 C92.45304736 129.20569671 91.28986073 120.57848485 85.25 115.0625 C76.19126553 109.31368774 66.94674904 108.86799838 56.47265625 108.68359375 C55.59508667 108.66494263 54.71751709 108.6462915 53.81335449 108.6270752 C50.56316332 108.55923706 47.31282112 108.49879655 44.0625 108.4375 C33.1415625 108.2209375 33.1415625 108.2209375 22 108 C22 132.42 22 156.84 22 182 C14.74 182 7.48 182 0 182 C0 121.94 0 61.88 0 0 Z " fill="#D1D1D1" transform="translate(829,160)"/>
<path d="M0 0 C0.96141403 -0.00095673 1.92282806 -0.00191345 2.91337585 -0.00289917 C4.93793809 -0.00357644 6.96250255 -0.0017539 8.98706055 0.00244141 C12.05457547 0.00777832 15.12194281 0.00249003 18.18945312 -0.00390625 C20.16796907 -0.00324504 22.14648492 -0.00196301 24.125 0 C25.02744949 -0.00202423 25.92989899 -0.00404846 26.85969543 -0.00613403 C31.49673403 0.01058449 36.11522489 0.15373001 40.74243164 0.46289062 C41.63321915 0.52142212 42.52400665 0.57995361 43.44178772 0.64025879 C46.09559313 1.20369869 47.00750357 1.91442689 48.70703125 3.984375 C49.4723272 5.21900347 50.19757862 6.47911346 50.88671875 7.7578125 C51.29229004 8.43585938 51.69786133 9.11390625 52.11572266 9.8125 C52.95427871 11.221509 53.77707108 12.64001686 54.58398438 14.06738281 C55.66554625 15.96415177 56.79584242 17.81250194 57.96484375 19.65625 C62.76846605 27.28642025 67.09864658 35.20482147 71.38671875 43.1328125 C71.93247559 44.1125 72.47823242 45.0921875 73.04052734 46.1015625 C75.19881019 50.16552605 76.73429299 53.11476827 76.859375 57.7578125 C75.44656333 62.10183129 73.66133328 66.0739026 71.57421875 70.1328125 C71.14077148 70.98713867 70.70732422 71.84146484 70.26074219 72.72167969 C65.13088211 82.63464274 59.44267952 92.29449214 53.34960938 101.64648438 C51.74744733 104.07185235 51.74744733 104.07185235 50.53320312 106.50976562 C48.40384514 110.18895182 46.83933365 111.80648159 42.70458984 113.05859375 C38.70652655 113.66981711 34.79951133 113.98382649 30.76171875 114.1328125 C30.03045776 114.16189697 29.29919678 114.19098145 28.54577637 114.22094727 C23.87452747 114.38208578 19.2098258 114.41838428 14.53613281 114.39355469 C12.13190698 114.38279096 9.72842281 114.39354486 7.32421875 114.40625 C-16.0244024 114.43964154 -16.0244024 114.43964154 -20.99951172 110.86865234 C-22.39712443 109.2197717 -23.36622 107.61165534 -24.36328125 105.6953125 C-24.75177246 105.03716553 -25.14026367 104.37901855 -25.54052734 103.70092773 C-26.37291239 102.27906063 -27.18577282 100.8456141 -27.98046875 99.40234375 C-29.27779111 97.06152297 -30.63871845 94.76901691 -32.01953125 92.4765625 C-37.92464889 82.60060516 -43.23024293 72.48777894 -48.23828125 62.1328125 C-48.87056641 61.07900391 -48.87056641 61.07900391 -49.515625 60.00390625 C-50.78850778 56.70817193 -49.73958936 54.30090069 -48.38769531 51.15087891 C-47.25709323 48.72477331 -46.07162484 46.33365413 -44.86328125 43.9453125 C-44.42064941 43.06617188 -43.97801758 42.18703125 -43.52197266 41.28125 C-27.94756186 10.84209311 -27.94756186 10.84209311 -18.23828125 1.1328125 C-12.1592183 0.05710581 -6.16016745 -0.01372515 0 0 Z " fill="#171818" transform="translate(392.23828125,198.8671875)"/>
<path d="M0 0 C0.88429688 0.44730469 1.76859375 0.89460937 2.6796875 1.35546875 C15.56451804 8.48609455 22.12664833 18.89324306 26.23828125 32.82421875 C27.61891828 38.58041314 28.12796703 44.18686939 28.18945312 50.09692383 C28.20189308 51.10313278 28.20189308 51.10313278 28.21458435 52.12966919 C28.23185546 53.57225629 28.24705629 55.01486942 28.26036072 56.45749855 C28.28155257 58.73961469 28.30855476 61.02159854 28.33703613 63.30363464 C28.40652914 68.96399239 28.46639429 74.62444363 28.52606201 80.28491211 C28.57696308 85.08408785 28.63173753 89.88318756 28.69187927 94.6822567 C28.71845928 96.93242013 28.73925989 99.18259082 28.7598877 101.43281555 C28.77648377 102.80523019 28.79335499 104.17764153 28.81054688 105.55004883 C28.82307495 106.75027176 28.83560303 107.95049469 28.84851074 109.18708801 C28.81007561 111.9522069 28.81007561 111.9522069 30 114 C33.00778521 115.00259507 35.53820647 115.30314642 38.6875 115.5625 C40.440625 115.706875 42.19375 115.85125 44 116 C44 122.27 44 128.54 44 135 C20.63660542 135.65812379 20.63660542 135.65812379 13.40234375 129.6796875 C9.96784635 126.01488852 8.53083341 121.67307042 7 117 C6.29037109 117.87011719 6.29037109 117.87011719 5.56640625 118.7578125 C-2.04443959 127.74840233 -9.75745187 132.57620789 -21 136 C-21.70511719 136.226875 -22.41023438 136.45375 -23.13671875 136.6875 C-36.31991187 140.30346154 -50.96520309 138.54038776 -63.0703125 132.45703125 C-72.26352111 126.98369043 -78.62214028 120.23740476 -82 110 C-82.52293181 106.66418227 -82.57479446 103.43375527 -82.5 100.0625 C-82.48718994 99.18368164 -82.47437988 98.30486328 -82.46118164 97.39941406 C-82.16085469 87.79964581 -79.71368281 80.84496897 -73.03125 73.80859375 C-60.04234788 62.24347513 -42.34002187 59.52204267 -25.87670898 56.3503418 C-22.41204707 55.68259443 -18.95103158 54.99801735 -15.49023438 54.31054688 C-13.28404432 53.8766362 -11.07767038 53.44365923 -8.87109375 53.01171875 C-7.32270058 52.70713997 -7.32270058 52.70713997 -5.74302673 52.39640808 C-4.30486351 52.12030449 -4.30486351 52.12030449 -2.83764648 51.83862305 C-1.99749496 51.67605515 -1.15734344 51.51348724 -0.29173279 51.34599304 C2 51 2 51 6 51 C5.04573653 40.3179462 3.87383171 31.33800616 -3.625 23.125 C-13.43329405 16.94940745 -23.65823313 15.19723964 -35.0546875 17.66015625 C-42.8442922 20.1523982 -48.66095289 23.99807572 -52.82421875 31.12109375 C-54.30415006 34.04990887 -55.69504069 36.98969614 -57 40 C-64.74136601 40.10920422 -72.31395526 39.97159933 -80 39 C-77.75893635 25.55361813 -71.19742217 14.32719548 -60.36328125 5.96484375 C-43.85665497 -5.1259137 -18.24779256 -9.47594373 0 0 Z " fill="#D1D1D1" transform="translate(1215,207)"/>
<path d="M0 0 C15.11883932 11.39912488 22.93143439 27.58860631 26 46 C26 53.26 26 60.52 26 68 C-6.67 68 -39.34 68 -73 68 C-67.84853677 92.00127361 -67.84853677 92.00127361 -51.30078125 107.70703125 C-41.8298519 113.02940411 -29.22794569 112.19162656 -19.0625 109.4375 C-12.36985748 107.08359264 -6.87405673 103.89008746 -3.7109375 97.32421875 C-3.29070312 96.41285156 -2.87046875 95.50148438 -2.4375 94.5625 C-1.01953125 91.984375 -1.01953125 91.984375 1 90 C6.09860191 89.00004615 10.86455914 89.41356225 16 90 C17.36318359 90.12955078 17.36318359 90.12955078 18.75390625 90.26171875 C20.50941432 90.45328582 22.25714624 90.71545245 24 91 C19.8692267 106.00122936 10.47498978 118.19151604 -3 126 C-19.11015395 134.03376725 -36.94582327 135.57612854 -54.21484375 130.37890625 C-67.71929109 125.76989157 -79.85929605 115.21460343 -86.7265625 102.73046875 C-96.30789886 82.18643772 -99.13874493 56.43974406 -92.37890625 34.55859375 C-85.31851174 16.33757561 -75.91592425 3.01925847 -57.74609375 -5.53125 C-39.13233326 -12.88685239 -16.88062028 -10.58388097 0 0 Z " fill="#D1D1D1" transform="translate(1077,212)"/>
<path d="M0 0 C10.0237631 7.66718304 17.37561637 18.44340173 20.359375 30.8046875 C20.41810407 32.80382504 20.43231914 34.80601815 20.359375 36.8046875 C13.00362335 37.51245742 5.7499226 37.95184442 -1.640625 37.8046875 C-1.84816406 37.18722656 -2.05570313 36.56976563 -2.26953125 35.93359375 C-6.24850255 24.99558478 -11.9896215 17.78415823 -22.640625 12.8046875 C-31.2539703 9.31552414 -41.59343097 9.77152418 -50.265625 12.7734375 C-60.08442826 17.03686523 -66.78793364 23.94298443 -70.953125 33.8046875 C-74.16610399 42.17878658 -74.96153929 50.26812445 -74.890625 59.1796875 C-74.89835937 60.14390625 -74.90609375 61.108125 -74.9140625 62.1015625 C-74.87744366 75.76039134 -72.36503365 89.85856543 -62.59375 100.0546875 C-52.60040764 109.00872225 -42.6163538 110.69427084 -29.62597656 109.98681641 C-20.49839113 109.14948503 -13.44930475 103.60383484 -7.640625 96.8046875 C-5.5679017 93.25630172 -4.04256596 89.66002514 -2.640625 85.8046875 C-1.97713717 84.13675281 -1.31142013 82.46969684 -0.640625 80.8046875 C2.27610384 80.77768075 5.19258177 80.75784513 8.109375 80.7421875 C8.934375 80.73380859 9.759375 80.72542969 10.609375 80.71679688 C11.40859375 80.71357422 12.2078125 80.71035156 13.03125 80.70703125 C13.7644043 80.70179443 14.49755859 80.69655762 15.25292969 80.69116211 C17.4055599 80.8071766 19.2907885 81.21395479 21.359375 81.8046875 C20.73143322 92.68901165 15.85614343 102.21218732 9.359375 110.8046875 C8.87082031 111.48144531 8.38226562 112.15820312 7.87890625 112.85546875 C-0.78919698 123.87787163 -14.95129409 130.13751594 -28.640625 131.8046875 C-46.83758661 132.98922597 -63.44026578 129.192875 -77.515625 117.1171875 C-86.76643404 108.09764869 -92.04774635 98.13479379 -95.640625 85.8046875 C-95.9603125 84.73992187 -96.28 83.67515625 -96.609375 82.578125 C-102.0523962 61.46121867 -99.50658916 37.39670519 -88.84375 18.3359375 C-80.88511188 5.08572715 -68.12992769 -4.43460586 -53.453125 -9.0078125 C-34.80078926 -13.17687462 -15.85144597 -10.92718021 0 0 Z " fill="#D1D1D1" transform="translate(1388.640625,213.1953125)"/>
<path d="M0 0 C6.93 0 13.86 0 21 0 C21 10.56 21 21.12 21 32 C38.82 32 56.64 32 75 32 C75 38.27 75 44.54 75 51 C57.18 51 39.36 51 21 51 C21.09082549 65.93666819 21.09082549 65.93666819 21.20898438 80.87304688 C21.26325894 86.96734267 21.31437104 93.06154746 21.34643555 99.15600586 C21.37249539 104.07096568 21.41291699 108.98561898 21.46318626 113.90038872 C21.47983681 115.77296567 21.49136236 117.64559562 21.49761391 119.51823616 C21.50727471 122.14667821 21.53535738 124.77433929 21.56762695 127.40258789 C21.56619186 128.17223373 21.56475677 128.94187958 21.5632782 129.73484802 C21.66268579 135.48156479 22.82132233 140.12810671 26.375 144.8125 C31.42012817 148.49932443 36.67997603 148.3364957 42.67578125 148.4140625 C43.6009404 148.43342865 44.52609955 148.4527948 45.47929382 148.4727478 C48.42360317 148.53235254 51.36795202 148.57885248 54.3125 148.625 C56.31316775 148.66319736 58.31381936 148.70225012 60.31445312 148.7421875 C65.20954972 148.83964276 70.10448202 148.91936295 75 149 C75 155.27 75 161.54 75 168 C68.82857421 168.09245582 62.65960689 168.17190347 56.48803711 168.21972656 C54.39420371 168.23968776 52.30042494 168.26686659 50.20678711 168.30175781 C19.44729463 168.80107638 19.44729463 168.80107638 8 158 C1.53749223 149.69902019 -0.31909541 141.20670227 -0.22705078 130.921875 C-0.22734283 130.05263901 -0.22763489 129.18340302 -0.22793579 128.28782654 C-0.22655299 125.44177943 -0.21104162 122.59600084 -0.1953125 119.75 C-0.19157863 117.76603336 -0.18873343 115.78206486 -0.18673706 113.7980957 C-0.17913003 108.59656614 -0.15950687 103.39514968 -0.1373291 98.19366455 C-0.11319418 91.9418827 -0.10407573 85.69006286 -0.09242249 79.43824768 C-0.07308066 69.95875332 -0.03473761 60.47950674 0 51 C-14.85 51 -29.7 51 -45 51 C-45 44.73 -45 38.46 -45 32 C-30.15 32 -15.3 32 0 32 C0 21.44 0 10.88 0 0 Z " fill="#D2D2D2" transform="translate(1484,174)"/>
<path d="M0 0 C0.33 0 0.66 0 1 0 C1 51.81 1 103.62 1 157 C-49.49 157 -99.98 157 -152 157 C-152 156.67 -152 156.34 -152 156 C-150.87207031 155.85304688 -149.74414062 155.70609375 -148.58203125 155.5546875 C-129.28914719 152.87563906 -111.47505545 147.61018247 -94 139 C-93.00661621 138.51660156 -93.00661621 138.51660156 -91.99316406 138.0234375 C-51.82564271 118.27089327 -22.37286424 82.05884235 -8 40 C-3.75277802 26.91684889 -1.66732227 13.6232429 0 0 Z " fill="#000000" transform="translate(1836,355)"/>
<path d="M0 0 C50.49 0 100.98 0 153 0 C153 51.81 153 103.62 153 157 C152.67 157 152.34 157 152 157 C151.84144531 155.70449219 151.68289063 154.40898437 151.51953125 153.07421875 C145.57521103 106.81380787 124.35890412 65.29269891 87.41015625 36.12890625 C78.7811009 29.50835758 69.65721262 23.9825828 60 19 C59.38157227 18.68047363 58.76314453 18.36094727 58.12597656 18.03173828 C39.90452621 8.76601938 20.28091347 3.32241753 0 1 C0 0.67 0 0.34 0 0 Z " fill="#000000" transform="translate(1684,0)"/>
<path d="M0 0 C0.33 0 0.66 0 1 0 C1.14695313 1.12792969 1.29390625 2.25585938 1.4453125 3.41796875 C6.80858522 42.05847782 23.23094241 74.89248953 50 103 C50.66515625 103.71800781 51.3303125 104.43601562 52.015625 105.17578125 C78.24442769 132.67194205 116.1381454 146.97338346 153 152 C153 152.33 153 152.66 153 153 C102.51 153 52.02 153 0 153 C0 102.51 0 52.02 0 0 Z " fill="#000000" transform="translate(0,359)"/>
<path d="M0 0 C50.49 0 100.98 0 153 0 C153 0.33 153 0.66 153 1 C151.87207031 1.14695313 150.74414062 1.29390625 149.58203125 1.4453125 C110.94152218 6.80858522 78.10751047 23.23094241 50 50 C49.28199219 50.66515625 48.56398437 51.3303125 47.82421875 52.015625 C20.32805795 78.24442769 6.02661654 116.1381454 1 153 C0.67 153 0.34 153 0 153 C0 102.51 0 52.02 0 0 Z " fill="#000000" transform="translate(0,0)"/>
<path d="M0 0 C10.2403125 -0.12375 10.2403125 -0.12375 20.6875 -0.25 C22.81405029 -0.28641602 24.94060059 -0.32283203 27.1315918 -0.36035156 C39.37721182 -0.48162953 52.15952147 -0.43469588 62 8 C68.59171148 14.53451658 72.32981624 20.47537166 72.46875 29.86401367 C72.4584375 30.67201416 72.448125 31.48001465 72.4375 32.3125 C72.42847656 33.15337158 72.41945313 33.99424316 72.41015625 34.8605957 C72.16747612 43.56590264 70.34283607 49.71496427 64.5 56.3125 C55.64516108 64.51942387 44.65183886 66.16308207 33.10546875 66.09765625 C32.26520142 66.09664917 31.42493408 66.09564209 30.5592041 66.09460449 C27.43528875 66.0893921 24.31139293 66.07543087 21.1875 66.0625 C10.6996875 66.0315625 10.6996875 66.0315625 0 66 C0 44.22 0 22.44 0 0 Z " fill="#181818" transform="translate(851,181)"/>
<path d="M0 0 C7.645278 4.90257737 11.76391368 11.99756817 14.375 20.5 C14.60058594 21.2115625 14.82617188 21.923125 15.05859375 22.65625 C17.94266085 33.95383697 17.02744108 47.05188819 15.375 58.5 C14.36566406 58.26925781 13.35632813 58.03851563 12.31640625 57.80078125 C11.63263916 57.64681885 10.94887207 57.49285645 10.24438477 57.33422852 C8.67715706 56.97978195 7.11126729 56.6193777 5.54663086 56.25366211 C0.71293262 55.14938612 -4.08796977 54.260844 -9 53.578125 C-28.48156425 50.6849814 -28.48156425 50.6849814 -34.25 43.1875 C-35.80141547 41.00221875 -37.20794695 38.7794865 -38.625 36.5 C-39.77787187 35.07543221 -40.96153987 33.67467792 -42.1875 32.3125 C-42.71601563 31.71050781 -43.24453125 31.10851562 -43.7890625 30.48828125 C-47.59981309 26.36131944 -51.61762262 22.43480918 -55.625 18.5 C-54.29531489 14.51094467 -51.78300727 13.31795582 -48.375 11.1875 C-47.75109375 10.79232178 -47.1271875 10.39714355 -46.484375 9.98999023 C-33.45486058 1.9138585 -15.44438483 -6.87092711 0 0 Z " fill="#171819" transform="translate(472.625,137.5)"/>
<path d="M0 0 C3.46548128 16.87291703 2.11299344 35.24646852 -6.8125 50.1875 C-10.47692373 55.15250936 -15.20181025 58.06727008 -21 60 C-39.14042329 61.61306971 -55.80896888 53.59407356 -69.55859375 42.25 C-70.27208984 41.63125 -70.27208984 41.63125 -71 41 C-67.86599985 37.23919982 -64.70190784 33.65876432 -61.1875 30.25 C-53.20427293 22.43553351 -53.20427293 22.43553351 -47.11743164 13.19873047 C-45.25954918 9.73146923 -43.85053935 8.28131007 -40.04663086 7.02319336 C-36.31012497 6.28685832 -32.58983467 5.73461081 -28.8125 5.25 C-26.25567493 4.88602995 -23.69965684 4.51634013 -21.14453125 4.140625 C-19.31462646 3.87475586 -19.31462646 3.87475586 -17.44775391 3.60351562 C-13.51465675 2.91504259 -9.82720244 1.87801364 -6.05737305 0.57714844 C-4 0 -4 0 0 0 Z " fill="#171919" transform="translate(488,316)"/>
<path d="M0 0 C16.02322128 4.42019897 32.57214358 15.31414572 41 30 C43.41047622 36.02619055 44.24568667 42.21456382 42.1953125 48.4453125 C35.11047055 64.03196478 20.36645112 73.58140784 5.171875 80.2578125 C3 81 3 81 0 81 C-0.18062988 80.351521 -0.36125977 79.70304199 -0.54736328 79.03491211 C-1.39806113 75.99996826 -2.2598746 72.96836313 -3.125 69.9375 C-3.43614746 68.84163574 -3.74729492 67.74577148 -4.06787109 66.61669922 C-6.22085749 59.20619207 -8.78480772 52.3143611 -12.2265625 45.4140625 C-13.37274141 40.35466669 -11.72521563 36.78202974 -10 32 C-9.33605179 29.93563998 -8.67876187 27.86912938 -8.02734375 25.80078125 C-6.97788423 22.53777247 -5.92561841 19.27567797 -4.87304688 16.01367188 C-3.16318137 10.69660427 -1.48658135 5.38404334 0 0 Z " fill="#171818" transform="translate(498,215)"/>
<path d="M0 0 C0.27972656 0.92296875 0.55945313 1.8459375 0.84765625 2.796875 C3.55951608 11.64725287 6.48339659 20.3931318 9.67602539 29.08300781 C13.00918071 38.34893664 13.22442005 43.74305847 9.375 52.8125 C5.50118032 62.39085897 2.54116882 71.99414778 0 82 C-16.21132077 76.43765066 -31.93208689 65.77985519 -40.875 50.875 C-43.49718386 43.8456517 -43.12164701 35.53516689 -40.0625 28.75 C-33.81915708 18.01491869 -13.35553179 0 0 0 Z " fill="#171818" transform="translate(313,215)"/>
<path d="M0 0 C6.27279943 3.24828509 12.06716219 6.82334346 17.51953125 11.3203125 C15.92395403 15.36180449 13.03603368 17.94829478 9.95703125 20.8828125 C3.80063489 26.8843951 -1.87944052 33.24428683 -6.86328125 40.26953125 C-9.44111603 43.79484835 -11.73516337 45.15319014 -16.0234375 45.97265625 C-17.81612312 46.22631129 -19.6107026 46.46668457 -21.40625 46.69921875 C-29.81097037 47.79548662 -37.80509919 49.53554203 -45.99121094 51.73168945 C-46.81911133 51.95042725 -47.64701172 52.16916504 -48.5 52.39453125 C-49.61532104 52.69750122 -49.61532104 52.69750122 -50.75317383 53.0065918 C-51.32318115 53.11011963 -51.89318848 53.21364746 -52.48046875 53.3203125 C-55.08853466 50.71224659 -53.71068641 43.62131708 -53.72070312 40.08666992 C-53.73025139 38.05408251 -53.76117847 36.02257711 -53.79296875 33.99023438 C-53.8414844 21.6611952 -52.36781868 10.23231699 -44.48046875 0.3203125 C-31.39377745 -11.84931899 -14.58407744 -7.03833143 0 0 Z " fill="#171818" transform="translate(376.48046875,142.6796875)"/>
<path d="M0 0 C1.53140625 0.36351562 1.53140625 0.36351562 3.09375 0.734375 C4.56229063 1.07382371 6.03106183 1.41227572 7.5 1.75 C8.29011475 1.93554443 9.08022949 2.12108887 9.89428711 2.31225586 C14.65956085 3.39029539 19.36775867 4.20909106 24.22265625 4.76953125 C42.50470243 6.97198408 42.50470243 6.97198408 47.4375 13.125 C48.65063023 15.06756035 49.83868474 17.0260262 51 19 C52.50058449 20.76493616 54.04274078 22.49539799 55.625 24.1875 C58.3947979 27.23330923 61.15548438 30.28412195 63.875 33.375 C64.40867187 33.98085938 64.94234375 34.58671875 65.4921875 35.2109375 C67.07378896 37.08755271 68.54590562 39.0234765 70 41 C65.23386432 45.42274059 60.39964025 48.72172009 54.625 51.6875 C53.56925781 52.25307617 53.56925781 52.25307617 52.4921875 52.83007812 C42.15300621 58.23550776 29.45669978 62.58658862 17.7578125 59.38671875 C9.90767888 55.91983095 5.09912794 49.17441867 1.82421875 41.46875 C-0.93304406 33.21002916 -1.27599131 25.94077783 -1.1875 17.25 C-1.18685547 16.03183594 -1.18621094 14.81367188 -1.18554688 13.55859375 C-1.13699258 3.77220682 -1.13699258 3.77220682 0 0 Z " fill="#171818" transform="translate(324,316)"/>
<path d="M0 0 C5.99710493 3.92118399 10.41615282 10.14350474 12.6484375 16.98828125 C14.27086619 26.27217875 12.62690557 33.94715098 7.8203125 41.96875 C2.95647747 48.53061028 -4.57547684 52.31629885 -12.5390625 53.546875 C-22.41572194 53.93419498 -29.53036422 51.36521944 -36.875 44.8125 C-43.31053414 37.72276262 -44.763318 29.78606862 -44.4375 20.3984375 C-43.31806186 11.70280195 -38.93302364 6.05835525 -32.2421875 0.62890625 C-22.46238442 -6.47593327 -10.32954183 -5.70100396 0 0 Z " fill="#57C2DA" transform="translate(422,231)"/>
<path d="M0 0 C0.96102763 26.54284381 0.96102763 26.54284381 -8.375 37.4375 C-17.68666055 47.02214083 -27.66746805 49.86436769 -40.8125 50.25 C-47.92587537 50.16987437 -54.65767486 49.08982382 -60.4375 44.6875 C-64.8627226 40.04641288 -66.19622535 36.48028546 -66.5 30.125 C-66.31076849 22.86211443 -63.70880998 18.95506543 -58.9375 13.75 C-48.12333819 7.30752062 -34.55007539 5.98762597 -22.375 3.75 C-20.42304011 3.38354134 -18.47121588 3.0163593 -16.51953125 2.6484375 C-2.37820547 0 -2.37820547 0 0 0 Z " fill="#191919" transform="translate(1221,276)"/>
<path d="M0 0 C8.16746144 5.79036446 13.08950431 12.89794838 15.71875 22.609375 C15.71875 25.909375 15.71875 29.209375 15.71875 32.609375 C-8.70125 32.609375 -33.12125 32.609375 -58.28125 32.609375 C-57.14469673 21.24384227 -53.97919074 10.82688516 -45.1640625 3 C-31.59389737 -7.02277757 -14.72089276 -8.9736949 0 0 Z " fill="#181818" transform="translate(1063.28125,228.390625)"/>
<path d="M0 0 C7.52907305 6.21966905 14.94845297 12.58075494 20 21 C7.13 21 -5.74 21 -19 21 C-14.87382945 15.49843927 -10.99149263 10.7233605 -6.125 6 C-5.53203125 5.41605469 -4.9390625 4.83210937 -4.328125 4.23046875 C-2.89004961 2.81558813 -1.44569911 1.40708993 0 0 Z " fill="#191D1E" transform="translate(405,164)"/>
<path d="M0 0 C2.36713023 2.86673385 3.60322512 5.30749245 4.60546875 8.87890625 C4.99702148 10.26045898 4.99702148 10.26045898 5.39648438 11.66992188 C5.78803711 13.10174805 5.78803711 13.10174805 6.1875 14.5625 C6.46013672 15.52091797 6.73277344 16.47933594 7.01367188 17.46679688 C9 24.57078242 9 24.57078242 9 28 C-0.26190729 30.84480623 -9.38443671 33.608547 -19 35 C-17.72245364 31.60529141 -16.2556331 28.5754249 -14.35546875 25.48828125 C-13.58686523 24.22661133 -13.58686523 24.22661133 -12.80273438 22.93945312 C-11.73784095 21.20755269 -10.67274154 19.4757789 -9.60742188 17.74414062 C-6.08831158 11.96682473 -2.92803743 6.09837832 0 0 Z " fill="#191D1E" transform="translate(476,274)"/>
<path d="M0 0 C2.18561509 2.02936125 3.63650714 3.89745949 4.98046875 6.5546875 C5.33633057 7.2463501 5.69219238 7.9380127 6.05883789 8.65063477 C6.61752563 9.75169556 6.61752563 9.75169556 7.1875 10.875 C11.1230129 18.48572545 15.39052032 25.77806317 20 33 C16.6658062 34.10306325 14.47333682 33.87317168 11.0859375 33.0390625 C9.69761719 32.70261719 9.69761719 32.70261719 8.28125 32.359375 C7.3221875 32.11703125 6.363125 31.8746875 5.375 31.625 C4.40820312 31.39039063 3.44140625 31.15578125 2.4453125 30.9140625 C-4.66981456 29.16509272 -4.66981456 29.16509272 -7 28 C-7.59337163 21.79078968 -5.43757645 16.42276738 -3.5 10.625 C-3.16613281 9.60277344 -2.83226562 8.58054687 -2.48828125 7.52734375 C-1.66666443 5.01554377 -0.83704784 2.50669115 0 0 Z " fill="#181B1C" transform="translate(334,274)"/>
<path d="M0 0 C-1.5437546 4.2981378 -3.74031163 8.06660644 -6.125 11.9375 C-10.55440641 19.21574374 -14.80633614 26.58395683 -19 34 C-24.29934535 26.05098197 -27.16058595 15.48795304 -27 6 C-23.0639449 4.99425299 -19.12593326 3.99638995 -15.1875 3 C-14.06794922 2.71382812 -12.94839844 2.42765625 -11.79492188 2.1328125 C-10.72177734 1.86210937 -9.64863281 1.59140625 -8.54296875 1.3125 C-7.0583313 0.93544922 -7.0583313 0.93544922 -5.54370117 0.55078125 C-3 0 -3 0 0 0 Z " fill="#191C1D" transform="translate(354,203)"/>
<path d="M0 0 C9.35057223 0.39621069 18.01404305 2.57593382 27 5 C25.8695868 11.47418468 24.31295792 17.75123538 22.5 24.0625 C22.28641846 24.8248999 22.07283691 25.5872998 21.8527832 26.37280273 C21.29713957 28.26781068 20.65527197 30.13709539 20 32 C19.01 32.495 19.01 32.495 18 33 C17.50185791 32.07102905 17.50185791 32.07102905 16.99365234 31.12329102 C15.45871857 28.26718549 13.91690736 25.41484636 12.375 22.5625 C11.85292969 21.58861328 11.33085937 20.61472656 10.79296875 19.61132812 C7.81585722 14.11653585 4.69248753 8.86600563 1.08837891 3.75756836 C0 2 0 2 0 0 Z " fill="#181B1B" transform="translate(458,204)"/>
<path d="M0 0 C12.54 0 25.08 0 38 0 C34.00984056 5.32021258 30.32837561 9.94759694 25.625 14.5 C25.07972656 15.03625 24.53445313 15.5725 23.97265625 16.125 C22.65308834 17.4214176 21.32722975 18.71142743 20 20 C16.7731002 18.57937485 14.60057488 16.85754559 12.109375 14.375 C11.04589844 13.31539063 11.04589844 13.31539063 9.9609375 12.234375 C9.23132813 11.49703125 8.50171875 10.7596875 7.75 10 C7.00492187 9.26265625 6.25984375 8.5253125 5.4921875 7.765625 C4.78835938 7.05921875 4.08453125 6.3528125 3.359375 5.625 C2.71452148 4.97789062 2.06966797 4.33078125 1.40527344 3.6640625 C0 2 0 2 0 0 Z " fill="#171819" transform="translate(387,327)"/>
</svg>
