<svg xmlns="http://www.w3.org/2000/svg" width="1837" height="512" viewBox="0 0 1837 512">
<g>
<path d="M 1836.00 160.49 C1836.00,163.52 1836.22,166.00 1836.50,166.00 C1836.78,166.00 1837.00,128.65 1837.00,83.00 L 1837.00 512.00 L 0.00 512.00 L 0.00 0.00 L 1837.00 0.00 L 1754.75 0.14 C1702.66,0.22 1675.98,0.58 1682.00,1.11 C1752.19,7.30 1812.04,57.75 1830.55,126.31 C1833.51,137.29 1836.00,152.88 1836.00,160.49 ZM 395.53 382.27 C399.58,383.30 409.65,382.93 414.00,381.60 C416.48,380.85 423.90,377.65 430.50,374.50 C442.74,368.66 446.87,366.83 471.57,356.24 C479.31,352.93 487.63,349.31 490.07,348.21 C492.51,347.10 497.20,345.07 500.50,343.70 C503.80,342.33 510.77,339.32 516.00,337.02 C521.22,334.71 528.99,331.33 533.26,329.50 C542.77,325.43 549.18,321.73 552.49,318.42 C554.97,315.94 555.00,315.71 555.00,299.11 L 555.00 298.33 C555.00,286.74 555.00,282.75 553.01,280.55 C551.92,279.34 550.23,278.68 547.62,277.60 L 543.73 275.99 L 547.62 273.40 C554.89,268.55 554.95,268.35 554.98,250.29 L 554.98 250.22 C554.99,238.70 555.00,234.51 552.94,232.05 C551.75,230.64 549.89,229.80 546.95,228.48 C544.78,227.50 543.00,226.41 543.00,226.06 C543.00,225.72 544.34,224.64 545.97,223.68 C547.60,222.71 550.30,220.78 551.97,219.37 L 555.00 216.82 L 555.00 200.07 L 555.00 199.04 C555.00,187.69 555.00,183.90 553.14,181.70 C552.15,180.53 550.63,179.80 548.32,178.63 C546.57,177.75 536.22,173.60 525.32,169.42 C514.42,165.24 497.17,158.53 487.00,154.51 C421.63,128.69 423.57,129.41 416.27,128.44 C407.12,127.23 392.18,131.71 351.00,148.04 C345.23,150.33 332.62,155.24 323.00,158.96 C299.87,167.88 272.96,178.56 265.50,181.77 C261.43,183.52 259.10,184.39 257.77,186.05 C255.98,188.28 255.99,191.94 256.00,201.11 C256.00,201.85 256.00,202.62 256.00,203.43 C256.00,221.63 256.12,222.00 263.48,226.65 C265.97,228.22 268.00,229.77 268.00,230.09 C268.00,230.42 266.31,231.54 264.25,232.58 C261.10,234.18 259.15,235.10 257.94,236.62 C256.00,239.07 256.00,243.07 256.00,253.94 C256.00,254.34 256.00,254.75 256.00,255.18 L 256.00 272.00 L 261.08 275.65 L 266.16 279.30 L 263.33 281.68 C261.77,282.99 259.49,284.77 258.25,285.65 C256.07,287.18 256.00,287.75 256.00,303.94 C256.00,320.00 256.09,320.73 258.26,322.78 C262.22,326.49 272.95,331.24 342.50,360.03 C368.75,370.89 375.50,373.74 384.53,377.75 C389.50,379.96 394.45,381.99 395.53,382.27 ZM 1174.61 343.36 C1196.12,347.97 1215.64,341.30 1226.71,325.53 L 1228.79 322.57 L 1229.45 330.53 C1229.82,334.92 1230.21,339.17 1230.32,340.00 C1230.48,341.19 1232.45,341.56 1239.76,341.79 L 1249.00 342.08 L 1249.00 160.00 L 1228.00 160.00 L 1228.00 224.11 L 1222.60 218.31 C1211.82,206.70 1200.51,202.36 1183.50,203.29 C1167.42,204.18 1156.50,209.19 1146.28,220.38 C1136.02,231.61 1130.38,247.32 1129.35,267.50 C1127.25,308.49 1144.16,336.83 1174.61,343.36 ZM 829.67 341.33 C830.03,341.70 834.98,342.00 840.65,342.00 L 850.98 342.00 L 851.24 305.75 L 851.50 269.50 L 876.43 269.23 C904.49,268.93 909.21,269.65 914.73,275.04 C920.17,280.36 921.47,285.94 923.92,314.46 C925.15,328.75 926.37,340.78 926.63,341.21 C926.90,341.65 931.82,342.00 937.56,342.00 L 948.00 342.00 L 948.00 339.25 C947.99,332.56 942.96,283.11 941.92,279.50 C938.93,269.07 931.93,261.51 922.52,258.55 L 916.99 256.81 L 922.08 254.27 C929.78,250.44 938.44,241.87 942.06,234.54 C949.89,218.62 947.72,196.19 936.93,181.76 C932.03,175.20 922.39,167.81 915.07,165.01 C903.40,160.53 897.78,160.00 862.43,160.00 L 829.00 160.00 L 829.00 250.33 C829.00,300.02 829.30,340.97 829.67,341.33 ZM 1030.50 343.37 C1044.97,346.40 1059.88,344.59 1072.43,338.29 C1081.72,333.63 1092.52,322.82 1096.78,313.92 C1096.95,313.58 1097.10,313.25 1097.26,312.93 C1099.85,307.53 1100.98,305.18 1100.24,304.04 C1099.62,303.09 1097.71,302.98 1094.27,302.65 C1090.55,302.30 1085.40,302.01 1082.84,302.01 C1078.32,302.00 1078.12,302.13 1076.04,306.42 C1073.40,311.87 1066.39,318.47 1060.18,321.34 C1056.28,323.14 1053.66,323.50 1044.50,323.50 C1034.49,323.50 1032.94,323.24 1027.27,320.62 C1020.36,317.43 1013.48,310.81 1010.02,304.04 C1007.78,299.64 1005.05,288.57 1005.02,283.75 L 1005.00 281.00 L 1053.94 281.00 C1085.46,281.00 1103.10,280.64 1103.50,280.00 C1104.69,278.07 1102.07,253.44 1099.93,246.46 C1093.73,226.21 1081.71,212.69 1064.18,206.25 C1055.30,202.98 1039.63,202.14 1029.22,204.36 C998.60,210.88 980.43,239.63 982.36,278.50 C983.47,300.95 988.71,314.58 1001.06,327.20 C1009.67,335.99 1018.56,340.87 1030.50,343.37 ZM 1491.00 343.55 C1499.09,345.29 1517.08,344.75 1525.50,342.52 C1541.31,338.32 1552.76,329.56 1556.94,318.47 C1558.81,313.52 1559.12,311.03 1558.80,303.92 C1557.80,282.38 1545.72,273.06 1510.31,266.52 C1483.91,261.64 1477.22,258.91 1473.93,251.65 C1471.62,246.58 1471.51,242.12 1473.55,237.23 C1476.90,229.22 1483.19,225.35 1495.09,223.99 C1514.20,221.81 1527.99,229.21 1532.94,244.29 L 1534.18 248.08 L 1544.34 247.46 C1549.93,247.12 1555.04,246.67 1555.71,246.47 C1556.63,246.18 1556.55,244.82 1555.36,240.80 C1549.94,222.33 1535.91,208.78 1517.76,204.51 C1514.32,203.69 1507.49,203.02 1502.58,203.01 C1474.97,202.97 1457.17,213.57 1451.45,233.45 C1447.94,245.68 1452.04,262.65 1460.18,269.50 C1467.96,276.04 1480.23,280.47 1504.28,285.40 C1530.89,290.86 1537.00,294.75 1537.00,306.25 C1537.00,317.74 1526.22,324.00 1506.47,324.00 C1487.26,324.00 1475.82,317.45 1470.99,303.69 L 1469.16 298.50 L 1464.33 298.17 C1461.67,297.99 1456.69,298.14 1453.25,298.50 C1447.25,299.13 1447.00,299.27 1447.00,301.92 C1447.00,306.34 1450.74,316.06 1454.61,321.70 C1462.06,332.56 1474.43,339.99 1491.00,343.55 ZM 0.14 82.25 C0.22,127.94 0.62,160.70 1.04,155.95 C3.58,127.54 13.90,98.32 29.47,75.50 C58.50,32.94 104.00,6.03 155.30,1.07 C160.06,0.61 129.24,0.22 81.75,0.14 L 0.00 0.00 ZM 1681.00 511.33 C1680.95,511.34 1680.92,511.34 1680.92,511.35 C1680.92,511.54 1714.56,511.75 1757.25,511.84 L 1837.00 512.00 L 1836.86 429.75 C1836.78,379.80 1836.41,351.07 1835.91,356.59 C1834.82,368.80 1831.79,382.88 1827.48,395.75 C1806.14,459.54 1749.07,504.57 1681.00,511.33 ZM 0.13 430.75 L 0.00 512.00 L 79.75 511.86 C122.77,511.79 157.04,511.58 157.04,511.39 C157.04,511.38 157.03,511.38 157.00,511.37 C155.62,511.18 150.68,510.51 146.00,509.88 C133.77,508.24 115.10,502.90 102.83,497.53 C46.20,472.73 7.31,419.37 1.12,358.00 C0.58,352.57 0.22,378.87 0.13,430.75 ZM 1204.61 320.74 C1200.46,322.87 1197.81,323.43 1190.50,323.72 C1182.68,324.02 1180.72,323.74 1175.59,321.58 C1165.86,317.49 1159.37,309.91 1154.88,297.42 C1151.56,288.18 1151.03,265.29 1153.87,254.05 C1159.49,231.82 1173.66,221.35 1194.50,224.03 C1202.05,225.00 1203.33,225.48 1209.65,229.73 C1218.49,235.68 1223.65,244.66 1226.61,259.25 C1229.82,275.09 1226.59,296.38 1219.20,308.02 C1215.75,313.47 1211.44,317.22 1204.61,320.74 ZM 1293.67 341.33 C1294.03,341.70 1321.71,342.00 1355.17,342.00 L 1416.00 342.00 L 1416.00 323.04 L 1369.50 322.50 L 1368.98 206.00 L 1294.92 206.00 L 1295.21 215.25 L 1295.50 224.50 L 1321.25 224.77 L 1347.00 225.03 L 1347.00 323.00 L 1293.00 323.00 L 1293.00 331.83 C1293.00,336.69 1293.30,340.97 1293.67,341.33 ZM 896.11 245.99 C887.92,247.52 852.06,247.32 851.45,245.74 C851.19,245.05 851.09,230.31 851.24,212.99 L 851.50 181.50 L 867.50 181.22 C903.12,180.61 915.43,185.22 921.59,201.50 C923.99,207.83 924.02,220.60 921.67,226.84 C917.97,236.62 908.57,243.67 896.11,245.99 ZM 1079.47 261.06 C1079.12,261.62 1064.22,262.00 1042.41,262.00 C1040.03,262.00 1037.79,262.00 1035.70,262.00 C1012.59,262.02 1006.25,262.03 1005.16,259.64 C1004.75,258.74 1005.09,257.50 1005.55,255.79 C1005.67,255.38 1005.79,254.94 1005.90,254.47 C1010.38,236.71 1021.16,226.35 1037.59,224.05 C1054.31,221.70 1067.94,228.05 1074.66,241.32 C1077.30,246.53 1080.45,259.46 1079.47,261.06 ZM 1345.67 184.33 C1346.03,184.70 1351.21,185.00 1357.17,185.00 L 1368.00 185.00 L 1368.00 160.00 L 1345.00 160.00 L 1345.00 171.83 C1345.00,178.34 1345.30,183.97 1345.67,184.33 Z" fill="rgb(25,25,25)"/>
<path d="M 395.53 382.27 C394.45,381.99 389.50,379.96 384.53,377.75 C375.50,373.74 368.75,370.89 342.50,360.03 C272.95,331.24 262.22,326.49 258.26,322.78 C256.09,320.73 256.00,320.00 256.00,303.94 C256.00,287.75 256.07,287.18 258.25,285.65 C259.49,284.77 261.77,282.99 263.33,281.68 L 266.16 279.30 L 261.08 275.65 L 256.00 272.00 L 256.00 255.18 C256.00,254.75 256.00,254.34 256.00,253.94 C256.00,243.07 256.00,239.07 257.94,236.62 C259.15,235.10 261.10,234.18 264.25,232.58 C266.31,231.54 268.00,230.42 268.00,230.09 C268.00,229.77 265.97,228.22 263.48,226.65 C256.12,222.00 256.00,221.63 256.00,203.43 C256.00,202.62 256.00,201.85 256.00,201.11 C255.99,191.94 255.98,188.28 257.77,186.05 C259.10,184.39 261.43,183.52 265.50,181.77 C272.96,178.56 299.87,167.88 323.00,158.96 C332.62,155.24 345.23,150.33 351.00,148.04 C345.23,150.33 332.62,155.24 323.00,158.96 C286.95,172.87 263.81,182.33 260.70,184.41 C256.66,187.13 256.07,190.78 259.20,193.69 C261.23,195.57 276.91,204.00 278.38,204.00 C278.68,204.00 283.11,205.77 288.22,207.94 C304.27,214.75 347.22,232.61 354.00,235.31 C357.58,236.73 367.48,240.89 376.00,244.57 C384.52,248.24 393.52,251.83 396.00,252.54 C398.48,253.24 401.62,253.85 403.00,253.90 C408.27,254.05 417.99,250.91 430.50,244.99 C437.65,241.61 444.40,238.45 445.50,237.98 C446.60,237.50 453.12,234.66 460.00,231.66 C466.88,228.67 480.60,222.75 490.50,218.50 C500.40,214.26 510.98,209.66 514.00,208.29 C517.03,206.91 521.73,204.90 524.46,203.83 C527.18,202.75 534.48,199.33 540.66,196.23 C549.46,191.82 552.29,189.89 553.64,187.37 C554.06,186.59 554.39,185.89 554.56,185.25 C555.00,187.90 555.00,192.02 555.00,199.03 L 555.00 199.04 L 555.00 200.07 L 555.00 216.82 L 551.97 219.37 C550.30,220.78 547.60,222.71 545.97,223.68 C544.34,224.64 543.00,225.72 543.00,226.06 C543.00,226.41 544.78,227.50 546.95,228.48 C549.89,229.80 551.75,230.64 552.94,232.05 C553.07,232.21 553.20,232.38 553.31,232.56 C552.50,231.71 551.35,230.88 549.87,230.05 C542.74,226.04 539.71,226.65 517.00,236.67 C505.73,241.65 493.12,247.18 489.00,248.97 C484.88,250.76 476.10,254.61 469.50,257.53 C462.90,260.45 454.80,263.96 451.50,265.33 C448.20,266.70 438.72,270.98 430.44,274.86 C407.19,285.73 402.28,285.95 381.93,276.95 C376.74,274.66 365.98,270.08 358.00,266.78 C350.02,263.48 338.10,258.53 331.50,255.79 C324.90,253.04 313.20,248.19 305.50,245.02 C297.80,241.84 288.12,237.80 284.00,236.03 C279.88,234.27 275.30,232.33 273.84,231.73 C268.51,229.53 257.00,235.46 257.00,240.40 C257.00,242.57 260.53,245.88 266.00,248.85 C269.04,250.50 300.62,264.06 311.00,268.17 C315.12,269.81 320.98,272.22 324.00,273.53 C328.91,275.66 367.44,291.85 388.50,300.63 C394.76,303.24 397.92,303.97 403.00,303.98 C411.29,303.99 415.19,302.88 427.50,297.01 C442.07,290.07 464.63,280.12 497.50,266.16 C505.20,262.89 513.08,259.52 515.00,258.67 C516.92,257.82 523.90,254.76 530.50,251.86 C545.91,245.09 553.55,240.41 554.59,236.48 C554.99,239.32 554.99,243.54 554.98,250.22 L 554.98 250.29 C554.95,268.35 554.89,268.55 547.62,273.40 L 543.73 275.99 L 547.62 277.60 C550.23,278.68 551.92,279.34 553.01,280.55 C555.00,282.75 555.00,286.74 555.00,298.33 L 555.00 299.11 C555.00,315.71 554.97,315.94 552.49,318.42 C549.18,321.73 542.77,325.43 533.26,329.50 C528.99,331.33 521.22,334.71 516.00,337.02 C510.77,339.32 503.80,342.33 500.50,343.70 C497.20,345.07 492.51,347.10 490.07,348.21 C487.63,349.31 479.31,352.93 471.57,356.24 C446.87,366.83 442.74,368.66 430.50,374.50 C423.90,377.65 416.48,380.85 414.00,381.60 C409.65,382.93 399.58,383.30 395.53,382.27 ZM 394.00 351.60 C396.72,352.44 401.47,352.84 406.00,352.63 C412.90,352.31 414.89,351.65 431.00,344.29 C450.04,335.59 480.23,322.33 500.00,313.98 C513.37,308.33 528.46,301.67 539.00,296.77 C554.94,289.34 557.93,284.51 549.79,279.37 C544.84,276.24 541.78,276.13 536.42,278.85 C532.05,281.07 503.38,293.67 489.50,299.47 C475.55,305.29 438.82,321.58 425.50,327.84 C413.55,333.46 413.46,333.48 404.00,333.48 C394.68,333.48 394.27,333.38 382.50,328.13 C371.10,323.05 359.61,318.20 336.00,308.49 C313.32,299.16 305.33,295.81 301.21,293.92 C298.85,292.84 292.39,290.15 286.85,287.94 C281.31,285.73 274.96,283.00 272.74,281.87 C268.33,279.62 266.81,279.91 260.26,284.32 C253.59,288.80 257.07,293.32 273.00,300.85 C282.88,305.52 288.50,307.92 309.75,316.56 C314.56,318.51 319.87,320.74 321.55,321.51 C323.23,322.28 330.66,325.36 338.05,328.37 C357.57,336.30 369.24,341.20 380.00,345.99 C385.23,348.32 391.52,350.85 394.00,351.60 ZM 493.10 193.67 C469.79,202.98 467.47,203.25 456.00,198.01 C451.33,195.87 444.58,193.13 441.00,191.93 C432.11,188.93 429.68,186.73 433.75,185.34 C434.71,185.01 439.33,183.19 444.00,181.29 C448.67,179.39 455.61,176.75 459.41,175.43 C463.21,174.10 467.82,172.12 469.67,171.03 C472.19,169.55 473.57,169.29 475.26,170.00 C476.49,170.52 485.11,174.00 494.41,177.72 C503.71,181.45 511.36,184.91 511.41,185.42 C511.46,185.92 503.22,189.63 493.10,193.67 ZM 13.09 405.80 C23.73,431.65 40.58,454.55 62.13,472.43 C57.18,468.38 52.50,464.07 48.15,459.54 C32.80,443.54 21.17,425.75 13.09,405.80 ZM 1755.45 25.67 C1781.74,41.84 1803.39,65.03 1817.95,93.50 C1819.05,95.66 1820.12,97.91 1821.16,100.23 C1807.00,69.16 1783.88,43.28 1755.45,25.67 ZM 110.39 500.55 C121.93,504.79 136.08,508.55 146.00,509.88 C134.16,508.30 122.12,505.10 110.39,500.55 ZM 1836.00 160.49 C1836.00,154.12 1834.26,142.16 1831.95,132.00 C1834.51,142.43 1836.00,152.45 1836.00,160.49 ZM 1686.17 0.66 C1683.21,0.86 1684.35,1.16 1687.50,1.58 C1691.14,2.07 1694.75,2.67 1698.32,3.37 C1692.95,2.36 1687.51,1.60 1682.00,1.11 C1680.05,0.94 1681.53,0.79 1686.17,0.66 ZM 42.34 58.86 C62.82,35.35 89.55,17.73 119.48,8.36 C89.67,17.78 63.10,35.12 42.34,58.86 ZM 6.05 127.66 C7.92,119.97 9.98,113.89 12.96,106.75 C10.24,113.54 7.92,120.55 6.05,127.66 ZM 0.64 362.92 C0.78,357.91 0.94,356.19 1.12,358.00 C1.42,361.00 1.81,363.98 2.26,366.93 C2.00,365.39 1.76,363.83 1.53,362.26 C1.12,359.48 0.84,359.01 0.64,362.92 ZM 0.82 155.12 C1.13,153.23 1.43,151.42 1.72,149.70 C1.45,151.78 1.23,153.87 1.04,155.95 C0.97,156.78 0.89,156.46 0.82,155.12 ZM 552.80 181.34 C550.96,179.91 547.61,178.28 541.98,175.96 C545.25,177.28 547.57,178.25 548.32,178.63 C550.39,179.68 551.82,180.37 552.80,181.34 ZM 150.20 1.63 C152.20,1.30 153.86,1.03 154.94,0.85 C155.92,0.92 156.06,0.99 155.30,1.07 C153.60,1.23 151.90,1.42 150.20,1.63 ZM 102.73 0.20 C95.34,0.17 87.46,0.15 79.25,0.14 L 0.00 0.00 L 0.14 79.25 C0.15,85.57 0.16,91.70 0.18,97.56 C0.16,92.66 0.15,87.54 0.14,82.25 L 0.00 0.00 L 81.75 0.14 C89.17,0.15 96.19,0.17 102.73,0.20 Z" fill="rgb(143,40,40)"/>
<path d="M 552.80 181.34 C552.92,181.45 553.03,181.57 553.14,181.70 C553.85,182.54 554.29,183.61 554.56,185.25 C554.39,185.89 554.06,186.59 553.64,187.37 C552.29,189.89 549.46,191.82 540.66,196.23 C534.48,199.33 527.18,202.75 524.46,203.83 C521.73,204.90 517.03,206.91 514.00,208.29 C510.98,209.66 500.40,214.26 490.50,218.50 C480.60,222.75 466.88,228.67 460.00,231.66 C453.12,234.66 446.60,237.50 445.50,237.98 C444.40,238.45 437.65,241.61 430.50,244.99 C417.99,250.91 408.27,254.05 403.00,253.90 C401.62,253.85 398.48,253.24 396.00,252.54 C393.52,251.83 384.52,248.24 376.00,244.57 C367.48,240.89 357.58,236.73 354.00,235.31 C347.22,232.61 304.27,214.75 288.22,207.94 C283.11,205.77 278.68,204.00 278.38,204.00 C276.91,204.00 261.23,195.57 259.20,193.69 C256.07,190.78 256.66,187.13 260.70,184.41 C263.81,182.33 286.95,172.87 323.00,158.96 C332.62,155.24 345.23,150.33 351.00,148.04 C392.18,131.71 407.12,127.23 416.27,128.44 C423.57,129.41 421.63,128.69 487.00,154.51 C497.17,158.53 514.42,165.24 525.32,169.42 C531.56,171.81 537.61,174.19 541.98,175.96 C547.61,178.28 550.96,179.91 552.80,181.34 ZM 553.31 232.56 C553.95,233.52 554.35,234.74 554.59,236.48 C553.55,240.41 545.91,245.09 530.50,251.86 C523.90,254.76 516.92,257.82 515.00,258.67 C513.08,259.52 505.20,262.89 497.50,266.16 C464.63,280.12 442.07,290.07 427.50,297.01 C415.19,302.88 411.29,303.99 403.00,303.98 C397.92,303.97 394.76,303.24 388.50,300.63 C367.44,291.85 328.91,275.66 324.00,273.53 C320.98,272.22 315.12,269.81 311.00,268.17 C300.62,264.06 269.04,250.50 266.00,248.85 C260.53,245.88 257.00,242.57 257.00,240.40 C257.00,235.46 268.51,229.53 273.84,231.73 C275.30,232.33 279.88,234.27 284.00,236.03 C288.12,237.80 297.80,241.84 305.50,245.02 C313.20,248.19 324.90,253.04 331.50,255.79 C338.10,258.53 350.02,263.48 358.00,266.78 C365.98,270.08 376.74,274.66 381.93,276.95 C402.28,285.95 407.19,285.73 430.44,274.86 C438.72,270.98 448.20,266.70 451.50,265.33 C454.80,263.96 462.90,260.45 469.50,257.53 C476.10,254.61 484.88,250.76 489.00,248.97 C493.12,247.18 505.73,241.65 517.00,236.67 C539.71,226.65 542.74,226.04 549.87,230.05 C551.35,230.88 552.50,231.71 553.31,232.56 ZM 394.00 351.60 C391.52,350.85 385.23,348.32 380.00,345.99 C369.24,341.20 357.57,336.30 338.05,328.37 C330.66,325.36 323.23,322.28 321.55,321.51 C319.87,320.74 314.56,318.51 309.75,316.56 C288.50,307.92 282.88,305.52 273.00,300.85 C257.07,293.32 253.59,288.80 260.26,284.32 C266.81,279.91 268.33,279.62 272.74,281.87 C274.96,283.00 281.31,285.73 286.85,287.94 C292.39,290.15 298.85,292.84 301.21,293.92 C305.33,295.81 313.32,299.16 336.00,308.49 C359.61,318.20 371.10,323.05 382.50,328.13 C394.27,333.38 394.68,333.48 404.00,333.48 C413.46,333.48 413.55,333.46 425.50,327.84 C438.82,321.58 475.55,305.29 489.50,299.47 C503.38,293.67 532.05,281.07 536.42,278.85 C541.78,276.13 544.84,276.24 549.79,279.37 C557.93,284.51 554.94,289.34 539.00,296.77 C528.46,301.67 513.37,308.33 500.00,313.98 C480.23,322.33 450.04,335.59 431.00,344.29 C414.89,351.65 412.90,352.31 406.00,352.63 C401.47,352.84 396.72,352.44 394.00,351.60 ZM 327.92 200.45 C351.75,204.76 379.25,197.83 379.25,187.50 C379.25,177.25 351.98,170.28 328.25,174.45 C298.82,179.63 298.63,195.14 327.92,200.45 ZM 493.10 193.67 C503.22,189.63 511.46,185.92 511.41,185.42 C511.36,184.91 503.71,181.45 494.41,177.72 C485.11,174.00 476.49,170.52 475.26,170.00 C473.57,169.29 472.19,169.55 469.67,171.03 C467.82,172.12 463.21,174.10 459.41,175.43 C455.61,176.75 448.67,179.39 444.00,181.29 C439.33,183.19 434.71,185.01 433.75,185.34 C429.68,186.73 432.11,188.93 441.00,191.93 C444.58,193.13 451.33,195.87 456.00,198.01 C467.47,203.25 469.79,202.98 493.10,193.67 ZM 400.00 229.13 C403.58,230.65 407.34,231.81 408.37,231.70 C409.54,231.57 413.60,226.61 419.17,218.50 L 419.68 217.76 C427.76,206.00 429.89,202.91 429.36,202.35 C429.17,202.16 428.64,202.28 427.93,202.45 L 427.80 202.48 C426.54,202.78 421.23,203.67 416.00,204.45 C378.32,210.06 364.40,212.32 363.73,212.93 C363.31,213.32 369.83,216.50 378.23,220.00 C386.63,223.50 396.42,227.61 400.00,229.13 ZM 407.80 177.43 C410.06,181.06 410.36,181.23 411.57,179.58 C412.29,178.59 413.64,175.66 414.58,173.06 L 416.28 168.33 L 428.39 167.08 C435.05,166.40 440.64,165.69 440.82,165.52 C440.99,165.34 437.26,163.74 432.54,161.96 C427.81,160.17 423.72,158.36 423.45,157.92 C423.18,157.48 423.86,154.76 424.96,151.87 C426.05,148.98 426.76,146.43 426.53,146.20 C426.30,145.97 422.12,147.12 417.23,148.76 L 408.35 151.74 L 398.42 147.96 C392.97,145.89 388.33,144.35 388.13,144.55 C387.92,144.75 388.97,146.99 390.46,149.52 C391.95,152.06 392.94,154.72 392.67,155.43 C392.39,156.14 387.80,158.23 382.45,160.07 C371.27,163.92 371.63,164.33 387.15,165.44 C400.46,166.39 401.37,166.66 403.48,170.29 C404.51,172.05 406.45,175.27 407.80,177.43 Z" fill="rgb(194,48,42)"/>
<path d="M 0.13 432.75 C0.24,364.24 0.43,354.69 1.53,362.26 C7.15,400.88 22.42,432.74 48.15,459.54 C73.65,486.10 110.68,505.15 146.00,509.88 C150.68,510.51 155.62,511.18 157.00,511.37 C158.38,511.57 123.61,511.79 79.75,511.86 L 0.00 512.00 L 0.13 432.75 ZM 1681.00 511.33 C1749.07,504.57 1806.14,459.54 1827.48,395.75 C1831.79,382.88 1834.82,368.80 1835.91,356.59 C1836.41,351.07 1836.78,379.80 1836.86,429.75 L 1837.00 512.00 L 1757.25 511.84 C1713.39,511.75 1679.07,511.52 1681.00,511.33 ZM 1030.50 343.37 C1018.56,340.87 1009.67,335.99 1001.06,327.20 C988.71,314.58 983.47,300.95 982.36,278.50 C980.43,239.63 998.60,210.88 1029.22,204.36 C1039.63,202.14 1055.30,202.98 1064.18,206.25 C1081.71,212.69 1093.73,226.21 1099.93,246.46 C1102.07,253.44 1104.69,278.07 1103.50,280.00 C1103.10,280.64 1085.46,281.00 1053.94,281.00 L 1005.00 281.00 L 1005.02 283.75 C1005.05,288.57 1007.78,299.64 1010.02,304.04 C1013.48,310.81 1020.36,317.43 1027.27,320.62 C1032.94,323.24 1034.49,323.50 1044.50,323.50 C1053.66,323.50 1056.28,323.14 1060.18,321.34 C1066.39,318.47 1073.40,311.87 1076.04,306.42 C1078.12,302.13 1078.32,302.00 1082.84,302.01 C1085.40,302.01 1090.55,302.30 1094.27,302.65 C1102.09,303.39 1102.00,303.02 1096.78,313.92 C1092.52,322.82 1081.72,333.63 1072.43,338.29 C1059.88,344.59 1044.97,346.40 1030.50,343.37 ZM 1079.47 261.06 C1080.45,259.46 1077.30,246.53 1074.66,241.32 C1067.94,228.05 1054.31,221.70 1037.59,224.05 C1021.16,226.35 1010.38,236.71 1005.90,254.47 C1003.88,262.49 1001.49,262.00 1042.41,262.00 C1064.22,262.00 1079.12,261.62 1079.47,261.06 ZM 1174.61 343.36 C1144.16,336.83 1127.25,308.49 1129.35,267.50 C1130.38,247.32 1136.02,231.61 1146.28,220.38 C1156.50,209.19 1167.42,204.18 1183.50,203.29 C1200.51,202.36 1211.82,206.70 1222.60,218.31 L 1228.00 224.11 L 1228.00 192.06 L 1228.00 160.00 L 1238.50 160.00 L 1249.00 160.00 L 1249.00 251.04 L 1249.00 342.08 L 1239.76 341.79 C1232.45,341.56 1230.48,341.19 1230.32,340.00 C1230.21,339.17 1229.82,334.92 1229.45,330.53 L 1228.79 322.57 L 1226.71 325.53 C1215.64,341.30 1196.12,347.97 1174.61,343.36 ZM 1204.61 320.74 C1211.44,317.22 1215.75,313.47 1219.20,308.02 C1226.59,296.38 1229.82,275.09 1226.61,259.25 C1223.65,244.66 1218.49,235.68 1209.65,229.73 C1203.33,225.48 1202.05,225.00 1194.50,224.03 C1173.66,221.35 1159.49,231.82 1153.87,254.05 C1151.03,265.29 1151.56,288.18 1154.88,297.42 C1159.37,309.91 1165.86,317.49 1175.59,321.58 C1180.72,323.74 1182.68,324.02 1190.50,323.72 C1197.81,323.43 1200.46,322.87 1204.61,320.74 ZM 1491.00 343.55 C1474.43,339.99 1462.06,332.56 1454.61,321.70 C1450.74,316.06 1447.00,306.34 1447.00,301.92 C1447.00,299.27 1447.25,299.13 1453.25,298.50 C1456.69,298.14 1461.67,297.99 1464.33,298.17 L 1469.16 298.50 L 1470.99 303.69 C1475.82,317.45 1487.26,324.00 1506.47,324.00 C1526.22,324.00 1537.00,317.74 1537.00,306.25 C1537.00,294.75 1530.89,290.86 1504.28,285.40 C1480.23,280.47 1467.96,276.04 1460.18,269.50 C1452.04,262.65 1447.94,245.68 1451.45,233.45 C1457.17,213.57 1474.97,202.97 1502.58,203.01 C1507.49,203.02 1514.32,203.69 1517.76,204.51 C1535.91,208.78 1549.94,222.33 1555.36,240.80 C1556.55,244.82 1556.63,246.18 1555.71,246.47 C1555.04,246.67 1549.93,247.12 1544.34,247.46 L 1534.18 248.08 L 1532.94 244.29 C1527.99,229.21 1514.20,221.81 1495.09,223.99 C1483.19,225.35 1476.90,229.22 1473.55,237.23 C1471.51,242.12 1471.62,246.58 1473.93,251.65 C1477.22,258.91 1483.91,261.64 1510.31,266.52 C1545.72,273.06 1557.80,282.38 1558.80,303.92 C1559.12,311.03 1558.81,313.52 1556.94,318.47 C1552.76,329.56 1541.31,338.32 1525.50,342.52 C1517.08,344.75 1499.09,345.29 1491.00,343.55 ZM 829.67 341.33 C829.30,340.97 829.00,300.02 829.00,250.33 L 829.00 160.00 L 862.43 160.00 C897.78,160.00 903.40,160.53 915.07,165.01 C922.39,167.81 932.03,175.20 936.93,181.76 C947.72,196.19 949.89,218.62 942.06,234.54 C938.44,241.87 929.78,250.44 922.08,254.27 L 916.99 256.81 L 922.52 258.55 C931.93,261.51 938.93,269.07 941.92,279.50 C942.96,283.11 947.99,332.56 948.00,339.25 L 948.00 342.00 L 937.56 342.00 C931.82,342.00 926.90,341.65 926.63,341.21 C926.37,340.78 925.15,328.75 923.92,314.46 C921.47,285.94 920.17,280.36 914.73,275.04 C909.21,269.65 904.49,268.93 876.43,269.23 L 851.50 269.50 L 851.24 305.75 L 850.98 342.00 L 840.65 342.00 C834.98,342.00 830.03,341.70 829.67,341.33 ZM 896.11 245.99 C908.57,243.67 917.97,236.62 921.67,226.84 C924.02,220.60 923.99,207.83 921.59,201.50 C915.43,185.22 903.12,180.61 867.50,181.22 L 851.50 181.50 L 851.24 212.99 C851.09,230.31 851.19,245.05 851.45,245.74 C852.06,247.32 887.92,247.52 896.11,245.99 ZM 1293.67 341.33 C1293.30,340.97 1293.00,336.69 1293.00,331.83 L 1293.00 323.00 L 1320.00 323.00 L 1347.00 323.00 L 1347.00 274.02 L 1347.00 225.03 L 1321.25 224.77 L 1295.50 224.50 L 1295.21 215.25 L 1294.92 206.00 L 1331.95 206.00 L 1368.98 206.00 L 1369.24 264.25 L 1369.50 322.50 L 1392.75 322.77 L 1416.00 323.04 L 1416.00 332.52 L 1416.00 342.00 L 1355.17 342.00 C1321.71,342.00 1294.03,341.70 1293.67,341.33 ZM 400.00 229.13 C396.42,227.61 386.63,223.50 378.23,220.00 C369.83,216.50 363.31,213.32 363.73,212.93 C364.40,212.32 378.32,210.06 416.00,204.45 C421.23,203.67 426.54,202.78 427.80,202.48 C430.69,201.80 430.82,201.55 419.17,218.50 C413.60,226.61 409.54,231.57 408.37,231.70 C407.34,231.81 403.58,230.65 400.00,229.13 ZM 327.92 200.45 C298.63,195.14 298.82,179.63 328.25,174.45 C351.98,170.28 379.25,177.25 379.25,187.50 C379.25,197.83 351.75,204.76 327.92,200.45 ZM 1345.67 184.33 C1345.30,183.97 1345.00,178.34 1345.00,171.83 L 1345.00 160.00 L 1356.50 160.00 L 1368.00 160.00 L 1368.00 172.50 L 1368.00 185.00 L 1357.17 185.00 C1351.21,185.00 1346.03,184.70 1345.67,184.33 ZM 407.80 177.43 C406.45,175.27 404.51,172.05 403.48,170.29 C401.37,166.66 400.46,166.39 387.15,165.44 C371.63,164.33 371.27,163.92 382.45,160.07 C387.80,158.23 392.39,156.14 392.67,155.43 C392.94,154.72 391.95,152.06 390.46,149.52 C388.97,146.99 387.92,144.75 388.13,144.55 C388.33,144.35 392.97,145.89 398.42,147.96 L 408.35 151.74 L 417.23 148.76 C422.12,147.12 426.30,145.97 426.53,146.20 C426.76,146.43 426.05,148.98 424.96,151.87 C423.86,154.76 423.18,157.48 423.45,157.92 C423.72,158.36 427.81,160.17 432.54,161.96 C437.26,163.74 440.99,165.34 440.82,165.52 C440.64,165.69 435.05,166.40 428.39,167.08 L 416.28 168.33 L 414.58 173.06 C413.64,175.66 412.29,178.59 411.57,179.58 C410.36,181.23 410.06,181.06 407.80,177.43 ZM 1836.00 160.49 C1836.00,142.26 1828.34,113.82 1817.95,93.50 C1792.17,43.07 1744.09,9.20 1687.50,1.58 C1678.54,0.38 1685.82,0.22 1757.25,0.12 L 1837.00 0.00 L 1837.00 83.00 C1837.00,128.65 1836.78,166.00 1836.50,166.00 C1836.22,166.00 1836.00,163.52 1836.00,160.49 ZM 0.14 79.25 L 0.00 0.00 L 79.25 0.14 C122.84,0.21 157.38,0.46 156.00,0.68 C154.62,0.90 148.32,1.94 142.00,2.99 C86.31,12.22 38.36,49.39 15.38,101.16 C7.74,118.36 5.36,127.22 0.68,156.00 C0.46,157.38 0.21,122.84 0.14,79.25 Z" fill="rgb(228,228,228)"/>
</g>
</svg>