<svg width="69" height="23" viewBox="0 0 69 23" fill="none" xmlns="http://www.w3.org/2000/svg">
<rect width="69" height="23" rx="6" fill="#232323"/>
<path d="M15.5248 6.69653L20.3034 14.9735H10.7461L15.5248 6.69653Z" fill="#A1A1A1"/>
<path d="M28.0944 14L26.2376 7.752H27.2144L28.7808 13.252H28.4992L30.0656 7.752H31.0424L29.1856 14H28.0944ZM32.271 14V7.752H36.1078V8.6232H33.195V10.4448H36.0022V11.2896H33.195V13.1288H36.1782V14H32.271ZM37.5827 14V7.752H39.5275C40.1905 7.752 40.7097 7.9192 41.0851 8.2536C41.4665 8.588 41.6571 9.04267 41.6571 9.6176C41.6571 9.9168 41.5897 10.1808 41.4547 10.4096C41.3257 10.6384 41.1526 10.8173 40.9355 10.9464C40.7243 11.0755 40.4985 11.1488 40.2579 11.1664L40.2227 11.0608C40.6569 11.0784 40.9795 11.1781 41.1907 11.36C41.4078 11.536 41.5339 11.8235 41.5691 12.2224L41.7275 14H40.8035L40.6627 12.3984C40.6451 12.1931 40.6011 12.0288 40.5307 11.9056C40.4603 11.7824 40.3518 11.6944 40.2051 11.6416C40.0585 11.5888 39.8561 11.5624 39.5979 11.5624H38.5067V14H37.5827ZM38.5067 10.7H39.5099C39.8971 10.7 40.1934 10.6091 40.3987 10.4272C40.6041 10.2453 40.7067 9.99013 40.7067 9.6616C40.7067 9.3272 40.6041 9.072 40.3987 8.896C40.1934 8.71413 39.8971 8.6232 39.5099 8.6232H38.5067V10.7ZM45.1561 14.1408C44.6516 14.1408 44.2233 14.0088 43.8713 13.7448C43.5252 13.4808 43.2612 13.1053 43.0793 12.6184C42.8974 12.1315 42.8065 11.5536 42.8065 10.8848C42.8065 10.2101 42.8974 9.62933 43.0793 9.1424C43.2612 8.65547 43.5252 8.28 43.8713 8.016C44.2233 7.74613 44.6516 7.6112 45.1561 7.6112C45.7252 7.6112 46.2033 7.79893 46.5905 8.1744C46.9836 8.54987 47.2417 9.07493 47.3649 9.7496L46.3969 9.8024C46.3089 9.36827 46.1534 9.03973 45.9305 8.8168C45.7134 8.588 45.4553 8.4736 45.1561 8.4736C44.851 8.4736 44.5958 8.56747 44.3905 8.7552C44.1852 8.94293 44.0297 9.21573 43.9241 9.5736C43.8185 9.93147 43.7657 10.3685 43.7657 10.8848C43.7657 11.3952 43.8185 11.8293 43.9241 12.1872C44.0297 12.5392 44.1852 12.8091 44.3905 12.9968C44.5958 13.1845 44.851 13.2784 45.1561 13.2784C45.4788 13.2784 45.7545 13.1552 45.9833 12.9088C46.2121 12.6624 46.3646 12.3016 46.4409 11.8264L47.4001 11.8704C47.2945 12.5861 47.0452 13.1435 46.6521 13.5424C46.259 13.9413 45.7604 14.1408 45.1561 14.1408ZM48.7607 14V7.752H52.5975V8.6232H49.6846V10.4448H52.4919V11.2896H49.6846V13.1288H52.6679V14H48.7607ZM54.3452 14V7.752H55.2692V13.648L54.706 13.1288H58.2524V14H54.3452Z" fill="#D4D4D4"/>
</svg>
