<svg width="89" height="23" viewBox="0 0 89 23" fill="none" xmlns="http://www.w3.org/2000/svg">
<rect width="89" height="23" rx="6" fill="#232323"/>
<g clip-path="url(#clip0_1_1499)">
<path d="M17.001 17.7667C20.7382 17.7667 23.7677 14.7372 23.7677 11.0001C23.7677 7.26294 20.7382 4.2334 17.001 4.2334C13.2639 4.2334 10.2344 7.26294 10.2344 11.0001C10.2344 14.7372 13.2639 17.7667 17.001 17.7667Z" fill="black" stroke="white" stroke-width="0.466667"/>
<path d="M21.6276 16.2518L15.3769 8.2002H14.1992V13.7979H15.1414V9.3967L20.888 16.8215C21.1473 16.648 21.3944 16.4575 21.6276 16.2518Z" fill="white"/>
<path d="M19.8788 8.19995H18.9454V13.8H19.8788V8.19995Z" fill="white"/>
</g>
<path d="M30.748 15V7.19H32.156L34.719 13.361V7.19H35.852V15H34.444L31.881 8.829V15H30.748ZM37.8387 15V7.19H42.6347V8.279H38.9937V10.556H42.5027V11.612H38.9937V13.911H42.7227V15H37.8387ZM44.2364 15L46.2934 11.073L44.2694 7.19H45.5784L47.0524 10.193L48.5264 7.19H49.8134L47.7894 11.084L49.8464 15H48.5374L47.0304 11.953L45.5124 15H44.2364ZM53.3401 15V8.279H51.0521V7.19H56.7721V8.279H54.4841V15H53.3401ZM60.0348 15V13.548H61.5308V15H60.0348ZM67.3785 15.176C66.8578 15.176 66.4032 15.066 66.0145 14.846C65.6332 14.6187 65.3325 14.296 65.1125 13.878C64.8998 13.46 64.7862 12.965 64.7715 12.393L65.9155 12.305C65.9302 12.9137 66.0585 13.3647 66.3005 13.658C66.5425 13.9513 66.9055 14.098 67.3895 14.098C67.8735 14.098 68.2328 13.955 68.4675 13.669C68.7095 13.3757 68.8305 12.9357 68.8305 12.349V7.19H69.9855V12.349C69.9855 13.229 69.7545 13.922 69.2925 14.428C68.8305 14.9267 68.1925 15.176 67.3785 15.176ZM74.6232 15.176C74.0586 15.176 73.5636 15.0623 73.1382 14.835C72.7202 14.6077 72.3866 14.2923 72.1372 13.889C71.8879 13.4783 71.7412 13.0017 71.6972 12.459L72.8852 12.382C72.9366 12.756 73.0392 13.0713 73.1932 13.328C73.3472 13.5847 73.5489 13.779 73.7982 13.911C74.0476 14.0357 74.3372 14.098 74.6672 14.098C74.9899 14.098 75.2612 14.0577 75.4812 13.977C75.7012 13.889 75.8699 13.7643 75.9872 13.603C76.1046 13.4417 76.1632 13.2473 76.1632 13.02C76.1632 12.7853 76.1082 12.58 75.9982 12.404C75.8882 12.228 75.6902 12.0667 75.4042 11.92C75.1182 11.7733 74.7002 11.623 74.1502 11.469C73.6149 11.3223 73.1786 11.1573 72.8412 10.974C72.5039 10.7907 72.2582 10.5633 72.1042 10.292C71.9502 10.0207 71.8732 9.68333 71.8732 9.28C71.8732 8.83267 71.9759 8.44033 72.1812 8.103C72.3939 7.75833 72.6946 7.49067 73.0832 7.3C73.4792 7.10933 73.9522 7.014 74.5022 7.014C75.0449 7.014 75.5069 7.12033 75.8882 7.333C76.2769 7.54567 76.5812 7.84267 76.8012 8.224C77.0286 8.598 77.1679 9.038 77.2192 9.544L76.0312 9.61C75.9946 9.30933 75.9102 9.04533 75.7782 8.818C75.6536 8.59067 75.4812 8.41467 75.2612 8.29C75.0412 8.158 74.7772 8.092 74.4692 8.092C74.0366 8.092 73.6919 8.19833 73.4352 8.411C73.1859 8.61633 73.0612 8.88767 73.0612 9.225C73.0612 9.45233 73.1126 9.63933 73.2152 9.786C73.3179 9.93267 73.4976 10.0647 73.7542 10.182C74.0109 10.2993 74.3702 10.4203 74.8322 10.545C75.4556 10.7137 75.9506 10.908 76.3172 11.128C76.6839 11.348 76.9479 11.612 77.1092 11.92C77.2706 12.228 77.3512 12.5947 77.3512 13.02C77.3512 13.4453 77.2376 13.823 77.0102 14.153C76.7829 14.4757 76.4639 14.7287 76.0532 14.912C75.6499 15.088 75.1732 15.176 74.6232 15.176Z" fill="#D4D4D4"/>
<defs>
<clipPath id="clip0_1_1499">
<rect width="14" height="14" fill="white" transform="translate(10 4)"/>
</clipPath>
</defs>
</svg>
