<svg width="91" height="23" viewBox="0 0 91 23" fill="none" xmlns="http://www.w3.org/2000/svg">
<rect width="91" height="23" rx="6" fill="#232323"/>
<g clip-path="url(#clip0_1_1537)">
<path d="M10.875 6H20.325C20.8083 6 21.2 6.39174 21.2 6.875V16.325C21.2 16.8083 20.8083 17.2 20.325 17.2H10.875C10.3917 17.2 10 16.8083 10 16.325V6.875C10 6.39174 10.3917 6 10.875 6Z" fill="#3178C6"/>
<path d="M16.5844 14.7707V15.9791C16.7809 16.0798 17.0133 16.1553 17.2817 16.2056C17.55 16.256 17.8328 16.2812 18.1301 16.2812C18.4198 16.2812 18.6951 16.2535 18.9559 16.1981C19.2166 16.1427 19.4453 16.0514 19.6418 15.9243C19.8383 15.7972 19.9939 15.631 20.1085 15.4258C20.2232 15.2207 20.2805 14.9671 20.2805 14.665C20.2805 14.446 20.2477 14.254 20.1822 14.0891C20.1174 13.9253 20.0211 13.7759 19.8987 13.6492C19.7753 13.5208 19.6273 13.4056 19.4547 13.3037C19.2821 13.2017 19.0875 13.1054 18.8708 13.0148C18.7121 12.9493 18.5698 12.8858 18.4438 12.8241C18.3178 12.7624 18.2107 12.6995 18.1225 12.6353C18.0343 12.5711 17.9663 12.5031 17.9184 12.4314C17.8706 12.3596 17.8467 12.2785 17.8467 12.1878C17.8467 12.1047 17.868 12.0299 17.9109 11.9632C17.9537 11.8964 18.0142 11.8392 18.0923 11.7914C18.1704 11.7435 18.2661 11.7064 18.3795 11.6799C18.4929 11.6535 18.6189 11.6403 18.7574 11.6403C18.8582 11.6403 18.9647 11.6479 19.0768 11.6629C19.1889 11.678 19.3016 11.7013 19.415 11.7328C19.5281 11.7642 19.6386 11.8039 19.7457 11.8518C19.8496 11.8978 19.9489 11.9534 20.0424 12.0179V10.8888C19.8585 10.8184 19.6575 10.7661 19.4396 10.7321C19.2217 10.6981 18.9716 10.6812 18.6894 10.6812C18.4022 10.6812 18.1301 10.712 17.8731 10.7737C17.6161 10.8353 17.39 10.9316 17.1947 11.0625C16.9995 11.1935 16.8452 11.3602 16.7318 11.5629C16.6184 11.7655 16.5617 12.0078 16.5617 12.2898C16.5617 12.6498 16.6656 12.9569 16.8735 13.2112C17.0814 13.4654 17.3969 13.6807 17.8202 13.8569C17.9764 13.9205 18.1314 13.9872 18.285 14.057C18.4287 14.1225 18.5527 14.1904 18.6573 14.2609C18.7619 14.3314 18.8444 14.4082 18.9048 14.4913C18.9653 14.5743 18.9955 14.6687 18.9955 14.7745C18.996 14.8506 18.9765 14.9255 18.9388 14.9916C18.9011 15.0583 18.8437 15.1162 18.7669 15.1653C18.6901 15.2144 18.5943 15.2528 18.4797 15.2805C18.3651 15.3082 18.2309 15.322 18.0772 15.322C17.8152 15.322 17.5557 15.2761 17.2987 15.1842C17.0417 15.0923 16.8036 14.9545 16.5844 14.7707ZM14.5703 11.7636H16.1242V10.7687H11.793V11.7636H13.3393V16.1937H14.5703V11.7636Z" fill="white"/>
</g>
<path d="M28.1824 15V9.6232H26.352V8.752H30.928V9.6232H29.0976V15H28.1824ZM33.679 15V12.4304L31.8222 8.752H32.843L34.1366 11.48L35.4302 8.752H36.451L34.603 12.4304V15H33.679ZM37.7499 15V8.752H39.6859C40.1201 8.752 40.4985 8.8312 40.8211 8.9896C41.1497 9.148 41.4019 9.37387 41.5779 9.6672C41.7598 9.95467 41.8507 10.2979 41.8507 10.6968C41.8507 11.0957 41.7598 11.4419 41.5779 11.7352C41.4019 12.0227 41.1497 12.2456 40.8211 12.404C40.4985 12.5565 40.1201 12.6328 39.6859 12.6328H38.6739V15H37.7499ZM38.6739 11.7616H39.5891C40.035 11.7616 40.3635 11.6707 40.5747 11.4888C40.7859 11.3069 40.8915 11.0429 40.8915 10.6968C40.8915 10.3448 40.7859 10.0779 40.5747 9.896C40.3635 9.71413 40.035 9.6232 39.5891 9.6232H38.6739V11.7616ZM43.2641 15V8.752H47.1009V9.6232H44.1881V11.4448H46.9953V12.2896H44.1881V14.1288H47.1713V15H43.2641ZM50.7055 15.1408C50.2537 15.1408 49.8577 15.0499 49.5175 14.868C49.1831 14.6861 48.9161 14.4339 48.7166 14.1112C48.5172 13.7827 48.3998 13.4013 48.3646 12.9672L49.3151 12.9056C49.3561 13.2048 49.4383 13.4571 49.5615 13.6624C49.6846 13.8677 49.846 14.0232 50.0455 14.1288C50.2449 14.2285 50.4767 14.2784 50.7407 14.2784C50.9988 14.2784 51.2159 14.2461 51.3919 14.1816C51.5679 14.1112 51.7028 14.0115 51.7967 13.8824C51.8905 13.7533 51.9375 13.5979 51.9375 13.416C51.9375 13.2283 51.8935 13.064 51.8055 12.9232C51.7175 12.7824 51.5591 12.6533 51.3303 12.536C51.1015 12.4187 50.7671 12.2984 50.327 12.1752C49.8988 12.0579 49.5497 11.9259 49.2798 11.7792C49.01 11.6325 48.8134 11.4507 48.6902 11.2336C48.567 11.0165 48.5054 10.7467 48.5054 10.424C48.5054 10.0661 48.5876 9.75227 48.7518 9.4824C48.922 9.20667 49.1625 8.99253 49.4735 8.84C49.7903 8.68747 50.1687 8.6112 50.6087 8.6112C51.0428 8.6112 51.4124 8.69627 51.7175 8.8664C52.0284 9.03653 52.2719 9.27413 52.4479 9.5792C52.6297 9.8784 52.7412 10.2304 52.7823 10.6352L51.8319 10.688C51.8025 10.4475 51.7351 10.2363 51.6295 10.0544C51.5297 9.87253 51.3919 9.73173 51.2159 9.632C51.0399 9.5264 50.8287 9.4736 50.5823 9.4736C50.2361 9.4736 49.9604 9.55867 49.7551 9.7288C49.5556 9.89307 49.4559 10.1101 49.4559 10.38C49.4559 10.5619 49.4969 10.7115 49.5791 10.8288C49.6612 10.9461 49.8049 11.0517 50.0103 11.1456C50.2156 11.2395 50.5031 11.3363 50.8727 11.436C51.3713 11.5709 51.7673 11.7264 52.0607 11.9024C52.354 12.0784 52.5652 12.2896 52.6943 12.536C52.8233 12.7824 52.8879 13.0757 52.8879 13.416C52.8879 13.7563 52.7969 14.0584 52.6151 14.3224C52.4332 14.5805 52.178 14.7829 51.8495 14.9296C51.5268 15.0704 51.1455 15.1408 50.7055 15.1408ZM56.1492 15.1408C55.6447 15.1408 55.2164 15.0088 54.8644 14.7448C54.5183 14.4808 54.2543 14.1053 54.0724 13.6184C53.8905 13.1315 53.7996 12.5536 53.7996 11.8848C53.7996 11.2101 53.8905 10.6293 54.0724 10.1424C54.2543 9.65547 54.5183 9.28 54.8644 9.016C55.2164 8.74613 55.6447 8.6112 56.1492 8.6112C56.7183 8.6112 57.1964 8.79893 57.5836 9.1744C57.9767 9.54987 58.2348 10.0749 58.358 10.7496L57.39 10.8024C57.302 10.3683 57.1465 10.0397 56.9236 9.8168C56.7065 9.588 56.4484 9.4736 56.1492 9.4736C55.8441 9.4736 55.5889 9.56747 55.3836 9.7552C55.1783 9.94293 55.0228 10.2157 54.9172 10.5736C54.8116 10.9315 54.7588 11.3685 54.7588 11.8848C54.7588 12.3952 54.8116 12.8293 54.9172 13.1872C55.0228 13.5392 55.1783 13.8091 55.3836 13.9968C55.5889 14.1845 55.8441 14.2784 56.1492 14.2784C56.4719 14.2784 56.7476 14.1552 56.9764 13.9088C57.2052 13.6624 57.3577 13.3016 57.434 12.8264L58.3932 12.8704C58.2876 13.5861 58.0383 14.1435 57.6452 14.5424C57.2521 14.9413 56.7535 15.1408 56.1492 15.1408ZM59.569 15V8.752H61.5138C62.1767 8.752 62.6959 8.9192 63.0714 9.2536C63.4527 9.588 63.6434 10.0427 63.6434 10.6176C63.6434 10.9168 63.5759 11.1808 63.441 11.4096C63.3119 11.6384 63.1388 11.8173 62.9218 11.9464C62.7106 12.0755 62.4847 12.1488 62.2442 12.1664L62.209 12.0608C62.6431 12.0784 62.9658 12.1781 63.177 12.36C63.394 12.536 63.5202 12.8235 63.5554 13.2224L63.7138 15H62.7898L62.649 13.3984C62.6314 13.1931 62.5874 13.0288 62.517 12.9056C62.4466 12.7824 62.338 12.6944 62.1914 12.6416C62.0447 12.5888 61.8423 12.5624 61.5842 12.5624H60.493V15H59.569ZM60.493 11.7H61.4962C61.8834 11.7 62.1796 11.6091 62.385 11.4272C62.5903 11.2453 62.693 10.9901 62.693 10.6616C62.693 10.3272 62.5903 10.072 62.385 9.896C62.1796 9.71413 61.8834 9.6232 61.4962 9.6232H60.493V11.7ZM65.1623 15V14.1288H66.6583V9.6232H65.1623V8.752H69.0695V9.6232H67.5735V14.1288H69.0695V15H65.1623ZM70.7293 15V8.752H72.6653C73.0994 8.752 73.4778 8.8312 73.8005 8.9896C74.129 9.148 74.3813 9.37387 74.5573 9.6672C74.7392 9.95467 74.8301 10.2979 74.8301 10.6968C74.8301 11.0957 74.7392 11.4419 74.5573 11.7352C74.3813 12.0227 74.129 12.2456 73.8005 12.404C73.4778 12.5565 73.0994 12.6328 72.6653 12.6328H71.6533V15H70.7293ZM71.6533 11.7616H72.5685C73.0144 11.7616 73.3429 11.6707 73.5541 11.4888C73.7653 11.3069 73.8709 11.0429 73.8709 10.6968C73.8709 10.3448 73.7653 10.0779 73.5541 9.896C73.3429 9.71413 73.0144 9.6232 72.5685 9.6232H71.6533V11.7616ZM77.6515 15V9.6232H75.8211V8.752H80.3971V9.6232H78.5667V15H77.6515Z" fill="#D4D4D4"/>
<defs>
<clipPath id="clip0_1_1537">
<rect width="11.2" height="11.2" fill="white" transform="translate(10 6)"/>
</clipPath>
</defs>
</svg>
