<svg width="74" height="23" viewBox="0 0 74 23" fill="none" xmlns="http://www.w3.org/2000/svg">
<rect width="74" height="23" rx="6" fill="#232323"/>
<g clip-path="url(#clip0_1_1517)">
<path d="M17.0247 9.64673C16.2841 9.64673 15.6837 10.2471 15.6837 10.9877C15.6837 11.7283 16.2841 12.3286 17.0247 12.3286C17.7653 12.3286 18.3656 11.7283 18.3656 10.9877C18.3656 10.2471 17.7653 9.64673 17.0247 9.64673Z" fill="#58C4DC"/>
<path d="M23.999 10.9998C23.999 9.94705 23.0241 9.02374 21.4719 8.4161C21.4927 8.27926 21.5114 8.14389 21.5248 8.011C21.6779 6.49833 21.3134 5.40655 20.499 4.93625C19.5878 4.41012 18.3008 4.79199 16.9995 5.83338C15.6982 4.79199 14.4112 4.41012 13.5 4.93625C12.6856 5.40655 12.3212 6.49833 12.4742 8.011C12.4876 8.14389 12.5059 8.27975 12.5271 8.41709C12.3977 8.46649 12.2708 8.51885 12.1488 8.57369C10.763 9.19664 10 10.0592 10 10.9998C10 12.0526 10.9749 12.9759 12.5271 13.5835C12.5059 13.7204 12.4876 13.8557 12.4742 13.9886C12.3212 15.5013 12.6856 16.5931 13.5 17.0634C13.78 17.2221 14.0973 17.3033 14.4191 17.2985C15.1905 17.2985 16.0913 16.8924 16.9995 16.1662C17.9072 16.8924 18.8085 17.2985 19.5809 17.2985C19.9027 17.3032 20.22 17.2221 20.5 17.0634C21.3144 16.5931 21.6788 15.5013 21.5258 13.9886C21.5124 13.8557 21.4937 13.7204 21.4729 13.5835C23.0251 12.9769 24 12.0521 24 10.9998M19.575 5.36802C19.7819 5.36303 19.9865 5.41315 20.1676 5.51326C20.7331 5.8398 20.9869 6.72557 20.8635 7.94332C20.8551 8.02632 20.8452 8.1103 20.8334 8.19478C20.1879 8.00035 19.527 7.86168 18.8579 7.7803C18.4523 7.24096 18.0012 6.73736 17.5097 6.27503C18.2816 5.67826 19.0061 5.36802 19.5745 5.36802M19.3093 12.3336C19.0595 12.7673 18.7875 13.1878 18.4944 13.5934C17.9976 13.6444 17.4985 13.6698 16.999 13.6695C16.4997 13.6698 16.0008 13.6444 15.5041 13.5934C15.2118 13.1878 14.9406 12.7673 14.6917 12.3336C14.4419 11.9012 14.2149 11.456 14.0116 10.9998C14.2149 10.5436 14.4419 10.0984 14.6917 9.66596C14.9402 9.23406 15.2105 8.81508 15.5016 8.41066C15.9992 8.35835 16.4992 8.33229 16.9995 8.33261C17.4988 8.33231 17.9978 8.3577 18.4944 8.40869C18.7865 8.81373 19.0578 9.23336 19.3073 9.66596C19.5569 10.0985 19.7839 10.5437 19.9874 10.9998C19.7839 11.4559 19.5569 11.9011 19.3073 12.3336M20.3271 11.8396C20.4839 12.2672 20.6126 12.7045 20.7124 13.1488C20.2793 13.2838 19.8378 13.3903 19.3908 13.4674C19.5607 13.2112 19.7253 12.9446 19.8846 12.6676C20.0422 12.3939 20.1899 12.1178 20.3291 11.8416M16.0617 14.3063C16.3688 14.325 16.6824 14.3359 17 14.3359C17.3176 14.3359 17.6331 14.325 17.9408 14.3063C17.6491 14.6558 17.3348 14.9858 17 15.2943C16.6659 14.9859 16.3525 14.6558 16.0617 14.3063ZM14.6087 13.4664C14.1616 13.3896 13.7199 13.2835 13.2867 13.1488C13.386 12.7052 13.5142 12.2685 13.6704 11.8416C13.8077 12.1178 13.9548 12.3939 14.1149 12.6676C14.2749 12.9413 14.4403 13.211 14.6087 13.4674M13.6704 10.1575C13.5148 9.73217 13.3869 9.29718 13.2876 8.85528C13.7198 8.72039 14.1603 8.61362 14.6063 8.53565C14.4374 8.79106 14.2719 9.05585 14.1124 9.332C13.9529 9.60816 13.8072 9.88086 13.6679 10.1575M17.9378 7.69286C17.6307 7.67409 17.3171 7.66322 16.997 7.66322C16.6796 7.66322 16.3669 7.6731 16.0587 7.69286C16.3495 7.3433 16.6629 7.01324 16.997 6.70483C17.332 7.01316 17.6463 7.34322 17.9378 7.69286ZM19.8837 9.332C19.7236 9.0547 19.5582 8.78793 19.3873 8.5317C19.8355 8.60885 20.2782 8.71546 20.7124 8.85083C20.6127 9.29437 20.4846 9.731 20.3286 10.158C20.1913 9.88184 20.0437 9.60569 19.8842 9.3325M13.1375 7.94382C13.0126 6.72656 13.2679 5.8403 13.8329 5.51375C14.0141 5.4138 14.2186 5.36369 14.4255 5.36851C14.9939 5.36851 15.7184 5.67875 16.4903 6.27553C15.9984 6.73818 15.5471 7.24211 15.1411 7.78178C14.4722 7.86355 13.8113 8.00171 13.1657 8.19478C13.1543 8.1103 13.1439 8.02681 13.136 7.94382M12.4224 9.18182C12.4984 9.14889 12.576 9.11595 12.655 9.08302C12.8103 9.73861 13.021 10.3798 13.2847 10.9998C13.0205 11.621 12.8097 12.2636 12.6545 12.9205C11.3961 12.4043 10.6667 11.689 10.6667 10.9998C10.6667 10.3467 11.3087 9.68424 12.4224 9.18182ZM13.8329 16.4859C13.2679 16.1593 13.0126 15.273 13.1375 14.0558C13.1454 13.9728 13.1558 13.8893 13.1671 13.8043C13.8126 13.9987 14.4735 14.1374 15.1426 14.2188C15.5483 14.7584 15.9994 15.2623 16.4908 15.7251C15.4147 16.5565 14.4314 16.8307 13.8343 16.4859M20.863 14.0558C20.9865 15.2735 20.7326 16.1593 20.1671 16.4859C19.5706 16.8317 18.5868 16.5565 17.5111 15.7251C18.0024 15.2623 18.4533 14.7583 18.8589 14.2188C19.528 14.1374 20.1889 13.9988 20.8343 13.8043C20.8462 13.8893 20.8561 13.9728 20.8645 14.0558M21.3475 12.9195C21.1919 12.263 20.9809 11.6207 20.7168 10.9998C20.9808 10.3785 21.1916 9.73598 21.347 9.07907C22.6029 9.59531 23.3343 10.3107 23.3343 10.9998C23.3343 11.689 22.6048 12.4043 21.3465 12.9205" fill="#58C4DC"/>
</g>
<path d="M30.737 15V7.19H33.168C33.9967 7.19 34.6457 7.399 35.115 7.817C35.5917 8.235 35.83 8.80333 35.83 9.522C35.83 9.896 35.7457 10.226 35.577 10.512C35.4157 10.798 35.1993 11.0217 34.928 11.183C34.664 11.3443 34.3817 11.436 34.081 11.458L34.037 11.326C34.5797 11.348 34.983 11.4727 35.247 11.7C35.5183 11.92 35.676 12.2793 35.72 12.778L35.918 15H34.763L34.587 12.998C34.565 12.7413 34.51 12.536 34.422 12.382C34.334 12.228 34.1983 12.118 34.015 12.052C33.8317 11.986 33.5787 11.953 33.256 11.953H31.892V15H30.737ZM31.892 10.875H33.146C33.63 10.875 34.0003 10.7613 34.257 10.534C34.5137 10.3067 34.642 9.98767 34.642 9.577C34.642 9.159 34.5137 8.84 34.257 8.62C34.0003 8.39267 33.63 8.279 33.146 8.279H31.892V10.875ZM37.8387 15V7.19H42.6347V8.279H38.9937V10.556H42.5027V11.612H38.9937V13.911H42.7227V15H37.8387ZM44.0054 15L46.2934 7.19H47.7894L50.0774 15H48.8784L47.0414 8.389L45.2044 15H44.0054ZM45.2814 12.965L45.6334 11.898H48.4494L48.8014 12.965H45.2814ZM53.9451 15.176C53.3144 15.176 52.7791 15.011 52.3391 14.681C51.9064 14.351 51.5764 13.8817 51.3491 13.273C51.1218 12.6643 51.0081 11.942 51.0081 11.106C51.0081 10.2627 51.1218 9.53667 51.3491 8.928C51.5764 8.31933 51.9064 7.85 52.3391 7.52C52.7791 7.18267 53.3144 7.014 53.9451 7.014C54.6564 7.014 55.2541 7.24867 55.7381 7.718C56.2294 8.18733 56.5521 8.84367 56.7061 9.687L55.4961 9.753C55.3861 9.21033 55.1918 8.79967 54.9131 8.521C54.6418 8.235 54.3191 8.092 53.9451 8.092C53.5638 8.092 53.2448 8.20933 52.9881 8.444C52.7314 8.67867 52.5371 9.01967 52.4051 9.467C52.2731 9.91433 52.2071 10.4607 52.2071 11.106C52.2071 11.744 52.2731 12.2867 52.4051 12.734C52.5371 13.174 52.7314 13.5113 52.9881 13.746C53.2448 13.9807 53.5638 14.098 53.9451 14.098C54.3484 14.098 54.6931 13.944 54.9791 13.636C55.2651 13.328 55.4558 12.877 55.5511 12.283L56.7501 12.338C56.6181 13.2327 56.3064 13.9293 55.8151 14.428C55.3238 14.9267 54.7004 15.176 53.9451 15.176ZM60.2108 15V8.279H57.9228V7.19H63.6428V8.279H61.3548V15H60.2108Z" fill="#D4D4D4"/>
<defs>
<clipPath id="clip0_1_1517">
<rect width="14" height="14" fill="white" transform="translate(10 4)"/>
</clipPath>
</defs>
</svg>
