<svg width="63" height="21" viewBox="0 0 63 21" fill="none" xmlns="http://www.w3.org/2000/svg">
<g filter="url(#filter0_ii_306_356)">
<rect width="62.3988" height="20.8954" rx="6.97095" fill="#171717"/>
<g clip-path="url(#clip0_306_356)">
<path d="M21.2976 8.27322C21.2732 8.24729 21.2473 8.22137 21.2214 8.19697C21.1955 8.17257 21.1711 8.14512 21.1451 8.12073C21.1192 8.09633 21.0948 8.06888 21.0689 8.04448C21.043 8.02008 21.0186 7.99263 20.9926 7.96824C20.9667 7.94384 20.9423 7.91639 20.9164 7.89199C20.8905 7.86759 20.8661 7.84015 20.8402 7.81575C20.8142 7.79135 20.7898 7.7639 20.7639 7.7395C21.5203 8.48285 21.9536 9.49409 21.9701 10.5545C21.9701 13.0812 19.4052 15.1368 16.2517 15.1368C14.4859 15.1368 12.9061 14.4917 11.8555 13.4807L11.9317 13.557L12.008 13.6332L12.0842 13.7095L12.1604 13.7857L12.2367 13.862L12.3129 13.9382L12.3892 14.0145C13.4383 15.0682 15.0532 15.7467 16.8617 15.7467C20.0152 15.7467 22.5801 13.6912 22.5801 11.172C22.5801 10.0955 22.1165 9.07531 21.2976 8.27322Z" fill="black"/>
<path d="M21.5903 10.5545C21.5903 12.8739 19.2008 14.7541 16.2532 14.7541C13.3055 14.7541 10.916 12.8739 10.916 10.5545C10.916 9.11655 11.831 7.84631 13.2369 7.09301C14.6429 6.33971 15.5182 5.56812 16.2532 5.56812C16.9882 5.56812 17.6164 6.1979 19.2694 7.09301C20.6754 7.84631 21.5903 9.11655 21.5903 10.5545Z" fill="#FBF0DF"/>
<path d="M21.5876 10.5545C21.5869 10.2565 21.5458 9.96005 21.4656 9.6731C21.0493 14.751 14.8552 14.995 12.4199 13.4762C13.5146 14.3247 14.8656 14.7754 16.2505 14.7541C19.1935 14.7541 21.5876 12.8708 21.5876 10.5545Z" fill="#F6DECE"/>
<path d="M14.1991 6.81396C14.8807 6.40528 15.7865 5.63826 16.6771 5.63674C16.5401 5.59245 16.3971 5.56931 16.2532 5.56812C15.8841 5.56812 15.4907 5.75873 14.9951 6.04541C14.8228 6.14605 14.6444 6.25737 14.4553 6.37326C14.1 6.59285 13.6929 6.8414 13.2354 7.08996C11.7837 7.87528 10.916 9.16992 10.916 10.5545V10.736C11.8401 7.47119 13.519 7.22263 14.1991 6.81396Z" fill="#FFFEFC"/>
<path fill-rule="evenodd" clip-rule="evenodd" d="M15.8141 5.95389C15.8162 6.31395 15.7406 6.67023 15.5925 6.9984C15.4443 7.32657 15.2271 7.6189 14.9556 7.85543C14.9129 7.89355 14.9464 7.96675 15.0013 7.9454C15.5152 7.74564 16.209 7.14788 15.9163 5.94169C15.9041 5.87307 15.8141 5.89137 15.8141 5.95389ZM16.1602 5.95389C16.3468 6.25832 16.4654 6.5995 16.5078 6.95404C16.5501 7.30858 16.5153 7.66809 16.4058 8.00792C16.3875 8.06129 16.453 8.10704 16.4896 8.06282C16.8236 7.63585 17.1148 6.788 16.2426 5.87307C16.1984 5.83342 16.1298 5.89442 16.1602 5.94779V5.95389ZM16.5811 5.92796C16.8733 6.13482 17.1177 6.40194 17.2979 6.71129C17.4781 7.02064 17.5899 7.36503 17.6257 7.72124C17.6241 7.73408 17.6276 7.74701 17.6353 7.75737C17.6431 7.76773 17.6545 7.77471 17.6672 7.77687C17.68 7.77902 17.6931 7.77619 17.7038 7.76896C17.7145 7.76172 17.722 7.75064 17.7248 7.73801C17.8651 7.20583 17.7858 6.29851 16.6314 5.82732C16.5704 5.80292 16.5308 5.88527 16.5811 5.92186V5.92796ZM13.7662 7.51385C14.1137 7.41002 14.4355 7.23415 14.7106 6.99769C14.9857 6.76123 15.2079 6.46948 15.3627 6.14145C15.3902 6.08655 15.4771 6.1079 15.4634 6.1689C15.1996 7.38881 14.3167 7.64347 13.7677 7.60992C13.7097 7.61145 13.7113 7.53063 13.7662 7.51385Z" fill="#CCBEA7"/>
<path d="M16.2535 15.1368C13.1 15.1368 10.5352 13.0813 10.5352 10.5545C10.5352 9.02963 11.4775 7.6069 13.0558 6.75448C13.5133 6.5105 13.9052 6.26499 14.2544 6.04998C14.4465 5.93104 14.628 5.81972 14.8033 5.71603C15.3386 5.39885 15.796 5.18689 16.2535 5.18689C16.711 5.18689 17.1105 5.36988 17.6107 5.66571C17.7632 5.75263 17.9157 5.84717 18.0788 5.95086C18.4585 6.1857 18.887 6.45103 19.4512 6.75448C21.0295 7.6069 21.9719 9.0281 21.9719 10.5545C21.9719 13.0813 19.407 15.1368 16.2535 15.1368ZM16.2535 5.56811C15.8845 5.56811 15.4911 5.75873 14.9955 6.04541C14.8232 6.14605 14.6448 6.25737 14.4557 6.37326C14.1004 6.59284 13.6932 6.8414 13.2357 7.08996C11.784 7.87528 10.9164 9.16992 10.9164 10.5545C10.9164 12.8708 13.3105 14.7556 16.2535 14.7556C19.1966 14.7556 21.5907 12.8708 21.5907 10.5545C21.5907 9.16992 20.723 7.87528 19.2698 7.09301C18.6934 6.78803 18.2435 6.50135 17.8791 6.27567C17.7128 6.1735 17.5604 6.07895 17.4216 5.99508C16.9595 5.7206 16.6225 5.56811 16.2535 5.56811Z" fill="black"/>
<path d="M17.3261 11.6676C17.2576 11.9482 17.1016 12.1997 16.8808 12.3859C16.715 12.5466 16.5004 12.6475 16.2708 12.6726C16.0344 12.6514 15.8123 12.5503 15.6411 12.3859C15.4225 12.1989 15.2687 11.9474 15.2019 11.6676C15.1997 11.651 15.2013 11.6341 15.2066 11.6182C15.2119 11.6024 15.2208 11.5879 15.2326 11.576C15.2444 11.5641 15.2587 11.555 15.2745 11.5495C15.2904 11.5439 15.3072 11.5421 15.3239 11.5441H17.2056C17.2221 11.5424 17.2388 11.5444 17.2545 11.55C17.2701 11.5556 17.2842 11.5648 17.2958 11.5766C17.3074 11.5885 17.3162 11.6029 17.3214 11.6187C17.3266 11.6344 17.3282 11.6512 17.3261 11.6676Z" fill="#B71422"/>
<path d="M15.6393 12.3981C15.8101 12.5626 16.0315 12.6647 16.2675 12.6878C16.5031 12.6644 16.7238 12.5623 16.8943 12.3981C16.9488 12.3473 16.9997 12.2928 17.0468 12.2349C16.9528 12.1284 16.8381 12.0421 16.7096 11.9816C16.5811 11.921 16.4415 11.8873 16.2996 11.8827C16.1476 11.8863 15.9989 11.9268 15.866 12.0006C15.7332 12.0744 15.6203 12.1795 15.5371 12.3066C15.5722 12.3386 15.6027 12.3691 15.6393 12.3981Z" fill="#FF6164"/>
<path d="M15.6651 12.2777C15.7407 12.18 15.8375 12.1007 15.9482 12.0457C16.0589 11.9908 16.1805 11.9617 16.3041 11.9605C16.5324 11.9673 16.75 12.0592 16.914 12.2182C16.9491 12.1801 16.9827 12.1405 17.0147 12.1008C16.8207 11.9161 16.5643 11.811 16.2965 11.8065C16.1533 11.8078 16.0122 11.8407 15.8833 11.9029C15.7544 11.9651 15.6408 12.0551 15.5508 12.1664C15.5868 12.2056 15.625 12.2427 15.6651 12.2777Z" fill="black"/>
<path d="M16.2655 12.7642C16.0114 12.7419 15.7723 12.6344 15.5869 12.4592C15.3509 12.2595 15.1847 11.9897 15.1127 11.6891C15.1075 11.6623 15.1084 11.6348 15.1153 11.6084C15.1221 11.582 15.1348 11.5575 15.1523 11.5366C15.1732 11.5114 15.1996 11.4913 15.2295 11.4778C15.2594 11.4643 15.2919 11.4578 15.3247 11.4588H17.2064C17.2391 11.4582 17.2715 11.4648 17.3013 11.4782C17.3311 11.4917 17.3576 11.5116 17.3787 11.5366C17.3961 11.5575 17.4085 11.5821 17.4151 11.6085C17.4217 11.6349 17.4223 11.6625 17.4168 11.6891C17.3448 11.9897 17.1786 12.2595 16.9426 12.4592C16.7576 12.6341 16.5191 12.7416 16.2655 12.7642ZM15.3247 11.6357C15.3003 11.6357 15.2942 11.6464 15.2926 11.6495C15.3571 11.9102 15.5029 12.1436 15.7089 12.3158C15.8596 12.4643 16.0555 12.5582 16.2655 12.5827C16.475 12.5585 16.6707 12.4657 16.8221 12.3189C17.0275 12.1463 17.1727 11.913 17.2369 11.6525C17.2335 11.6476 17.2289 11.6438 17.2236 11.6413C17.2182 11.6389 17.2122 11.638 17.2064 11.6388L15.3247 11.6357Z" fill="black"/>
<path d="M18.5718 11.7621C19.0644 11.7621 19.4638 11.5273 19.4638 11.2376C19.4638 10.9479 19.0644 10.713 18.5718 10.713C18.0791 10.713 17.6797 10.9479 17.6797 11.2376C17.6797 11.5273 18.0791 11.7621 18.5718 11.7621Z" fill="#FEBBD0"/>
<path d="M13.9546 11.7621C14.4472 11.7621 14.8466 11.5273 14.8466 11.2376C14.8466 10.9479 14.4472 10.713 13.9546 10.713C13.4619 10.713 13.0625 10.9479 13.0625 11.2376C13.0625 11.5273 13.4619 11.7621 13.9546 11.7621Z" fill="#FEBBD0"/>
<path fill-rule="evenodd" clip-rule="evenodd" d="M14.3758 11.0271C14.542 11.0274 14.7046 10.9784 14.843 10.8863C14.9814 10.7941 15.0893 10.663 15.1531 10.5095C15.217 10.356 15.2338 10.187 15.2016 10.0239C15.1693 9.86083 15.0894 9.71097 14.972 9.59331C14.8545 9.47565 14.7048 9.39548 14.5418 9.36294C14.3788 9.33039 14.2098 9.34694 14.0561 9.41049C13.9025 9.47404 13.7712 9.58173 13.6788 9.71994C13.5864 9.85814 13.5371 10.0207 13.5371 10.1869C13.5371 10.4095 13.6254 10.623 13.7827 10.7805C13.9399 10.938 14.1532 11.0267 14.3758 11.0271ZM18.153 11.0271C18.3194 11.0283 18.4824 10.9801 18.6214 10.8885C18.7604 10.7969 18.869 10.6661 18.9336 10.5127C18.9981 10.3593 19.0156 10.1901 18.9839 10.0267C18.9522 9.86336 18.8726 9.71308 18.7554 9.59496C18.6381 9.47685 18.4884 9.39621 18.3252 9.3633C18.1621 9.33038 17.9928 9.34666 17.839 9.41007C17.6851 9.47348 17.5535 9.58117 17.4609 9.71947C17.3683 9.85777 17.3189 10.0205 17.3189 10.1869C17.3184 10.4088 17.406 10.6218 17.5623 10.7793C17.7187 10.9368 17.9311 11.0259 18.153 11.0271Z" fill="black"/>
<path fill-rule="evenodd" clip-rule="evenodd" d="M14.1169 10.2403C14.1794 10.2406 14.2405 10.2224 14.2926 10.1879C14.3448 10.1534 14.3854 10.1042 14.4096 10.0465C14.4337 9.98886 14.4402 9.92535 14.4282 9.86402C14.4162 9.80269 14.3862 9.7463 14.3421 9.702C14.298 9.65771 14.2418 9.62749 14.1805 9.61519C14.1193 9.60288 14.0557 9.60904 13.9979 9.63289C13.9402 9.65674 13.8908 9.69719 13.856 9.74913C13.8213 9.80108 13.8027 9.86216 13.8027 9.92466C13.8027 10.0081 13.8358 10.0882 13.8946 10.1473C13.9535 10.2065 14.0334 10.2399 14.1169 10.2403ZM17.894 10.2403C17.9565 10.2406 18.0177 10.2224 18.0698 10.1879C18.1219 10.1534 18.1626 10.1042 18.1867 10.0465C18.2109 9.98886 18.2173 9.92535 18.2053 9.86402C18.1933 9.80269 18.1634 9.7463 18.1193 9.702C18.0752 9.65771 18.019 9.62749 17.9577 9.61519C17.8964 9.60288 17.8329 9.60904 17.7751 9.63289C17.7173 9.65674 17.668 9.69719 17.6332 9.74913C17.5985 9.80108 17.5799 9.86216 17.5799 9.92466C17.5799 10.0076 17.6125 10.0872 17.6707 10.1463C17.7289 10.2053 17.8081 10.2391 17.891 10.2403H17.894Z" fill="white"/>
</g>
<path d="M34.0524 14.4855V7.06141H36.1437C36.9593 7.06141 37.5727 7.24265 37.984 7.60514C38.4023 7.96763 38.6114 8.46257 38.6114 9.08995C38.6114 9.39668 38.5382 9.67203 38.3918 9.91601C38.2454 10.16 38.0398 10.3517 37.7749 10.4911C37.51 10.6305 37.2033 10.7002 36.8547 10.7002V10.6375C37.2869 10.6375 37.6564 10.7107 37.9631 10.8571C38.2768 11.0035 38.5138 11.2091 38.6741 11.474C38.8415 11.7389 38.9251 12.0526 38.9251 12.4151C38.9251 13.0564 38.702 13.5618 38.2559 13.9313C37.8098 14.3007 37.1928 14.4855 36.4051 14.4855H34.0524ZM34.9517 13.6071H36.4156C36.9523 13.6071 37.3462 13.5026 37.5971 13.2934C37.8551 13.0843 37.984 12.7915 37.984 12.4151C37.984 12.0178 37.8516 11.7075 37.5867 11.4845C37.3218 11.2614 36.9314 11.1499 36.4156 11.1499H34.9517V13.6071ZM34.9517 10.2715H36.1855C36.7014 10.2715 37.0778 10.1705 37.3148 9.9683C37.5518 9.76614 37.6703 9.48033 37.6703 9.11087C37.6703 8.73444 37.5518 8.44514 37.3148 8.24298C37.0778 8.04083 36.7014 7.93975 36.1855 7.93975H34.9517V10.2715ZM42.1311 14.611C41.5804 14.611 41.1413 14.4262 40.8136 14.0568C40.486 13.6803 40.3222 13.1645 40.3222 12.5092V8.94356H41.2005V12.2687C41.2005 12.8055 41.2946 13.2028 41.4828 13.4607C41.678 13.7117 41.9743 13.8372 42.3716 13.8372C42.8038 13.8372 43.1454 13.6978 43.3964 13.4189C43.6473 13.1331 43.7728 12.7427 43.7728 12.2478V8.94356H44.6511V14.4855H43.8146V13.1157L43.9506 13.1889C43.839 13.642 43.6264 13.994 43.3127 14.245C42.999 14.489 42.6052 14.611 42.1311 14.611ZM46.5292 14.4855V8.94356H47.3344L47.3657 10.3552L47.2612 10.2611C47.3309 9.93344 47.4564 9.66506 47.6376 9.45593C47.8258 9.23983 48.0489 9.0795 48.3068 8.97493C48.5647 8.87037 48.8366 8.81809 49.1224 8.81809C49.5476 8.81809 49.8997 8.9122 50.1785 9.10041C50.4643 9.28863 50.6804 9.54307 50.8268 9.86373C50.9732 10.1774 51.0464 10.5295 51.0464 10.9198V14.4855H50.1681V11.1708C50.1681 10.6549 50.067 10.2646 49.8648 9.99966C49.6627 9.7278 49.3525 9.59186 48.9342 9.59186C48.6484 9.59186 48.3905 9.6546 48.1604 9.78008C47.9304 9.89859 47.7456 10.0763 47.6062 10.3134C47.4738 10.5434 47.4076 10.8292 47.4076 11.1708V14.4855H46.5292Z" fill="#D4D4D4"/>
</g>
<defs>
<filter id="filter0_ii_306_356" x="0" y="0" width="62.3987" height="20.8954" filterUnits="userSpaceOnUse" color-interpolation-filters="sRGB">
<feFlood flood-opacity="0" result="BackgroundImageFix"/>
<feBlend mode="normal" in="SourceGraphic" in2="BackgroundImageFix" result="shape"/>
<feColorMatrix in="SourceAlpha" type="matrix" values="0 0 0 0 0 0 0 0 0 0 0 0 0 0 0 0 0 0 127 0" result="hardAlpha"/>
<feMorphology radius="0.871369" operator="erode" in="SourceAlpha" result="effect1_innerShadow_306_356"/>
<feOffset/>
<feComposite in2="hardAlpha" operator="arithmetic" k2="-1" k3="1"/>
<feColorMatrix type="matrix" values="0 0 0 0 1 0 0 0 0 1 0 0 0 0 1 0 0 0 0.06 0"/>
<feBlend mode="normal" in2="shape" result="effect1_innerShadow_306_356"/>
<feColorMatrix in="SourceAlpha" type="matrix" values="0 0 0 0 0 0 0 0 0 0 0 0 0 0 0 0 0 0 127 0" result="hardAlpha"/>
<feOffset dy="0.871369"/>
<feComposite in2="hardAlpha" operator="arithmetic" k2="-1" k3="1"/>
<feColorMatrix type="matrix" values="0 0 0 0 1 0 0 0 0 1 0 0 0 0 1 0 0 0 0.1 0"/>
<feBlend mode="normal" in2="effect1_innerShadow_306_356" result="effect2_innerShadow_306_356"/>
</filter>
<clipPath id="clip0_306_356">
<rect width="12.1992" height="12.1992" fill="white" transform="translate(10.4551 4.34814)"/>
</clipPath>
</defs>
</svg>
