<svg width="88" height="21" viewBox="0 0 88 21" fill="none" xmlns="http://www.w3.org/2000/svg">
<g filter="url(#filter0_ii_306_345)">
<rect width="87.4942" height="20.8954" rx="6.97095" fill="#171717"/>
<g clip-path="url(#clip0_306_345)">
<path d="M16.5564 16.3351C19.8128 16.3351 22.4527 13.6953 22.4527 10.4389C22.4527 7.18245 19.8128 4.5426 16.5564 4.5426C13.3 4.5426 10.6602 7.18245 10.6602 10.4389C10.6602 13.6953 13.3 16.3351 16.5564 16.3351Z" fill="black" stroke="white" stroke-width="0.406639"/>
<path d="M20.5881 15.0149L15.1415 7.99902H14.1152V12.8767H14.9362V9.04162L19.9437 15.5113C20.1696 15.3601 20.3849 15.1942 20.5881 15.0149Z" fill="white"/>
<path d="M19.0635 7.99908H18.2502V12.8788H19.0635V7.99908Z" fill="white"/>
</g>
<path d="M33.843 14.4854V7.06135H35.1187L37.7537 13.4607V7.06135H38.653V14.4854H37.3773L34.7423 8.08608V14.4854H33.843ZM42.6119 14.6109C42.0891 14.6109 41.636 14.4924 41.2526 14.2554C40.8761 14.0184 40.5833 13.6838 40.3742 13.2516C40.1721 12.8124 40.071 12.3 40.071 11.7145C40.071 11.1289 40.1721 10.62 40.3742 10.1878C40.5833 9.75562 40.8726 9.42101 41.2421 9.184C41.6185 8.94002 42.0612 8.81803 42.5701 8.81803C43.0511 8.81803 43.4763 8.93305 43.8458 9.16309C44.2152 9.38616 44.5045 9.71379 44.7136 10.146C44.9228 10.5782 45.0273 11.1045 45.0273 11.7249V11.9863H40.9911C41.026 12.5789 41.1829 13.025 41.4617 13.3247C41.7475 13.6245 42.1309 13.7744 42.6119 13.7744C42.9744 13.7744 43.2707 13.6907 43.5007 13.5234C43.7377 13.3491 43.9015 13.1226 43.9921 12.8438L44.9332 12.9169C44.7868 13.4119 44.508 13.8197 44.0967 14.1404C43.6924 14.454 43.1975 14.6109 42.6119 14.6109ZM40.9911 11.2125H44.0653C44.0235 10.6758 43.8667 10.2819 43.5948 10.031C43.3229 9.78002 42.9814 9.65454 42.5701 9.65454C42.1448 9.65454 41.7928 9.78699 41.514 10.0519C41.2421 10.3098 41.0678 10.6967 40.9911 11.2125ZM46.2153 14.4854L48.2543 11.6413L46.3198 8.9435H47.3446L48.798 11.0348L50.2201 8.9435H51.2657L49.3418 11.6622L51.3598 14.4854H50.3351L48.798 12.2477L47.2609 14.4854H46.2153ZM55.8729 14.4854C55.3362 14.4854 54.9353 14.3599 54.6704 14.109C54.4056 13.858 54.2731 13.4746 54.2731 12.9588V7.64691H55.1514V12.9588C55.1514 13.2167 55.2107 13.4084 55.3292 13.5339C55.4477 13.6524 55.629 13.7116 55.8729 13.7116H57.3578V14.4854H55.8729ZM52.4432 9.71728V8.9435H57.3578V9.71728H52.4432ZM60.6788 14.4854V13.2097H61.9754V14.4854H60.6788ZM65.6102 16.0539V15.2801H67.3668C67.6387 15.2801 67.8409 15.2208 67.9733 15.1023C68.1127 14.9838 68.1824 14.7573 68.1824 14.4227V8.9435H69.0608V14.4854C69.0608 14.9943 68.9353 15.3812 68.6844 15.6461C68.4334 15.9179 68.0291 16.0539 67.4714 16.0539H65.6102ZM65.7147 9.71728V8.9435H68.6844V9.71728H65.7147ZM68.1302 8.07562V7.05089H69.0503V8.07562H68.1302ZM73.9712 14.6109C73.4902 14.6109 73.0755 14.5272 72.7269 14.3599C72.3784 14.1926 72.103 13.9696 71.9008 13.6907C71.7057 13.4049 71.5941 13.0877 71.5662 12.7392L72.4864 12.6764C72.5422 13.018 72.6921 13.2864 72.936 13.4816C73.187 13.6768 73.5321 13.7744 73.9712 13.7744C74.3825 13.7744 74.6997 13.7151 74.9228 13.5966C75.1528 13.4781 75.2678 13.2934 75.2678 13.0424C75.2678 12.8821 75.2295 12.7496 75.1528 12.6451C75.0761 12.5405 74.9332 12.4534 74.7241 12.3837C74.515 12.307 74.2082 12.2338 73.8039 12.1641C73.2672 12.0665 72.8454 11.948 72.5387 11.8086C72.2389 11.6622 72.0263 11.4809 71.9008 11.2648C71.7754 11.0487 71.7126 10.7908 71.7126 10.4911C71.7126 10.1704 71.7928 9.88458 71.9531 9.63363C72.1135 9.38267 72.3505 9.184 72.6642 9.03761C72.9779 8.89122 73.3613 8.81803 73.8144 8.81803C74.2745 8.81803 74.6579 8.90168 74.9646 9.06898C75.2783 9.22931 75.5257 9.44541 75.707 9.71728C75.8882 9.98218 76.0067 10.275 76.0625 10.5956L75.1423 10.6584C75.1005 10.4632 75.0204 10.2924 74.9018 10.146C74.7903 9.99263 74.6404 9.87413 74.4522 9.79047C74.271 9.69985 74.0549 9.65454 73.8039 9.65454C73.3996 9.65454 73.0999 9.73471 72.9047 9.89504C72.7095 10.0554 72.6119 10.254 72.6119 10.4911C72.6119 10.6793 72.6572 10.8291 72.7478 10.9407C72.8384 11.0522 72.9848 11.1428 73.187 11.2125C73.3891 11.2753 73.6575 11.3345 73.9921 11.3903C74.5638 11.4809 75.0064 11.5994 75.3201 11.7458C75.6338 11.8852 75.8534 12.0595 75.9789 12.2686C76.1043 12.4778 76.1671 12.7357 76.1671 13.0424C76.1671 13.3701 76.0695 13.6524 75.8743 13.8894C75.6861 14.1194 75.4247 14.2972 75.0901 14.4227C74.7624 14.5482 74.3895 14.6109 73.9712 14.6109Z" fill="#D4D4D4"/>
</g>
<defs>
<filter id="filter0_ii_306_345" x="0" y="0" width="87.4941" height="20.8954" filterUnits="userSpaceOnUse" color-interpolation-filters="sRGB">
<feFlood flood-opacity="0" result="BackgroundImageFix"/>
<feBlend mode="normal" in="SourceGraphic" in2="BackgroundImageFix" result="shape"/>
<feColorMatrix in="SourceAlpha" type="matrix" values="0 0 0 0 0 0 0 0 0 0 0 0 0 0 0 0 0 0 127 0" result="hardAlpha"/>
<feMorphology radius="0.871369" operator="erode" in="SourceAlpha" result="effect1_innerShadow_306_345"/>
<feOffset/>
<feComposite in2="hardAlpha" operator="arithmetic" k2="-1" k3="1"/>
<feColorMatrix type="matrix" values="0 0 0 0 1 0 0 0 0 1 0 0 0 0 1 0 0 0 0.06 0"/>
<feBlend mode="normal" in2="shape" result="effect1_innerShadow_306_345"/>
<feColorMatrix in="SourceAlpha" type="matrix" values="0 0 0 0 0 0 0 0 0 0 0 0 0 0 0 0 0 0 127 0" result="hardAlpha"/>
<feOffset dy="0.871369"/>
<feComposite in2="hardAlpha" operator="arithmetic" k2="-1" k3="1"/>
<feColorMatrix type="matrix" values="0 0 0 0 1 0 0 0 0 1 0 0 0 0 1 0 0 0 0.1 0"/>
<feBlend mode="normal" in2="effect1_innerShadow_306_345" result="effect2_innerShadow_306_345"/>
</filter>
<clipPath id="clip0_306_345">
<rect width="12.1992" height="12.1992" fill="white" transform="translate(10.4551 4.33936)"/>
</clipPath>
</defs>
</svg>
