<svg width="69" height="21" viewBox="0 0 69 21" fill="none" xmlns="http://www.w3.org/2000/svg">
<g filter="url(#filter0_ii_306_355)">
<rect width="68.6726" height="20.8954" rx="6.97095" fill="#171717"/>
<g clip-path="url(#clip0_306_355)">
<path d="M22.4342 8.14193H18.7151V4.42285H22.4342V8.14193Z" fill="#F9AD00"/>
<path d="M18.3424 8.14193H14.6233V4.42285H18.3424V8.14193Z" fill="#F9AD00"/>
<path d="M14.2506 8.14193H10.5315V4.42285H14.2506V8.14193Z" fill="#F9AD00"/>
<path d="M22.4342 12.2329H18.7151V8.51379H22.4342V12.2329Z" fill="#F9AD00"/>
<path d="M18.3424 12.233H14.6233V8.51392H18.3424V12.233Z" fill="#D4D4D4"/>
<path d="M18.3424 16.3239H14.6233V12.6049H18.3424V16.3239Z" fill="#D4D4D4"/>
<path d="M22.4342 16.3238H18.7151V12.6047H22.4342V16.3238Z" fill="#D4D4D4"/>
<path d="M14.2506 16.3239H10.5315V12.6049H14.2506V16.3239Z" fill="#D4D4D4"/>
</g>
<path d="M33.9498 16.0539V8.94356H34.7654L34.7863 10.1983L34.6608 10.1356C34.8003 9.7034 35.0303 9.37576 35.351 9.15269C35.6786 8.92962 36.055 8.81809 36.4803 8.81809C37.031 8.81809 37.4806 8.95402 37.8291 9.22589C38.1847 9.49776 38.4461 9.85327 38.6134 10.2924C38.7807 10.7316 38.8643 11.2056 38.8643 11.7145C38.8643 12.2234 38.7807 12.6974 38.6134 13.1366C38.4461 13.5758 38.1847 13.9313 37.8291 14.2031C37.4806 14.475 37.031 14.611 36.4803 14.611C36.1944 14.611 35.9261 14.5622 35.6751 14.4646C35.4311 14.367 35.222 14.231 35.0477 14.0568C34.8804 13.8825 34.7654 13.6768 34.7027 13.4398L34.8281 13.2934V16.0539H33.9498ZM36.3966 13.7744C36.8776 13.7744 37.254 13.5932 37.5259 13.2307C37.8047 12.8682 37.9442 12.3628 37.9442 11.7145C37.9442 11.0662 37.8047 10.5608 37.5259 10.1983C37.254 9.83585 36.8776 9.6546 36.3966 9.6546C36.0759 9.6546 35.7971 9.73128 35.5601 9.88464C35.33 10.038 35.1488 10.268 35.0164 10.5748C34.8909 10.8815 34.8281 11.2614 34.8281 11.7145C34.8281 12.1676 34.8909 12.5475 35.0164 12.8543C35.1418 13.161 35.3231 13.391 35.5601 13.5444C35.7971 13.6978 36.0759 13.7744 36.3966 13.7744ZM40.2614 14.4855V8.94356H41.0665L41.0979 10.3552L40.9933 10.2611C41.0631 9.93344 41.1885 9.66506 41.3698 9.45593C41.558 9.23983 41.7811 9.0795 42.039 8.97493C42.2969 8.87037 42.5688 8.81809 42.8546 8.81809C43.2798 8.81809 43.6319 8.9122 43.9107 9.10041C44.1965 9.28863 44.4126 9.54307 44.559 9.86373C44.7054 10.1774 44.7786 10.5295 44.7786 10.9198V14.4855H43.9002V11.1708C43.9002 10.6549 43.7992 10.2646 43.597 9.99966C43.3948 9.7278 43.0846 9.59186 42.6664 9.59186C42.3806 9.59186 42.1226 9.6546 41.8926 9.78008C41.6626 9.89859 41.4778 10.0763 41.3384 10.3134C41.206 10.5434 41.1397 10.8292 41.1397 11.1708V14.4855H40.2614ZM46.4893 16.0539V8.94356H47.3049L47.3259 10.1983L47.2004 10.1356C47.3398 9.7034 47.5698 9.37576 47.8905 9.15269C48.2181 8.92962 48.5946 8.81809 49.0198 8.81809C49.5705 8.81809 50.0201 8.95402 50.3687 9.22589C50.7242 9.49776 50.9856 9.85327 51.1529 10.2924C51.3202 10.7316 51.4039 11.2056 51.4039 11.7145C51.4039 12.2234 51.3202 12.6974 51.1529 13.1366C50.9856 13.5758 50.7242 13.9313 50.3687 14.2031C50.0201 14.475 49.5705 14.611 49.0198 14.611C48.734 14.611 48.4656 14.5622 48.2147 14.4646C47.9707 14.367 47.7615 14.231 47.5873 14.0568C47.42 13.8825 47.3049 13.6768 47.2422 13.4398L47.3677 13.2934V16.0539H46.4893ZM48.9361 13.7744C49.4171 13.7744 49.7936 13.5932 50.0654 13.2307C50.3443 12.8682 50.4837 12.3628 50.4837 11.7145C50.4837 11.0662 50.3443 10.5608 50.0654 10.1983C49.7936 9.83585 49.4171 9.6546 48.9361 9.6546C48.6155 9.6546 48.3366 9.73128 48.0996 9.88464C47.8696 10.038 47.6883 10.268 47.5559 10.5748C47.4304 10.8815 47.3677 11.2614 47.3677 11.7145C47.3677 12.1676 47.4304 12.5475 47.5559 12.8543C47.6814 13.161 47.8626 13.391 48.0996 13.5444C48.3366 13.6978 48.6155 13.7744 48.9361 13.7744ZM52.3409 14.4855V8.94356H53.146L53.1774 10.1774L53.0728 10.1565C53.1355 9.74522 53.268 9.42108 53.4702 9.18406C53.6793 8.94008 53.9442 8.81809 54.2648 8.81809C54.5925 8.81809 54.8434 8.93659 55.0177 9.17361C55.199 9.41062 55.3105 9.75917 55.3523 10.2192H55.2477C55.3105 9.78705 55.4499 9.44547 55.666 9.19452C55.8891 8.94356 56.1679 8.81809 56.5025 8.81809C56.9487 8.81809 57.2728 8.97145 57.475 9.27817C57.6771 9.58489 57.7782 10.0938 57.7782 10.8048V14.4855H56.8999V10.9303C56.8999 10.4353 56.8476 10.0903 56.743 9.8951C56.6385 9.69294 56.4746 9.59186 56.2516 9.59186C56.1052 9.59186 55.9762 9.64066 55.8647 9.73825C55.7531 9.82888 55.6625 9.97527 55.5928 10.1774C55.5301 10.3796 55.4987 10.6375 55.4987 10.9512V14.4855H54.6204V10.9303C54.6204 10.4563 54.5681 10.1147 54.4635 9.90556C54.3659 9.69643 54.2021 9.59186 53.9721 9.59186C53.8257 9.59186 53.6967 9.64066 53.5852 9.73825C53.4736 9.82888 53.383 9.97527 53.3133 10.1774C53.2506 10.3796 53.2192 10.6375 53.2192 10.9512V14.4855H52.3409Z" fill="#D4D4D4"/>
</g>
<defs>
<filter id="filter0_ii_306_355" x="0" y="0" width="68.6726" height="20.8954" filterUnits="userSpaceOnUse" color-interpolation-filters="sRGB">
<feFlood flood-opacity="0" result="BackgroundImageFix"/>
<feBlend mode="normal" in="SourceGraphic" in2="BackgroundImageFix" result="shape"/>
<feColorMatrix in="SourceAlpha" type="matrix" values="0 0 0 0 0 0 0 0 0 0 0 0 0 0 0 0 0 0 127 0" result="hardAlpha"/>
<feMorphology radius="0.871369" operator="erode" in="SourceAlpha" result="effect1_innerShadow_306_355"/>
<feOffset/>
<feComposite in2="hardAlpha" operator="arithmetic" k2="-1" k3="1"/>
<feColorMatrix type="matrix" values="0 0 0 0 1 0 0 0 0 1 0 0 0 0 1 0 0 0 0.06 0"/>
<feBlend mode="normal" in2="shape" result="effect1_innerShadow_306_355"/>
<feColorMatrix in="SourceAlpha" type="matrix" values="0 0 0 0 0 0 0 0 0 0 0 0 0 0 0 0 0 0 127 0" result="hardAlpha"/>
<feOffset dy="0.871369"/>
<feComposite in2="hardAlpha" operator="arithmetic" k2="-1" k3="1"/>
<feColorMatrix type="matrix" values="0 0 0 0 1 0 0 0 0 1 0 0 0 0 1 0 0 0 0.1 0"/>
<feBlend mode="normal" in2="effect1_innerShadow_306_355" result="effect2_innerShadow_306_355"/>
</filter>
<clipPath id="clip0_306_355">
<rect width="12.1992" height="12.1992" fill="white" transform="translate(10.4573 4.34814)"/>
</clipPath>
</defs>
</svg>
