<svg width="82" height="21" viewBox="0 0 82 21" fill="none" xmlns="http://www.w3.org/2000/svg">
<g filter="url(#filter0_ii_306_353)">
<rect width="81.2116" height="20.8954" rx="6.97095" fill="#171717"/>
<g clip-path="url(#clip0_306_353)">
<path fill-rule="evenodd" clip-rule="evenodd" d="M16.5566 4.33948C13.1866 4.33948 10.457 7.06904 10.457 10.4391C10.457 13.1381 12.203 15.4178 14.6276 16.226C14.9326 16.2794 15.047 16.0964 15.047 15.9363C15.047 15.7914 15.0393 15.3111 15.0393 14.8003C13.5068 15.0824 13.1104 14.4267 12.9884 14.0836C12.9197 13.9082 12.6224 13.3669 12.3632 13.222C12.1497 13.1076 11.8447 12.8255 12.3555 12.8179C12.8359 12.8103 13.179 13.2601 13.2933 13.4431C13.8423 14.3657 14.7191 14.1064 15.0698 13.9463C15.1232 13.5499 15.2833 13.283 15.4587 13.1305C14.1015 12.978 12.6834 12.4519 12.6834 10.1188C12.6834 9.4555 12.9197 8.90654 13.3086 8.47957C13.2476 8.32708 13.0341 7.70187 13.3696 6.86318C13.3696 6.86318 13.8804 6.70307 15.047 7.48839C15.5349 7.35115 16.0534 7.28253 16.5719 7.28253C17.0903 7.28253 17.6088 7.35115 18.0968 7.48839C19.2633 6.69544 19.7741 6.86318 19.7741 6.86318C20.1096 7.70187 19.8961 8.32708 19.8351 8.47957C20.224 8.90654 20.4604 9.44788 20.4604 10.1188C20.4604 12.4595 19.0346 12.978 17.6774 13.1305C17.8985 13.3211 18.0891 13.6871 18.0891 14.2589C18.0891 15.0747 18.0815 15.7305 18.0815 15.9363C18.0815 16.0964 18.1959 16.287 18.5009 16.226C20.9102 15.4178 22.6562 13.1305 22.6562 10.4391C22.6562 7.06904 19.9266 4.33948 16.5566 4.33948Z" fill="#D4D4D4"/>
</g>
<path d="M36.2273 14.6528C35.7045 14.6528 35.2375 14.5099 34.8262 14.2241C34.4219 13.9313 34.1012 13.4991 33.8642 12.9275C33.6272 12.3489 33.5087 11.6344 33.5087 10.7839C33.5087 9.98224 33.6167 9.29211 33.8328 8.71352C34.0559 8.13493 34.3731 7.68879 34.7844 7.3751C35.1956 7.05444 35.6906 6.8941 36.2692 6.8941C36.7223 6.8941 37.1231 6.99518 37.4717 7.19734C37.8272 7.3995 38.1234 7.68182 38.3605 8.04431C38.5975 8.39983 38.7683 8.81112 38.8728 9.27817L37.9317 9.34091C37.8132 8.88083 37.6146 8.50439 37.3357 8.21161C37.0639 7.91883 36.7083 7.77244 36.2692 7.77244C35.8858 7.77244 35.5581 7.89095 35.2863 8.12796C35.0144 8.358 34.8053 8.69958 34.6589 9.15269C34.5195 9.59883 34.4498 10.1426 34.4498 10.7839C34.4498 11.4183 34.5229 11.9585 34.6693 12.4046C34.8157 12.8508 35.0249 13.1924 35.2967 13.4294C35.5756 13.6594 35.9137 13.7744 36.311 13.7744C36.6665 13.7744 36.9698 13.6838 37.2207 13.5026C37.4786 13.3144 37.6808 13.0564 37.8272 12.7288C37.9736 12.3942 38.0537 12.0143 38.0677 11.589H36.2901V10.7316H38.9042V14.4855H38.0677L38.0259 12.7288L38.2768 12.8124C38.1792 13.168 38.0433 13.4851 37.869 13.764C37.7017 14.0428 37.4821 14.2624 37.2102 14.4227C36.9454 14.5761 36.6177 14.6528 36.2273 14.6528ZM42.4448 14.4855V8.94356H43.3232V14.4855H42.4448ZM40.2176 14.4855V13.7117H45.2367V14.4855H40.2176ZM40.3222 9.71734V8.94356H43.3232V9.71734H40.3222ZM42.3612 8.07568V7.05095H43.2814V8.07568H42.3612ZM49.6034 14.4855C49.0666 14.4855 48.6658 14.36 48.4009 14.109C48.136 13.8581 48.0036 13.4747 48.0036 12.9588V7.64697H48.8819V12.9588C48.8819 13.2168 48.9412 13.4085 49.0597 13.5339C49.1782 13.6524 49.3594 13.7117 49.6034 13.7117H51.0882V14.4855H49.6034ZM46.1737 9.71734V8.94356H51.0882V9.71734H46.1737ZM52.548 14.4855V7.06141H53.4473V10.6689L52.9872 10.3134H57.128L56.6679 10.6689V7.06141H57.5671V14.4855H56.6679V10.8362L57.128 11.1917H52.9872L53.4473 10.8362V14.4855H52.548ZM60.9405 14.611C60.3898 14.611 59.9506 14.4262 59.623 14.0568C59.2953 13.6803 59.1315 13.1645 59.1315 12.5092V8.94356H60.0098V12.2687C60.0098 12.8055 60.104 13.2028 60.2922 13.4607C60.4874 13.7117 60.7836 13.8372 61.181 13.8372C61.6132 13.8372 61.9547 13.6978 62.2057 13.4189C62.4567 13.1331 62.5821 12.7427 62.5821 12.2478V8.94356H63.4605V14.4855H62.624V13.1157L62.7599 13.1889C62.6484 13.642 62.4357 13.994 62.122 14.245C61.8084 14.489 61.4145 14.611 60.9405 14.611ZM67.9422 14.611C67.5588 14.611 67.2172 14.5273 66.9175 14.36C66.6177 14.1857 66.3877 13.9487 66.2273 13.649L66.196 14.4855H65.4013V7.06141H66.2796V9.71734C66.419 9.4873 66.6351 9.28166 66.9279 9.10041C67.2207 8.9122 67.5588 8.81809 67.9422 8.81809C68.4302 8.81809 68.8519 8.93659 69.2074 9.17361C69.5629 9.41062 69.8348 9.74522 70.023 10.1774C70.2182 10.6096 70.3158 11.122 70.3158 11.7145C70.3158 12.3071 70.2182 12.8194 70.023 13.2516C69.8348 13.6838 69.5629 14.0184 69.2074 14.2554C68.8519 14.4924 68.4302 14.611 67.9422 14.611ZM67.8899 13.7744C68.357 13.7744 68.7229 13.5897 68.9878 13.2202C69.2597 12.8508 69.3956 12.3489 69.3956 11.7145C69.3956 11.0732 69.2597 10.5713 68.9878 10.2088C68.7229 9.83933 68.3639 9.6546 67.9108 9.6546C67.5692 9.6546 67.2765 9.73825 67.0325 9.90556C66.7885 10.0659 66.6003 10.2994 66.4678 10.6061C66.3424 10.9129 66.2796 11.2823 66.2796 11.7145C66.2796 12.1328 66.3424 12.4988 66.4678 12.8124C66.6003 13.1192 66.785 13.3562 67.022 13.5235C67.266 13.6908 67.5553 13.7744 67.8899 13.7744Z" fill="#D4D4D4"/>
</g>
<defs>
<filter id="filter0_ii_306_353" x="0" y="0" width="81.2117" height="20.8954" filterUnits="userSpaceOnUse" color-interpolation-filters="sRGB">
<feFlood flood-opacity="0" result="BackgroundImageFix"/>
<feBlend mode="normal" in="SourceGraphic" in2="BackgroundImageFix" result="shape"/>
<feColorMatrix in="SourceAlpha" type="matrix" values="0 0 0 0 0 0 0 0 0 0 0 0 0 0 0 0 0 0 127 0" result="hardAlpha"/>
<feMorphology radius="0.871369" operator="erode" in="SourceAlpha" result="effect1_innerShadow_306_353"/>
<feOffset/>
<feComposite in2="hardAlpha" operator="arithmetic" k2="-1" k3="1"/>
<feColorMatrix type="matrix" values="0 0 0 0 1 0 0 0 0 1 0 0 0 0 1 0 0 0 0.06 0"/>
<feBlend mode="normal" in2="shape" result="effect1_innerShadow_306_353"/>
<feColorMatrix in="SourceAlpha" type="matrix" values="0 0 0 0 0 0 0 0 0 0 0 0 0 0 0 0 0 0 127 0" result="hardAlpha"/>
<feOffset dy="0.871369"/>
<feComposite in2="hardAlpha" operator="arithmetic" k2="-1" k3="1"/>
<feColorMatrix type="matrix" values="0 0 0 0 1 0 0 0 0 1 0 0 0 0 1 0 0 0 0.1 0"/>
<feBlend mode="normal" in2="effect1_innerShadow_306_353" result="effect2_innerShadow_306_353"/>
</filter>
<clipPath id="clip0_306_353">
<rect width="12.1992" height="12.1992" fill="white" transform="translate(10.457 4.33948)"/>
</clipPath>
</defs>
</svg>
