<svg width="88" height="21" viewBox="0 0 88 21" fill="none" xmlns="http://www.w3.org/2000/svg">
<g filter="url(#filter0_ii_306_354)">
<rect width="87.4942" height="20.8954" rx="6.97095" fill="#171717"/>
<g clip-path="url(#clip0_306_354)">
<path d="M13.1149 10.986C13.0946 11.0265 13.0635 11.0605 13.025 11.0843C12.9864 11.1081 12.9421 11.1207 12.8968 11.1207C12.8515 11.1207 12.8071 11.1081 12.7686 11.0843C12.7301 11.0605 12.699 11.0265 12.6787 10.986L12.4635 10.5559C12.4466 10.522 12.4377 10.4847 12.4377 10.4468C12.4377 10.409 12.4466 10.3716 12.4635 10.3378L12.6787 9.90761C12.699 9.86714 12.7301 9.83311 12.7686 9.80933C12.8071 9.78554 12.8515 9.77295 12.8968 9.77295C12.9421 9.77295 12.9864 9.78554 13.025 9.80933C13.0635 9.83311 13.0946 9.86714 13.1149 9.90761L13.3301 10.3378C13.347 10.3716 13.3558 10.409 13.3558 10.4468C13.3558 10.4847 13.347 10.522 13.3301 10.5559L13.1149 10.986ZM13.1149 13.4251C13.0946 13.4656 13.0635 13.4996 13.025 13.5234C12.9864 13.5472 12.9421 13.5598 12.8968 13.5598C12.8515 13.5598 12.8071 13.5472 12.7686 13.5234C12.7301 13.4996 12.699 13.4656 12.6787 13.4251L12.4632 12.995C12.4463 12.9611 12.4375 12.9238 12.4375 12.8859C12.4375 12.8481 12.4463 12.8107 12.4632 12.7769L12.6784 12.3467C12.6987 12.3062 12.7299 12.2722 12.7684 12.2484C12.8069 12.2246 12.8513 12.2121 12.8965 12.2121C12.9418 12.2121 12.9862 12.2246 13.0247 12.2484C13.0632 12.2722 13.0944 12.3062 13.1147 12.3467L13.3299 12.7769C13.3468 12.8107 13.3556 12.8481 13.3556 12.8859C13.3556 12.9238 13.3468 12.9611 13.3299 12.995L13.1149 13.4251Z" fill="#1D4AFF"/>
<path d="M10.457 12.4991C10.457 12.282 10.7198 12.1729 10.8735 12.3266L11.9917 13.4448C12.1454 13.5985 12.0366 13.8615 11.8192 13.8615H10.701C10.6363 13.8615 10.5742 13.8358 10.5285 13.7901C10.4827 13.7443 10.457 13.6823 10.457 13.6176V12.4991ZM10.457 11.3212C10.457 11.3533 10.4633 11.385 10.4756 11.4147C10.4878 11.4443 10.5058 11.4712 10.5285 11.4939L12.8246 13.7898C12.8473 13.8125 12.8742 13.8305 12.9038 13.8428C12.9334 13.8551 12.9651 13.8615 12.9971 13.8615H14.2585C14.4757 13.8615 14.5847 13.5988 14.431 13.4451L10.8738 9.88778C10.7198 9.73382 10.457 9.84264 10.457 10.0598V11.3212ZM10.457 8.88208C10.457 8.94678 10.4828 9.00883 10.5285 9.05457L15.2635 13.7903C15.3092 13.836 15.3713 13.8618 15.436 13.8618H16.6974C16.9145 13.8618 17.0236 13.5988 16.8699 13.4451L10.8735 7.44843C10.7198 7.29472 10.457 7.40354 10.457 7.62093V8.88208ZM12.8961 8.88208C12.8961 8.94678 12.9219 9.00883 12.9676 9.05457L17.3579 13.4451C17.5116 13.5988 17.7743 13.4897 17.7743 13.2723V12.0112C17.7743 11.9465 17.7486 11.8844 17.7029 11.8387L13.3126 7.44843C13.1589 7.29472 12.8961 7.40354 12.8961 7.62093V8.88208ZM15.7517 7.44843C15.598 7.29472 15.3352 7.40354 15.3352 7.62093V8.88232C15.3353 8.94694 15.361 9.00889 15.4067 9.05457L17.3579 11.006C17.5116 11.1597 17.7743 11.0506 17.7743 10.8332V9.57206C17.7743 9.50736 17.7486 9.44531 17.7029 9.39957L15.7517 7.44843Z" fill="#F9BD2B"/>
<path d="M20.8303 12.5289L18.5337 10.2325C18.38 10.0788 18.1172 10.1876 18.1172 10.405V13.6175C18.1172 13.6822 18.1429 13.7443 18.1886 13.79C18.2344 13.8358 18.2965 13.8615 18.3612 13.8615H21.9184C21.9832 13.8615 22.0452 13.8358 22.091 13.79C22.1367 13.7443 22.1624 13.6822 22.1624 13.6175V13.3247C22.1624 13.1901 22.0529 13.0825 21.9192 13.0651C21.507 13.0114 21.1242 12.8227 20.8303 12.5289ZM19.2881 13.081C19.1845 13.081 19.0852 13.0399 19.012 12.9667C18.9388 12.8934 18.8977 12.7942 18.8977 12.6906C18.8977 12.5871 18.9388 12.4878 19.012 12.4146C19.0852 12.3414 19.1845 12.3002 19.2881 12.3002C19.3916 12.3002 19.4909 12.3414 19.5641 12.4146C19.6373 12.4878 19.6784 12.5871 19.6784 12.6906C19.6784 12.7942 19.6373 12.8934 19.5641 12.9667C19.4909 13.0399 19.3916 13.081 19.2881 13.081Z" fill="#D4D4D4"/>
<path d="M10.457 13.6176C10.457 13.6823 10.4827 13.7443 10.5285 13.7901C10.5742 13.8358 10.6363 13.8615 10.701 13.8615H11.8192C12.0366 13.8615 12.1454 13.5985 11.9917 13.4448L10.8735 12.3266C10.7198 12.1729 10.457 12.2817 10.457 12.4991V13.6176ZM12.8961 9.47105L10.8735 7.44843C10.7198 7.29472 10.457 7.40354 10.457 7.62093V8.88232C10.4571 8.94694 10.4828 9.00889 10.5285 9.05457L12.8961 11.4224V9.47105ZM10.8735 9.88753C10.7198 9.73382 10.457 9.84264 10.457 10.06V11.3214C10.4571 11.386 10.4828 11.448 10.5285 11.4937L12.8961 13.8615V11.9102L10.8735 9.88753Z" fill="#1D4AFF"/>
<path d="M15.3317 9.57206C15.3317 9.50736 15.306 9.44531 15.2602 9.39957L13.3091 7.44843C13.1553 7.29472 12.8926 7.40354 12.8926 7.62093V8.88232C12.8927 8.94694 12.9184 9.00889 12.9641 9.05457L15.3317 11.4224V9.57182V9.57206ZM12.8926 13.8613H14.2547C14.4721 13.8613 14.5809 13.5985 14.4272 13.4448L12.8926 11.9102V13.8615V13.8613ZM12.8926 9.47105V11.3212C12.8926 11.3533 12.8989 11.385 12.9111 11.4147C12.9234 11.4443 12.9414 11.4712 12.9641 11.4939L15.3317 13.8615V12.0112C15.3317 11.9465 15.306 11.8844 15.2602 11.8387L12.8926 9.47105Z" fill="#F54E00"/>
</g>
<path d="M34.0524 14.4855V7.06141H36.311C36.8268 7.06141 37.2765 7.15203 37.6599 7.33327C38.0433 7.51452 38.3395 7.77593 38.5487 8.11751C38.7578 8.45211 38.8624 8.85643 38.8624 9.33045C38.8624 9.80448 38.7578 10.2123 38.5487 10.5539C38.3395 10.8885 38.0433 11.1464 37.6599 11.3276C37.2765 11.5089 36.8268 11.5995 36.311 11.5995H34.9517V14.4855H34.0524ZM34.9517 10.7212H36.2064C36.792 10.7212 37.2242 10.6027 37.503 10.3656C37.7819 10.1217 37.9213 9.77659 37.9213 9.33045C37.9213 8.87734 37.7819 8.53228 37.503 8.29527C37.2242 8.05825 36.792 7.93975 36.2064 7.93975H34.9517V10.7212ZM42.518 14.611C42.0092 14.611 41.563 14.4924 41.1796 14.2554C40.8032 14.0184 40.5104 13.6838 40.3013 13.2516C40.0921 12.8124 39.9876 12.3001 39.9876 11.7145C39.9876 11.122 40.0921 10.6096 40.3013 10.1774C40.5104 9.74522 40.8032 9.41062 41.1796 9.17361C41.563 8.93659 42.0092 8.81809 42.518 8.81809C43.0269 8.81809 43.4696 8.93659 43.846 9.17361C44.2294 9.41062 44.5257 9.74522 44.7348 10.1774C44.9439 10.6096 45.0485 11.122 45.0485 11.7145C45.0485 12.3001 44.9439 12.8124 44.7348 13.2516C44.5257 13.6838 44.2294 14.0184 43.846 14.2554C43.4696 14.4924 43.0269 14.611 42.518 14.611ZM42.518 13.7744C43.0269 13.7744 43.4208 13.5932 43.6996 13.2307C43.9854 12.8612 44.1283 12.3558 44.1283 11.7145C44.1283 11.0732 43.9854 10.5713 43.6996 10.2088C43.4208 9.83933 43.0269 9.6546 42.518 9.6546C42.0092 9.6546 41.6118 9.83933 41.326 10.2088C41.0472 10.5713 40.9077 11.0732 40.9077 11.7145C40.9077 12.3558 41.0472 12.8612 41.326 13.2307C41.6118 13.5932 42.0092 13.7744 42.518 13.7744ZM48.8924 14.611C48.4114 14.611 47.9966 14.5273 47.6481 14.36C47.2995 14.1927 47.0242 13.9696 46.822 13.6908C46.6268 13.405 46.5153 13.0878 46.4874 12.7392L47.4076 12.6765C47.4633 13.0181 47.6132 13.2865 47.8572 13.4817C48.1081 13.6768 48.4532 13.7744 48.8924 13.7744C49.3037 13.7744 49.6208 13.7152 49.8439 13.5967C50.0739 13.4782 50.189 13.2934 50.189 13.0425C50.189 12.8822 50.1506 12.7497 50.0739 12.6451C49.9973 12.5406 49.8544 12.4534 49.6452 12.3837C49.4361 12.3071 49.1294 12.2339 48.7251 12.1641C48.1883 12.0666 47.7666 11.948 47.4598 11.8086C47.1601 11.6622 46.9475 11.481 46.822 11.2649C46.6965 11.0488 46.6338 10.7909 46.6338 10.4911C46.6338 10.1705 46.7139 9.88464 46.8743 9.63369C47.0346 9.38274 47.2716 9.18406 47.5853 9.03767C47.899 8.89128 48.2824 8.81809 48.7355 8.81809C49.1956 8.81809 49.579 8.90174 49.8857 9.06904C50.1994 9.22937 50.4469 9.44547 50.6281 9.71734C50.8094 9.98224 50.9279 10.275 50.9837 10.5957L50.0635 10.6584C50.0217 10.4632 49.9415 10.2924 49.823 10.1461C49.7115 9.99269 49.5616 9.87419 49.3734 9.79054C49.1921 9.69991 48.976 9.6546 48.7251 9.6546C48.3208 9.6546 48.021 9.73477 47.8258 9.8951C47.6306 10.0554 47.533 10.2541 47.533 10.4911C47.533 10.6793 47.5783 10.8292 47.669 10.9407C47.7596 11.0523 47.906 11.1429 48.1081 11.2126C48.3103 11.2753 48.5787 11.3346 48.9133 11.3904C49.4849 11.481 49.9276 11.5995 50.2413 11.7459C50.5549 11.8853 50.7745 12.0596 50.9 12.2687C51.0255 12.4778 51.0882 12.7358 51.0882 13.0425C51.0882 13.3701 50.9906 13.6524 50.7954 13.8895C50.6072 14.1195 50.3458 14.2973 50.0112 14.4227C49.6836 14.5482 49.3106 14.611 48.8924 14.611ZM55.8732 14.4855C55.3364 14.4855 54.9356 14.36 54.6707 14.109C54.4058 13.8581 54.2733 13.4747 54.2733 12.9588V7.64697H55.1517V12.9588C55.1517 13.2168 55.2109 13.4085 55.3294 13.5339C55.448 13.6524 55.6292 13.7117 55.8732 13.7117H57.358V14.4855H55.8732ZM52.4435 9.71734V8.94356H57.358V9.71734H52.4435ZM58.8178 14.4855V7.06141H59.7171V10.6689L59.257 10.3134H63.3977L62.9376 10.6689V7.06141H63.8369V14.4855H62.9376V10.8362L63.3977 11.1917H59.257L59.7171 10.8362V14.4855H58.8178ZM67.5971 14.611C67.0883 14.611 66.6421 14.4924 66.2587 14.2554C65.8823 14.0184 65.5895 13.6838 65.3804 13.2516C65.1712 12.8124 65.0667 12.3001 65.0667 11.7145C65.0667 11.122 65.1712 10.6096 65.3804 10.1774C65.5895 9.74522 65.8823 9.41062 66.2587 9.17361C66.6421 8.93659 67.0883 8.81809 67.5971 8.81809C68.106 8.81809 68.5487 8.93659 68.9251 9.17361C69.3085 9.41062 69.6048 9.74522 69.8139 10.1774C70.023 10.6096 70.1276 11.122 70.1276 11.7145C70.1276 12.3001 70.023 12.8124 69.8139 13.2516C69.6048 13.6838 69.3085 14.0184 68.9251 14.2554C68.5487 14.4924 68.106 14.611 67.5971 14.611ZM67.5971 13.7744C68.106 13.7744 68.4999 13.5932 68.7787 13.2307C69.0645 12.8612 69.2074 12.3558 69.2074 11.7145C69.2074 11.0732 69.0645 10.5713 68.7787 10.2088C68.4999 9.83933 68.106 9.6546 67.5971 9.6546C67.0883 9.6546 66.6909 9.83933 66.4051 10.2088C66.1263 10.5713 65.9868 11.0732 65.9868 11.7145C65.9868 12.3558 66.1263 12.8612 66.4051 13.2307C66.6909 13.5932 67.0883 13.7744 67.5971 13.7744ZM73.8355 16.1794C73.4382 16.1794 73.0792 16.1132 72.7585 15.9807C72.4379 15.8483 72.1695 15.6601 71.9534 15.4161C71.7373 15.1721 71.5909 14.8898 71.5142 14.5691L72.4344 14.5064C72.518 14.7643 72.6644 14.9665 72.8735 15.1129C73.0896 15.2662 73.4103 15.3429 73.8355 15.3429C74.3374 15.3429 74.7208 15.2418 74.9857 15.0397C75.2576 14.8375 75.3935 14.5343 75.3935 14.13V13.2307C75.2611 13.5235 75.0485 13.757 74.7557 13.9313C74.4629 14.1056 74.1353 14.1927 73.7728 14.1927C73.3057 14.1927 72.8875 14.0777 72.518 13.8476C72.1555 13.6176 71.8697 13.3004 71.6606 12.8961C71.4584 12.4918 71.3574 12.0282 71.3574 11.5054C71.3574 10.9756 71.4584 10.512 71.6606 10.1147C71.8628 9.71037 72.1416 9.39319 72.4971 9.16315C72.8596 8.93311 73.2709 8.81809 73.731 8.81809C74.1213 8.81809 74.4699 8.90871 74.7766 9.08995C75.0903 9.2712 75.3099 9.51518 75.4354 9.82191V8.94356H76.2719V14.109C76.2719 14.5412 76.1743 14.9107 75.9791 15.2174C75.7839 15.5311 75.5051 15.7681 75.1426 15.9285C74.7801 16.0958 74.3444 16.1794 73.8355 16.1794ZM73.8146 13.3562C74.2886 13.3562 74.6686 13.1924 74.9544 12.8647C75.2402 12.5301 75.3866 12.077 75.3935 11.5054C75.4005 11.122 75.3378 10.7944 75.2053 10.5225C75.0798 10.2436 74.8951 10.031 74.6511 9.88464C74.4141 9.73128 74.1353 9.6546 73.8146 9.6546C73.3267 9.6546 72.9467 9.82191 72.6749 10.1565C72.41 10.4841 72.2775 10.9338 72.2775 11.5054C72.2775 12.077 72.4135 12.5301 72.6853 12.8647C72.9642 13.1924 73.3406 13.3562 73.8146 13.3562Z" fill="#D4D4D4"/>
</g>
<defs>
<filter id="filter0_ii_306_354" x="0" y="0" width="87.4941" height="20.8954" filterUnits="userSpaceOnUse" color-interpolation-filters="sRGB">
<feFlood flood-opacity="0" result="BackgroundImageFix"/>
<feBlend mode="normal" in="SourceGraphic" in2="BackgroundImageFix" result="shape"/>
<feColorMatrix in="SourceAlpha" type="matrix" values="0 0 0 0 0 0 0 0 0 0 0 0 0 0 0 0 0 0 127 0" result="hardAlpha"/>
<feMorphology radius="0.871369" operator="erode" in="SourceAlpha" result="effect1_innerShadow_306_354"/>
<feOffset/>
<feComposite in2="hardAlpha" operator="arithmetic" k2="-1" k3="1"/>
<feColorMatrix type="matrix" values="0 0 0 0 1 0 0 0 0 1 0 0 0 0 1 0 0 0 0.06 0"/>
<feBlend mode="normal" in2="shape" result="effect1_innerShadow_306_354"/>
<feColorMatrix in="SourceAlpha" type="matrix" values="0 0 0 0 0 0 0 0 0 0 0 0 0 0 0 0 0 0 127 0" result="hardAlpha"/>
<feOffset dy="0.871369"/>
<feComposite in2="hardAlpha" operator="arithmetic" k2="-1" k3="1"/>
<feColorMatrix type="matrix" values="0 0 0 0 1 0 0 0 0 1 0 0 0 0 1 0 0 0 0.1 0"/>
<feBlend mode="normal" in2="effect1_innerShadow_306_354" result="effect2_innerShadow_306_354"/>
</filter>
<clipPath id="clip0_306_354">
<rect width="12.1992" height="12.1992" fill="white" transform="translate(10.457 4.34814)"/>
</clipPath>
</defs>
</svg>
