<svg width="88" height="21" viewBox="0 0 88 21" fill="none" xmlns="http://www.w3.org/2000/svg">
<g filter="url(#filter0_ii_306_348)">
<rect width="87.4942" height="20.8954" rx="6.97095" fill="#171717"/>
<g clip-path="url(#clip0_306_348)">
<path d="M17.6186 5.70334C17.1067 5.0979 16.6658 4.48295 16.5756 4.35526C16.5661 4.34577 16.5519 4.34577 16.5424 4.35526C16.4524 4.48295 16.0115 5.0979 15.4995 5.70334C11.1049 11.2897 16.1916 15.0597 16.1916 15.0597L16.2343 15.0881C16.2722 15.6699 16.367 16.5072 16.367 16.5072H16.7463C16.7463 16.5072 16.8411 15.6746 16.879 15.0881L16.9217 15.055C16.9265 15.055 22.0132 11.2897 17.6185 5.70339L17.6186 5.70334ZM16.5566 14.9746C16.5566 14.9746 16.3291 14.7806 16.2675 14.6813V14.6718L16.5425 8.5888C16.5425 8.56982 16.5709 8.56982 16.5709 8.5888L16.8459 14.6718V14.6813C16.7842 14.7806 16.5566 14.9746 16.5566 14.9746Z" fill="#00ED64"/>
</g>
<path d="M35.8529 13.649L34.4517 7.89792H34.5354V14.4855H33.6361V7.06141H34.9954L36.4593 13.168H36.0411L37.505 7.06141H38.8643V14.4855H37.9651V7.89792H38.0487L36.6476 13.649H35.8529ZM42.52 14.611C42.0111 14.611 41.565 14.4924 41.1816 14.2554C40.8051 14.0184 40.5124 13.6838 40.3032 13.2516C40.0941 12.8124 39.9895 12.3001 39.9895 11.7145C39.9895 11.122 40.0941 10.6096 40.3032 10.1774C40.5124 9.74522 40.8051 9.41062 41.1816 9.17361C41.565 8.93659 42.0111 8.81809 42.52 8.81809C43.0289 8.81809 43.4715 8.93659 43.848 9.17361C44.2314 9.41062 44.5276 9.74522 44.7367 10.1774C44.9459 10.6096 45.0504 11.122 45.0504 11.7145C45.0504 12.3001 44.9459 12.8124 44.7367 13.2516C44.5276 13.6838 44.2314 14.0184 43.848 14.2554C43.4715 14.4924 43.0289 14.611 42.52 14.611ZM42.52 13.7744C43.0289 13.7744 43.4227 13.5932 43.7016 13.2307C43.9874 12.8612 44.1303 12.3558 44.1303 11.7145C44.1303 11.0732 43.9874 10.5713 43.7016 10.2088C43.4227 9.83933 43.0289 9.6546 42.52 9.6546C42.0111 9.6546 41.6138 9.83933 41.328 10.2088C41.0491 10.5713 40.9097 11.0732 40.9097 11.7145C40.9097 12.3558 41.0491 12.8612 41.328 13.2307C41.6138 13.5932 42.0111 13.7744 42.52 13.7744ZM46.5312 14.4855V8.94356H47.3363L47.3677 10.3552L47.2631 10.2611C47.3328 9.93344 47.4583 9.66506 47.6396 9.45593C47.8278 9.23983 48.0508 9.0795 48.3088 8.97493C48.5667 8.87037 48.8386 8.81809 49.1244 8.81809C49.5496 8.81809 49.9016 8.9122 50.1805 9.10041C50.4663 9.28863 50.6824 9.54307 50.8288 9.86373C50.9752 10.1774 51.0483 10.5295 51.0483 10.9198V14.4855H50.17V11.1708C50.17 10.6549 50.0689 10.2646 49.8668 9.99966C49.6646 9.7278 49.3544 9.59186 48.9361 9.59186C48.6503 9.59186 48.3924 9.6546 48.1624 9.78008C47.9323 9.89859 47.7476 10.0763 47.6082 10.3134C47.4757 10.5434 47.4095 10.8292 47.4095 11.1708V14.4855H46.5312ZM55.0282 16.1794C54.6308 16.1794 54.2718 16.1132 53.9512 15.9807C53.6305 15.8483 53.3621 15.6601 53.146 15.4161C52.9299 15.1721 52.7835 14.8898 52.7068 14.5691L53.627 14.5064C53.7107 14.7643 53.857 14.9665 54.0662 15.1129C54.2823 15.2662 54.6029 15.3429 55.0282 15.3429C55.5301 15.3429 55.9135 15.2418 56.1784 15.0397C56.4502 14.8375 56.5862 14.5343 56.5862 14.13V13.2307C56.4537 13.5235 56.2411 13.757 55.9483 13.9313C55.6555 14.1056 55.3279 14.1927 54.9654 14.1927C54.4984 14.1927 54.0801 14.0777 53.7107 13.8476C53.3482 13.6176 53.0624 13.3004 52.8532 12.8961C52.6511 12.4918 52.55 12.0282 52.55 11.5054C52.55 10.9756 52.6511 10.512 52.8532 10.1147C53.0554 9.71037 53.3342 9.39319 53.6897 9.16315C54.0522 8.93311 54.4635 8.81809 54.9236 8.81809C55.314 8.81809 55.6625 8.90871 55.9692 9.08995C56.2829 9.2712 56.5025 9.51518 56.628 9.82191V8.94356H57.4645V14.109C57.4645 14.5412 57.3669 14.9107 57.1717 15.2174C56.9765 15.5311 56.6977 15.7681 56.3352 15.9285C55.9727 16.0958 55.537 16.1794 55.0282 16.1794ZM55.0073 13.3562C55.4813 13.3562 55.8612 13.1924 56.147 12.8647C56.4328 12.5301 56.5792 12.077 56.5862 11.5054C56.5931 11.122 56.5304 10.7944 56.398 10.5225C56.2725 10.2436 56.0877 10.031 55.8438 9.88464C55.6068 9.73128 55.3279 9.6546 55.0073 9.6546C54.5193 9.6546 54.1394 9.82191 53.8675 10.1565C53.6026 10.4841 53.4702 10.9338 53.4702 11.5054C53.4702 12.077 53.6061 12.5301 53.878 12.8647C54.1568 13.1924 54.5332 13.3562 55.0073 13.3562ZM61.3293 14.611C60.8204 14.611 60.3743 14.4924 59.9909 14.2554C59.6145 14.0184 59.3217 13.6838 59.1125 13.2516C58.9034 12.8124 58.7989 12.3001 58.7989 11.7145C58.7989 11.122 58.9034 10.6096 59.1125 10.1774C59.3217 9.74522 59.6145 9.41062 59.9909 9.17361C60.3743 8.93659 60.8204 8.81809 61.3293 8.81809C61.8382 8.81809 62.2808 8.93659 62.6573 9.17361C63.0407 9.41062 63.3369 9.74522 63.5461 10.1774C63.7552 10.6096 63.8598 11.122 63.8598 11.7145C63.8598 12.3001 63.7552 12.8124 63.5461 13.2516C63.3369 13.6838 63.0407 14.0184 62.6573 14.2554C62.2808 14.4924 61.8382 14.611 61.3293 14.611ZM61.3293 13.7744C61.8382 13.7744 62.232 13.5932 62.5109 13.2307C62.7967 12.8612 62.9396 12.3558 62.9396 11.7145C62.9396 11.0732 62.7967 10.5713 62.5109 10.2088C62.232 9.83933 61.8382 9.6546 61.3293 9.6546C60.8204 9.6546 60.4231 9.83933 60.1373 10.2088C59.8584 10.5713 59.719 11.0732 59.719 11.7145C59.719 12.3558 59.8584 12.8612 60.1373 13.2307C60.4231 13.5932 60.8204 13.7744 61.3293 13.7744ZM65.4032 14.4855V7.06141H67.1599C67.8012 7.06141 68.3589 7.2078 68.8329 7.50058C69.3139 7.78639 69.6834 8.20813 69.9413 8.76581C70.2062 9.31651 70.3387 9.98921 70.3387 10.7839C70.3387 11.5786 70.2062 12.2513 69.9413 12.802C69.6834 13.3527 69.3139 13.771 68.8329 14.0568C68.3589 14.3426 67.8012 14.4855 67.1599 14.4855H65.4032ZM66.3025 13.6071H67.1076C67.8326 13.6071 68.3938 13.3736 68.7911 12.9066C69.1954 12.4325 69.3976 11.725 69.3976 10.7839C69.3976 9.84282 69.1954 9.13527 68.7911 8.66124C68.3938 8.18025 67.8326 7.93975 67.1076 7.93975H66.3025V13.6071ZM71.673 14.4855V7.06141H73.7643C74.5799 7.06141 75.1933 7.24265 75.6046 7.60514C76.0229 7.96763 76.232 8.46257 76.232 9.08995C76.232 9.39668 76.1588 9.67203 76.0124 9.91601C75.866 10.16 75.6604 10.3517 75.3955 10.4911C75.1306 10.6305 74.8239 10.7002 74.4753 10.7002V10.6375C74.9075 10.6375 75.277 10.7107 75.5837 10.8571C75.8974 11.0035 76.1344 11.2091 76.2947 11.474C76.4621 11.7389 76.5457 12.0526 76.5457 12.4151C76.5457 13.0564 76.3226 13.5618 75.8765 13.9313C75.4303 14.3007 74.8134 14.4855 74.0257 14.4855H71.673ZM72.5723 13.6071H74.0362C74.5729 13.6071 74.9668 13.5026 75.2177 13.2934C75.4757 13.0843 75.6046 12.7915 75.6046 12.4151C75.6046 12.0178 75.4722 11.7075 75.2073 11.4845C74.9424 11.2614 74.552 11.1499 74.0362 11.1499H72.5723V13.6071ZM72.5723 10.2715H73.8061C74.322 10.2715 74.6984 10.1705 74.9354 9.9683C75.1724 9.76614 75.2909 9.48033 75.2909 9.11087C75.2909 8.73444 75.1724 8.44514 74.9354 8.24298C74.6984 8.04083 74.322 7.93975 73.8061 7.93975H72.5723V10.2715Z" fill="#D4D4D4"/>
</g>
<defs>
<filter id="filter0_ii_306_348" x="0" y="0" width="87.4941" height="20.8954" filterUnits="userSpaceOnUse" color-interpolation-filters="sRGB">
<feFlood flood-opacity="0" result="BackgroundImageFix"/>
<feBlend mode="normal" in="SourceGraphic" in2="BackgroundImageFix" result="shape"/>
<feColorMatrix in="SourceAlpha" type="matrix" values="0 0 0 0 0 0 0 0 0 0 0 0 0 0 0 0 0 0 127 0" result="hardAlpha"/>
<feMorphology radius="0.871369" operator="erode" in="SourceAlpha" result="effect1_innerShadow_306_348"/>
<feOffset/>
<feComposite in2="hardAlpha" operator="arithmetic" k2="-1" k3="1"/>
<feColorMatrix type="matrix" values="0 0 0 0 1 0 0 0 0 1 0 0 0 0 1 0 0 0 0.06 0"/>
<feBlend mode="normal" in2="shape" result="effect1_innerShadow_306_348"/>
<feColorMatrix in="SourceAlpha" type="matrix" values="0 0 0 0 0 0 0 0 0 0 0 0 0 0 0 0 0 0 127 0" result="hardAlpha"/>
<feOffset dy="0.871369"/>
<feComposite in2="hardAlpha" operator="arithmetic" k2="-1" k3="1"/>
<feColorMatrix type="matrix" values="0 0 0 0 1 0 0 0 0 1 0 0 0 0 1 0 0 0 0.1 0"/>
<feBlend mode="normal" in2="effect1_innerShadow_306_348" result="effect2_innerShadow_306_348"/>
</filter>
<clipPath id="clip0_306_348">
<rect width="12.1992" height="12.1992" fill="white" transform="translate(10.457 4.34814)"/>
</clipPath>
</defs>
</svg>
