<svg width="75" height="21" viewBox="0 0 75 21" fill="none" xmlns="http://www.w3.org/2000/svg">
<g filter="url(#filter0_ii_306_343)">
<rect width="74.9552" height="20.8954" rx="6.97095" fill="#171717"/>
<g clip-path="url(#clip0_306_343)">
<path d="M22.1797 13.2505C21.5268 13.5841 18.153 14.9755 17.4382 15.3472C16.7186 15.7237 16.3184 15.7189 15.7513 15.4473C15.1842 15.1757 11.6007 13.727 10.9479 13.4173C10.6286 13.2648 10.457 13.1314 10.457 13.0122V11.7733C10.457 11.7733 15.127 10.7583 15.8847 10.4866C16.6376 10.2198 16.8997 10.2102 17.543 10.4437C18.1816 10.682 22.0224 11.373 22.6562 11.6017V12.8216C22.6562 12.9408 22.5132 13.0742 22.1797 13.2505Z" fill="#912626"/>
<path d="M22.1798 12.021C21.5269 12.3593 18.1531 13.746 17.4383 14.1177C16.7187 14.4989 16.3185 14.4942 15.7514 14.2226C15.1843 13.9509 11.596 12.5023 10.948 12.1925C10.3046 11.8828 10.2904 11.6684 10.9241 11.4206C11.5627 11.1728 15.1271 9.77177 15.8801 9.50015C16.6425 9.23329 16.8998 9.22376 17.5431 9.4525C18.1817 9.69076 21.5365 11.025 22.1702 11.2585C22.804 11.492 22.8279 11.6827 22.1798 12.021Z" fill="#C6302B"/>
<path d="M22.1797 11.249C21.5268 11.5921 18.153 12.9788 17.4382 13.3553C16.7186 13.727 16.3184 13.7222 15.7513 13.4506C15.1842 13.1837 11.5959 11.7351 10.9479 11.4206C10.6286 11.2681 10.457 11.1347 10.457 11.0155V9.78131C10.457 9.78131 15.127 8.7663 15.8847 8.49468C16.6376 8.22306 16.8997 8.21352 17.543 8.44702C18.1816 8.68529 22.0224 9.37626 22.6562 9.60976V10.8201C22.6562 10.9393 22.5132 11.0775 22.1797 11.249Z" fill="#912626"/>
<path d="M22.1798 10.0291C21.5269 10.3627 18.1531 11.7542 17.4383 12.1259C16.7187 12.5023 16.3185 12.4976 15.7514 12.2259C15.1843 11.9543 11.6008 10.5057 10.948 10.2007C10.3046 9.89093 10.2904 9.67649 10.9241 9.43346C11.5627 9.17614 15.1271 7.77037 15.8801 7.50828C16.6425 7.23666 16.8998 7.22236 17.5431 7.46063C18.1817 7.69889 21.5365 9.03318 22.1702 9.26191C22.804 9.50018 22.8279 9.69079 22.1798 10.0244" fill="#C6302B"/>
<path d="M22.1797 9.18563C21.5268 9.5192 18.153 10.9107 17.4382 11.2824C16.7186 11.6588 16.3184 11.6541 15.7513 11.3824C15.1842 11.1108 11.6007 9.66216 10.9479 9.35241C10.6286 9.19992 10.457 9.06649 10.457 8.94736V7.70838C10.457 7.70838 15.127 6.69337 15.8847 6.42175C16.6376 6.15489 16.8997 6.14536 17.543 6.37886C18.1816 6.61713 22.0224 7.3081 22.6562 7.5416V8.75675C22.6562 8.87588 22.5132 9.00931 22.1797 9.18563Z" fill="#912626"/>
<path d="M22.1798 7.96103C21.5269 8.2946 18.1531 9.68131 17.4383 10.0578C16.7187 10.4342 16.3185 10.4295 15.7514 10.1531C15.1843 9.89098 11.6008 8.43756 10.948 8.13258C10.3046 7.82284 10.2904 7.6084 10.9241 7.3606C11.5627 7.10804 15.1271 5.70704 15.8801 5.43542C16.6425 5.16857 16.8998 5.15904 17.5431 5.39254C18.1817 5.6308 21.5365 6.96508 22.1702 7.19382C22.804 7.42732 22.8279 7.6227 22.1798 7.95627" fill="#C6302B"/>
<path d="M18.0494 6.76013L17.001 6.86497L16.7628 7.43204L16.3815 6.80302L15.1759 6.69342L16.0813 6.36461L15.8049 5.86426L16.6532 6.19783L17.449 5.93574L17.2345 6.45516L18.0446 6.76013M16.7008 9.50018L14.747 8.69008L17.549 8.25644L16.7008 9.49542M13.9846 7.06988C14.8185 7.06988 15.4857 7.33197 15.4857 7.65125C15.4857 7.97529 14.8185 8.23261 13.9894 8.23261C13.1602 8.23261 12.4883 7.97529 12.4883 7.65125C12.4883 7.33197 13.1602 7.06988 13.9894 7.06988" fill="white"/>
<path d="M19.2877 6.9126L20.9413 7.57021L19.283 8.22306V6.9126" fill="#621B1C"/>
<path d="M17.4512 7.63692L19.2858 6.9126V8.22306L19.1047 8.29453L17.4512 7.63692Z" fill="#9A2928"/>
</g>
<path d="M33.8452 14.4855V7.06141H36.1038C36.8846 7.06141 37.5015 7.26008 37.9546 7.65742C38.4077 8.0478 38.6343 8.58805 38.6343 9.27817C38.6343 9.62672 38.5541 9.93693 38.3938 10.2088C38.2334 10.4737 38.0278 10.6828 37.7768 10.8362C37.5259 10.9895 37.268 11.0767 37.0031 11.0976L36.9612 10.9721C37.4562 11 37.8256 11.1185 38.0696 11.3276C38.3206 11.5368 38.467 11.8783 38.5088 12.3524L38.697 14.4855H37.7978L37.62 12.4674C37.5991 12.2373 37.5433 12.0526 37.4527 11.9132C37.369 11.7668 37.2331 11.6622 37.0449 11.5995C36.8637 11.5298 36.6127 11.4949 36.292 11.4949H34.7445V14.4855H33.8452ZM34.7445 10.6166H36.1038C36.6197 10.6166 37.0135 10.5016 37.2854 10.2715C37.5573 10.0345 37.6932 9.7034 37.6932 9.27817C37.6932 8.84597 37.5573 8.51485 37.2854 8.28481C37.0135 8.05477 36.6197 7.93975 36.1038 7.93975H34.7445V10.6166ZM42.6141 14.611C42.0913 14.611 41.6382 14.4924 41.2548 14.2554C40.8783 14.0184 40.5855 13.6838 40.3764 13.2516C40.1743 12.8124 40.0732 12.3001 40.0732 11.7145C40.0732 11.129 40.1743 10.6201 40.3764 10.1879C40.5855 9.75568 40.8748 9.42108 41.2443 9.18406C41.6207 8.94008 42.0634 8.81809 42.5723 8.81809C43.0533 8.81809 43.4785 8.93311 43.848 9.16315C44.2174 9.38622 44.5067 9.71386 44.7158 10.1461C44.925 10.5783 45.0295 11.1046 45.0295 11.725V11.9864H40.9933C41.0282 12.5789 41.185 13.0251 41.4639 13.3248C41.7497 13.6246 42.1331 13.7744 42.6141 13.7744C42.9766 13.7744 43.2728 13.6908 43.5029 13.5235C43.7399 13.3492 43.9037 13.1227 43.9943 12.8438L44.9354 12.917C44.789 13.4119 44.5102 13.8197 44.0989 14.1404C43.6946 14.4541 43.1997 14.611 42.6141 14.611ZM40.9933 11.2126H44.0675C44.0257 10.6758 43.8689 10.282 43.597 10.031C43.3251 9.78008 42.9836 9.6546 42.5723 9.6546C42.147 9.6546 41.795 9.78705 41.5162 10.0519C41.2443 10.3099 41.07 10.6968 40.9933 11.2126ZM48.4447 14.611C47.9567 14.611 47.535 14.4924 47.1795 14.2554C46.824 14.0184 46.5486 13.6838 46.3534 13.2516C46.1652 12.8194 46.0711 12.3071 46.0711 11.7145C46.0711 11.122 46.1652 10.6096 46.3534 10.1774C46.5486 9.74522 46.824 9.41062 47.1795 9.17361C47.535 8.93659 47.9567 8.81809 48.4447 8.81809C48.8351 8.81809 49.1766 8.9122 49.4694 9.10041C49.7622 9.28166 49.9748 9.4873 50.1073 9.71734V7.06141H50.9856V14.4855H50.1909L50.1596 13.649C50.0062 13.9487 49.7796 14.1857 49.4799 14.36C49.1801 14.5273 48.8351 14.611 48.4447 14.611ZM48.497 13.7744C48.8316 13.7744 49.1174 13.6908 49.3544 13.5235C49.5984 13.3562 49.7831 13.1192 49.9086 12.8124C50.041 12.4988 50.1073 12.1328 50.1073 11.7145C50.1073 11.2823 50.041 10.9129 49.9086 10.6061C49.7831 10.2994 49.5984 10.0659 49.3544 9.90556C49.1104 9.73825 48.8176 9.6546 48.4761 9.6546C48.023 9.6546 47.6605 9.83933 47.3886 10.2088C47.1237 10.5713 46.9913 11.0732 46.9913 11.7145C46.9913 12.3489 47.1237 12.8508 47.3886 13.2202C47.6605 13.5897 48.0299 13.7744 48.497 13.7744ZM54.9863 14.4855V8.94356H55.8647V14.4855H54.9863ZM52.7591 14.4855V13.7117H57.7782V14.4855H52.7591ZM52.8637 9.71734V8.94356H55.8647V9.71734H52.8637ZM54.9027 8.07568V7.05095H55.8229V8.07568H54.9027ZM61.4339 14.611C60.9529 14.611 60.5381 14.5273 60.1896 14.36C59.841 14.1927 59.5657 13.9696 59.3635 13.6908C59.1683 13.405 59.0568 13.0878 59.0289 12.7392L59.9491 12.6765C60.0048 13.0181 60.1547 13.2865 60.3987 13.4817C60.6496 13.6768 60.9947 13.7744 61.4339 13.7744C61.8452 13.7744 62.1623 13.7152 62.3854 13.5967C62.6154 13.4782 62.7305 13.2934 62.7305 13.0425C62.7305 12.8822 62.6921 12.7497 62.6154 12.6451C62.5388 12.5406 62.3959 12.4534 62.1867 12.3837C61.9776 12.3071 61.6709 12.2339 61.2666 12.1641C60.7298 12.0666 60.3081 11.948 60.0013 11.8086C59.7016 11.6622 59.489 11.481 59.3635 11.2649C59.238 11.0488 59.1753 10.7909 59.1753 10.4911C59.1753 10.1705 59.2554 9.88464 59.4158 9.63369C59.5761 9.38274 59.8131 9.18406 60.1268 9.03767C60.4405 8.89128 60.8239 8.81809 61.277 8.81809C61.7371 8.81809 62.1205 8.90174 62.4272 9.06904C62.7409 9.22937 62.9884 9.44547 63.1696 9.71734C63.3509 9.98224 63.4694 10.275 63.5252 10.5957L62.605 10.6584C62.5632 10.4632 62.483 10.2924 62.3645 10.1461C62.253 9.99269 62.1031 9.87419 61.9149 9.79054C61.7336 9.69991 61.5175 9.6546 61.2666 9.6546C60.8623 9.6546 60.5625 9.73477 60.3673 9.8951C60.1721 10.0554 60.0745 10.2541 60.0745 10.4911C60.0745 10.6793 60.1198 10.8292 60.2105 10.9407C60.3011 11.0523 60.4475 11.1429 60.6496 11.2126C60.8518 11.2753 61.1202 11.3346 61.4548 11.3904C62.0264 11.481 62.4691 11.5995 62.7828 11.7459C63.0964 11.8853 63.316 12.0596 63.4415 12.2687C63.567 12.4778 63.6297 12.7358 63.6297 13.0425C63.6297 13.3701 63.5321 13.6524 63.3369 13.8895C63.1487 14.1195 62.8873 14.2973 62.5527 14.4227C62.2251 14.5482 61.8521 14.611 61.4339 14.611Z" fill="#D4D4D4"/>
</g>
<defs>
<filter id="filter0_ii_306_343" x="0" y="0" width="74.9551" height="20.8954" filterUnits="userSpaceOnUse" color-interpolation-filters="sRGB">
<feFlood flood-opacity="0" result="BackgroundImageFix"/>
<feBlend mode="normal" in="SourceGraphic" in2="BackgroundImageFix" result="shape"/>
<feColorMatrix in="SourceAlpha" type="matrix" values="0 0 0 0 0 0 0 0 0 0 0 0 0 0 0 0 0 0 127 0" result="hardAlpha"/>
<feMorphology radius="0.871369" operator="erode" in="SourceAlpha" result="effect1_innerShadow_306_343"/>
<feOffset/>
<feComposite in2="hardAlpha" operator="arithmetic" k2="-1" k3="1"/>
<feColorMatrix type="matrix" values="0 0 0 0 1 0 0 0 0 1 0 0 0 0 1 0 0 0 0.06 0"/>
<feBlend mode="normal" in2="shape" result="effect1_innerShadow_306_343"/>
<feColorMatrix in="SourceAlpha" type="matrix" values="0 0 0 0 0 0 0 0 0 0 0 0 0 0 0 0 0 0 127 0" result="hardAlpha"/>
<feOffset dy="0.871369"/>
<feComposite in2="hardAlpha" operator="arithmetic" k2="-1" k3="1"/>
<feColorMatrix type="matrix" values="0 0 0 0 1 0 0 0 0 1 0 0 0 0 1 0 0 0 0.1 0"/>
<feBlend mode="normal" in2="effect1_innerShadow_306_343" result="effect2_innerShadow_306_343"/>
</filter>
<clipPath id="clip0_306_343">
<rect width="12.1992" height="12.1992" fill="white" transform="translate(10.457 4.33936)"/>
</clipPath>
</defs>
</svg>
