<svg width="107" height="21" viewBox="0 0 107 21" fill="none" xmlns="http://www.w3.org/2000/svg">
<g filter="url(#filter0_ii_306_358)">
<rect width="106.324" height="20.8954" rx="6.97095" fill="#171717"/>
<g clip-path="url(#clip0_306_358)">
<path d="M22.6562 13.7918C22.2125 13.9046 21.938 13.7967 21.6917 13.4269L19.9404 11.0039L19.6872 10.6684L17.642 13.4349C17.4083 13.7678 17.1631 13.9126 16.727 13.7948L19.346 10.2792L16.9077 7.10358C17.3271 7.02199 17.6168 7.06355 17.8741 7.43905L19.6907 9.89223L21.5205 7.4524C21.755 7.11959 22.007 6.99302 22.4278 7.11577L21.4824 8.36924L20.2015 10.0371C20.049 10.2277 20.07 10.3581 20.2103 10.5422L22.6562 13.7918ZM10.4601 10.2205L10.6743 9.16676C11.2576 7.08146 13.6479 6.21494 15.2963 7.50348C16.2596 8.26135 16.4991 9.33336 16.4514 10.5342H11.0212C10.9397 12.6958 12.4954 14.0003 14.4789 13.3347C15.1747 13.101 15.5845 12.5562 15.7896 11.8746C15.8937 11.533 16.066 11.4796 16.387 11.5772C16.223 12.4297 15.8533 13.1418 15.0717 13.5874C13.9041 14.2546 12.2373 14.0388 11.3605 13.1117C10.8383 12.5738 10.6225 11.8921 10.5257 11.1632C10.5104 11.0428 10.4799 10.928 10.457 10.8125C10.4591 10.6153 10.4601 10.4181 10.4601 10.2208V10.2205ZM11.0312 10.0756H15.9383C15.9062 8.51258 14.933 7.40246 13.6029 7.39292C12.1428 7.38149 11.0944 8.46531 11.0312 10.0756Z" fill="white"/>
</g>
<path d="M34.0524 14.4855V7.06141H38.5696V7.93975H34.9517V10.3343H38.4441V11.1917H34.9517V13.6071H38.6532V14.4855H34.0524ZM39.9457 14.4855L41.9848 11.6413L40.0503 8.94356H41.075L42.5285 11.0349L43.9506 8.94356H44.9962L43.0722 11.6622L45.0903 14.4855H44.0656L42.5285 12.2478L40.9914 14.4855H39.9457ZM46.4874 16.0539V8.94356H47.303L47.3239 10.1983L47.1984 10.1356C47.3378 9.7034 47.5679 9.37576 47.8886 9.15269C48.2162 8.92962 48.5926 8.81809 49.0178 8.81809C49.5686 8.81809 50.0182 8.95402 50.3667 9.22589C50.7222 9.49776 50.9837 9.85327 51.151 10.2924C51.3183 10.7316 51.4019 11.2056 51.4019 11.7145C51.4019 12.2234 51.3183 12.6974 51.151 13.1366C50.9837 13.5758 50.7222 13.9313 50.3667 14.2031C50.0182 14.475 49.5686 14.611 49.0178 14.611C48.732 14.611 48.4637 14.5622 48.2127 14.4646C47.9687 14.367 47.7596 14.231 47.5853 14.0568C47.418 13.8825 47.303 13.6768 47.2403 13.4398L47.3657 13.2934V16.0539H46.4874ZM48.9342 13.7744C49.4152 13.7744 49.7916 13.5932 50.0635 13.2307C50.3423 12.8682 50.4817 12.3628 50.4817 11.7145C50.4817 11.0662 50.3423 10.5608 50.0635 10.1983C49.7916 9.83585 49.4152 9.6546 48.9342 9.6546C48.6135 9.6546 48.3347 9.73128 48.0977 9.88464C47.8676 10.038 47.6864 10.268 47.5539 10.5748C47.4285 10.8815 47.3657 11.2614 47.3657 11.7145C47.3657 12.1676 47.4285 12.5475 47.5539 12.8543C47.6794 13.161 47.8607 13.391 48.0977 13.5444C48.3347 13.6978 48.6135 13.7744 48.9342 13.7744ZM54.3047 14.4855V8.94356H55.0367L55.1203 10.3447L55.0367 10.3238C55.1064 9.84979 55.2563 9.50124 55.4863 9.27817C55.7233 9.0551 56.037 8.94356 56.4274 8.94356H57.5671V9.73825H56.4378C56.166 9.73825 55.9359 9.79402 55.7477 9.90556C55.5665 10.0101 55.427 10.167 55.3294 10.3761C55.2319 10.5783 55.1831 10.8327 55.1831 11.1394V14.4855H54.3047ZM52.8617 14.4855V13.7117H56.9397V14.4855H52.8617ZM52.8617 9.71734V8.94356H54.7857V9.71734H52.8617ZM61.4215 14.611C60.8986 14.611 60.4455 14.4924 60.0621 14.2554C59.6857 14.0184 59.3929 13.6838 59.1838 13.2516C58.9816 12.8124 58.8806 12.3001 58.8806 11.7145C58.8806 11.129 58.9816 10.6201 59.1838 10.1879C59.3929 9.75568 59.6822 9.42108 60.0517 9.18406C60.4281 8.94008 60.8708 8.81809 61.3796 8.81809C61.8606 8.81809 62.2859 8.93311 62.6553 9.16315C63.0248 9.38622 63.3141 9.71386 63.5232 10.1461C63.7323 10.5783 63.8369 11.1046 63.8369 11.725V11.9864H59.8007C59.8356 12.5789 59.9924 13.0251 60.2713 13.3248C60.5571 13.6246 60.9405 13.7744 61.4215 13.7744C61.784 13.7744 62.0802 13.6908 62.3103 13.5235C62.5473 13.3492 62.7111 13.1227 62.8017 12.8438L63.7428 12.917C63.5964 13.4119 63.3176 13.8197 62.9063 14.1404C62.502 14.4541 62.007 14.611 61.4215 14.611ZM59.8007 11.2126H62.8749C62.8331 10.6758 62.6762 10.282 62.4044 10.031C62.1325 9.78008 61.7909 9.6546 61.3796 9.6546C60.9544 9.6546 60.6024 9.78705 60.3235 10.0519C60.0517 10.3099 59.8774 10.6968 59.8007 11.2126ZM67.7017 14.611C67.2207 14.611 66.8059 14.5273 66.4574 14.36C66.1088 14.1927 65.8335 13.9696 65.6313 13.6908C65.4361 13.405 65.3246 13.0878 65.2967 12.7392L66.2169 12.6765C66.2726 13.0181 66.4225 13.2865 66.6665 13.4817C66.9175 13.6768 67.2625 13.7744 67.7017 13.7744C68.113 13.7744 68.4302 13.7152 68.6532 13.5967C68.8833 13.4782 68.9983 13.2934 68.9983 13.0425C68.9983 12.8822 68.96 12.7497 68.8833 12.6451C68.8066 12.5406 68.6637 12.4534 68.4546 12.3837C68.2454 12.3071 67.9387 12.2339 67.5344 12.1641C66.9976 12.0666 66.5759 11.948 66.2692 11.8086C65.9694 11.6622 65.7568 11.481 65.6313 11.2649C65.5058 11.0488 65.4431 10.7909 65.4431 10.4911C65.4431 10.1705 65.5233 9.88464 65.6836 9.63369C65.8439 9.38274 66.0809 9.18406 66.3946 9.03767C66.7083 8.89128 67.0917 8.81809 67.5448 8.81809C68.0049 8.81809 68.3883 8.90174 68.6951 9.06904C69.0087 9.22937 69.2562 9.44547 69.4375 9.71734C69.6187 9.98224 69.7372 10.275 69.793 10.5957L68.8728 10.6584C68.831 10.4632 68.7508 10.2924 68.6323 10.1461C68.5208 9.99269 68.3709 9.87419 68.1827 9.79054C68.0014 9.69991 67.7853 9.6546 67.5344 9.6546C67.1301 9.6546 66.8303 9.73477 66.6351 9.8951C66.44 10.0554 66.3424 10.2541 66.3424 10.4911C66.3424 10.6793 66.3877 10.8292 66.4783 10.9407C66.5689 11.0523 66.7153 11.1429 66.9175 11.2126C67.1196 11.2753 67.388 11.3346 67.7226 11.3904C68.2942 11.481 68.7369 11.5995 69.0506 11.7459C69.3643 11.8853 69.5839 12.0596 69.7093 12.2687C69.8348 12.4778 69.8975 12.7358 69.8975 13.0425C69.8975 13.3701 69.8 13.6524 69.6048 13.8895C69.4166 14.1195 69.1551 14.2973 68.8205 14.4227C68.4929 14.5482 68.12 14.611 67.7017 14.611ZM73.9715 14.611C73.4905 14.611 73.0757 14.5273 72.7272 14.36C72.3786 14.1927 72.1033 13.9696 71.9011 13.6908C71.7059 13.405 71.5944 13.0878 71.5665 12.7392L72.4867 12.6765C72.5424 13.0181 72.6923 13.2865 72.9363 13.4817C73.1872 13.6768 73.5323 13.7744 73.9715 13.7744C74.3828 13.7744 74.6999 13.7152 74.923 13.5967C75.153 13.4782 75.2681 13.2934 75.2681 13.0425C75.2681 12.8822 75.2297 12.7497 75.153 12.6451C75.0764 12.5406 74.9335 12.4534 74.7243 12.3837C74.5152 12.3071 74.2085 12.2339 73.8042 12.1641C73.2674 12.0666 72.8457 11.948 72.5389 11.8086C72.2392 11.6622 72.0266 11.481 71.9011 11.2649C71.7756 11.0488 71.7129 10.7909 71.7129 10.4911C71.7129 10.1705 71.793 9.88464 71.9534 9.63369C72.1137 9.38274 72.3507 9.18406 72.6644 9.03767C72.9781 8.89128 73.3615 8.81809 73.8146 8.81809C74.2747 8.81809 74.6581 8.90174 74.9648 9.06904C75.2785 9.22937 75.526 9.44547 75.7072 9.71734C75.8885 9.98224 76.007 10.275 76.0628 10.5957L75.1426 10.6584C75.1008 10.4632 75.0206 10.2924 74.9021 10.1461C74.7906 9.99269 74.6407 9.87419 74.4525 9.79054C74.2712 9.69991 74.0551 9.6546 73.8042 9.6546C73.3998 9.6546 73.1001 9.73477 72.9049 9.8951C72.7097 10.0554 72.6121 10.2541 72.6121 10.4911C72.6121 10.6793 72.6574 10.8292 72.7481 10.9407C72.8387 11.0523 72.9851 11.1429 73.1872 11.2126C73.3894 11.2753 73.6578 11.3346 73.9924 11.3904C74.564 11.481 75.0067 11.5995 75.3203 11.7459C75.634 11.8853 75.8536 12.0596 75.9791 12.2687C76.1046 12.4778 76.1673 12.7358 76.1673 13.0425C76.1673 13.3701 76.0697 13.6524 75.8745 13.8895C75.6863 14.1195 75.4249 14.2973 75.0903 14.4227C74.7627 14.5482 74.3897 14.611 73.9715 14.611ZM79.4884 14.4855V13.2098H80.785V14.4855H79.4884ZM84.4197 16.0539V15.2802H86.1764C86.4483 15.2802 86.6504 15.2209 86.7829 15.1024C86.9223 14.9839 86.992 14.7573 86.992 14.4227V8.94356H87.8704V14.4855C87.8704 14.9944 87.7449 15.3812 87.4939 15.6461C87.243 15.918 86.8387 16.0539 86.281 16.0539H84.4197ZM84.5243 9.71734V8.94356H87.4939V9.71734H84.5243ZM86.9397 8.07568V7.05095H87.8599V8.07568H86.9397ZM92.7808 14.611C92.2998 14.611 91.885 14.5273 91.5365 14.36C91.1879 14.1927 90.9126 13.9696 90.7104 13.6908C90.5152 13.405 90.4037 13.0878 90.3758 12.7392L91.296 12.6765C91.3517 13.0181 91.5016 13.2865 91.7456 13.4817C91.9966 13.6768 92.3416 13.7744 92.7808 13.7744C93.1921 13.7744 93.5093 13.7152 93.7323 13.5967C93.9624 13.4782 94.0774 13.2934 94.0774 13.0425C94.0774 12.8822 94.0391 12.7497 93.9624 12.6451C93.8857 12.5406 93.7428 12.4534 93.5337 12.3837C93.3245 12.3071 93.0178 12.2339 92.6135 12.1641C92.0767 12.0666 91.655 11.948 91.3483 11.8086C91.0485 11.6622 90.8359 11.481 90.7104 11.2649C90.5849 11.0488 90.5222 10.7909 90.5222 10.4911C90.5222 10.1705 90.6024 9.88464 90.7627 9.63369C90.923 9.38274 91.16 9.18406 91.4737 9.03767C91.7874 8.89128 92.1708 8.81809 92.6239 8.81809C93.084 8.81809 93.4674 8.90174 93.7742 9.06904C94.0878 9.22937 94.3353 9.44547 94.5166 9.71734C94.6978 9.98224 94.8163 10.275 94.8721 10.5957L93.9519 10.6584C93.9101 10.4632 93.8299 10.2924 93.7114 10.1461C93.5999 9.99269 93.45 9.87419 93.2618 9.79054C93.0805 9.69991 92.8644 9.6546 92.6135 9.6546C92.2092 9.6546 91.9094 9.73477 91.7142 9.8951C91.5191 10.0554 91.4215 10.2541 91.4215 10.4911C91.4215 10.6793 91.4668 10.8292 91.5574 10.9407C91.648 11.0523 91.7944 11.1429 91.9966 11.2126C92.1987 11.2753 92.4671 11.3346 92.8017 11.3904C93.3733 11.481 93.816 11.5995 94.1297 11.7459C94.4434 11.8853 94.663 12.0596 94.7884 12.2687C94.9139 12.4778 94.9766 12.7358 94.9766 13.0425C94.9766 13.3701 94.8791 13.6524 94.6839 13.8895C94.4956 14.1195 94.2342 14.2973 93.8996 14.4227C93.572 14.5482 93.1991 14.611 92.7808 14.611Z" fill="#D4D4D4"/>
</g>
<defs>
<filter id="filter0_ii_306_358" x="0" y="0" width="106.324" height="20.8954" filterUnits="userSpaceOnUse" color-interpolation-filters="sRGB">
<feFlood flood-opacity="0" result="BackgroundImageFix"/>
<feBlend mode="normal" in="SourceGraphic" in2="BackgroundImageFix" result="shape"/>
<feColorMatrix in="SourceAlpha" type="matrix" values="0 0 0 0 0 0 0 0 0 0 0 0 0 0 0 0 0 0 127 0" result="hardAlpha"/>
<feMorphology radius="0.871369" operator="erode" in="SourceAlpha" result="effect1_innerShadow_306_358"/>
<feOffset/>
<feComposite in2="hardAlpha" operator="arithmetic" k2="-1" k3="1"/>
<feColorMatrix type="matrix" values="0 0 0 0 1 0 0 0 0 1 0 0 0 0 1 0 0 0 0.06 0"/>
<feBlend mode="normal" in2="shape" result="effect1_innerShadow_306_358"/>
<feColorMatrix in="SourceAlpha" type="matrix" values="0 0 0 0 0 0 0 0 0 0 0 0 0 0 0 0 0 0 127 0" result="hardAlpha"/>
<feOffset dy="0.871369"/>
<feComposite in2="hardAlpha" operator="arithmetic" k2="-1" k3="1"/>
<feColorMatrix type="matrix" values="0 0 0 0 1 0 0 0 0 1 0 0 0 0 1 0 0 0 0.1 0"/>
<feBlend mode="normal" in2="effect1_innerShadow_306_358" result="effect2_innerShadow_306_358"/>
</filter>
<clipPath id="clip0_306_358">
<rect width="12.1992" height="12.1992" fill="white" transform="translate(10.457 4.33936)"/>
</clipPath>
</defs>
</svg>
