<svg width="82" height="21" viewBox="0 0 82 21" fill="none" xmlns="http://www.w3.org/2000/svg">
<g filter="url(#filter0_ii_306_350)">
<rect width="81.2116" height="20.8954" rx="6.97095" fill="#171717"/>
<g clip-path="url(#clip0_306_350)">
<path d="M17.5615 9.97146H18.6391C18.6517 9.97146 18.6643 9.96896 18.676 9.96411C18.6877 9.95925 18.6984 9.95214 18.7073 9.94317C18.7163 9.9342 18.7234 9.92356 18.7283 9.91184C18.7331 9.90012 18.7356 9.88756 18.7356 9.87488V8.91928C18.7356 8.9066 18.7331 8.89404 18.7283 8.88232C18.7234 8.8706 18.7163 8.85996 18.7073 8.85099C18.6984 8.84202 18.6877 8.83491 18.676 8.83005C18.6643 8.8252 18.6517 8.8227 18.6391 8.8227H17.5615C17.5372 8.8227 17.5139 8.83234 17.4968 8.8495C17.4796 8.86666 17.47 8.88993 17.47 8.9142V9.87996C17.47 9.93079 17.5106 9.97146 17.5615 9.97146ZM16.062 7.2114H17.1396C17.1643 7.21009 17.1876 7.19935 17.2046 7.18137C17.2216 7.1634 17.2311 7.13958 17.2311 7.11482V6.15413C17.2298 6.13027 17.2198 6.1077 17.2029 6.0908C17.186 6.0739 17.1634 6.06387 17.1396 6.06264H16.062C16.0495 6.06195 16.0371 6.0638 16.0254 6.06809C16.0137 6.07238 16.003 6.07901 15.994 6.08757C15.9849 6.09614 15.9777 6.10646 15.9728 6.11791C15.9679 6.12935 15.9654 6.14168 15.9654 6.15413V7.1199C15.9654 7.17073 16.0112 7.2114 16.062 7.2114ZM16.062 8.58889H17.1396C17.1634 8.58766 17.186 8.57763 17.2029 8.56073C17.2198 8.54383 17.2298 8.52126 17.2311 8.49739V7.53671C17.2298 7.51284 17.2198 7.49027 17.2029 7.47337C17.186 7.45647 17.1634 7.44644 17.1396 7.44521H16.062C16.0495 7.44452 16.0371 7.44638 16.0254 7.45066C16.0137 7.45495 16.003 7.46158 15.994 7.47015C15.9849 7.47871 15.9777 7.48903 15.9728 7.50048C15.9679 7.51192 15.9654 7.52425 15.9654 7.53671V8.49739C15.9654 8.54822 16.0112 8.58889 16.062 8.58889ZM14.5727 8.58889H15.6503C15.6741 8.58766 15.6967 8.57763 15.7136 8.56073C15.7305 8.54383 15.7405 8.52126 15.7418 8.49739V7.53671C15.7418 7.51244 15.7321 7.48917 15.715 7.47201C15.6978 7.45485 15.6745 7.44521 15.6503 7.44521H14.5727C14.5484 7.44521 14.5251 7.45485 14.508 7.47201C14.4908 7.48917 14.4812 7.51244 14.4812 7.53671V8.49739C14.4812 8.54822 14.5218 8.58889 14.5727 8.58889ZM13.0681 8.58889H14.1406C14.1654 8.58892 14.1892 8.57945 14.2072 8.56242C14.2251 8.54539 14.2359 8.52211 14.2372 8.49739V7.53671C14.2372 7.52425 14.2347 7.51192 14.2298 7.50048C14.2249 7.48903 14.2177 7.47871 14.2086 7.47015C14.1996 7.46158 14.1889 7.45495 14.1772 7.45066C14.1655 7.44638 14.153 7.44452 14.1406 7.44521H13.0681C13.0433 7.44518 13.0195 7.45465 13.0015 7.47168C12.9836 7.48871 12.9728 7.51198 12.9715 7.53671V8.49739C12.9715 8.54822 13.0122 8.58889 13.0681 8.58889ZM16.062 9.97146H17.1396C17.1643 9.97016 17.1876 9.95941 17.2046 9.94144C17.2216 9.92346 17.2311 9.89964 17.2311 9.87488V8.91928C17.2311 8.89452 17.2216 8.8707 17.2046 8.85273C17.1876 8.83475 17.1643 8.82401 17.1396 8.8227H16.062C16.0495 8.82201 16.0371 8.82387 16.0254 8.82815C16.0137 8.83244 16.003 8.83907 15.994 8.84764C15.9849 8.8562 15.9777 8.86652 15.9728 8.87797C15.9679 8.88941 15.9654 8.90174 15.9654 8.9142V9.87996C15.9654 9.93079 16.0112 9.97146 16.062 9.97146ZM14.5727 9.97146H15.6503C15.6627 9.97148 15.675 9.96895 15.6865 9.96404C15.6979 9.95913 15.7083 9.95193 15.7168 9.94289C15.7254 9.93385 15.732 9.92315 15.7363 9.91146C15.7406 9.89976 15.7424 9.88732 15.7418 9.87488V8.91928C15.7424 8.90684 15.7406 8.8944 15.7363 8.8827C15.732 8.87101 15.7254 8.86031 15.7168 8.85127C15.7083 8.84223 15.6979 8.83503 15.6865 8.83012C15.675 8.82521 15.6627 8.82268 15.6503 8.8227H14.5727C14.5484 8.8227 14.5251 8.83234 14.508 8.8495C14.4908 8.86666 14.4812 8.88993 14.4812 8.9142V9.87996C14.4812 9.93079 14.5218 9.97146 14.5727 9.97146ZM13.0681 9.97146H14.1406C14.1535 9.9722 14.1664 9.9702 14.1784 9.96561C14.1905 9.96102 14.2014 9.95393 14.2105 9.94481C14.2197 9.93569 14.2267 9.92475 14.2313 9.91269C14.2359 9.90064 14.2379 9.88776 14.2372 9.87488V8.91928C14.2379 8.90684 14.236 8.8944 14.2317 8.8827C14.2275 8.87101 14.2208 8.86031 14.2123 8.85127C14.2037 8.84223 14.1934 8.83503 14.1819 8.83012C14.1705 8.82521 14.1582 8.82268 14.1457 8.8227H13.0681C13.0425 8.8227 13.0179 8.83288 12.9998 8.85099C12.9817 8.8691 12.9715 8.89367 12.9715 8.91928V9.87488C12.9715 9.92571 13.0122 9.97146 13.0681 9.97146ZM11.5839 9.97146H12.6615C12.6739 9.97148 12.6862 9.96895 12.6977 9.96404C12.7091 9.95913 12.7195 9.95193 12.728 9.94289C12.7366 9.93385 12.7432 9.92315 12.7475 9.91146C12.7518 9.89976 12.7536 9.88732 12.753 9.87488V8.91928C12.7536 8.90684 12.7518 8.8944 12.7475 8.8827C12.7432 8.87101 12.7366 8.86031 12.728 8.85127C12.7195 8.84223 12.7091 8.83503 12.6977 8.83012C12.6862 8.82521 12.6739 8.82268 12.6615 8.8227H11.5839C11.5714 8.82201 11.559 8.82387 11.5473 8.82815C11.5356 8.83244 11.5249 8.83907 11.5159 8.84764C11.5068 8.8562 11.4996 8.86652 11.4947 8.87797C11.4898 8.88941 11.4873 8.90174 11.4873 8.9142V9.87996C11.4873 9.93079 11.528 9.97146 11.5839 9.97146ZM22.5326 9.36658C22.5021 9.34117 22.1921 9.10735 21.5414 9.10735C21.3686 9.10735 21.1958 9.1226 21.0281 9.1531C20.983 8.88592 20.8817 8.63134 20.731 8.40616C20.5803 8.18099 20.3836 7.99033 20.1538 7.84677L19.981 7.74511L19.8641 7.91285C19.722 8.13613 19.6189 8.38191 19.5591 8.63972C19.4371 9.13277 19.5082 9.59532 19.7624 9.99179C19.4824 10.1196 19.1804 10.1921 18.8729 10.2053H10.8418C10.7913 10.2046 10.7411 10.214 10.6943 10.2328C10.6475 10.2517 10.6048 10.2797 10.5689 10.3151C10.533 10.3506 10.5044 10.3928 10.4849 10.4394C10.4655 10.486 10.4554 10.536 10.4554 10.5865C10.4475 11.2903 10.5681 11.9897 10.8113 12.6502C11.029 13.3004 11.4586 13.8588 12.0312 14.2361C12.631 14.6071 13.6069 14.8155 14.715 14.8155C15.2131 14.8155 15.7113 14.7749 16.2043 14.6834C16.8867 14.5561 17.543 14.3155 18.146 13.9718C18.6436 13.6846 19.0916 13.319 19.4727 12.8891C20.108 12.1673 20.4893 11.3642 20.7688 10.6526H20.8857C21.5821 10.6526 22.0091 10.373 22.248 10.1443C22.4005 9.99179 22.5275 9.8088 22.6038 9.60548L22.6546 9.46316L22.5326 9.36658Z" fill="#008FE2"/>
</g>
<path d="M34.0522 14.4855V7.06147H35.8088C36.4502 7.06147 37.0078 7.20786 37.4819 7.50064C37.9629 7.78645 38.3323 8.20819 38.5903 8.76587C38.8552 9.31657 38.9876 9.98927 38.9876 10.784C38.9876 11.5786 38.8552 12.2513 38.5903 12.802C38.3323 13.3528 37.9629 13.771 37.4819 14.0568C37.0078 14.3426 36.4502 14.4855 35.8088 14.4855H34.0522ZM34.9514 13.6072H35.7566C36.4815 13.6072 37.0427 13.3737 37.44 12.9066C37.8444 12.4326 38.0465 11.725 38.0465 10.784C38.0465 9.84288 37.8444 9.13533 37.44 8.6613C37.0427 8.18031 36.4815 7.93981 35.7566 7.93981H34.9514V13.6072ZM42.5178 14.611C42.0089 14.611 41.5628 14.4925 41.1794 14.2555C40.8029 14.0185 40.5102 13.6839 40.301 13.2517C40.0919 12.8125 39.9873 12.3001 39.9873 11.7146C39.9873 11.122 40.0919 10.6097 40.301 10.1775C40.5102 9.74529 40.8029 9.41068 41.1794 9.17367C41.5628 8.93665 42.0089 8.81815 42.5178 8.81815C43.0267 8.81815 43.4693 8.93665 43.8458 9.17367C44.2292 9.41068 44.5254 9.74529 44.7346 10.1775C44.9437 10.6097 45.0482 11.122 45.0482 11.7146C45.0482 12.3001 44.9437 12.8125 44.7346 13.2517C44.5254 13.6839 44.2292 14.0185 43.8458 14.2555C43.4693 14.4925 43.0267 14.611 42.5178 14.611ZM42.5178 13.7745C43.0267 13.7745 43.4205 13.5933 43.6994 13.2308C43.9852 12.8613 44.1281 12.3559 44.1281 11.7146C44.1281 11.0733 43.9852 10.5713 43.6994 10.2089C43.4205 9.83939 43.0267 9.65466 42.5178 9.65466C42.0089 9.65466 41.6116 9.83939 41.3258 10.2089C41.0469 10.5713 40.9075 11.0733 40.9075 11.7146C40.9075 12.3559 41.0469 12.8613 41.3258 13.2308C41.6116 13.5933 42.0089 13.7745 42.5178 13.7745ZM48.934 14.611C48.4181 14.611 47.9685 14.4925 47.5851 14.2555C47.2017 14.0185 46.9054 13.6839 46.6963 13.2517C46.4871 12.8125 46.3826 12.3001 46.3826 11.7146C46.3826 11.129 46.4871 10.6201 46.6963 10.1879C46.9054 9.75574 47.2017 9.42114 47.5851 9.18412C47.9685 8.94014 48.4181 8.81815 48.934 8.81815C49.3452 8.81815 49.7112 8.89483 50.0319 9.04819C50.3525 9.19458 50.6174 9.41068 50.8266 9.69649C51.0357 9.9823 51.1786 10.3308 51.2553 10.7421L50.3351 10.8049C50.2515 10.4354 50.0842 10.1531 49.8332 9.9579C49.5892 9.75574 49.2895 9.65466 48.934 9.65466C48.4251 9.65466 48.0242 9.83939 47.7315 10.2089C47.4457 10.5713 47.3027 11.0733 47.3027 11.7146C47.3027 12.3559 47.4457 12.8613 47.7315 13.2308C48.0242 13.5933 48.4251 13.7745 48.934 13.7745C49.2895 13.7745 49.5962 13.6699 49.8541 13.4608C50.119 13.2517 50.2933 12.938 50.3769 12.5197L51.2971 12.5825C51.2204 12.9938 51.074 13.3528 50.8579 13.6595C50.6418 13.9592 50.37 14.1928 50.0423 14.3601C49.7147 14.5274 49.3452 14.611 48.934 14.611ZM52.8615 14.4855V7.06147H53.7398V11.9237L56.4376 8.94363H57.6087L55.4233 11.2963L57.7133 14.4855H56.6467L54.8273 11.8923L53.7398 13.0425V14.4855H52.8615ZM61.4212 14.611C60.8984 14.611 60.4453 14.4925 60.0619 14.2555C59.6855 14.0185 59.3927 13.6839 59.1835 13.2517C58.9814 12.8125 58.8803 12.3001 58.8803 11.7146C58.8803 11.129 58.9814 10.6201 59.1835 10.1879C59.3927 9.75574 59.682 9.42114 60.0514 9.18412C60.4279 8.94014 60.8705 8.81815 61.3794 8.81815C61.8604 8.81815 62.2856 8.93317 62.6551 9.16321C63.0245 9.38628 63.3138 9.71392 63.523 10.1461C63.7321 10.5783 63.8367 11.1046 63.8367 11.725V11.9864H59.8005C59.8353 12.579 59.9922 13.0251 60.271 13.3249C60.5568 13.6246 60.9402 13.7745 61.4212 13.7745C61.7837 13.7745 62.08 13.6908 62.31 13.5235C62.547 13.3493 62.7108 13.1227 62.8015 12.8439L63.7425 12.9171C63.5962 13.412 63.3173 13.8198 62.906 14.1405C62.5017 14.4542 62.0068 14.611 61.4212 14.611ZM59.8005 11.2127H62.8747C62.8328 10.6759 62.676 10.282 62.4041 10.0311C62.1323 9.78014 61.7907 9.65466 61.3794 9.65466C60.9542 9.65466 60.6021 9.78711 60.3233 10.052C60.0514 10.3099 59.8772 10.6968 59.8005 11.2127ZM66.844 14.4855V8.94363H67.576L67.6596 10.3448L67.576 10.3239C67.6457 9.84985 67.7956 9.5013 68.0256 9.27823C68.2626 9.05516 68.5763 8.94363 68.9667 8.94363H70.1064V9.73831H68.9771C68.7053 9.73831 68.4752 9.79408 68.287 9.90562C68.1058 10.0102 67.9663 10.167 67.8688 10.3762C67.7712 10.5783 67.7224 10.8328 67.7224 11.1395V14.4855H66.844ZM65.401 14.4855V13.7118H69.479V14.4855H65.401ZM65.401 9.7174V8.94363H67.325V9.7174H65.401Z" fill="#D4D4D4"/>
</g>
<defs>
<filter id="filter0_ii_306_350" x="0" y="0" width="81.2117" height="20.8954" filterUnits="userSpaceOnUse" color-interpolation-filters="sRGB">
<feFlood flood-opacity="0" result="BackgroundImageFix"/>
<feBlend mode="normal" in="SourceGraphic" in2="BackgroundImageFix" result="shape"/>
<feColorMatrix in="SourceAlpha" type="matrix" values="0 0 0 0 0 0 0 0 0 0 0 0 0 0 0 0 0 0 127 0" result="hardAlpha"/>
<feMorphology radius="0.871369" operator="erode" in="SourceAlpha" result="effect1_innerShadow_306_350"/>
<feOffset/>
<feComposite in2="hardAlpha" operator="arithmetic" k2="-1" k3="1"/>
<feColorMatrix type="matrix" values="0 0 0 0 1 0 0 0 0 1 0 0 0 0 1 0 0 0 0.06 0"/>
<feBlend mode="normal" in2="shape" result="effect1_innerShadow_306_350"/>
<feColorMatrix in="SourceAlpha" type="matrix" values="0 0 0 0 0 0 0 0 0 0 0 0 0 0 0 0 0 0 127 0" result="hardAlpha"/>
<feOffset dy="0.871369"/>
<feComposite in2="hardAlpha" operator="arithmetic" k2="-1" k3="1"/>
<feColorMatrix type="matrix" values="0 0 0 0 1 0 0 0 0 1 0 0 0 0 1 0 0 0 0.1 0"/>
<feBlend mode="normal" in2="effect1_innerShadow_306_350" result="effect2_innerShadow_306_350"/>
</filter>
<clipPath id="clip0_306_350">
<rect width="12.1992" height="12.1992" fill="white" transform="translate(10.4551 4.33948)"/>
</clipPath>
</defs>
</svg>
