<svg width="63" height="21" viewBox="0 0 63 21" fill="none" xmlns="http://www.w3.org/2000/svg">
<g filter="url(#filter0_ii_306_349)">
<rect width="62.3988" height="20.8954" rx="6.97095" fill="#171717"/>
<g clip-path="url(#clip0_306_349)">
<path d="M13.9066 9.43577L13.9869 9.79693C13.9869 9.91731 14.027 9.99757 14.1073 10.118V10.1982L14.0671 10.3186L13.7862 10.4791L13.706 10.5192L13.5856 10.4791L13.4251 10.2785L13.3047 10.0377C12.9836 10.3989 12.5824 10.5995 12.1409 10.5995C11.7798 10.5995 11.4989 10.4791 11.3384 10.2785C11.1377 10.118 11.0173 9.83706 11.0173 9.51603C11.0173 9.195 11.1377 8.91409 11.3785 8.71345C11.6193 8.47268 11.9403 8.39242 12.3817 8.39242C12.6802 8.39079 12.9774 8.43132 13.2645 8.5128V8.2319C13.2645 7.91087 13.1843 7.71023 13.0639 7.58984C12.9435 7.42933 12.7429 7.3892 12.4218 7.3892L11.9804 7.42933C11.7873 7.47863 11.5993 7.5458 11.4186 7.62997H11.3384C11.2982 7.62997 11.2581 7.58984 11.2581 7.50958V7.30894L11.2982 7.18855C11.2982 7.14842 11.3384 7.1083 11.4186 7.1083L11.9002 6.90765L12.5422 6.82739C13.0238 6.82739 13.3448 6.94778 13.5856 7.14842C13.7862 7.3892 13.9066 7.71023 13.9066 8.15165V9.43577ZM12.3015 10.0778L12.7027 9.99757C12.8633 9.95744 12.9836 9.83706 13.104 9.71667L13.2244 9.4759L13.2645 9.11474V8.95422C13.0143 8.89856 12.7585 8.87163 12.5021 8.87396C12.2613 8.87396 12.0607 8.91409 11.9002 9.03448C11.7798 9.11474 11.7397 9.27525 11.7397 9.4759C11.7397 9.67654 11.7798 9.79693 11.86 9.91731C11.9804 9.99757 12.1008 10.0778 12.3015 10.0778ZM15.5118 10.4791L15.3512 10.439L15.271 10.3186L14.348 7.18855L14.3079 7.02804L14.3882 6.94778H14.7894L14.95 6.98791L15.0302 7.14842L15.7124 9.79693L16.3143 7.14842L16.3946 6.98791L16.5551 6.94778H16.8761L17.0367 6.98791L17.1169 7.14842L17.759 9.83706L18.4412 7.14842L18.5214 6.98791L18.6819 6.94778H19.0431C19.1234 6.94778 19.1635 6.98791 19.1635 7.02804V7.1083L19.1234 7.18855L18.1603 10.3186L18.08 10.4791L17.9195 10.5192H17.5583L17.3978 10.4791L17.3577 10.3186L16.7156 7.71023L16.1137 10.2785L16.0334 10.439L15.8729 10.4791H15.5118ZM20.6884 10.5995C20.3143 10.5967 19.945 10.5146 19.6049 10.3587L19.4845 10.2383L19.4444 10.1581V9.95744C19.4444 9.87719 19.4845 9.83706 19.5246 9.83706H19.6049L19.7253 9.87719C20.0145 10.0111 20.3296 10.0796 20.6483 10.0778C20.889 10.0778 21.0897 9.99757 21.2101 9.91731C21.3706 9.83706 21.4107 9.71667 21.4107 9.55615L21.3304 9.27525L20.9292 9.07461L20.3272 8.87396C20.0463 8.79371 19.8056 8.63319 19.6852 8.47268C19.6072 8.37052 19.5504 8.25379 19.5183 8.12937C19.4861 8.00494 19.4792 7.87534 19.4979 7.74819C19.5166 7.62104 19.5605 7.49892 19.6272 7.38902C19.6938 7.27913 19.7817 7.18368 19.8858 7.1083L20.2871 6.90765C20.5448 6.81933 20.8195 6.79186 21.0897 6.82739C21.2523 6.85846 21.4131 6.89865 21.5712 6.94778L21.7317 7.02804L21.8521 7.1083L21.8923 7.26881V7.42933C21.8923 7.54971 21.8521 7.58984 21.812 7.58984L21.6515 7.50958C21.4107 7.42933 21.1699 7.3892 20.889 7.3892C20.6483 7.3892 20.4476 7.3892 20.3272 7.46945C20.2068 7.54971 20.1667 7.6701 20.1667 7.83061C20.1667 7.951 20.2068 8.03126 20.2871 8.11152C20.3674 8.19177 20.4877 8.27203 20.7285 8.35229L21.2903 8.5128C21.5712 8.63319 21.7719 8.75358 21.8923 8.91409C22.0126 9.07461 22.0929 9.27525 22.0929 9.4759L21.9725 9.95744L21.6916 10.2785C21.5712 10.3989 21.4107 10.4791 21.2502 10.5192L20.6884 10.5995Z" fill="#D4D4D4"/>
<path d="M21.4529 12.5658C19.816 13.6591 17.8606 14.174 15.8975 14.0285C13.9343 13.8831 12.0761 13.0858 10.6181 11.7632C10.4576 11.6428 10.578 11.5225 10.6984 11.6027C12.2927 12.5058 14.0721 13.0331 15.9011 13.1444C17.73 13.2557 19.5603 12.948 21.2523 12.2448C21.4529 12.1645 21.6536 12.4053 21.4529 12.5658Z" fill="#FF9900"/>
<path d="M21.9751 11.9238C21.8145 11.7232 20.8514 11.8034 20.4502 11.8837C20.2896 11.8837 20.2896 11.7633 20.41 11.683C21.1725 11.1614 22.4165 11.3219 22.5369 11.4824C22.6974 11.683 22.4967 12.927 21.8145 13.529C21.6942 13.6092 21.5738 13.5691 21.6139 13.4487C21.8145 13.0474 22.1356 12.1244 21.9751 11.9238Z" fill="#FF9900"/>
</g>
</g>
<defs>
<filter id="filter0_ii_306_349" x="0" y="0" width="62.3987" height="20.8954" filterUnits="userSpaceOnUse" color-interpolation-filters="sRGB">
<feFlood flood-opacity="0" result="BackgroundImageFix"/>
<feBlend mode="normal" in="SourceGraphic" in2="BackgroundImageFix" result="shape"/>
<feColorMatrix in="SourceAlpha" type="matrix" values="0 0 0 0 0 0 0 0 0 0 0 0 0 0 0 0 0 0 127 0" result="hardAlpha"/>
<feMorphology radius="0.871369" operator="erode" in="SourceAlpha" result="effect1_innerShadow_306_349"/>
<feOffset/>
<feComposite in2="hardAlpha" operator="arithmetic" k2="-1" k3="1"/>
<feColorMatrix type="matrix" values="0 0 0 0 1 0 0 0 0 1 0 0 0 0 1 0 0 0 0.06 0"/>
<feBlend mode="normal" in2="shape" result="effect1_innerShadow_306_349"/>
<feColorMatrix in="SourceAlpha" type="matrix" values="0 0 0 0 0 0 0 0 0 0 0 0 0 0 0 0 0 0 127 0" result="hardAlpha"/>
<feOffset dy="0.871369"/>
<feComposite in2="hardAlpha" operator="arithmetic" k2="-1" k3="1"/>
<feColorMatrix type="matrix" values="0 0 0 0 1 0 0 0 0 1 0 0 0 0 1 0 0 0 0.1 0"/>
<feBlend mode="normal" in2="effect1_innerShadow_306_349" result="effect2_innerShadow_306_349"/>
</filter>
<clipPath id="clip0_306_349">
<rect width="12.1992" height="12.1992" fill="white" transform="translate(10.4568 4.33942)"/>
</clipPath>
</defs>
</svg>
