<svg width="132" height="21" viewBox="0 0 132 21" fill="none" xmlns="http://www.w3.org/2000/svg">
<g filter="url(#filter0_ii_306_352)">
<rect width="131.411" height="20.8954" rx="6.97095" fill="#171717"/>
<g clip-path="url(#clip0_306_352)">
<path fill-rule="evenodd" clip-rule="evenodd" d="M12.6555 4.52246C13.7694 4.52246 14.6723 5.42541 14.6723 6.5393C14.6723 7.6532 13.7694 8.55612 12.6555 8.55612C11.5416 8.55612 10.6387 7.6532 10.6387 6.5393C10.6387 5.42541 11.5416 4.52246 12.6555 4.52246Z" stroke="#2088FF" stroke-width="0.448187" stroke-linecap="round" stroke-linejoin="round"/>
<path fill-rule="evenodd" clip-rule="evenodd" d="M15.5672 8.55615C16.3098 8.55615 16.9118 9.15818 16.9118 9.90074C16.9118 10.6433 16.3098 11.2453 15.5672 11.2453C14.8246 11.2453 14.2227 10.6433 14.2227 9.90074C14.2227 9.15818 14.8246 8.55615 15.5672 8.55615Z" stroke="#2088FF" stroke-width="0.448187" stroke-linecap="round" stroke-linejoin="round"/>
<path fill-rule="evenodd" clip-rule="evenodd" d="M15.5672 12.1416C16.3098 12.1416 16.9118 12.7436 16.9118 13.4862C16.9118 14.2288 16.3098 14.8307 15.5672 14.8307C14.8246 14.8307 14.2227 14.2288 14.2227 13.4862C14.2227 12.7436 14.8246 12.1416 15.5672 12.1416Z" stroke="#2088FF" stroke-width="0.448187" stroke-linecap="round" stroke-linejoin="round"/>
<path fill-rule="evenodd" clip-rule="evenodd" d="M19.6024 12.1416C20.345 12.1416 20.9469 12.7436 20.9469 13.4862C20.9469 14.2288 20.345 14.8307 19.6024 14.8307C18.8598 14.8307 18.2578 14.2288 18.2578 13.4862C18.2578 12.7436 18.8598 12.1416 19.6024 12.1416Z" stroke="#79B8FF" stroke-width="0.448187" stroke-linecap="round" stroke-linejoin="round"/>
<path d="M16.0258 9.5885L15.338 10.2754L15.0039 9.94246" stroke="#2088FF" stroke-width="0.448187" stroke-linecap="round" stroke-linejoin="round"/>
<path fill-rule="evenodd" clip-rule="evenodd" d="M19.6024 8.55615C20.345 8.55615 20.9469 9.15818 20.9469 9.90074C20.9469 10.6433 20.345 11.2453 19.6024 11.2453C18.8598 11.2453 18.2578 10.6433 18.2578 9.90074C18.2578 9.15818 18.8598 8.55615 19.6024 8.55615Z" stroke="#2088FF" stroke-width="0.448187" stroke-linecap="round" stroke-linejoin="round"/>
<path d="M20.0589 9.5885L19.3711 10.2754L19.0371 9.94246" stroke="#2088FF" stroke-width="0.448187" stroke-linecap="round" stroke-linejoin="round"/>
<path d="M11.9844 5.82492C11.9844 5.64855 12.1787 5.54131 12.3279 5.63531L13.4737 6.35712C13.6139 6.44539 13.6131 6.64991 13.4724 6.73718L12.3266 7.44766C12.1773 7.54021 11.9844 7.43285 11.9844 7.25721V5.82492Z" stroke="#2088FF" stroke-width="0.448187" stroke-linecap="round" stroke-linejoin="round"/>
<path d="M12.4297 8.55615V11.9176C12.4297 12.7839 13.1417 13.4862 13.9983 13.4862H14.2225" stroke="#2088FF" stroke-width="0.448187" stroke-linecap="round" stroke-linejoin="round"/>
<path d="M14.2144 10.1247C14.3381 10.1247 14.4385 10.0244 14.4385 9.90063C14.4385 9.77687 14.3381 9.67659 14.2144 9.67659V10.1247ZM12.209 8.56396C12.209 9.42596 12.9078 10.1247 13.7698 10.1247V9.67659C13.1553 9.67659 12.6572 9.17844 12.6572 8.56396H12.209ZM13.7698 10.1247H14.2144V9.67659H13.7698V10.1247Z" fill="#2088FF"/>
<path d="M16.9258 9.90076H18.2579" stroke="#2088FF" stroke-width="0.448187" stroke-linecap="round" stroke-linejoin="round"/>
<path fill-rule="evenodd" clip-rule="evenodd" d="M15.1225 13.2622C15.2462 13.2622 15.3466 13.3626 15.3466 13.4863C15.3466 13.6101 15.2462 13.7104 15.1225 13.7104C14.9989 13.7104 14.8984 13.6101 14.8984 13.4863C14.8984 13.3626 14.9989 13.2622 15.1225 13.2622Z" fill="#79B8FF"/>
<path fill-rule="evenodd" clip-rule="evenodd" d="M16.0171 13.2622C16.1407 13.2622 16.2412 13.3626 16.2412 13.4863C16.2412 13.6101 16.1407 13.7104 16.0171 13.7104C15.8934 13.7104 15.793 13.6101 15.793 13.4863C15.793 13.3626 15.8934 13.2622 16.0171 13.2622Z" fill="#79B8FF"/>
<path d="M18.0355 13.4877L17.8086 13.4951" stroke="#79B8FF" stroke-width="0.448187" stroke-linecap="round"/>
</g>
<path d="M36.2271 14.6528C35.7043 14.6528 35.2372 14.5099 34.8259 14.2241C34.4216 13.9313 34.101 13.4991 33.8639 12.9275C33.6269 12.3489 33.5084 11.6344 33.5084 10.784C33.5084 9.9823 33.6165 9.29217 33.8326 8.71358C34.0556 8.13499 34.3728 7.68885 34.7841 7.37516C35.1954 7.0545 35.6903 6.89417 36.2689 6.89417C36.722 6.89417 37.1229 6.99524 37.4714 7.1974C37.8269 7.39956 38.1232 7.68188 38.3602 8.04437C38.5972 8.39989 38.768 8.81118 38.8726 9.27823L37.9315 9.34097C37.813 8.88089 37.6143 8.50446 37.3355 8.21168C37.0636 7.9189 36.7081 7.77251 36.2689 7.77251C35.8855 7.77251 35.5579 7.89101 35.286 8.12802C35.0142 8.35807 34.805 8.69964 34.6586 9.15275C34.5192 9.5989 34.4495 10.1426 34.4495 10.784C34.4495 11.4183 34.5227 11.9586 34.6691 12.4047C34.8155 12.8508 35.0246 13.1924 35.2965 13.4294C35.5753 13.6595 35.9134 13.7745 36.3108 13.7745C36.6663 13.7745 36.9695 13.6839 37.2205 13.5026C37.4784 13.3144 37.6805 13.0565 37.8269 12.7289C37.9733 12.3942 38.0535 12.0143 38.0674 11.5891H36.2898V10.7317H38.9039V14.4855H38.0674L38.0256 12.7289L38.2766 12.8125C38.179 13.168 38.043 13.4852 37.8688 13.764C37.7015 14.0429 37.4819 14.2625 37.21 14.4228C36.9451 14.5762 36.6175 14.6528 36.2271 14.6528ZM42.4446 14.4855V8.94363H43.3229V14.4855H42.4446ZM40.2174 14.4855V13.7118H45.2365V14.4855H40.2174ZM40.3219 9.7174V8.94363H43.3229V9.7174H40.3219ZM42.3609 8.07574V7.05101H43.2811V8.07574H42.3609ZM49.6032 14.4855C49.0664 14.4855 48.6656 14.3601 48.4007 14.1091C48.1358 13.8581 48.0033 13.4747 48.0033 12.9589V7.64703H48.8817V12.9589C48.8817 13.2168 48.9409 13.4085 49.0594 13.534C49.1779 13.6525 49.3592 13.7118 49.6032 13.7118H51.088V14.4855H49.6032ZM46.1735 9.7174V8.94363H51.088V9.7174H46.1735ZM52.5478 14.4855V7.06147H53.447V10.6689L52.987 10.3134H57.1277L56.6676 10.6689V7.06147H57.5669V14.4855H56.6676V10.8362L57.1277 11.1918H52.987L53.447 10.8362V14.4855H52.5478ZM60.9402 14.611C60.3895 14.611 59.9503 14.4263 59.6227 14.0568C59.2951 13.6804 59.1313 13.1645 59.1313 12.5093V8.94363H60.0096V12.2688C60.0096 12.8055 60.1037 13.2029 60.2919 13.4608C60.4871 13.7118 60.7834 13.8372 61.1807 13.8372C61.6129 13.8372 61.9545 13.6978 62.2055 13.419C62.4564 13.1332 62.5819 12.7428 62.5819 12.2479V8.94363H63.4602V14.4855H62.6237V13.1157L62.7596 13.1889C62.6481 13.642 62.4355 13.9941 62.1218 14.245C61.8081 14.489 61.4142 14.611 60.9402 14.611ZM67.9419 14.611C67.5585 14.611 67.217 14.5274 66.9172 14.3601C66.6175 14.1858 66.3874 13.9488 66.2271 13.649L66.1957 14.4855H65.401V7.06147H66.2794V9.7174C66.4188 9.48736 66.6349 9.28172 66.9277 9.10047C67.2205 8.91226 67.5585 8.81815 67.9419 8.81815C68.4299 8.81815 68.8517 8.93665 69.2072 9.17367C69.5627 9.41068 69.8346 9.74529 70.0228 10.1775C70.218 10.6097 70.3156 11.122 70.3156 11.7146C70.3156 12.3071 70.218 12.8195 70.0228 13.2517C69.8346 13.6839 69.5627 14.0185 69.2072 14.2555C68.8517 14.4925 68.4299 14.611 67.9419 14.611ZM67.8897 13.7745C68.3567 13.7745 68.7227 13.5898 68.9876 13.2203C69.2595 12.8508 69.3954 12.3489 69.3954 11.7146C69.3954 11.0733 69.2595 10.5713 68.9876 10.2089C68.7227 9.83939 68.3637 9.65466 67.9106 9.65466C67.569 9.65466 67.2762 9.73831 67.0322 9.90562C66.7883 10.0659 66.6 10.2995 66.4676 10.6062C66.3421 10.9129 66.2794 11.2824 66.2794 11.7146C66.2794 12.1328 66.3421 12.4988 66.4676 12.8125C66.6 13.1192 66.7848 13.3562 67.0218 13.5235C67.2658 13.6908 67.5551 13.7745 67.8897 13.7745ZM77.2714 14.4855L79.53 7.06147H80.7429L83.0015 14.4855H82.0395L80.1364 7.87707L78.2334 14.4855H77.2714ZM78.4111 12.3733L78.7248 11.495H81.5481L81.8617 12.3733H78.4111ZM86.5526 14.611C86.0367 14.611 85.5871 14.4925 85.2037 14.2555C84.8203 14.0185 84.5241 13.6839 84.3149 13.2517C84.1058 12.8125 84.0012 12.3001 84.0012 11.7146C84.0012 11.129 84.1058 10.6201 84.3149 10.1879C84.5241 9.75574 84.8203 9.42114 85.2037 9.18412C85.5871 8.94014 86.0367 8.81815 86.5526 8.81815C86.9639 8.81815 87.3299 8.89483 87.6505 9.04819C87.9712 9.19458 88.2361 9.41068 88.4452 9.69649C88.6543 9.9823 88.7972 10.3308 88.8739 10.7421L87.9538 10.8049C87.8701 10.4354 87.7028 10.1531 87.4519 9.9579C87.2079 9.75574 86.9081 9.65466 86.5526 9.65466C86.0437 9.65466 85.6429 9.83939 85.3501 10.2089C85.0643 10.5713 84.9214 11.0733 84.9214 11.7146C84.9214 12.3559 85.0643 12.8613 85.3501 13.2308C85.6429 13.5933 86.0437 13.7745 86.5526 13.7745C86.9081 13.7745 87.2148 13.6699 87.4728 13.4608C87.7377 13.2517 87.9119 12.938 87.9956 12.5197L88.9158 12.5825C88.8391 12.9938 88.6927 13.3528 88.4766 13.6595C88.2605 13.9592 87.9886 14.1928 87.661 14.3601C87.3333 14.5274 86.9639 14.611 86.5526 14.611ZM93.4916 14.4855C92.9548 14.4855 92.554 14.3601 92.2891 14.1091C92.0242 13.8581 91.8918 13.4747 91.8918 12.9589V7.64703H92.7701V12.9589C92.7701 13.2168 92.8293 13.4085 92.9479 13.534C93.0664 13.6525 93.2476 13.7118 93.4916 13.7118H94.9764V14.4855H93.4916ZM90.0619 9.7174V8.94363H94.9764V9.7174H90.0619ZM98.8726 14.4855V8.94363H99.7509V14.4855H98.8726ZM96.6453 14.4855V13.7118H101.664V14.4855H96.6453ZM96.7499 9.7174V8.94363H99.7509V9.7174H96.7499ZM98.7889 8.07574V7.05101H99.7091V8.07574H98.7889ZM105.216 14.611C104.707 14.611 104.261 14.4925 103.877 14.2555C103.501 14.0185 103.208 13.6839 102.999 13.2517C102.79 12.8125 102.685 12.3001 102.685 11.7146C102.685 11.122 102.79 10.6097 102.999 10.1775C103.208 9.74529 103.501 9.41068 103.877 9.17367C104.261 8.93665 104.707 8.81815 105.216 8.81815C105.724 8.81815 106.167 8.93665 106.544 9.17367C106.927 9.41068 107.223 9.74529 107.432 10.1775C107.641 10.6097 107.746 11.122 107.746 11.7146C107.746 12.3001 107.641 12.8125 107.432 13.2517C107.223 13.6839 106.927 14.0185 106.544 14.2555C106.167 14.4925 105.724 14.611 105.216 14.611ZM105.216 13.7745C105.724 13.7745 106.118 13.5933 106.397 13.2308C106.683 12.8613 106.826 12.3559 106.826 11.7146C106.826 11.0733 106.683 10.5713 106.397 10.2089C106.118 9.83939 105.724 9.65466 105.216 9.65466C104.707 9.65466 104.309 9.83939 104.024 10.2089C103.745 10.5713 103.605 11.0733 103.605 11.7146C103.605 12.3559 103.745 12.8613 104.024 13.2308C104.309 13.5933 104.707 13.7745 105.216 13.7745ZM109.227 14.4855V8.94363H110.032L110.063 10.3552L109.959 10.2611C110.028 9.9335 110.154 9.66512 110.335 9.45599C110.523 9.23989 110.746 9.07956 111.004 8.975C111.262 8.87043 111.534 8.81815 111.82 8.81815C112.245 8.81815 112.597 8.91226 112.876 9.10047C113.162 9.28869 113.378 9.54313 113.524 9.86379C113.671 10.1775 113.744 10.5295 113.744 10.9199V14.4855H112.866V11.1708C112.866 10.655 112.764 10.2646 112.562 9.99973C112.36 9.72786 112.05 9.59192 111.632 9.59192C111.346 9.59192 111.088 9.65466 110.858 9.78014C110.628 9.89865 110.443 10.0764 110.304 10.3134C110.171 10.5435 110.105 10.8293 110.105 11.1708V14.4855H109.227ZM117.86 14.611C117.379 14.611 116.964 14.5274 116.615 14.3601C116.267 14.1928 115.991 13.9697 115.789 13.6908C115.594 13.405 115.483 13.0879 115.455 12.7393L116.375 12.6766C116.431 13.0181 116.58 13.2865 116.824 13.4817C117.075 13.6769 117.42 13.7745 117.86 13.7745C118.271 13.7745 118.588 13.7152 118.811 13.5967C119.041 13.4782 119.156 13.2935 119.156 13.0425C119.156 12.8822 119.118 12.7498 119.041 12.6452C118.965 12.5406 118.822 12.4535 118.613 12.3838C118.403 12.3071 118.097 12.2339 117.692 12.1642C117.156 12.0666 116.734 11.9481 116.427 11.8087C116.127 11.6623 115.915 11.4811 115.789 11.265C115.664 11.0489 115.601 10.7909 115.601 10.4912C115.601 10.1705 115.681 9.8847 115.842 9.63375C116.002 9.3828 116.239 9.18412 116.553 9.03773C116.866 8.89134 117.25 8.81815 117.703 8.81815C118.163 8.81815 118.546 8.9018 118.853 9.0691C119.167 9.22943 119.414 9.44553 119.595 9.7174C119.777 9.9823 119.895 10.2751 119.951 10.5957L119.031 10.6585C118.989 10.4633 118.909 10.2925 118.79 10.1461C118.679 9.99275 118.529 9.87425 118.341 9.7906C118.159 9.69997 117.943 9.65466 117.692 9.65466C117.288 9.65466 116.988 9.73483 116.793 9.89516C116.598 10.0555 116.5 10.2542 116.5 10.4912C116.5 10.6794 116.546 10.8293 116.636 10.9408C116.727 11.0523 116.873 11.143 117.075 11.2127C117.278 11.2754 117.546 11.3347 117.881 11.3904C118.452 11.4811 118.895 11.5996 119.209 11.7459C119.522 11.8854 119.742 12.0596 119.867 12.2688C119.993 12.4779 120.055 12.7358 120.055 13.0425C120.055 13.3702 119.958 13.6525 119.763 13.8895C119.574 14.1196 119.313 14.2973 118.978 14.4228C118.651 14.5483 118.278 14.611 117.86 14.611Z" fill="#D4D4D4"/>
</g>
<defs>
<filter id="filter0_ii_306_352" x="0" y="0" width="131.411" height="20.8954" filterUnits="userSpaceOnUse" color-interpolation-filters="sRGB">
<feFlood flood-opacity="0" result="BackgroundImageFix"/>
<feBlend mode="normal" in="SourceGraphic" in2="BackgroundImageFix" result="shape"/>
<feColorMatrix in="SourceAlpha" type="matrix" values="0 0 0 0 0 0 0 0 0 0 0 0 0 0 0 0 0 0 127 0" result="hardAlpha"/>
<feMorphology radius="0.871369" operator="erode" in="SourceAlpha" result="effect1_innerShadow_306_352"/>
<feOffset/>
<feComposite in2="hardAlpha" operator="arithmetic" k2="-1" k3="1"/>
<feColorMatrix type="matrix" values="0 0 0 0 1 0 0 0 0 1 0 0 0 0 1 0 0 0 0.06 0"/>
<feBlend mode="normal" in2="shape" result="effect1_innerShadow_306_352"/>
<feColorMatrix in="SourceAlpha" type="matrix" values="0 0 0 0 0 0 0 0 0 0 0 0 0 0 0 0 0 0 127 0" result="hardAlpha"/>
<feOffset dy="0.871369"/>
<feComposite in2="hardAlpha" operator="arithmetic" k2="-1" k3="1"/>
<feColorMatrix type="matrix" values="0 0 0 0 1 0 0 0 0 1 0 0 0 0 1 0 0 0 0.1 0"/>
<feBlend mode="normal" in2="effect1_innerShadow_306_352" result="effect2_innerShadow_306_352"/>
</filter>
<clipPath id="clip0_306_352">
<rect width="12.1992" height="12.1992" fill="white" transform="translate(10.4551 4.33948)"/>
</clipPath>
</defs>
</svg>
