<svg width="75" height="21" viewBox="0 0 75 21" fill="none" xmlns="http://www.w3.org/2000/svg">
<g filter="url(#filter0_ii_306_344)">
<rect width="74.9552" height="20.8954" rx="6.97095" fill="#171717"/>
<g clip-path="url(#clip0_306_344)">
<path d="M16.5786 9.25977C15.9333 9.25977 15.4102 9.7829 15.4102 10.4282C15.4102 11.0736 15.9333 11.5967 16.5786 11.5967C17.2239 11.5967 17.7471 11.0736 17.7471 10.4282C17.7471 9.7829 17.2239 9.25977 16.5786 9.25977Z" fill="#58C4DC"/>
<path d="M22.6553 10.4388C22.6553 9.52142 21.8059 8.71687 20.4533 8.18739C20.4714 8.06815 20.4877 7.9502 20.4994 7.8344C20.6328 6.5163 20.3152 5.56496 19.6055 5.15516C18.8116 4.6967 17.6901 5.02946 16.5562 5.93689C15.4222 5.02946 14.3008 4.6967 13.5068 5.15516C12.7972 5.56496 12.4796 6.5163 12.613 7.8344C12.6246 7.9502 12.6406 8.06858 12.6591 8.18825C12.5463 8.2313 12.4357 8.27693 12.3294 8.32471C11.1219 8.86753 10.457 9.61914 10.457 10.4388C10.457 11.3561 11.3065 12.1606 12.6591 12.6901C12.6406 12.8094 12.6246 12.9273 12.613 13.0431C12.4796 14.3612 12.7972 15.3125 13.5068 15.7223C13.7508 15.8607 14.0273 15.9314 14.3077 15.9273C14.9799 15.9273 15.7648 15.5734 16.5562 14.9406C17.3471 15.5734 18.1325 15.9273 18.8056 15.9273C19.086 15.9314 19.3624 15.8606 19.6064 15.7223C20.316 15.3125 20.6336 14.3612 20.5002 13.0431C20.4886 12.9273 20.4722 12.8094 20.4542 12.6901C21.8067 12.1615 22.6562 11.3557 22.6562 10.4388M18.8004 5.53139C18.9807 5.52704 19.1589 5.57071 19.3168 5.65794C19.8095 5.94249 20.0307 6.71432 19.9231 7.77543C19.9158 7.84775 19.9072 7.92093 19.8969 7.99454C19.3345 7.82512 18.7586 7.70429 18.1755 7.63337C17.8221 7.16341 17.4291 6.72459 17.0007 6.32173C17.6733 5.80172 18.3046 5.53139 18.8 5.53139M18.5689 11.601C18.3512 11.9789 18.1142 12.3453 17.8588 12.6987C17.4259 12.7432 16.991 12.7653 16.5558 12.765C16.1207 12.7653 15.6859 12.7432 15.2531 12.6987C14.9984 12.3453 14.7621 11.9789 14.5452 11.601C14.3276 11.2242 14.1298 10.8362 13.9527 10.4388C14.1298 10.0413 14.3276 9.65331 14.5452 9.27648C14.7618 8.90013 14.9973 8.53505 15.251 8.18266C15.6846 8.13707 16.1202 8.11437 16.5562 8.11464C16.9912 8.11438 17.426 8.1365 17.8588 8.18093C18.1133 8.53387 18.3497 8.89953 18.5671 9.27648C18.7846 9.6534 18.9824 10.0413 19.1597 10.4388C18.9824 10.8362 18.7846 11.2241 18.5671 11.601M19.4558 11.1706C19.5924 11.5431 19.7045 11.9241 19.7915 12.3113C19.4141 12.429 19.0294 12.5217 18.6399 12.589C18.7879 12.3657 18.9314 12.1334 19.0702 11.892C19.2075 11.6535 19.3362 11.4129 19.4575 11.1723M15.739 13.3199C16.0066 13.3362 16.2799 13.3457 16.5566 13.3457C16.8333 13.3457 17.1083 13.3362 17.3764 13.3199C17.1222 13.6245 16.8484 13.912 16.5566 14.1808C16.2655 13.9121 15.9924 13.6245 15.739 13.3199ZM14.4729 12.5881C14.0833 12.5212 13.6984 12.4287 13.3209 12.3113C13.4075 11.9248 13.5192 11.5443 13.6553 11.1723C13.7749 11.4129 13.9032 11.6535 14.0426 11.892C14.182 12.1305 14.3262 12.3655 14.4729 12.589M13.6553 9.7048C13.5197 9.33417 13.4083 8.95513 13.3218 8.57008C13.6984 8.45254 14.0822 8.35951 14.4708 8.29156C14.3236 8.51412 14.1794 8.74485 14.0404 8.98548C13.9014 9.22612 13.7745 9.46374 13.6531 9.7048M17.3738 7.55718C17.1062 7.54082 16.8329 7.53135 16.554 7.53135C16.2775 7.53135 16.0049 7.53996 15.7364 7.55718C15.9898 7.25258 16.2629 6.96498 16.554 6.69624C16.8459 6.96491 17.1197 7.25252 17.3738 7.55718ZM19.0693 8.98548C18.9299 8.74385 18.7858 8.51139 18.6369 8.28812C19.0274 8.35535 19.4131 8.44824 19.7915 8.5662C19.7046 8.95269 19.593 9.33316 19.4571 9.70523C19.3374 9.4646 19.2088 9.22396 19.0698 8.98591M13.191 7.77586C13.0821 6.71518 13.3046 5.94292 13.7969 5.65838C13.9548 5.57128 14.133 5.52761 14.3133 5.53182C14.8086 5.53182 15.4399 5.80215 16.1125 6.32216C15.6839 6.7253 15.2906 7.16441 14.9368 7.63467C14.3539 7.70592 13.7781 7.8263 13.2155 7.99454C13.2056 7.92093 13.1966 7.84818 13.1897 7.77586M12.5678 8.85462C12.6341 8.82592 12.7017 8.79722 12.7705 8.76853C12.9059 9.33978 13.0894 9.89853 13.3192 10.4388C13.089 10.98 12.9053 11.54 12.7701 12.1124C11.6736 11.6626 11.038 11.0393 11.038 10.4388C11.038 9.86967 11.5974 9.29241 12.5678 8.85462ZM13.7969 15.2191C13.3046 14.9346 13.0821 14.1623 13.191 13.1016C13.1978 13.0293 13.2069 12.9566 13.2168 12.8825C13.7792 13.0519 14.3551 13.1727 14.9381 13.2437C15.2917 13.7138 15.6847 14.1529 16.1129 14.5562C15.1752 15.2807 14.3184 15.5196 13.7982 15.2191M19.9227 13.1016C20.0303 14.1628 19.8091 14.9346 19.3164 15.2191C18.7965 15.5205 17.9393 15.2807 17.002 14.5562C17.4301 14.1529 17.823 13.7138 18.1764 13.2437C18.7595 13.1728 19.3353 13.052 19.8977 12.8825C19.9081 12.9566 19.9167 13.0293 19.924 13.1016M20.3449 12.1116C20.2093 11.5394 20.0254 10.9798 19.7953 10.4388C20.0253 9.89739 20.209 9.3375 20.3444 8.76508C21.4388 9.21492 22.0761 9.83824 22.0761 10.4388C22.0761 11.0393 21.4405 11.6626 20.344 12.1124" fill="#58C4DC"/>
</g>
<path d="M33.8452 14.4855V7.06141H36.1038C36.8846 7.06141 37.5015 7.26008 37.9546 7.65742C38.4077 8.0478 38.6343 8.58805 38.6343 9.27817C38.6343 9.62672 38.5541 9.93693 38.3938 10.2088C38.2334 10.4737 38.0278 10.6828 37.7768 10.8362C37.5259 10.9895 37.268 11.0767 37.0031 11.0976L36.9612 10.9721C37.4562 11 37.8256 11.1185 38.0696 11.3276C38.3206 11.5368 38.467 11.8783 38.5088 12.3524L38.697 14.4855H37.7978L37.62 12.4674C37.5991 12.2373 37.5433 12.0526 37.4527 11.9132C37.369 11.7668 37.2331 11.6622 37.0449 11.5995C36.8637 11.5298 36.6127 11.4949 36.292 11.4949H34.7445V14.4855H33.8452ZM34.7445 10.6166H36.1038C36.6197 10.6166 37.0135 10.5016 37.2854 10.2715C37.5573 10.0345 37.6932 9.7034 37.6932 9.27817C37.6932 8.84597 37.5573 8.51485 37.2854 8.28481C37.0135 8.05477 36.6197 7.93975 36.1038 7.93975H34.7445V10.6166ZM42.6141 14.611C42.0913 14.611 41.6382 14.4924 41.2548 14.2554C40.8783 14.0184 40.5855 13.6838 40.3764 13.2516C40.1743 12.8124 40.0732 12.3001 40.0732 11.7145C40.0732 11.129 40.1743 10.6201 40.3764 10.1879C40.5855 9.75568 40.8748 9.42108 41.2443 9.18406C41.6207 8.94008 42.0634 8.81809 42.5723 8.81809C43.0533 8.81809 43.4785 8.93311 43.848 9.16315C44.2174 9.38622 44.5067 9.71386 44.7158 10.1461C44.925 10.5783 45.0295 11.1046 45.0295 11.725V11.9864H40.9933C41.0282 12.5789 41.185 13.0251 41.4639 13.3248C41.7497 13.6246 42.1331 13.7744 42.6141 13.7744C42.9766 13.7744 43.2728 13.6908 43.5029 13.5235C43.7399 13.3492 43.9037 13.1227 43.9943 12.8438L44.9354 12.917C44.789 13.4119 44.5102 13.8197 44.0989 14.1404C43.6946 14.4541 43.1997 14.611 42.6141 14.611ZM40.9933 11.2126H44.0675C44.0257 10.6758 43.8689 10.282 43.597 10.031C43.3251 9.78008 42.9836 9.6546 42.5723 9.6546C42.147 9.6546 41.795 9.78705 41.5162 10.0519C41.2443 10.3099 41.07 10.6968 40.9933 11.2126ZM48.0578 14.611C47.7093 14.611 47.3956 14.5482 47.1167 14.4227C46.8379 14.2973 46.6183 14.123 46.458 13.8999C46.2976 13.6699 46.2175 13.405 46.2175 13.1052C46.2175 12.6312 46.3569 12.2652 46.6357 12.0073C46.9215 11.7424 47.3677 11.5507 47.9742 11.4322L49.8354 11.0558C49.8354 10.5817 49.7274 10.2297 49.5113 9.99966C49.3021 9.76962 48.9989 9.6546 48.6015 9.6546C48.2181 9.6546 47.9184 9.74174 47.7023 9.91601C47.4862 10.0833 47.3363 10.3273 47.2527 10.648L46.322 10.5748C46.4266 10.0519 46.6741 9.6302 47.0644 9.30954C47.4618 8.9819 47.9742 8.81809 48.6015 8.81809C49.2708 8.81809 49.7901 9.02025 50.1596 9.42456C50.529 9.82191 50.7137 10.3726 50.7137 11.0767V13.3771C50.7137 13.5026 50.7416 13.5897 50.7974 13.6385C50.8532 13.6873 50.9368 13.7117 51.0483 13.7117H51.4039V14.4855C51.362 14.4924 51.2958 14.4959 51.2052 14.4959C51.1146 14.5029 51.0274 14.5064 50.9438 14.5064C50.7068 14.5064 50.5046 14.468 50.3373 14.3914C50.177 14.3147 50.055 14.1927 49.9713 14.0254C49.8877 13.8511 49.8424 13.628 49.8354 13.3562H50.0027C49.9539 13.5932 49.8354 13.8093 49.6472 14.0045C49.4659 14.1927 49.2359 14.3426 48.9571 14.4541C48.6782 14.5587 48.3785 14.611 48.0578 14.611ZM48.1415 13.8372C48.5179 13.8372 48.8316 13.7744 49.0825 13.649C49.3335 13.5165 49.5217 13.3353 49.6472 13.1052C49.7727 12.8682 49.8354 12.5963 49.8354 12.2896V11.8086L48.1415 12.1432C47.765 12.2129 47.5036 12.321 47.3572 12.4674C47.2108 12.6068 47.1376 12.7915 47.1376 13.0216C47.1376 13.2795 47.2248 13.4817 47.3991 13.628C47.5803 13.7675 47.8278 13.8372 48.1415 13.8372ZM55.2059 14.611C54.6901 14.611 54.2404 14.4924 53.857 14.2554C53.4736 14.0184 53.1774 13.6838 52.9682 13.2516C52.7591 12.8124 52.6546 12.3001 52.6546 11.7145C52.6546 11.129 52.7591 10.6201 52.9682 10.1879C53.1774 9.75568 53.4736 9.42108 53.857 9.18406C54.2404 8.94008 54.6901 8.81809 55.2059 8.81809C55.6172 8.81809 55.9832 8.89477 56.3038 9.04813C56.6245 9.19452 56.8894 9.41062 57.0985 9.69643C57.3077 9.98224 57.4506 10.3308 57.5273 10.7421L56.6071 10.8048C56.5234 10.4353 56.3561 10.153 56.1052 9.95784C55.8612 9.75568 55.5614 9.6546 55.2059 9.6546C54.697 9.6546 54.2962 9.83933 54.0034 10.2088C53.7176 10.5713 53.5747 11.0732 53.5747 11.7145C53.5747 12.3558 53.7176 12.8612 54.0034 13.2307C54.2962 13.5932 54.697 13.7744 55.2059 13.7744C55.5614 13.7744 55.8682 13.6699 56.1261 13.4607C56.391 13.2516 56.5653 12.9379 56.6489 12.5197L57.5691 12.5824C57.4924 12.9937 57.346 13.3527 57.1299 13.6594C56.9138 13.9592 56.6419 14.1927 56.3143 14.36C55.9867 14.5273 55.6172 14.611 55.2059 14.611ZM62.1449 14.4855C61.6081 14.4855 61.2073 14.36 60.9424 14.109C60.6775 13.8581 60.5451 13.4747 60.5451 12.9588V7.64697H61.4234V12.9588C61.4234 13.2168 61.4827 13.4085 61.6012 13.5339C61.7197 13.6524 61.9009 13.7117 62.1449 13.7117H63.6297V14.4855H62.1449ZM58.7152 9.71734V8.94356H63.6297V9.71734H58.7152Z" fill="#D4D4D4"/>
</g>
<defs>
<filter id="filter0_ii_306_344" x="0" y="0" width="74.9551" height="20.8954" filterUnits="userSpaceOnUse" color-interpolation-filters="sRGB">
<feFlood flood-opacity="0" result="BackgroundImageFix"/>
<feBlend mode="normal" in="SourceGraphic" in2="BackgroundImageFix" result="shape"/>
<feColorMatrix in="SourceAlpha" type="matrix" values="0 0 0 0 0 0 0 0 0 0 0 0 0 0 0 0 0 0 127 0" result="hardAlpha"/>
<feMorphology radius="0.871369" operator="erode" in="SourceAlpha" result="effect1_innerShadow_306_344"/>
<feOffset/>
<feComposite in2="hardAlpha" operator="arithmetic" k2="-1" k3="1"/>
<feColorMatrix type="matrix" values="0 0 0 0 1 0 0 0 0 1 0 0 0 0 1 0 0 0 0.06 0"/>
<feBlend mode="normal" in2="shape" result="effect1_innerShadow_306_344"/>
<feColorMatrix in="SourceAlpha" type="matrix" values="0 0 0 0 0 0 0 0 0 0 0 0 0 0 0 0 0 0 127 0" result="hardAlpha"/>
<feOffset dy="0.871369"/>
<feComposite in2="hardAlpha" operator="arithmetic" k2="-1" k3="1"/>
<feColorMatrix type="matrix" values="0 0 0 0 1 0 0 0 0 1 0 0 0 0 1 0 0 0 0.1 0"/>
<feBlend mode="normal" in2="effect1_innerShadow_306_344" result="effect2_innerShadow_306_344"/>
</filter>
<clipPath id="clip0_306_344">
<rect width="12.1992" height="12.1992" fill="white" transform="translate(10.457 4.33936)"/>
</clipPath>
</defs>
</svg>
