<svg width="82" height="21" viewBox="0 0 82 21" fill="none" xmlns="http://www.w3.org/2000/svg">
<g filter="url(#filter0_ii_306_351)">
<rect width="81.2116" height="20.8954" rx="6.97095" fill="#171717"/>
<path d="M16.4745 5.45776L21.6795 14.4732H11.2695L16.4745 5.45776Z" fill="#D4D4D4"/>
<path d="M35.6627 14.4855L33.425 7.06141H34.387L36.3737 13.8999H36.1228L38.1095 7.06141H39.0715L36.8338 14.4855H35.6627ZM42.6121 14.611C42.0893 14.611 41.6362 14.4924 41.2528 14.2554C40.8764 14.0184 40.5836 13.6838 40.3745 13.2516C40.1723 12.8124 40.0712 12.3001 40.0712 11.7145C40.0712 11.129 40.1723 10.6201 40.3745 10.1879C40.5836 9.75568 40.8729 9.42108 41.2423 9.18406C41.6188 8.94008 42.0614 8.81809 42.5703 8.81809C43.0513 8.81809 43.4765 8.93311 43.846 9.16315C44.2155 9.38622 44.5048 9.71386 44.7139 10.1461C44.923 10.5783 45.0276 11.1046 45.0276 11.725V11.9864H40.9914C41.0262 12.5789 41.1831 13.0251 41.4619 13.3248C41.7477 13.6246 42.1311 13.7744 42.6121 13.7744C42.9746 13.7744 43.2709 13.6908 43.5009 13.5235C43.7379 13.3492 43.9018 13.1227 43.9924 12.8438L44.9335 12.917C44.7871 13.4119 44.5082 13.8197 44.097 14.1404C43.6926 14.4541 43.1977 14.611 42.6121 14.611ZM40.9914 11.2126H44.0656C44.0238 10.6758 43.8669 10.282 43.595 10.031C43.3232 9.78008 42.9816 9.6546 42.5703 9.6546C42.1451 9.6546 41.7931 9.78705 41.5142 10.0519C41.2423 10.3099 41.0681 10.6968 40.9914 11.2126ZM48.0349 14.4855V8.94356H48.7669L48.8505 10.3447L48.7669 10.3238C48.8366 9.84979 48.9865 9.50124 49.2165 9.27817C49.4535 9.0551 49.7672 8.94356 50.1576 8.94356H51.2974V9.73825H50.1681C49.8962 9.73825 49.6661 9.79402 49.4779 9.90556C49.2967 10.0101 49.1573 10.167 49.0597 10.3761C48.9621 10.5783 48.9133 10.8327 48.9133 11.1394V14.4855H48.0349ZM46.592 14.4855V13.7117H50.67V14.4855H46.592ZM46.592 9.71734V8.94356H48.5159V9.71734H46.592ZM55.204 14.611C54.6881 14.611 54.2385 14.4924 53.8551 14.2554C53.4717 14.0184 53.1754 13.6838 52.9663 13.2516C52.7572 12.8124 52.6526 12.3001 52.6526 11.7145C52.6526 11.129 52.7572 10.6201 52.9663 10.1879C53.1754 9.75568 53.4717 9.42108 53.8551 9.18406C54.2385 8.94008 54.6881 8.81809 55.204 8.81809C55.6153 8.81809 55.9812 8.89477 56.3019 9.04813C56.6226 9.19452 56.8875 9.41062 57.0966 9.69643C57.3057 9.98224 57.4486 10.3308 57.5253 10.7421L56.6051 10.8048C56.5215 10.4353 56.3542 10.153 56.1032 9.95784C55.8592 9.75568 55.5595 9.6546 55.204 9.6546C54.6951 9.6546 54.2943 9.83933 54.0015 10.2088C53.7157 10.5713 53.5728 11.0732 53.5728 11.7145C53.5728 12.3558 53.7157 12.8612 54.0015 13.2307C54.2943 13.5932 54.6951 13.7744 55.204 13.7744C55.5595 13.7744 55.8662 13.6699 56.1241 13.4607C56.389 13.2516 56.5633 12.9379 56.647 12.5197L57.5671 12.5824C57.4904 12.9937 57.3441 13.3527 57.128 13.6594C56.9119 13.9592 56.64 14.1927 56.3124 14.36C55.9847 14.5273 55.6153 14.611 55.204 14.611ZM61.4215 14.611C60.8986 14.611 60.4455 14.4924 60.0621 14.2554C59.6857 14.0184 59.3929 13.6838 59.1838 13.2516C58.9816 12.8124 58.8806 12.3001 58.8806 11.7145C58.8806 11.129 58.9816 10.6201 59.1838 10.1879C59.3929 9.75568 59.6822 9.42108 60.0517 9.18406C60.4281 8.94008 60.8708 8.81809 61.3796 8.81809C61.8606 8.81809 62.2859 8.93311 62.6553 9.16315C63.0248 9.38622 63.3141 9.71386 63.5232 10.1461C63.7323 10.5783 63.8369 11.1046 63.8369 11.725V11.9864H59.8007C59.8356 12.5789 59.9924 13.0251 60.2713 13.3248C60.5571 13.6246 60.9405 13.7744 61.4215 13.7744C61.784 13.7744 62.0802 13.6908 62.3103 13.5235C62.5473 13.3492 62.7111 13.1227 62.8017 12.8438L63.7428 12.917C63.5964 13.4119 63.3176 13.8197 62.9063 14.1404C62.502 14.4541 62.007 14.611 61.4215 14.611ZM59.8007 11.2126H62.8749C62.8331 10.6758 62.6762 10.282 62.4044 10.031C62.1325 9.78008 61.7909 9.6546 61.3796 9.6546C60.9544 9.6546 60.6024 9.78705 60.3235 10.0519C60.0517 10.3099 59.8774 10.6968 59.8007 11.2126ZM67.3148 14.4855V8.54622C67.3148 8.32315 67.2521 8.14888 67.1266 8.0234C67.0011 7.89792 66.8268 7.83518 66.6038 7.83518H65.2967V7.06141H66.6456C67.1545 7.06141 67.5379 7.19386 67.7958 7.45875C68.0607 7.71668 68.1931 8.10008 68.1931 8.60896V14.4855H67.3148ZM65.0876 14.4855V13.7117H70.1067V14.4855H65.0876Z" fill="#D4D4D4"/>
</g>
<defs>
<filter id="filter0_ii_306_351" x="0" y="0" width="81.2117" height="20.8954" filterUnits="userSpaceOnUse" color-interpolation-filters="sRGB">
<feFlood flood-opacity="0" result="BackgroundImageFix"/>
<feBlend mode="normal" in="SourceGraphic" in2="BackgroundImageFix" result="shape"/>
<feColorMatrix in="SourceAlpha" type="matrix" values="0 0 0 0 0 0 0 0 0 0 0 0 0 0 0 0 0 0 127 0" result="hardAlpha"/>
<feMorphology radius="0.871369" operator="erode" in="SourceAlpha" result="effect1_innerShadow_306_351"/>
<feOffset/>
<feComposite in2="hardAlpha" operator="arithmetic" k2="-1" k3="1"/>
<feColorMatrix type="matrix" values="0 0 0 0 1 0 0 0 0 1 0 0 0 0 1 0 0 0 0.06 0"/>
<feBlend mode="normal" in2="shape" result="effect1_innerShadow_306_351"/>
<feColorMatrix in="SourceAlpha" type="matrix" values="0 0 0 0 0 0 0 0 0 0 0 0 0 0 0 0 0 0 127 0" result="hardAlpha"/>
<feOffset dy="0.871369"/>
<feComposite in2="hardAlpha" operator="arithmetic" k2="-1" k3="1"/>
<feColorMatrix type="matrix" values="0 0 0 0 1 0 0 0 0 1 0 0 0 0 1 0 0 0 0.1 0"/>
<feBlend mode="normal" in2="effect1_innerShadow_306_351" result="effect2_innerShadow_306_351"/>
</filter>
</defs>
</svg>
