<svg width="107" height="21" viewBox="0 0 107 21" fill="none" xmlns="http://www.w3.org/2000/svg">
<g filter="url(#filter0_ii_306_357)">
<rect width="106.324" height="20.8954" rx="6.97095" fill="#171717"/>
<g clip-path="url(#clip0_306_357)">
<path d="M19.4911 13.229C19.5687 12.5825 19.5454 12.4877 20.0269 12.5924L20.1492 12.6032C20.5194 12.62 21.0037 12.5436 21.2883 12.4114C21.9008 12.1272 22.264 11.6527 21.66 11.7774C20.2823 12.0616 20.1876 11.5951 20.1876 11.5951C21.6424 9.43668 22.2505 6.69675 21.7256 6.02607C20.2939 4.1967 17.8157 5.06177 17.7742 5.08423L17.761 5.08667C17.4888 5.03019 17.1841 4.99644 16.8419 4.99091C16.2185 4.98067 15.7454 5.15435 15.3866 5.42653C15.3866 5.42653 10.9656 3.60513 11.1713 7.71712C11.215 8.59186 12.4251 14.3361 13.8684 12.6011C14.3959 11.9666 14.9057 11.4302 14.9057 11.4302C15.1588 11.5984 15.4619 11.6842 15.7798 11.6534L15.8043 11.6324C15.7966 11.7112 15.8 11.7882 15.8142 11.8794C15.4424 12.2949 15.5517 12.3678 14.8083 12.5208C14.0563 12.6758 14.4981 12.9518 14.7865 13.0239C15.1362 13.1113 15.9452 13.2352 16.492 12.4699L16.4702 12.5573C16.6161 12.6739 16.6062 13.3959 16.6269 13.9118C16.6476 14.4276 16.6822 14.909 16.7873 15.1928C16.8925 15.4766 17.0165 16.2076 17.9935 15.9983C18.81 15.8233 19.4342 15.5715 19.4911 13.229Z" fill="black" stroke="black" stroke-width="1.02427"/>
<path d="M21.6603 11.7774C20.2825 12.0616 20.1878 11.5951 20.1878 11.5951C21.6425 9.43653 22.2506 6.69654 21.7258 6.02595C20.2941 4.19669 17.8158 5.06181 17.7744 5.08427L17.7611 5.08665C17.4889 5.03015 17.1843 4.99648 16.8419 4.9909C16.2185 4.98068 15.7456 5.15433 15.3867 5.42646C15.3867 5.42646 10.9656 3.60514 11.1713 7.71711C11.215 8.5919 12.4251 14.3362 13.8684 12.6011C14.3959 11.9667 14.9057 11.4302 14.9057 11.4302C15.1588 11.5984 15.4619 11.6842 15.7796 11.6534L15.8043 11.6324C15.7966 11.7112 15.8001 11.7883 15.8142 11.8795C15.4424 12.2949 15.5516 12.3678 14.8083 12.5208C14.0562 12.6758 14.4981 12.9518 14.7865 13.0239C15.1363 13.1114 15.9453 13.2353 16.492 12.47L16.4702 12.5573C16.6159 12.674 16.7182 13.3163 16.7011 13.8986C16.6839 14.4809 16.6725 14.8806 16.7873 15.1929C16.9021 15.5051 17.0165 16.2077 17.9936 15.9983C18.8101 15.8233 19.2332 15.3699 19.292 14.6136C19.3338 14.0759 19.4283 14.1554 19.4343 13.6747L19.5101 13.4471C19.5975 12.7182 19.524 12.483 20.027 12.5924L20.1493 12.6032C20.5195 12.62 21.004 12.5436 21.2884 12.4114C21.9008 12.1272 22.264 11.6527 21.6602 11.7774H21.6603Z" fill="#336791"/>
<path d="M16.5514 12.1951C16.5135 13.5514 16.561 14.9171 16.6937 15.249C16.8265 15.5809 17.1106 16.2265 18.0878 16.0172C18.9042 15.8422 19.2013 15.5035 19.3302 14.7558C19.4251 14.2058 19.6081 12.6782 19.6316 12.3652M15.3802 5.39611C15.3802 5.39611 10.9561 3.58791 11.1617 7.69988C11.2055 8.57467 12.4156 14.3191 13.8589 12.584C14.3864 11.9495 14.8634 11.4518 14.8634 11.4518M17.7698 5.06609C17.6167 5.1141 20.2308 4.11047 21.7164 6.00878C22.2412 6.6794 21.6331 9.41939 20.1784 11.578" stroke="white" stroke-width="0.341423" stroke-linecap="round" stroke-linejoin="round"/>
<path d="M20.1784 11.578C20.1784 11.578 20.2732 12.0447 21.651 11.7603C22.2547 11.6356 21.8914 12.1102 21.2791 12.3945C20.7766 12.6277 19.6501 12.6875 19.6317 12.3652C19.5844 11.5338 20.2246 11.7864 20.1784 11.578ZM20.1784 11.578C20.1366 11.3904 19.8503 11.2063 19.6609 10.7471C19.4956 10.3463 17.3931 7.27264 20.244 7.72913C20.3484 7.70752 19.5004 5.01744 16.8324 4.97369C14.165 4.92995 14.2525 8.25401 14.2525 8.25401" stroke="white" stroke-width="0.341423" stroke-linecap="round" stroke-linejoin="bevel"/>
<path d="M15.8065 11.8624C15.4346 12.2778 15.5439 12.3507 14.8006 12.5038C14.0485 12.6588 14.4904 12.9347 14.7788 13.0068C15.1285 13.0943 15.9376 13.2182 16.4843 12.4527C16.6507 12.2196 16.4833 11.8478 16.2546 11.753C16.1441 11.7072 15.9963 11.6498 15.8065 11.8624Z" stroke="white" stroke-width="0.341423" stroke-linecap="round" stroke-linejoin="round"/>
<path d="M15.781 11.8551C15.7435 11.6108 15.8612 11.3202 15.9874 10.9802C16.177 10.47 16.6144 9.95974 16.2645 8.34142C16.0037 7.13545 14.2542 8.09044 14.2531 8.25396C14.252 8.41742 14.3322 9.08279 14.2238 9.85761C14.0825 10.8687 14.8672 11.7238 15.7708 11.6363" stroke="white" stroke-width="0.341423" stroke-linecap="round" stroke-linejoin="round"/>
<path d="M15.3659 8.22954C15.358 8.28539 15.4681 8.43442 15.6117 8.45433C15.7551 8.47433 15.8778 8.35786 15.8856 8.30207C15.8934 8.24622 15.7834 8.1847 15.6397 8.16471C15.4963 8.14468 15.3735 8.17383 15.3659 8.22954H15.3659Z" fill="white" stroke="white" stroke-width="0.113807"/>
<path d="M19.7314 8.11552C19.7392 8.17136 19.6292 8.32039 19.4856 8.34031C19.3421 8.3603 19.2194 8.24384 19.2116 8.18804C19.204 8.1322 19.314 8.07068 19.4575 8.05068C19.601 8.03069 19.7237 8.0598 19.7314 8.11554V8.11552Z" fill="white" stroke="white" stroke-width="0.0569033"/>
<path d="M20.2461 7.72913C20.2698 8.16721 20.1518 8.4656 20.1369 8.93194C20.1149 9.6098 20.4601 10.3857 19.9399 11.1625" stroke="white" stroke-width="0.341423" stroke-linecap="round" stroke-linejoin="round"/>
</g>
<path d="M34.0524 14.4855V7.06141H36.311C36.8268 7.06141 37.2765 7.15203 37.6599 7.33327C38.0433 7.51452 38.3395 7.77593 38.5487 8.11751C38.7578 8.45211 38.8624 8.85643 38.8624 9.33045C38.8624 9.80448 38.7578 10.2123 38.5487 10.5539C38.3395 10.8885 38.0433 11.1464 37.6599 11.3276C37.2765 11.5089 36.8268 11.5995 36.311 11.5995H34.9517V14.4855H34.0524ZM34.9517 10.7212H36.2064C36.792 10.7212 37.2242 10.6027 37.503 10.3656C37.7819 10.1217 37.9213 9.77659 37.9213 9.33045C37.9213 8.87734 37.7819 8.53228 37.503 8.29527C37.2242 8.05825 36.792 7.93975 36.2064 7.93975H34.9517V10.7212ZM42.518 14.611C42.0092 14.611 41.563 14.4924 41.1796 14.2554C40.8032 14.0184 40.5104 13.6838 40.3013 13.2516C40.0921 12.8124 39.9876 12.3001 39.9876 11.7145C39.9876 11.122 40.0921 10.6096 40.3013 10.1774C40.5104 9.74522 40.8032 9.41062 41.1796 9.17361C41.563 8.93659 42.0092 8.81809 42.518 8.81809C43.0269 8.81809 43.4696 8.93659 43.846 9.17361C44.2294 9.41062 44.5257 9.74522 44.7348 10.1774C44.9439 10.6096 45.0485 11.122 45.0485 11.7145C45.0485 12.3001 44.9439 12.8124 44.7348 13.2516C44.5257 13.6838 44.2294 14.0184 43.846 14.2554C43.4696 14.4924 43.0269 14.611 42.518 14.611ZM42.518 13.7744C43.0269 13.7744 43.4208 13.5932 43.6996 13.2307C43.9854 12.8612 44.1283 12.3558 44.1283 11.7145C44.1283 11.0732 43.9854 10.5713 43.6996 10.2088C43.4208 9.83933 43.0269 9.6546 42.518 9.6546C42.0092 9.6546 41.6118 9.83933 41.326 10.2088C41.0472 10.5713 40.9077 11.0732 40.9077 11.7145C40.9077 12.3558 41.0472 12.8612 41.326 13.2307C41.6118 13.5932 42.0092 13.7744 42.518 13.7744ZM48.8924 14.611C48.4114 14.611 47.9966 14.5273 47.6481 14.36C47.2995 14.1927 47.0242 13.9696 46.822 13.6908C46.6268 13.405 46.5153 13.0878 46.4874 12.7392L47.4076 12.6765C47.4633 13.0181 47.6132 13.2865 47.8572 13.4817C48.1081 13.6768 48.4532 13.7744 48.8924 13.7744C49.3037 13.7744 49.6208 13.7152 49.8439 13.5967C50.0739 13.4782 50.189 13.2934 50.189 13.0425C50.189 12.8822 50.1506 12.7497 50.0739 12.6451C49.9973 12.5406 49.8544 12.4534 49.6452 12.3837C49.4361 12.3071 49.1294 12.2339 48.7251 12.1641C48.1883 12.0666 47.7666 11.948 47.4598 11.8086C47.1601 11.6622 46.9475 11.481 46.822 11.2649C46.6965 11.0488 46.6338 10.7909 46.6338 10.4911C46.6338 10.1705 46.7139 9.88464 46.8743 9.63369C47.0346 9.38274 47.2716 9.18406 47.5853 9.03767C47.899 8.89128 48.2824 8.81809 48.7355 8.81809C49.1956 8.81809 49.579 8.90174 49.8857 9.06904C50.1994 9.22937 50.4469 9.44547 50.6281 9.71734C50.8094 9.98224 50.9279 10.275 50.9837 10.5957L50.0635 10.6584C50.0217 10.4632 49.9415 10.2924 49.823 10.1461C49.7115 9.99269 49.5616 9.87419 49.3734 9.79054C49.1921 9.69991 48.976 9.6546 48.7251 9.6546C48.3208 9.6546 48.021 9.73477 47.8258 9.8951C47.6306 10.0554 47.533 10.2541 47.533 10.4911C47.533 10.6793 47.5783 10.8292 47.669 10.9407C47.7596 11.0523 47.906 11.1429 48.1081 11.2126C48.3103 11.2753 48.5787 11.3346 48.9133 11.3904C49.4849 11.481 49.9276 11.5995 50.2413 11.7459C50.5549 11.8853 50.7745 12.0596 50.9 12.2687C51.0255 12.4778 51.0882 12.7358 51.0882 13.0425C51.0882 13.3701 50.9906 13.6524 50.7954 13.8895C50.6072 14.1195 50.3458 14.2973 50.0112 14.4227C49.6836 14.5482 49.3106 14.611 48.8924 14.611ZM55.8732 14.4855C55.3364 14.4855 54.9356 14.36 54.6707 14.109C54.4058 13.8581 54.2733 13.4747 54.2733 12.9588V7.64697H55.1517V12.9588C55.1517 13.2168 55.2109 13.4085 55.3294 13.5339C55.448 13.6524 55.6292 13.7117 55.8732 13.7117H57.358V14.4855H55.8732ZM52.4435 9.71734V8.94356H57.358V9.71734H52.4435ZM61.296 16.1794C60.8986 16.1794 60.5396 16.1132 60.219 15.9807C59.8983 15.8483 59.6299 15.6601 59.4138 15.4161C59.1977 15.1721 59.0513 14.8898 58.9747 14.5691L59.8948 14.5064C59.9785 14.7643 60.1249 14.9665 60.334 15.1129C60.5501 15.2662 60.8708 15.3429 61.296 15.3429C61.7979 15.3429 62.1813 15.2418 62.4462 15.0397C62.7181 14.8375 62.854 14.5343 62.854 14.13V13.2307C62.7215 13.5235 62.5089 13.757 62.2162 13.9313C61.9234 14.1056 61.5957 14.1927 61.2332 14.1927C60.7662 14.1927 60.3479 14.0777 59.9785 13.8476C59.616 13.6176 59.3302 13.3004 59.121 12.8961C58.9189 12.4918 58.8178 12.0282 58.8178 11.5054C58.8178 10.9756 58.9189 10.512 59.121 10.1147C59.3232 9.71037 59.602 9.39319 59.9576 9.16315C60.3201 8.93311 60.7313 8.81809 61.1914 8.81809C61.5818 8.81809 61.9303 8.90871 62.2371 9.08995C62.5508 9.2712 62.7703 9.51518 62.8958 9.82191V8.94356H63.7323V14.109C63.7323 14.5412 63.6347 14.9107 63.4396 15.2174C63.2444 15.5311 62.9655 15.7681 62.603 15.9285C62.2406 16.0958 61.8049 16.1794 61.296 16.1794ZM61.2751 13.3562C61.7491 13.3562 62.129 13.1924 62.4148 12.8647C62.7006 12.5301 62.847 12.077 62.854 11.5054C62.861 11.122 62.7982 10.7944 62.6658 10.5225C62.5403 10.2436 62.3556 10.031 62.1116 9.88464C61.8746 9.73128 61.5957 9.6546 61.2751 9.6546C60.7871 9.6546 60.4072 9.82191 60.1353 10.1565C59.8704 10.4841 59.738 10.9338 59.738 11.5054C59.738 12.077 59.8739 12.5301 60.1458 12.8647C60.4246 13.1924 60.801 13.3562 61.2751 13.3562ZM66.8443 14.4855V8.94356H67.5762L67.6599 10.3447L67.5762 10.3238C67.6459 9.84979 67.7958 9.50124 68.0258 9.27817C68.2629 9.0551 68.5766 8.94356 68.9669 8.94356H70.1067V9.73825H68.9774C68.7055 9.73825 68.4755 9.79402 68.2873 9.90556C68.106 10.0101 67.9666 10.167 67.869 10.3761C67.7714 10.5783 67.7226 10.8327 67.7226 11.1394V14.4855H66.8443ZM65.4013 14.4855V13.7117H69.4793V14.4855H65.4013ZM65.4013 9.71734V8.94356H67.3253V9.71734H65.4013ZM73.961 14.611C73.4382 14.611 72.9851 14.4924 72.6017 14.2554C72.2252 14.0184 71.9325 13.6838 71.7233 13.2516C71.5212 12.8124 71.4201 12.3001 71.4201 11.7145C71.4201 11.129 71.5212 10.6201 71.7233 10.1879C71.9325 9.75568 72.2218 9.42108 72.5912 9.18406C72.9676 8.94008 73.4103 8.81809 73.9192 8.81809C74.4002 8.81809 74.8254 8.93311 75.1949 9.16315C75.5643 9.38622 75.8536 9.71386 76.0628 10.1461C76.2719 10.5783 76.3764 11.1046 76.3764 11.725V11.9864H72.3403C72.3751 12.5789 72.532 13.0251 72.8108 13.3248C73.0966 13.6246 73.48 13.7744 73.961 13.7744C74.3235 13.7744 74.6198 13.6908 74.8498 13.5235C75.0868 13.3492 75.2506 13.1227 75.3413 12.8438L76.2823 12.917C76.1359 13.4119 75.8571 13.8197 75.4458 14.1404C75.0415 14.4541 74.5466 14.611 73.961 14.611ZM72.3403 11.2126H75.4145C75.3726 10.6758 75.2158 10.282 74.9439 10.031C74.672 9.78008 74.3305 9.6546 73.9192 9.6546C73.494 9.6546 73.1419 9.78705 72.8631 10.0519C72.5912 10.3099 72.4169 10.6968 72.3403 11.2126ZM80.2517 14.6528C79.7289 14.6528 79.2653 14.5447 78.861 14.3286C78.4567 14.1125 78.1325 13.8163 77.8885 13.4398C77.6446 13.0564 77.5017 12.6138 77.4598 12.1119L78.4009 12.0491C78.4497 12.4186 78.5543 12.7323 78.7146 12.9902C78.8819 13.2481 79.0945 13.4433 79.3524 13.5758C79.6173 13.7082 79.9241 13.7744 80.2726 13.7744C80.6212 13.7744 80.9139 13.7326 81.151 13.649C81.388 13.5583 81.5657 13.4294 81.6842 13.2621C81.8097 13.0878 81.8724 12.8822 81.8724 12.6451C81.8724 12.4081 81.8167 12.2025 81.7051 12.0282C81.6006 11.847 81.3984 11.6797 81.0987 11.5263C80.8059 11.3729 80.3702 11.2161 79.7916 11.0558C79.2758 10.9094 78.8575 10.749 78.5368 10.5748C78.2232 10.4005 77.9931 10.1879 77.8467 9.93693C77.7073 9.68597 77.6376 9.37576 77.6376 9.0063C77.6376 8.58805 77.7352 8.22207 77.9304 7.90838C78.1325 7.58771 78.4183 7.34025 78.7878 7.16597C79.1573 6.98473 79.5964 6.8941 80.1053 6.8941C80.6142 6.8941 81.0499 6.99867 81.4124 7.2078C81.7749 7.40995 82.0607 7.68879 82.2698 8.04431C82.4859 8.39983 82.6218 8.80415 82.6776 9.25726L81.7365 9.32C81.6947 9.02025 81.6075 8.75535 81.4751 8.52531C81.3427 8.28829 81.1614 8.10356 80.9314 7.97112C80.7013 7.83867 80.419 7.77244 80.0844 7.77244C79.6243 7.77244 79.2583 7.88398 78.9865 8.10705C78.7146 8.32315 78.5787 8.60896 78.5787 8.96448C78.5787 9.19452 78.6275 9.38622 78.7251 9.53958C78.8296 9.68597 79.0109 9.81842 79.2688 9.93693C79.5267 10.0485 79.8892 10.1705 80.3563 10.3029C80.9627 10.4702 81.4437 10.6584 81.7993 10.8675C82.1617 11.0767 82.4197 11.3276 82.573 11.6204C82.7334 11.9062 82.8135 12.2548 82.8135 12.6661C82.8135 13.0564 82.7055 13.4015 82.4894 13.7012C82.2733 14.001 81.9735 14.2345 81.5901 14.4018C81.2067 14.5691 80.7606 14.6528 80.2517 14.6528ZM87.7658 15.207L85.7791 12.3105H86.7411L88.7278 15.207H87.7658ZM86.4065 14.6528C85.8209 14.6528 85.3225 14.5029 84.9112 14.2031C84.5069 13.9034 84.1967 13.4642 83.9806 12.8856C83.7714 12.3071 83.6669 11.6065 83.6669 10.7839C83.6669 9.94738 83.7714 9.23983 83.9806 8.66124C84.1967 8.08265 84.5069 7.64348 84.9112 7.34373C85.3225 7.04398 85.8209 6.8941 86.4065 6.8941C86.992 6.8941 87.487 7.04398 87.8913 7.34373C88.3026 7.64348 88.6128 8.08265 88.8219 8.66124C89.038 9.23983 89.146 9.94738 89.146 10.7839C89.146 11.6065 89.038 12.3071 88.8219 12.8856C88.6128 13.4642 88.3026 13.9034 87.8913 14.2031C87.487 14.5029 86.992 14.6528 86.4065 14.6528ZM86.4065 13.7744C86.7899 13.7744 87.114 13.6629 87.3789 13.4398C87.6508 13.2098 87.8564 12.8717 87.9958 12.4256C88.1352 11.9794 88.205 11.4322 88.205 10.7839C88.205 10.1356 88.1352 9.58838 87.9958 9.14224C87.8564 8.68912 87.6508 8.34755 87.3789 8.11751C87.114 7.88747 86.7899 7.77244 86.4065 7.77244C86.0231 7.77244 85.6954 7.88747 85.4235 8.11751C85.1587 8.34755 84.9565 8.68912 84.8171 9.14224C84.6777 9.58838 84.6079 10.1356 84.6079 10.7839C84.6079 11.4322 84.6777 11.9794 84.8171 12.4256C84.9565 12.8717 85.1587 13.2098 85.4235 13.4398C85.6954 13.6629 86.0231 13.7744 86.4065 13.7744ZM90.5849 14.4855V7.06141H91.4842V14.0672L91.0346 13.6071H95.1858V14.4855H90.5849Z" fill="#D4D4D4"/>
</g>
<defs>
<filter id="filter0_ii_306_357" x="0" y="0" width="106.324" height="20.8954" filterUnits="userSpaceOnUse" color-interpolation-filters="sRGB">
<feFlood flood-opacity="0" result="BackgroundImageFix"/>
<feBlend mode="normal" in="SourceGraphic" in2="BackgroundImageFix" result="shape"/>
<feColorMatrix in="SourceAlpha" type="matrix" values="0 0 0 0 0 0 0 0 0 0 0 0 0 0 0 0 0 0 127 0" result="hardAlpha"/>
<feMorphology radius="0.871369" operator="erode" in="SourceAlpha" result="effect1_innerShadow_306_357"/>
<feOffset/>
<feComposite in2="hardAlpha" operator="arithmetic" k2="-1" k3="1"/>
<feColorMatrix type="matrix" values="0 0 0 0 1 0 0 0 0 1 0 0 0 0 1 0 0 0 0.06 0"/>
<feBlend mode="normal" in2="shape" result="effect1_innerShadow_306_357"/>
<feColorMatrix in="SourceAlpha" type="matrix" values="0 0 0 0 0 0 0 0 0 0 0 0 0 0 0 0 0 0 127 0" result="hardAlpha"/>
<feOffset dy="0.871369"/>
<feComposite in2="hardAlpha" operator="arithmetic" k2="-1" k3="1"/>
<feColorMatrix type="matrix" values="0 0 0 0 1 0 0 0 0 1 0 0 0 0 1 0 0 0 0.1 0"/>
<feBlend mode="normal" in2="effect1_innerShadow_306_357" result="effect2_innerShadow_306_357"/>
</filter>
<clipPath id="clip0_306_357">
<rect width="12.1992" height="12.1992" fill="white" transform="translate(10.457 4.34814)"/>
</clipPath>
</defs>
</svg>
