<svg width="1066" height="1066" viewBox="0 0 1066 1066" fill="none" xmlns="http://www.w3.org/2000/svg">
<rect x="9.26442" y="9.26442" width="1046.88" height="1046.88" rx="176.024" stroke="white" stroke-opacity="0.1" stroke-width="18.5288"/>
<g filter="url(#filter0_i_494_154)">
<rect x="92.644" y="92.6436" width="880.12" height="880.12" rx="129.702" fill="#1A1B1E"/>
<rect x="101.908" y="101.908" width="861.591" height="861.591" rx="120.437" stroke="#5A5F66" stroke-opacity="0.0121569" stroke-width="18.5288"/>
<mask id="mask0_494_154" style="mask-type:luminance" maskUnits="userSpaceOnUse" x="349" y="350" width="368" height="365">
<path fill-rule="evenodd" clip-rule="evenodd" d="M609.45 713.367C615.231 715.608 621.808 715.463 627.661 712.645L703.106 676.367C711.056 672.537 716.042 664.516 716.042 655.699V409.635C716.042 400.819 710.983 392.797 703.106 388.967L627.589 352.69C619.929 349.004 610.968 349.944 604.319 354.785C603.38 355.508 602.44 356.231 601.573 357.098L457.187 488.91L394.315 441.143C388.462 436.662 380.296 437.096 374.804 442.01L354.642 460.365C347.993 466.436 347.993 476.914 354.642 482.912L409.13 532.703L354.569 582.494C347.921 588.565 347.921 599.043 354.569 605.041L374.731 623.397C380.151 628.311 388.39 628.672 394.243 624.264L457.114 576.496L601.501 708.237C603.886 710.549 606.56 712.283 609.45 713.367ZM624.481 449.526L514.927 532.703L624.481 615.881V449.526Z" fill="white"/>
</mask>
<g mask="url(#mask0_494_154)">
<path d="M703.034 389.039L627.517 352.69C618.772 348.498 608.366 350.233 601.501 357.098L354.353 582.494C347.704 588.565 347.704 599.043 354.353 605.041L374.515 623.397C379.935 628.311 388.173 628.672 394.026 624.264L691.688 398.506C701.661 390.918 716.042 398.072 716.042 410.574V409.707C716.042 400.891 710.983 392.869 703.034 389.039Z" fill="#0065A9"/>
<path d="M703.034 676.367L627.517 712.717C618.772 716.909 608.366 715.174 601.501 708.309L354.353 482.912C347.704 476.842 347.704 466.364 354.353 460.366L374.515 442.01C379.935 437.096 388.173 436.735 394.026 441.143L691.688 666.901C701.661 674.489 716.042 667.334 716.042 654.832V655.7C716.042 664.516 710.983 672.537 703.034 676.367Z" fill="#007ACC"/>
<path d="M627.589 712.717C618.845 716.908 608.438 715.174 601.573 708.309C610.028 716.764 624.481 710.766 624.481 698.842V366.637C624.481 354.713 610.028 348.715 601.573 357.17C608.438 350.305 618.845 348.571 627.589 352.762L703.034 389.039C710.983 392.869 716.042 400.891 716.042 409.707V655.844C716.042 664.66 710.983 672.682 703.034 676.512L627.589 712.717Z" fill="#1F9CF0"/>
<g opacity="0.25">
<path fill-rule="evenodd" clip-rule="evenodd" d="M609.233 713.367C615.015 715.608 621.591 715.463 627.444 712.645L702.89 676.367C710.839 672.537 715.825 664.516 715.825 655.699V409.635C715.825 400.819 710.767 392.797 702.89 388.967L627.372 352.69C619.712 349.004 610.751 349.944 604.103 354.785C603.163 355.508 602.224 356.231 601.356 357.098L456.97 488.91L394.099 441.143C388.245 436.662 380.079 437.096 374.587 442.01L354.425 460.365C347.776 466.436 347.776 476.914 354.425 482.912L408.913 532.703L354.353 582.494C347.704 588.565 347.704 599.043 354.353 605.041L374.515 623.397C379.935 628.311 388.173 628.672 394.026 624.264L456.897 576.496L601.356 708.237C603.669 710.549 606.343 712.283 609.233 713.367ZM624.265 449.526L514.638 532.703L624.192 615.881V449.526H624.265Z" fill="url(#paint0_linear_494_154)"/>
</g>
</g>
</g>
<defs>
<filter id="filter0_i_494_154" x="92.644" y="92.6436" width="880.12" height="898.649" filterUnits="userSpaceOnUse" color-interpolation-filters="sRGB">
<feFlood flood-opacity="0" result="BackgroundImageFix"/>
<feBlend mode="normal" in="SourceGraphic" in2="BackgroundImageFix" result="shape"/>
<feColorMatrix in="SourceAlpha" type="matrix" values="0 0 0 0 0 0 0 0 0 0 0 0 0 0 0 0 0 0 127 0" result="hardAlpha"/>
<feMorphology radius="18.5288" operator="erode" in="SourceAlpha" result="effect1_innerShadow_494_154"/>
<feOffset dy="18.5288"/>
<feGaussianBlur stdDeviation="6.94831"/>
<feComposite in2="hardAlpha" operator="arithmetic" k2="-1" k3="1"/>
<feColorMatrix type="matrix" values="0 0 0 0 0.647059 0 0 0 0 0.682353 0 0 0 0 0.721569 0 0 0 0.32 0"/>
<feBlend mode="normal" in2="shape" result="effect1_innerShadow_494_154"/>
</filter>
<linearGradient id="paint0_linear_494_154" x1="532.593" y1="350.454" x2="532.593" y2="714.952" gradientUnits="userSpaceOnUse">
<stop stop-color="white"/>
<stop offset="1" stop-color="white" stop-opacity="0"/>
</linearGradient>
</defs>
</svg>
