<svg width="927" height="927" viewBox="0 0 927 927" fill="none" xmlns="http://www.w3.org/2000/svg">
<rect x="9.26442" y="9.26442" width="907.913" height="907.913" rx="176.024" stroke="white" stroke-opacity="0.1" stroke-width="18.5288"/>
<g filter="url(#filter0_i_494_156)">
<rect x="92.644" y="92.6445" width="741.154" height="741.154" rx="129.702" fill="#1A1B1E"/>
<rect x="101.908" y="101.909" width="722.625" height="722.625" rx="120.437" stroke="#5A5F66" stroke-opacity="0.0121569" stroke-width="18.5288"/>
<g clip-path="url(#clip0_494_156)">
<path d="M500.881 278.531C523.811 277.381 536.131 276.031 556.661 287.551C569.011 294.481 629.881 337.111 636.111 346.071C640.131 351.851 643.001 359.741 643.321 366.861C639.181 439.971 648.541 518.571 643.321 591.031C639.351 646.131 590.991 635.241 550.291 637.961C503.191 641.121 453.371 646.761 406.411 648.021C377.611 648.801 362.831 652.081 342.321 629.971C325.941 612.311 286.951 563.001 283.891 540.421C287.231 474.151 277.681 400.271 283.301 334.871C285.161 313.251 296.491 296.541 318.531 292.111C379.411 289.721 440.101 281.571 500.881 278.531ZM616.631 607.321C619.771 603.921 620.941 597.621 621.361 593.041C627.841 521.901 616.221 441.031 621.351 368.841C621.641 363.361 619.941 359.771 616.261 355.931C608.871 348.231 553.761 310.401 543.161 305.061C529.431 298.151 517.411 299.471 502.321 299.951C452.361 301.541 388.041 306.231 338.391 311.951C318.721 314.221 307.291 314.071 305.301 336.841C299.671 401.071 309.531 473.631 305.561 538.751C306.241 542.961 307.921 546.831 309.641 550.671C313.551 559.371 355.931 614.841 363.301 620.991C375.351 631.021 407.011 624.551 422.361 623.951C481.711 621.641 540.931 617.141 600.281 613.941C605.091 613.431 613.461 610.751 616.641 607.311L616.631 607.321Z" fill="white"/>
<path d="M373.821 388.412L595.281 374.912C598.881 378.132 598.951 382.402 599.351 386.842C604.741 447.352 595.031 515.692 599.381 577.062C600.181 590.092 586.391 591.032 576.241 591.912C520.291 596.762 456.651 599.982 400.421 602.022C389.301 602.422 372.671 605.162 371.251 591.042C375.301 528.742 366.211 460.422 371.271 398.852C371.571 395.202 371.571 391.522 373.821 388.412ZM529.281 425.942V511.942L465.321 416.932C455.171 415.112 413.831 415.292 408.461 422.062C399.651 433.182 411.201 435.662 421.321 433.942V559.942C413.561 561.282 405.501 562.192 405.341 571.932L456.271 569.902C461.521 568.952 466.241 563.272 465.311 557.962L447.311 553.942V466.942C447.311 466.412 445.471 464.822 445.271 462.982L449.281 461.952L515.211 565.022C524.831 573.982 538.701 569.842 549.291 564.942L553.181 422.832C562.281 421.832 568.621 420.892 567.281 409.942C559.671 410.192 551.931 409.522 544.301 409.952C539.241 410.242 520.981 411.892 517.751 413.262C513.911 414.892 513.111 420.042 513.361 423.832L529.291 425.932L529.281 425.942Z" fill="white"/>
<path d="M575.261 351.931L374.301 363.991C361.321 362.431 344.121 342.631 333.411 334.941C341.341 326.721 354.041 330.751 364.341 329.921C417.621 325.641 470.841 320.301 524.311 317.941C535.961 319.181 562.501 338.181 571.951 346.271C574.031 348.051 576.141 348.211 575.271 351.931H575.261Z" fill="white"/>
</g>
</g>
<defs>
<filter id="filter0_i_494_156" x="92.644" y="92.6445" width="741.154" height="759.683" filterUnits="userSpaceOnUse" color-interpolation-filters="sRGB">
<feFlood flood-opacity="0" result="BackgroundImageFix"/>
<feBlend mode="normal" in="SourceGraphic" in2="BackgroundImageFix" result="shape"/>
<feColorMatrix in="SourceAlpha" type="matrix" values="0 0 0 0 0 0 0 0 0 0 0 0 0 0 0 0 0 0 127 0" result="hardAlpha"/>
<feMorphology radius="18.5288" operator="erode" in="SourceAlpha" result="effect1_innerShadow_494_156"/>
<feOffset dy="18.5288"/>
<feGaussianBlur stdDeviation="6.94831"/>
<feComposite in2="hardAlpha" operator="arithmetic" k2="-1" k3="1"/>
<feColorMatrix type="matrix" values="0 0 0 0 0.647059 0 0 0 0 0.682353 0 0 0 0 0.721569 0 0 0 0.32 0"/>
<feBlend mode="normal" in2="shape" result="effect1_innerShadow_494_156"/>
</filter>
<clipPath id="clip0_494_156">
<rect width="363.46" height="370.86" fill="white" transform="translate(281.491 277.792)"/>
</clipPath>
</defs>
</svg>
