<svg width="927" height="927" viewBox="0 0 927 927" fill="none" xmlns="http://www.w3.org/2000/svg">
<rect x="9.26442" y="9.26442" width="907.913" height="907.913" rx="176.024" stroke="white" stroke-opacity="0.1" stroke-width="18.5288"/>
<g filter="url(#filter0_i_494_155)">
<rect x="92.644" y="92.6436" width="741.154" height="741.154" rx="129.702" fill="#1A1B1E"/>
<rect x="101.908" y="101.908" width="722.625" height="722.625" rx="120.437" stroke="#5A5F66" stroke-opacity="0.0121569" stroke-width="18.5288"/>
<g clip-path="url(#clip0_494_155)">
<path d="M556.308 626.527C553.962 643.661 537.087 657.097 520.211 652.408C496.297 645.915 468.593 635.635 443.686 633.741L405.423 630.856C399.277 630.424 393.5 627.762 389.18 623.371L323.303 555.92C316.144 548.567 314.211 537.588 318.43 528.236C318.43 528.236 359.039 439.323 360.663 434.724C362.107 430.125 367.702 389.726 370.951 368.084C371.862 362.337 374.731 357.081 379.073 353.205L456.861 283.589C462.041 278.946 468.908 276.643 475.843 277.223C482.777 277.804 489.165 281.216 493.5 286.655L559.016 369.256C562.682 373.973 564.652 379.786 564.611 385.758C564.611 401.359 565.964 433.551 574.718 454.292C583.403 472.945 594.181 490.552 606.844 506.774C609.98 510.843 610.337 516.405 607.746 520.841C602.061 530.49 590.691 549.066 574.718 572.783C564.606 589.089 558.284 607.455 556.218 626.527H556.308Z" fill="black" fill-opacity="0.3"/>
<path d="M556.94 623.642C554.594 640.866 537.718 654.302 520.843 649.703C497.019 643.12 469.405 632.84 444.408 630.946L406.235 628.061C400.074 627.612 394.293 624.917 389.992 620.486L324.115 552.854C316.885 545.428 314.951 534.332 319.242 524.9C319.242 524.9 359.941 435.626 361.475 430.937C363.009 426.338 368.514 385.849 371.763 364.026C372.654 358.247 375.525 352.957 379.885 349.057L457.674 279.171C462.865 274.538 469.739 272.25 476.674 272.848C483.609 273.445 489.99 276.875 494.312 282.327L559.737 365.289C563.391 370.013 565.36 375.821 565.332 381.791C565.332 397.481 566.686 429.764 575.349 450.595C584.029 469.336 594.806 487.033 607.476 503.348C610.681 507.417 611.075 513.029 608.468 517.505C602.693 527.244 591.412 545.82 575.349 569.717C565.274 586.099 558.985 604.522 556.94 623.642Z" fill="#6C31E3"/>
<path d="M397.031 625.536C427.623 563.585 426.811 519.128 413.726 487.567C401.814 458.35 379.524 439.954 362.017 428.502C361.656 430.215 361.114 431.838 360.392 433.371L319.242 524.9C314.974 534.35 316.945 545.448 324.205 552.854L389.992 620.486C392.067 622.56 394.504 624.273 397.031 625.536Z" fill="url(#paint0_radial_494_155)"/>
<path d="M480.234 499.831C488.446 500.643 496.478 502.446 504.419 505.332C529.506 514.71 552.338 535.811 571.198 576.48C572.552 574.136 573.905 571.881 575.349 569.717C586.875 552.626 597.919 535.215 608.468 517.505C611.1 513.048 610.743 507.436 607.566 503.348C594.865 487.038 584.057 469.34 575.349 450.595C566.686 429.855 565.423 397.482 565.332 381.791C565.332 375.839 563.437 369.978 559.737 365.289L494.312 282.327L493.229 280.975C498.012 296.755 497.741 309.38 494.763 320.832C492.056 331.473 487.002 341.122 481.678 351.312C479.873 354.738 478.068 358.255 476.354 361.862C467.867 378.059 463.002 395.904 462.095 414.164C461.193 435.987 465.615 463.31 480.144 499.831H480.234Z" fill="url(#paint1_radial_494_155)"/>
<path d="M480.144 499.831C465.615 463.31 461.193 435.986 462.095 414.164C462.998 392.522 469.315 376.29 476.354 361.862L481.768 351.311C487.002 341.122 491.966 331.473 494.763 320.832C498.086 307.674 497.553 293.839 493.229 280.974C483.885 270.716 468.009 269.91 457.674 279.171L379.885 349.057C375.525 352.957 372.654 358.247 371.763 364.026L362.288 426.788C362.288 427.42 362.107 427.961 362.017 428.592C379.524 439.954 401.723 458.35 413.726 487.477C416.072 493.248 418.057 499.29 419.501 505.873C439.221 500.408 459.728 498.334 480.144 499.741V499.831Z" fill="url(#paint2_radial_494_155)"/>
<path d="M520.933 649.703C537.719 654.302 554.594 640.866 556.94 623.552C558.862 607.129 563.722 591.185 571.289 576.48C552.338 535.811 529.506 514.71 504.509 505.332C477.888 495.412 448.92 498.749 419.501 505.873C426.089 535.721 422.208 574.767 397.121 625.536C399.919 626.979 403.077 627.79 406.236 628.061L445.852 631.036C467.33 632.569 499.366 643.661 520.933 649.703Z" fill="url(#paint3_radial_494_155)"/>
<path d="M462.276 412.811C461.283 434.453 463.99 459.161 478.519 495.592L474.007 495.141C460.922 457.177 458.034 437.699 459.027 415.787C459.93 393.874 467.059 377.011 474.098 362.583C475.902 358.976 480.054 352.213 481.858 348.786C487.092 338.596 490.612 333.276 493.59 323.988C497.921 311.003 497.019 304.871 496.478 298.739C499.817 320.832 487.092 340.039 477.527 359.607C468.671 376.044 463.44 394.185 462.186 412.811H462.276Z" fill="url(#paint4_radial_494_155)"/>
<path d="M418.057 489.1C419.862 493.068 421.396 496.314 422.479 501.274L418.599 502.175C417.065 496.404 415.891 492.256 413.635 487.296C400.46 456.366 379.343 440.405 362.197 428.682C382.953 439.864 404.34 457.448 418.057 489.1Z" fill="url(#paint5_radial_494_155)"/>
<path d="M422.66 505.241C429.879 539.057 421.757 582.071 397.843 623.912C417.877 582.431 427.623 542.664 419.501 505.782L422.66 505.151V505.241Z" fill="url(#paint6_radial_494_155)"/>
<path d="M505.322 502.085C544.577 516.784 559.738 548.976 571.018 575.939C557.03 547.804 537.628 516.693 503.878 505.151C478.249 496.314 456.591 497.396 419.501 505.782L418.689 502.175C458.035 493.158 478.61 492.076 505.322 502.175V502.085Z" fill="url(#paint7_radial_494_155)"/>
</g>
</g>
<defs>
<filter id="filter0_i_494_155" x="92.644" y="92.6436" width="741.154" height="759.683" filterUnits="userSpaceOnUse" color-interpolation-filters="sRGB">
<feFlood flood-opacity="0" result="BackgroundImageFix"/>
<feBlend mode="normal" in="SourceGraphic" in2="BackgroundImageFix" result="shape"/>
<feColorMatrix in="SourceAlpha" type="matrix" values="0 0 0 0 0 0 0 0 0 0 0 0 0 0 0 0 0 0 127 0" result="hardAlpha"/>
<feMorphology radius="18.5288" operator="erode" in="SourceAlpha" result="effect1_innerShadow_494_155"/>
<feOffset dy="18.5288"/>
<feGaussianBlur stdDeviation="6.94831"/>
<feComposite in2="hardAlpha" operator="arithmetic" k2="-1" k3="1"/>
<feColorMatrix type="matrix" values="0 0 0 0 0.647059 0 0 0 0 0.682353 0 0 0 0 0.721569 0 0 0 0.32 0"/>
<feBlend mode="normal" in2="shape" result="effect1_innerShadow_494_155"/>
</filter>
<radialGradient id="paint0_radial_494_155" cx="0" cy="0" r="1" gradientTransform="matrix(-41.7257 0 313.373 0 8748.71 8629.47)" gradientUnits="userSpaceOnUse">
<stop stop-color="white" stop-opacity="0.4"/>
<stop offset="1" stop-opacity="0.1"/>
</radialGradient>
<radialGradient id="paint1_radial_494_155" cx="0" cy="0" r="1" gradientTransform="matrix(39.2728 0 557.466 0 6639.4 6345.77)" gradientUnits="userSpaceOnUse">
<stop stop-color="white" stop-opacity="0.6"/>
<stop offset="1" stop-color="white" stop-opacity="0.1"/>
</radialGradient>
<radialGradient id="paint2_radial_494_155" cx="0" cy="0" r="1" gradientTransform="matrix(54.232 0 406.296 0 4044.75 3849.76)" gradientUnits="userSpaceOnUse">
<stop stop-color="white" stop-opacity="0.8"/>
<stop offset="1" stop-color="white" stop-opacity="0.4"/>
</radialGradient>
<radialGradient id="paint3_radial_494_155" cx="0" cy="0" r="1" gradientTransform="matrix(0 -1.20806e+06 0 -607085 316.221 -3.90517e+07)" gradientUnits="userSpaceOnUse">
<stop stop-color="white" stop-opacity="0.3"/>
<stop offset="1" stop-opacity="0.3"/>
</radialGradient>
<radialGradient id="paint4_radial_494_155" cx="0" cy="0" r="1" gradientTransform="matrix(-26.0906 0 -633.44 0 -1724.6 2224.77)" gradientUnits="userSpaceOnUse">
<stop stop-color="white" stop-opacity="0"/>
<stop offset="1" stop-color="white" stop-opacity="0.2"/>
</radialGradient>
<radialGradient id="paint5_radial_494_155" cx="0" cy="0" r="1" gradientTransform="matrix(65.4272 0 -79.8251 0 -535.963 1354.9)" gradientUnits="userSpaceOnUse">
<stop stop-color="white" stop-opacity="0.2"/>
<stop offset="1" stop-color="white" stop-opacity="0.4"/>
</radialGradient>
<radialGradient id="paint6_radial_494_155" cx="0" cy="0" r="1" gradientTransform="matrix(18.7548 0 -462.053 0 89.0529 317.476)" gradientUnits="userSpaceOnUse">
<stop stop-color="white" stop-opacity="0.1"/>
<stop offset="1" stop-color="white" stop-opacity="0.3"/>
</radialGradient>
<radialGradient id="paint7_radial_494_155" cx="0" cy="0" r="1" gradientTransform="matrix(0 -774451 0 -774484 316.221 -5.55288e+07)" gradientUnits="userSpaceOnUse">
<stop stop-color="white" stop-opacity="0.2"/>
<stop offset="0.5" stop-color="white" stop-opacity="0.2"/>
<stop offset="1" stop-color="white" stop-opacity="0.3"/>
</radialGradient>
<clipPath id="clip0_494_155">
<rect width="294" height="381" fill="white" transform="translate(316.221 272.72)"/>
</clipPath>
</defs>
</svg>
