<svg width="142" height="125" viewBox="0 0 142 125" fill="none" xmlns="http://www.w3.org/2000/svg">
<mask id="mask0_1_1194" style="mask-type:luminance" maskUnits="userSpaceOnUse" x="0" y="-1" width="142" height="126">
<path d="M141.753 -1L0.00408936 -1L0.00408936 124.999H141.753V-1Z" fill="white"/>
</mask>
<g mask="url(#mask0_1_1194)">
<g filter="url(#filter0_d_1_1194)">
<g filter="url(#filter1_i_1_1194)">
<path d="M98.7846 -36.5078L6.3501 -16.8602C2.76763 -16.0987 0.480764 -12.5773 1.24224 -8.99481L26.0602 107.765C26.8217 111.347 30.3432 113.634 33.9257 112.872L126.36 93.2248C129.943 92.4634 132.229 88.9419 131.468 85.3594L106.65 -31.4C105.889 -34.9824 102.367 -37.2693 98.7846 -36.5078Z" fill="#1B1C1F"/>
</g>
<g opacity="0.75">
<mask id="mask1_1_1194" style="mask-type:luminance" maskUnits="userSpaceOnUse" x="8" y="-30" width="112" height="114">
<path d="M9.34749 -10.7181L98.5387 -29.6763C99.4343 -29.8667 100.315 -29.295 100.505 -28.3993L119.808 62.4135C119.998 63.3091 119.427 64.1895 118.531 64.3799L29.3398 83.3381C28.4442 83.5284 27.5638 82.9567 27.3734 82.0611L8.07053 -8.75175C7.88016 -9.64737 8.45188 -10.5277 9.34749 -10.7181Z" fill="white"/>
</mask>
<g mask="url(#mask1_1_1194)">
<path d="M0.159711 -8.76484L98.0862 -29.5798C99.2339 -29.8237 100.362 -29.0911 100.606 -27.9435L121.145 68.6849C121.389 69.8326 120.656 70.9607 119.509 71.2047L21.5821 92.0196C20.4345 92.2635 19.3063 91.5309 19.0624 90.3833L-1.47662 -6.24512C-1.72056 -7.39278 -0.987951 -8.5209 0.159711 -8.76484Z" fill="#E6649C"/>
<g filter="url(#filter2_f_1_1194)">
<path d="M57.7549 115.942C33.9242 121.007 10.4994 105.795 5.43406 81.9641C0.368703 58.1335 15.581 34.7087 39.4116 29.6433C63.2422 24.578 86.667 39.7902 91.7324 63.6208C96.7977 87.4515 81.5855 110.876 57.7549 115.942Z" fill="#56D5B2"/>
</g>
<g filter="url(#filter3_f_1_1194)">
<path d="M38.7571 35.4489C11.433 41.2569 -15.4258 23.8146 -21.2338 -3.50956C-27.0417 -30.8337 -9.59939 -57.6925 17.7247 -63.5004C45.0488 -69.3083 71.9077 -51.866 77.7156 -24.5419C83.5235 2.78219 66.0812 29.641 38.7571 35.4489Z" fill="#7A4DD3"/>
</g>
<g filter="url(#filter4_f_1_1194)">
<path d="M124.592 83.79C110.244 86.8398 96.1398 77.6806 93.09 63.3323C90.0402 48.9841 99.1994 34.8801 113.548 31.8303C127.896 28.7805 142 37.9397 145.05 52.288C148.1 66.6362 138.94 80.7402 124.592 83.79Z" fill="#B1DDD1"/>
</g>
<g filter="url(#filter5_f_1_1194)">
<path d="M32.8962 67.8627C16.8011 71.2838 1.15216 61.8187 -2.05678 46.7218C-5.26573 31.6249 5.18052 16.6131 21.2756 13.192C37.3706 9.77092 53.0196 19.236 56.2285 34.3329C59.4375 49.4298 48.9912 64.4416 32.8962 67.8627Z" fill="#74A3FF"/>
</g>
<g filter="url(#filter6_f_1_1194)">
<path d="M111.202 25.2449C87.3715 30.3102 63.9467 15.098 58.8813 -8.73264C53.816 -32.5633 69.0282 -55.9881 92.8588 -61.0535C116.689 -66.1188 140.114 -50.9066 145.18 -27.0759C150.245 -3.2453 135.033 20.1795 111.202 25.2449Z" fill="#E38079"/>
</g>
<path opacity="0.5" d="M71.035 8.37391L30.4935 16.9913C28.7023 17.372 27.5588 19.1327 27.9396 20.924C28.3203 22.7152 30.081 23.8586 31.8723 23.4779L72.4137 14.8605C74.205 14.4798 75.3484 12.7191 74.9677 10.9278C74.5869 9.13661 72.8262 7.99317 71.035 8.37391Z" fill="white"/>
<path opacity="0.5" d="M76.5506 34.3202L36.0091 42.9376C34.2179 43.3183 33.0745 45.079 33.4552 46.8703C33.8359 48.6615 35.5967 49.8049 37.3879 49.4242L77.9294 40.8068C79.7206 40.4261 80.864 38.6654 80.4833 36.8741C80.1025 35.0829 78.3418 33.9395 76.5506 34.3202Z" fill="white"/>
<path opacity="0.5" d="M90.4958 4.2375L84.0092 5.61628C82.218 5.99701 81.0745 7.75775 81.4553 9.54898C81.836 11.3402 83.5967 12.4836 85.388 12.1029L91.8746 10.7241C93.6658 10.3434 94.8093 8.58266 94.4285 6.79142C94.0478 5.00019 92.2871 3.85676 90.4958 4.2375Z" fill="white"/>
<path opacity="0.5" d="M52.7117 25.8282L93.2531 17.2109C95.0444 16.8301 96.8051 17.9736 97.1858 19.7648C97.5666 21.556 96.4232 23.3168 94.6319 23.6975L54.0905 32.3149C52.2992 32.6956 50.5385 31.5522 50.1578 29.7609C49.777 27.9697 50.9205 26.209 52.7117 25.8282Z" fill="white"/>
<path opacity="0.5" d="M33.2507 29.9647L39.7373 28.5859C41.5286 28.2051 43.2893 29.3486 43.67 31.1398C44.0508 32.931 42.9073 34.6918 41.1161 35.0725L34.6295 36.4513C32.8382 36.832 31.0775 35.6886 30.6968 33.8974C30.316 32.1061 31.4595 30.3454 33.2507 29.9647Z" fill="white"/>
</g>
</g>
<path opacity="0.25" d="M40.657 104.663C45.1351 103.711 47.9936 99.3089 47.0418 94.8308C46.09 90.3527 41.6881 87.4941 37.21 88.446C32.732 89.3978 29.8734 93.7996 30.8252 98.2777C31.7771 102.756 36.1789 105.614 40.657 104.663Z" fill="#A5AEB8"/>
</g>
</g>
<defs>
<filter id="filter0_d_1_1194" x="1.09595" y="-36.6543" width="139.5" height="158.655" filterUnits="userSpaceOnUse" color-interpolation-filters="sRGB">
<feFlood flood-opacity="0" result="BackgroundImageFix"/>
<feColorMatrix in="SourceAlpha" type="matrix" values="0 0 0 0 0 0 0 0 0 0 0 0 0 0 0 0 0 0 127 0" result="hardAlpha"/>
<feOffset dx="8.98189" dy="8.98189"/>
<feComposite in2="hardAlpha" operator="out"/>
<feColorMatrix type="matrix" values="0 0 0 0 0 0 0 0 0 0 0 0 0 0 0 0 0 0 0.5 0"/>
<feBlend mode="normal" in2="BackgroundImageFix" result="effect1_dropShadow_1_1194"/>
<feBlend mode="normal" in="SourceGraphic" in2="effect1_dropShadow_1_1194" result="shape"/>
</filter>
<filter id="filter1_i_1_1194" x="1.09595" y="-38.3384" width="130.518" height="151.357" filterUnits="userSpaceOnUse" color-interpolation-filters="sRGB">
<feFlood flood-opacity="0" result="BackgroundImageFix"/>
<feBlend mode="normal" in="SourceGraphic" in2="BackgroundImageFix" result="shape"/>
<feColorMatrix in="SourceAlpha" type="matrix" values="0 0 0 0 0 0 0 0 0 0 0 0 0 0 0 0 0 0 127 0" result="hardAlpha"/>
<feOffset dy="-1.68411"/>
<feGaussianBlur stdDeviation="0.842053"/>
<feComposite in2="hardAlpha" operator="arithmetic" k2="-1" k3="1"/>
<feColorMatrix type="matrix" values="0 0 0 0 0 0 0 0 0 0 0 0 0 0 0 0 0 0 0.5 0"/>
<feBlend mode="normal" in2="shape" result="effect1_innerShadow_1_1194"/>
</filter>
<filter id="filter2_f_1_1194" x="-42.4613" y="-18.2519" width="182.089" height="182.089" filterUnits="userSpaceOnUse" color-interpolation-filters="sRGB">
<feFlood flood-opacity="0" result="BackgroundImageFix"/>
<feBlend mode="normal" in="SourceGraphic" in2="BackgroundImageFix" result="shape"/>
<feGaussianBlur stdDeviation="23.4612" result="effect1_foregroundBlur_1_1194"/>
</filter>
<filter id="filter3_f_1_1194" x="-69.2717" y="-111.539" width="195.025" height="195.025" filterUnits="userSpaceOnUse" color-interpolation-filters="sRGB">
<feFlood flood-opacity="0" result="BackgroundImageFix"/>
<feBlend mode="normal" in="SourceGraphic" in2="BackgroundImageFix" result="shape"/>
<feGaussianBlur stdDeviation="23.4612" result="effect1_foregroundBlur_1_1194"/>
</filter>
<filter id="filter4_f_1_1194" x="-1.34048" y="-62.6" width="240.821" height="240.821" filterUnits="userSpaceOnUse" color-interpolation-filters="sRGB">
<feFlood flood-opacity="0" result="BackgroundImageFix"/>
<feBlend mode="normal" in="SourceGraphic" in2="BackgroundImageFix" result="shape"/>
<feGaussianBlur stdDeviation="46.9223" result="effect1_foregroundBlur_1_1194"/>
</filter>
<filter id="filter5_f_1_1194" x="-49.5584" y="-34.4296" width="153.288" height="149.914" filterUnits="userSpaceOnUse" color-interpolation-filters="sRGB">
<feFlood flood-opacity="0" result="BackgroundImageFix"/>
<feBlend mode="normal" in="SourceGraphic" in2="BackgroundImageFix" result="shape"/>
<feGaussianBlur stdDeviation="23.4612" result="effect1_foregroundBlur_1_1194"/>
</filter>
<filter id="filter6_f_1_1194" x="-4.6549" y="-124.59" width="213.371" height="213.37" filterUnits="userSpaceOnUse" color-interpolation-filters="sRGB">
<feFlood flood-opacity="0" result="BackgroundImageFix"/>
<feBlend mode="normal" in="SourceGraphic" in2="BackgroundImageFix" result="shape"/>
<feGaussianBlur stdDeviation="31.2816" result="effect1_foregroundBlur_1_1194"/>
</filter>
</defs>
</svg>
