<svg width="21" height="21" viewBox="0 0 21 21" fill="none" xmlns="http://www.w3.org/2000/svg">
<circle cx="10.5" cy="10.5" r="9.75" stroke="white" stroke-width="1.5"/>
<path d="M13.6773 6.02749L6.02749 13.6773C5.36145 12.7515 5.00213 11.6404 5 10.5C5.00237 9.04204 5.5826 7.64447 6.61353 6.61353C7.64447 5.5826 9.04204 5.00237 10.5 5C11.6864 5 12.7766 5.38563 13.6773 6.02749ZM14.9712 7.32274C15.6131 8.22211 16 9.31493 16 10.5C15.9976 11.958 15.4174 13.3555 14.3865 14.3865C13.3555 15.4174 11.958 15.9976 10.5 16C9.35957 15.9979 8.24846 15.6386 7.32274 14.9725L14.9712 7.32274Z" fill="white"/>
</svg>
