<svg width="20" height="23" viewBox="0 0 20 23" fill="none" xmlns="http://www.w3.org/2000/svg">
<path d="M11 15C11 15.2652 10.8946 15.5196 10.7071 15.7071C10.5196 15.8946 10.2652 16 10 16C9.73478 16 9.48043 15.8946 9.29289 15.7071C9.10536 15.5196 9 15.2652 9 15C9 14.7348 9.10536 14.4804 9.29289 14.2929C9.48043 14.1054 9.73478 14 10 14C10.2652 14 10.5196 14.1054 10.7071 14.2929C10.8946 14.4804 11 14.7348 11 15ZM10.75 6.75C10.75 6.55109 10.671 6.36032 10.5303 6.21967C10.3897 6.07902 10.1989 6 10 6C9.80109 6 9.61032 6.07902 9.46967 6.21967C9.32902 6.36032 9.25 6.55109 9.25 6.75V11.25C9.25 11.4489 9.32902 11.6397 9.46967 11.7803C9.61032 11.921 9.80109 12 10 12C10.1989 12 10.3897 11.921 10.5303 11.7803C10.671 11.6397 10.75 11.4489 10.75 11.25V6.75Z" fill="white"/>
<path d="M9.46 0.0853979C9.811 -0.028466 10.189 -0.028466 10.54 0.0853979L18.79 2.7604C19.1416 2.87445 19.448 3.09688 19.6654 3.3958C19.8827 3.69473 19.9999 4.0548 20 4.4244V9.4484C20 15.6384 16.23 20.1534 10.599 22.2784C10.2129 22.4238 9.7871 22.4238 9.401 22.2784C3.771 20.1524 0 15.6384 0 9.4484V4.4244C0 3.6644 0.49 2.9944 1.21 2.7604L9.46 0.0853979ZM10.077 1.5114C10.0269 1.49519 9.97305 1.49519 9.923 1.5114L1.673 4.1884C1.62287 4.20463 1.57914 4.23628 1.54807 4.27885C1.517 4.32141 1.50018 4.3727 1.5 4.4254V9.4484C1.5 14.9094 4.78 18.9314 9.93 20.8744C9.97514 20.8913 10.0249 20.8913 10.07 20.8744C15.22 18.9314 18.5 14.9084 18.5 9.4484V4.4244C18.4998 4.3717 18.483 4.32041 18.4519 4.27785C18.4209 4.23528 18.3771 4.20363 18.327 4.1874L10.077 1.5114Z" fill="white"/>
</svg>
