<svg width="22" height="22" viewBox="0 0 22 22" fill="none" xmlns="http://www.w3.org/2000/svg">
<path d="M1.10154 11.964C0.74854 9.666 0.57154 8.518 1.00654 7.499C1.44054 6.481 2.40454 5.784 4.33154 4.391L5.77154 3.35C8.16854 1.617 9.36754 0.75 10.7505 0.75C12.1335 0.75 13.3325 1.617 15.7295 3.35L17.1695 4.391C19.0965 5.784 20.0595 6.481 20.4945 7.499C20.9285 8.518 20.7525 9.666 20.3995 11.963L20.0985 13.923C19.5985 17.179 19.3475 18.807 18.1795 19.779C17.0115 20.751 15.3045 20.75 11.8895 20.75H9.61054C6.19554 20.75 4.48854 20.75 3.32054 19.779C2.15254 18.807 1.90254 17.179 1.40154 13.922L1.10154 11.964Z" stroke="white" stroke-width="1.5" stroke-linejoin="round"/>
<path d="M10.001 12C11.188 13.187 12.751 14.393 12.751 14.393L14.894 12.25C14.894 12.25 13.688 10.687 12.501 9.5C11.314 8.313 9.75098 7.107 9.75098 7.107L7.60798 9.25C7.60798 9.25 8.81398 10.813 10.001 12ZM10.001 12L6.25098 15.75M15.251 11.893L12.394 14.75M10.108 6.75L7.25098 9.607" stroke="white" stroke-width="1.5" stroke-linecap="round" stroke-linejoin="round"/>
</svg>
