<svg width="16" height="25" viewBox="0 0 16 25" fill="none" xmlns="http://www.w3.org/2000/svg">
<path d="M12.0304 19.7917V20.8333C12.2976 20.8333 12.5538 20.7236 12.7428 20.5282C12.9317 20.3329 13.0379 20.0679 13.0379 19.7917H12.0304ZM3.9708 19.7917H2.96334C2.96334 20.0679 3.06949 20.3329 3.25842 20.5282C3.44735 20.7236 3.7036 20.8333 3.9708 20.8333V19.7917ZM4.97825 25H11.023V22.9167H4.97825V25ZM0.102183 7.08333L0.0820336 7.22917L2.0788 7.52083L2.09694 7.375L0.102183 7.08333ZM8.0006 0C6.07999 0.000102339 4.22386 0.716496 2.77297 2.01766C1.32208 3.31883 0.373784 5.11745 0.102183 7.08333L2.09694 7.375C2.30057 5.90613 3.00964 4.56243 4.09404 3.59044C5.17844 2.61845 6.56545 2.08336 8.0006 2.08333V0ZM15.899 7.08333C15.6274 5.11745 14.6791 3.31883 13.2282 2.01766C11.7773 0.716496 9.92121 0.000102339 8.0006 0V2.08333C9.43575 2.08336 10.8228 2.61845 11.9072 3.59044C12.9916 4.56243 13.7006 5.90613 13.9043 7.375L15.899 7.08333ZM15.9192 7.22917L15.899 7.08333L13.9043 7.375L13.9244 7.52083L15.9192 7.22917ZM14.3274 13.4562C15.5968 11.7604 16.2375 9.55208 15.9192 7.22917L13.9244 7.52083C14.0399 8.34006 13.9942 9.17706 13.7899 9.97755C13.5856 10.778 13.227 11.5276 12.7356 12.1812L14.3274 13.4562ZM11.023 16.4583V19.7917H13.0379V16.4604L11.023 16.4583ZM12.0304 18.75H3.9708V20.8333H12.0304V18.75ZM4.97825 19.7917V16.4604H2.96334V19.7917H4.97825ZM0.0820336 7.22917C-0.0712469 8.32446 -0.00928183 9.44046 0.264222 10.5104C0.537725 11.5804 1.01715 12.5823 1.67381 13.4562L3.26759 12.1812C2.77621 11.5276 2.4156 10.778 2.21132 9.97755C2.00703 9.17706 1.96127 8.34214 2.07679 7.52292L0.0820336 7.22917ZM4.97825 16.4583C4.97825 14.7437 4.09572 13.2854 3.26558 12.1792L1.67381 13.4562C2.44551 14.4875 2.96334 15.4708 2.96334 16.4583H4.97825ZM12.7356 12.1792C11.9035 13.2875 11.023 14.7437 11.023 16.4583H13.0379C13.0379 15.4708 13.5557 14.4875 14.3274 13.4562L12.7356 12.1792Z" fill="white"/>
</svg>
