<svg width="23" height="20" viewBox="0 0 23 20" fill="none" xmlns="http://www.w3.org/2000/svg">
<path d="M1.25088 18.7499L0.0883806 18.2874C0.00531736 18.4964 -0.0198214 18.724 0.015614 18.946C0.0510494 19.1681 0.145746 19.3766 0.289723 19.5493C0.433699 19.7221 0.621621 19.8528 0.833679 19.9277C1.04574 20.0026 1.27408 20.0189 1.49463 19.9749L1.25088 18.7499ZM7.13335 17.5799L7.72585 16.4787L7.3296 16.2662L6.8896 16.3537L7.13335 17.5799ZM3.28087 13.6462L4.44336 14.1087L4.64711 13.5912L4.40211 13.0924L3.28087 13.6462ZM20.0008 9.99996C20.0008 14.0574 16.4346 17.4999 11.8383 17.4999V19.9999C17.6396 19.9999 22.5008 15.6074 22.5008 9.99996H20.0008ZM3.67712 9.99996C3.67712 5.94248 7.2446 2.49999 11.8396 2.49999V0C6.03836 0 1.17588 4.39248 1.17588 9.99996H3.67712ZM11.8396 2.49999C16.4346 2.49999 20.0008 5.94248 20.0008 9.99996H22.5008C22.5008 4.39248 17.6408 0 11.8396 0V2.49999ZM11.8383 17.4999C10.3321 17.4999 8.9296 17.1249 7.72585 16.4787L6.54086 18.6799C8.17001 19.5533 9.98986 20.007 11.8383 19.9999V17.4999ZM1.49463 19.9749L7.3771 18.8049L6.8896 16.3537L1.00713 17.5237L1.49463 19.9762V19.9749ZM4.40211 13.0924C3.92624 12.1309 3.67901 11.0728 3.67712 9.99996H1.17588C1.17588 11.5 1.52837 12.9224 2.15837 14.1999L4.40211 13.0924ZM2.11962 13.1837L0.0883806 18.2887L2.41087 19.2112L4.44086 14.1074L2.11837 13.1837H2.11962Z" fill="white"/>
</svg>
