<svg width="107" height="21" viewBox="0 0 107 21" fill="none" xmlns="http://www.w3.org/2000/svg">
<g filter="url(#filter0_ii_306_201)">
<rect width="106.324" height="20.8954" rx="6.97095" fill="#171717"/>
<g clip-path="url(#clip0_306_201)">
<path d="M11.4101 4.33936H21.7031C22.2295 4.33936 22.6562 4.76604 22.6562 5.29242V15.5855C22.6562 16.1118 22.2295 16.5385 21.7031 16.5385H11.4101C10.8837 16.5385 10.457 16.1118 10.457 15.5855V5.29242C10.457 4.76604 10.8837 4.33936 11.4101 4.33936Z" fill="#3178C6"/>
<path d="M17.6293 13.8926V15.2088C17.8433 15.3185 18.0965 15.4007 18.3888 15.4556C18.681 15.5104 18.989 15.5378 19.3129 15.5378C19.6284 15.5378 19.9283 15.5077 20.2123 15.4473C20.4963 15.387 20.7454 15.2876 20.9594 15.1492C21.1735 15.0107 21.3429 14.8297 21.4678 14.6062C21.5927 14.3828 21.6551 14.1065 21.6551 13.7775C21.6551 13.5389 21.6194 13.3298 21.5481 13.1502C21.4775 12.9718 21.3726 12.809 21.2393 12.6711C21.1049 12.5312 20.9436 12.4058 20.7557 12.2947C20.5677 12.1837 20.3557 12.0788 20.1197 11.9801C19.9468 11.9088 19.7918 11.8396 19.6545 11.7724C19.5173 11.7052 19.4007 11.6367 19.3046 11.5667C19.2086 11.4968 19.1345 11.4227 19.0823 11.3446C19.0302 11.2664 19.0041 11.178 19.0041 11.0793C19.0041 10.9888 19.0274 10.9073 19.0741 10.8346C19.1208 10.7619 19.1867 10.6996 19.2717 10.6475C19.3568 10.5953 19.461 10.5549 19.5846 10.5261C19.708 10.4973 19.8453 10.4829 19.9962 10.4829C20.106 10.4829 20.2219 10.4912 20.344 10.5076C20.4661 10.5241 20.5889 10.5494 20.7125 10.5837C20.8356 10.6178 20.956 10.6612 21.0726 10.7133C21.1857 10.7634 21.2939 10.824 21.3958 10.8942V9.66444C21.1954 9.58767 20.9766 9.53077 20.7392 9.49375C20.5018 9.45672 20.2294 9.43823 19.9221 9.43823C19.6092 9.43823 19.3129 9.47183 19.033 9.53902C18.7531 9.60616 18.5067 9.71105 18.2941 9.85362C18.0814 9.99625 17.9133 10.1779 17.7898 10.3986C17.6663 10.6194 17.6046 10.8833 17.6046 11.1904C17.6046 11.5825 17.7178 11.917 17.9442 12.194C18.1706 12.4709 18.5143 12.7053 18.9753 12.8973C19.1455 12.9666 19.3143 13.0393 19.4816 13.1153C19.6381 13.1866 19.7732 13.2606 19.8871 13.3373C20.001 13.4141 20.0909 13.4977 20.1567 13.5882C20.2226 13.6787 20.2555 13.7816 20.2555 13.8967C20.2561 13.9796 20.2348 14.0612 20.1938 14.1332C20.1526 14.2059 20.0902 14.269 20.0065 14.3224C19.9228 14.3759 19.8185 14.4177 19.6936 14.4479C19.5688 14.478 19.4226 14.4931 19.2552 14.4931C18.9698 14.4931 18.6872 14.4431 18.4073 14.343C18.1273 14.2429 17.868 14.0928 17.6293 13.8926ZM15.4355 10.6173H17.128V9.53354H12.4104V10.6173H14.0947V15.4425H15.4355V10.6173Z" fill="white"/>
</g>
<path d="M35.7986 14.4855V7.93975H33.5296V7.06141H38.9669V7.93975H36.6979V14.4855H35.7986ZM40.8241 16.0539V15.2802H41.4619C41.6571 15.2802 41.8 15.2488 41.8906 15.1861C41.9882 15.1303 42.0614 15.0362 42.1102 14.9037L42.3089 14.3809H42.0057L39.9457 8.94356H40.9077L42.5912 13.5653L44.1701 8.94356H45.1321L42.884 15.1861C42.7794 15.4858 42.6226 15.7054 42.4135 15.8448C42.2043 15.9842 41.915 16.0539 41.5456 16.0539H40.8241ZM46.4874 16.0539V8.94356H47.303L47.3239 10.1983L47.1984 10.1356C47.3378 9.7034 47.5679 9.37576 47.8886 9.15269C48.2162 8.92962 48.5926 8.81809 49.0178 8.81809C49.5686 8.81809 50.0182 8.95402 50.3667 9.22589C50.7222 9.49776 50.9837 9.85327 51.151 10.2924C51.3183 10.7316 51.4019 11.2056 51.4019 11.7145C51.4019 12.2234 51.3183 12.6974 51.151 13.1366C50.9837 13.5758 50.7222 13.9313 50.3667 14.2031C50.0182 14.475 49.5686 14.611 49.0178 14.611C48.732 14.611 48.4637 14.5622 48.2127 14.4646C47.9687 14.367 47.7596 14.231 47.5853 14.0568C47.418 13.8825 47.303 13.6768 47.2403 13.4398L47.3657 13.2934V16.0539H46.4874ZM48.9342 13.7744C49.4152 13.7744 49.7916 13.5932 50.0635 13.2307C50.3423 12.8682 50.4817 12.3628 50.4817 11.7145C50.4817 11.0662 50.3423 10.5608 50.0635 10.1983C49.7916 9.83585 49.4152 9.6546 48.9342 9.6546C48.6135 9.6546 48.3347 9.73128 48.0977 9.88464C47.8676 10.038 47.6864 10.268 47.5539 10.5748C47.4285 10.8815 47.3657 11.2614 47.3657 11.7145C47.3657 12.1676 47.4285 12.5475 47.5539 12.8543C47.6794 13.161 47.8607 13.391 48.0977 13.5444C48.3347 13.6978 48.6135 13.7744 48.9342 13.7744ZM55.1517 14.611C54.6289 14.611 54.1758 14.4924 53.7924 14.2554C53.4159 14.0184 53.1231 13.6838 52.914 13.2516C52.7119 12.8124 52.6108 12.3001 52.6108 11.7145C52.6108 11.129 52.7119 10.6201 52.914 10.1879C53.1231 9.75568 53.4124 9.42108 53.7819 9.18406C54.1583 8.94008 54.601 8.81809 55.1099 8.81809C55.5909 8.81809 56.0161 8.93311 56.3855 9.16315C56.755 9.38622 57.0443 9.71386 57.2534 10.1461C57.4626 10.5783 57.5671 11.1046 57.5671 11.725V11.9864H53.5309C53.5658 12.5789 53.7226 13.0251 54.0015 13.3248C54.2873 13.6246 54.6707 13.7744 55.1517 13.7744C55.5142 13.7744 55.8104 13.6908 56.0405 13.5235C56.2775 13.3492 56.4413 13.1227 56.5319 12.8438L57.473 12.917C57.3266 13.4119 57.0478 13.8197 56.6365 14.1404C56.2322 14.4541 55.7372 14.611 55.1517 14.611ZM53.5309 11.2126H56.6051C56.5633 10.6758 56.4065 10.282 56.1346 10.031C55.8627 9.78008 55.5211 9.6546 55.1099 9.6546C54.6846 9.6546 54.3326 9.78705 54.0538 10.0519C53.7819 10.3099 53.6076 10.6968 53.5309 11.2126ZM61.4424 14.6528C60.9196 14.6528 60.456 14.5447 60.0517 14.3286C59.6474 14.1125 59.3232 13.8163 59.0792 13.4398C58.8352 13.0564 58.6923 12.6138 58.6505 12.1119L59.5916 12.0491C59.6404 12.4186 59.7449 12.7323 59.9053 12.9902C60.0726 13.2481 60.2852 13.4433 60.5431 13.5758C60.808 13.7082 61.1147 13.7744 61.4633 13.7744C61.8118 13.7744 62.1046 13.7326 62.3416 13.649C62.5786 13.5583 62.7564 13.4294 62.8749 13.2621C63.0004 13.0878 63.0631 12.8822 63.0631 12.6451C63.0631 12.4081 63.0074 12.2025 62.8958 12.0282C62.7913 11.847 62.5891 11.6797 62.2893 11.5263C61.9966 11.3729 61.5609 11.2161 60.9823 11.0558C60.4664 10.9094 60.0482 10.749 59.7275 10.5748C59.4138 10.4005 59.1838 10.1879 59.0374 9.93693C58.898 9.68597 58.8283 9.37576 58.8283 9.0063C58.8283 8.58805 58.9259 8.22207 59.121 7.90838C59.3232 7.58771 59.609 7.34025 59.9785 7.16597C60.3479 6.98473 60.7871 6.8941 61.296 6.8941C61.8049 6.8941 62.2406 6.99867 62.603 7.2078C62.9655 7.40995 63.2513 7.68879 63.4605 8.04431C63.6766 8.39983 63.8125 8.80415 63.8683 9.25726L62.9272 9.32C62.8854 9.02025 62.7982 8.75535 62.6658 8.52531C62.5333 8.28829 62.3521 8.10356 62.122 7.97112C61.892 7.83867 61.6097 7.77244 61.2751 7.77244C60.815 7.77244 60.449 7.88398 60.1771 8.10705C59.9053 8.32315 59.7693 8.60896 59.7693 8.96448C59.7693 9.19452 59.8181 9.38622 59.9157 9.53958C60.0203 9.68597 60.2015 9.81842 60.4595 9.93693C60.7174 10.0485 61.0799 10.1705 61.5469 10.3029C62.1534 10.4702 62.6344 10.6584 62.9899 10.8675C63.3524 11.0767 63.6103 11.3276 63.7637 11.6204C63.924 11.9062 64.0042 12.2548 64.0042 12.6661C64.0042 13.0564 63.8962 13.4015 63.6801 13.7012C63.464 14.001 63.1642 14.2345 62.7808 14.4018C62.3974 14.5691 61.9513 14.6528 61.4424 14.6528ZM67.7435 14.611C67.2277 14.611 66.778 14.4924 66.3946 14.2554C66.0112 14.0184 65.715 13.6838 65.5058 13.2516C65.2967 12.8124 65.1922 12.3001 65.1922 11.7145C65.1922 11.129 65.2967 10.6201 65.5058 10.1879C65.715 9.75568 66.0112 9.42108 66.3946 9.18406C66.778 8.94008 67.2277 8.81809 67.7435 8.81809C68.1548 8.81809 68.5208 8.89477 68.8414 9.04813C69.1621 9.19452 69.427 9.41062 69.6361 9.69643C69.8453 9.98224 69.9882 10.3308 70.0648 10.7421L69.1447 10.8048C69.061 10.4353 68.8937 10.153 68.6428 9.95784C68.3988 9.75568 68.099 9.6546 67.7435 9.6546C67.2346 9.6546 66.8338 9.83933 66.541 10.2088C66.2552 10.5713 66.1123 11.0732 66.1123 11.7145C66.1123 12.3558 66.2552 12.8612 66.541 13.2307C66.8338 13.5932 67.2346 13.7744 67.7435 13.7744C68.099 13.7744 68.4058 13.6699 68.6637 13.4607C68.9286 13.2516 69.1029 12.9379 69.1865 12.5197L70.1067 12.5824C70.03 12.9937 69.8836 13.3527 69.6675 13.6594C69.4514 13.9592 69.1795 14.1927 68.8519 14.36C68.5243 14.5273 68.1548 14.611 67.7435 14.611ZM73.114 14.4855V8.94356H73.846L73.9296 10.3447L73.846 10.3238C73.9157 9.84979 74.0656 9.50124 74.2956 9.27817C74.5326 9.0551 74.8463 8.94356 75.2367 8.94356H76.3764V9.73825H75.2472C74.9753 9.73825 74.7452 9.79402 74.557 9.90556C74.3758 10.0101 74.2364 10.167 74.1388 10.3761C74.0412 10.5783 73.9924 10.8327 73.9924 11.1394V14.4855H73.114ZM71.6711 14.4855V13.7117H75.7491V14.4855H71.6711ZM71.6711 9.71734V8.94356H73.595V9.71734H71.6711ZM80.0635 14.4855V8.94356H80.9418V14.4855H80.0635ZM77.8363 14.4855V13.7117H82.8553V14.4855H77.8363ZM77.9408 9.71734V8.94356H80.9418V9.71734H77.9408ZM79.9798 8.07568V7.05095H80.9V8.07568H79.9798ZM84.106 16.0539V8.94356H84.9216L84.9426 10.1983L84.8171 10.1356C84.9565 9.7034 85.1865 9.37576 85.5072 9.15269C85.8348 8.92962 86.2113 8.81809 86.6365 8.81809C87.1872 8.81809 87.6368 8.95402 87.9854 9.22589C88.3409 9.49776 88.6023 9.85327 88.7696 10.2924C88.9369 10.7316 89.0206 11.2056 89.0206 11.7145C89.0206 12.2234 88.9369 12.6974 88.7696 13.1366C88.6023 13.5758 88.3409 13.9313 87.9854 14.2031C87.6368 14.475 87.1872 14.611 86.6365 14.611C86.3507 14.611 86.0823 14.5622 85.8313 14.4646C85.5874 14.367 85.3782 14.231 85.204 14.0568C85.0367 13.8825 84.9216 13.6768 84.8589 13.4398L84.9844 13.2934V16.0539H84.106ZM86.5528 13.7744C87.0338 13.7744 87.4103 13.5932 87.6821 13.2307C87.961 12.8682 88.1004 12.3628 88.1004 11.7145C88.1004 11.0662 87.961 10.5608 87.6821 10.1983C87.4103 9.83585 87.0338 9.6546 86.5528 9.6546C86.2322 9.6546 85.9533 9.73128 85.7163 9.88464C85.4863 10.038 85.305 10.268 85.1726 10.5748C85.0471 10.8815 84.9844 11.2614 84.9844 11.7145C84.9844 12.1676 85.0471 12.5475 85.1726 12.8543C85.2981 13.161 85.4793 13.391 85.7163 13.5444C85.9533 13.6978 86.2322 13.7744 86.5528 13.7744ZM93.4918 14.4855C92.9551 14.4855 92.5542 14.36 92.2893 14.109C92.0244 13.8581 91.892 13.4747 91.892 12.9588V7.64697H92.7703V12.9588C92.7703 13.2168 92.8296 13.4085 92.9481 13.5339C93.0666 13.6524 93.2478 13.7117 93.4918 13.7117H94.9766V14.4855H93.4918ZM90.0621 9.71734V8.94356H94.9766V9.71734H90.0621Z" fill="#D4D4D4"/>
</g>
<defs>
<filter id="filter0_ii_306_201" x="0" y="0" width="106.324" height="20.8954" filterUnits="userSpaceOnUse" color-interpolation-filters="sRGB">
<feFlood flood-opacity="0" result="BackgroundImageFix"/>
<feBlend mode="normal" in="SourceGraphic" in2="BackgroundImageFix" result="shape"/>
<feColorMatrix in="SourceAlpha" type="matrix" values="0 0 0 0 0 0 0 0 0 0 0 0 0 0 0 0 0 0 127 0" result="hardAlpha"/>
<feMorphology radius="0.871369" operator="erode" in="SourceAlpha" result="effect1_innerShadow_306_201"/>
<feOffset/>
<feComposite in2="hardAlpha" operator="arithmetic" k2="-1" k3="1"/>
<feColorMatrix type="matrix" values="0 0 0 0 1 0 0 0 0 1 0 0 0 0 1 0 0 0 0.06 0"/>
<feBlend mode="normal" in2="shape" result="effect1_innerShadow_306_201"/>
<feColorMatrix in="SourceAlpha" type="matrix" values="0 0 0 0 0 0 0 0 0 0 0 0 0 0 0 0 0 0 127 0" result="hardAlpha"/>
<feOffset dy="0.871369"/>
<feComposite in2="hardAlpha" operator="arithmetic" k2="-1" k3="1"/>
<feColorMatrix type="matrix" values="0 0 0 0 1 0 0 0 0 1 0 0 0 0 1 0 0 0 0.1 0"/>
<feBlend mode="normal" in2="effect1_innerShadow_306_201" result="effect2_innerShadow_306_201"/>
</filter>
<clipPath id="clip0_306_201">
<rect width="12.1992" height="12.1992" fill="white" transform="translate(10.457 4.33936)"/>
</clipPath>
</defs>
</svg>
