<svg xmlns="http://www.w3.org/2000/svg" width="2310" height="454" viewBox="0 0 2310 454">
<g>
<path d="M 2309.00 151.38 C2309.00,158.87 2309.23,165.00 2309.50,165.00 C2309.77,165.00 2310.00,127.88 2310.00,82.50 L 2310.00 454.00 L 0.00 454.00 L 0.00 0.00 L 2310.00 0.00 L 2237.75 0.14 C2196.08,0.21 2168.90,0.60 2173.52,1.05 C2177.93,1.48 2186.58,2.97 2192.75,4.36 C2243.78,15.85 2285.34,54.13 2302.06,105.05 C2306.85,119.66 2309.00,133.98 2309.00,151.38 ZM 237.93 356.68 L 242.36 359.02 L 360.50 358.76 L 478.65 358.50 L 482.90 355.69 C485.84,353.74 487.89,351.28 489.57,347.69 L 491.98 342.50 L 491.97 226.50 C491.96,115.81 491.87,110.31 490.11,106.43 C487.89,101.55 482.30,96.71 477.08,95.14 C471.80,93.56 248.28,93.52 242.50,95.10 C236.56,96.73 232.05,100.64 229.36,106.52 L 226.97 111.75 L 227.23 228.20 L 227.50 344.66 L 230.50 349.50 C232.48,352.69 235.01,355.14 237.93,356.68 ZM 1827.70 348.37 C1828.09,348.76 1832.25,348.94 1836.95,348.79 L 1845.50 348.50 L 1845.77 324.75 C1845.92,311.69 1846.17,301.00 1846.34,301.00 C1846.51,301.00 1848.80,303.07 1851.44,305.60 C1864.89,318.48 1886.66,321.30 1904.66,312.49 C1917.13,306.38 1926.56,293.46 1931.18,276.14 C1932.77,270.18 1933.22,265.42 1933.22,254.50 C1933.22,238.24 1931.41,229.74 1925.46,217.93 C1920.91,208.88 1912.20,199.89 1904.61,196.42 C1892.65,190.94 1875.07,190.67 1863.85,195.78 C1856.14,199.29 1852.14,202.57 1848.08,208.69 L 1845.00 213.34 L 1845.00 195.00 L 1827.00 195.00 L 1827.00 271.33 C1827.00,313.32 1827.32,347.98 1827.70,348.37 ZM 1010.70 348.37 C1011.09,348.76 1015.25,348.94 1019.95,348.79 L 1028.50 348.50 L 1028.77 324.75 C1028.92,311.69 1029.17,301.00 1029.34,301.00 C1029.51,301.00 1031.81,303.08 1034.46,305.62 C1044.12,314.87 1058.60,319.19 1072.89,317.07 C1089.16,314.66 1101.17,305.62 1108.83,290.00 C1114.23,278.98 1116.21,269.55 1116.27,254.50 C1116.35,233.44 1110.43,216.43 1098.98,204.87 C1089.26,195.06 1078.45,191.39 1062.02,192.33 C1053.57,192.81 1051.71,193.28 1045.03,196.68 C1039.28,199.61 1036.49,201.82 1033.02,206.19 L 1028.50 211.87 L 1028.21 203.44 L 1027.92 195.00 L 1010.00 195.00 L 1010.00 271.33 C1010.00,313.32 1010.32,347.98 1010.70,348.37 ZM 1189.39 317.00 C1210.02,320.02 1229.25,312.36 1240.42,296.65 C1244.37,291.09 1248.00,284.05 1248.00,281.95 C1248.00,281.20 1244.61,280.69 1232.84,279.67 C1228.29,279.28 1228.15,279.35 1226.49,283.03 C1224.16,288.19 1217.50,294.46 1211.50,297.13 C1207.64,298.85 1204.67,299.35 1198.50,299.32 C1180.37,299.24 1168.78,289.89 1164.54,271.91 C1163.71,268.39 1163.02,264.49 1163.01,263.26 L 1163.00 261.02 L 1206.75 260.76 L 1250.50 260.50 L 1250.16 250.57 C1249.13,220.02 1234.11,198.52 1210.27,193.47 C1184.62,188.03 1161.45,198.25 1150.60,219.79 C1145.15,230.63 1143.63,238.17 1143.63,254.50 C1143.63,270.78 1145.15,278.37 1150.54,289.07 C1158.29,304.47 1172.22,314.48 1189.39,317.00 ZM 1318.50 316.59 C1325.82,318.40 1346.32,318.33 1353.54,316.46 C1368.94,312.49 1381.31,303.24 1386.63,291.71 C1389.27,285.99 1389.50,284.59 1389.47,274.00 C1389.42,258.61 1387.34,253.13 1378.09,243.98 C1368.86,234.85 1361.37,231.35 1331.00,221.98 C1304.90,213.93 1298.71,208.76 1298.71,195.01 C1298.71,187.24 1301.05,181.92 1306.64,177.01 C1313.54,170.95 1318.09,169.57 1331.00,169.58 C1344.22,169.60 1347.50,170.66 1354.56,177.16 C1360.31,182.46 1362.81,186.63 1365.45,195.28 L 1367.61 202.33 L 1375.05 202.11 C1386.99,201.74 1387.31,201.58 1386.50,196.14 C1385.41,188.87 1381.34,179.08 1376.38,171.76 C1365.32,155.47 1346.17,147.98 1322.64,150.73 C1293.75,154.11 1276.27,173.35 1278.33,199.50 C1279.99,220.70 1291.19,230.26 1326.50,240.63 C1359.03,250.19 1370.00,258.65 1370.00,274.17 C1370.00,288.30 1361.39,296.47 1343.72,299.09 C1319.92,302.63 1300.37,289.91 1295.83,267.93 L 1294.66 262.27 L 1285.58 262.71 C1280.59,262.95 1276.00,263.31 1275.39,263.49 C1274.03,263.91 1275.12,271.77 1277.58,279.37 C1283.35,297.19 1299.53,311.91 1318.50,316.59 ZM 887.00 332.18 L 887.00 349.23 L 900.25 348.83 C912.66,348.46 913.85,348.24 918.97,345.46 C927.92,340.61 928.34,339.76 945.50,291.50 C953.85,268.01 973.51,213.38 976.92,204.18 C978.61,199.61 980.00,195.67 980.00,195.43 C980.00,195.19 975.39,195.00 969.75,195.00 L 959.50 195.00 L 953.59 212.25 C951.03,219.74 948.70,226.55 946.58,232.75 C928.58,285.38 925.69,293.81 924.83,293.61 C924.57,293.55 924.50,292.66 924.24,292.00 C923.70,290.62 919.85,280.05 915.68,268.50 C907.28,245.17 890.60,199.47 889.49,196.75 C888.88,195.24 887.36,195.00 878.51,195.00 L 868.23 195.00 L 880.04 226.25 C886.54,243.44 896.54,269.88 902.26,285.00 L 912.67 312.50 L 915.92 312.82 C918.50,313.07 919.02,313.48 918.48,314.82 C918.11,315.74 916.90,318.83 915.79,321.68 C912.37,330.46 910.65,331.44 897.92,331.84 ZM 1461.00 316.68 C1483.47,321.00 1505.03,311.37 1516.29,291.99 C1519.37,286.69 1523.25,274.83 1522.22,273.86 C1521.82,273.48 1517.38,273.03 1512.35,272.84 L 1503.21 272.50 L 1501.56 277.73 C1493.08,304.64 1454.56,307.22 1442.04,281.71 C1436.30,270.02 1434.57,254.42 1437.48,240.67 C1440.35,227.12 1446.27,218.54 1456.44,213.17 C1460.95,210.79 1462.60,210.50 1471.50,210.50 C1480.71,210.50 1481.92,210.73 1486.83,213.45 C1493.36,217.07 1496.48,220.64 1500.15,228.70 L 1502.98 234.90 L 1511.74 234.32 C1516.56,234.01 1520.84,233.44 1521.25,233.07 C1521.67,232.70 1521.28,229.94 1520.39,226.95 C1512.57,200.58 1487.62,187.11 1458.27,193.41 C1440.30,197.26 1425.06,211.96 1419.46,230.84 C1415.39,244.51 1415.85,267.97 1420.43,281.18 C1426.90,299.83 1441.99,313.03 1461.00,316.68 ZM 0.14 72.75 C0.22,119.82 0.57,142.38 1.12,136.67 C3.52,111.80 13.13,85.79 27.76,64.59 C34.37,55.02 53.81,35.32 63.00,28.88 C86.27,12.56 110.33,3.75 140.00,0.68 C141.93,0.48 111.21,0.25 71.75,0.16 L 0.00 0.00 ZM 1893.15 296.84 C1883.33,301.07 1872.12,300.19 1862.31,294.44 C1852.06,288.44 1846.02,273.61 1846.02,254.50 C1846.02,233.55 1853.16,218.52 1865.91,212.62 C1872.60,209.53 1888.75,209.55 1894.50,212.66 C1902.12,216.78 1908.24,224.91 1911.12,234.76 C1915.24,248.79 1914.35,268.62 1909.08,280.50 C1906.36,286.63 1898.75,294.43 1893.15,296.84 ZM 2180.47 452.41 C2172.30,453.68 2177.68,453.81 2240.75,453.90 L 2310.00 454.00 L 2309.86 378.75 C2309.77,333.85 2309.40,307.81 2308.94,314.18 C2306.83,343.57 2295.75,372.02 2276.88,396.51 C2269.99,405.46 2253.62,420.70 2243.47,427.62 C2224.10,440.84 2203.97,448.76 2180.47,452.41 ZM 0.13 382.25 L 0.00 454.00 L 69.25 453.90 C131.09,453.82 137.58,453.66 129.87,452.46 C97.96,447.49 69.93,433.54 46.64,411.03 C20.81,386.07 5.20,354.32 1.16,318.50 C0.55,313.09 0.22,333.69 0.13,382.25 ZM 1076.23 296.79 C1060.58,303.49 1042.84,297.56 1035.12,283.07 C1029.28,272.11 1027.32,253.60 1030.44,238.87 C1034.32,220.57 1046.24,210.00 1063.00,210.00 C1080.18,210.00 1091.46,220.74 1095.56,240.98 C1097.50,250.59 1097.07,265.17 1094.61,273.12 C1091.10,284.42 1084.11,293.42 1076.23,296.79 ZM 778.00 173.00 L 778.00 315.00 L 797.00 315.00 L 797.00 173.03 L 846.50 172.50 L 847.08 154.00 L 729.00 154.00 L 729.00 173.00 ZM 2019.50 313.60 C2022.77,314.42 2031.07,314.79 2043.50,314.68 L 2062.50 314.50 L 2062.79 306.25 L 2063.08 298.00 L 2044.79 298.00 C2024.65,298.00 2021.71,297.31 2017.57,291.68 C2015.57,288.96 2015.49,287.48 2015.21,249.93 L 2014.91 211.00 L 2063.00 211.00 L 2063.00 195.04 L 2015.50 194.50 L 2014.94 167.00 L 1996.00 167.00 L 1996.00 195.00 L 1957.00 195.00 L 1957.00 211.00 L 1995.88 211.00 L 1996.19 251.75 C1996.49,291.85 1996.54,292.58 1998.80,297.50 C2002.81,306.19 2008.94,310.96 2019.50,313.60 ZM 1557.00 298.00 L 1557.00 315.00 L 1645.00 315.00 L 1645.00 298.00 L 1606.85 298.00 L 1607.20 265.25 C1607.51,235.96 1607.74,232.02 1609.42,228.00 C1612.28,221.15 1615.47,217.44 1620.72,214.85 C1624.98,212.75 1627.29,212.45 1642.00,212.00 L 1658.50 211.50 L 1658.79 203.25 L 1659.08 195.00 L 1642.79 195.04 C1631.82,195.07 1625.28,195.52 1622.75,196.43 C1616.41,198.69 1611.96,202.83 1609.13,209.11 C1607.68,212.31 1606.16,214.95 1605.75,214.97 C1605.34,214.99 1604.99,212.19 1604.99,208.75 C1604.98,205.31 1604.70,200.81 1604.36,198.75 L 1603.74 195.00 L 1557.00 195.00 L 1557.00 211.00 L 1588.00 211.00 L 1588.00 298.00 ZM 1691.00 298.00 L 1691.00 315.02 L 1799.50 314.50 L 1799.79 306.25 L 1800.08 298.00 L 1758.00 298.00 L 1758.00 195.00 L 1693.00 195.00 L 1693.00 211.00 L 1739.00 211.00 L 1739.00 298.00 ZM 1229.16 239.05 L 1229.50 243.50 L 1196.82 243.76 C1174.69,243.94 1163.92,243.69 1163.48,242.97 C1162.46,241.33 1166.59,229.01 1169.91,223.79 C1176.07,214.10 1186.65,209.35 1200.02,210.26 C1216.48,211.39 1227.91,222.68 1229.16,239.05 ZM 1738.00 154.00 L 1738.00 176.00 L 1757.00 176.00 L 1757.00 154.00 Z" fill="rgb(25,25,25)"/>
<path d="M 237.93 356.68 C235.01,355.14 232.48,352.69 230.50,349.50 L 227.50 344.66 L 227.23 228.20 L 226.97 111.75 L 229.36 106.52 C232.05,100.64 236.56,96.73 242.50,95.10 C248.28,93.52 471.80,93.56 477.08,95.14 C482.30,96.71 487.89,101.55 490.11,106.43 C491.87,110.31 491.96,115.81 491.97,226.50 L 491.98 342.50 L 489.57 347.69 C487.89,351.28 485.84,353.74 482.90,355.69 L 478.65 358.50 L 360.50 358.76 L 242.36 359.02 ZM 406.39 336.95 C429.48,339.96 451.61,334.66 461.72,323.68 C472.70,311.78 473.32,290.03 463.06,277.07 C458.93,271.86 448.38,264.91 437.89,260.51 C419.65,252.84 413.00,247.51 413.00,240.57 C413.00,238.85 413.70,236.44 414.57,235.21 C420.60,226.60 443.62,225.71 458.98,233.49 C461.70,234.87 464.17,236.00 464.47,236.00 C464.76,236.00 465.00,230.14 465.00,222.98 L 465.00 209.95 L 462.29 208.92 C452.07,205.04 424.54,204.16 413.07,207.36 C395.21,212.33 385.77,221.68 382.90,237.22 C380.20,251.91 387.13,266.26 401.00,274.67 C402.92,275.84 410.34,279.41 417.48,282.61 C437.52,291.60 443.09,298.12 438.43,307.14 C432.75,318.12 403.97,316.87 387.25,304.92 L 383.00 301.88 L 383.00 330.73 L 387.25 332.30 C393.38,334.57 399.41,336.04 406.39,336.95 ZM 306.69 335.36 C307.07,335.74 313.64,335.93 321.27,335.78 L 335.16 335.50 L 335.04 283.25 L 334.93 231.00 L 372.00 231.00 L 372.00 207.00 L 270.12 207.00 L 269.81 218.59 C269.64,224.96 269.69,230.36 269.92,230.59 C270.15,230.81 278.36,231.00 288.17,231.00 L 306.00 231.00 L 306.00 282.83 C306.00,311.34 306.31,334.98 306.69,335.36 Z" fill="rgb(49,119,197)"/>
<path d="M 0.16 369.83 C0.28,330.20 0.61,313.57 1.16,318.50 C1.41,320.73 1.71,322.94 2.05,325.13 C1.67,323.34 1.37,321.88 1.18,321.00 C0.63,318.36 0.29,334.62 0.16,369.83 ZM 2281.57 64.22 C2290.48,76.49 2296.97,89.56 2302.06,105.05 C2297.20,90.26 2290.25,76.53 2281.57,64.22 ZM 8.48 351.34 C16.16,373.82 29.02,394.00 46.64,411.03 C58.23,422.23 71.00,431.32 84.83,438.23 C83.54,437.59 82.26,436.93 81.00,436.25 C46.82,417.95 20.27,386.54 8.48,351.34 ZM 4.14 118.33 C4.97,114.50 5.91,110.66 6.67,108.00 C7.57,104.89 9.01,101.01 10.78,96.79 C8.04,103.85 5.81,111.07 4.14,118.33 ZM 2243.09 26.27 C2232.31,18.92 2220.55,12.99 2208.07,8.70 C2220.87,13.01 2232.33,18.76 2243.09,26.27 ZM 2191.55 4.09 C2185.50,2.78 2177.65,1.45 2173.52,1.05 C2172.53,0.96 2172.99,0.86 2174.73,0.78 L 2184.46 2.62 C2186.87,3.07 2189.23,3.56 2191.55,4.09 ZM 100.40 9.35 C109.85,5.96 119.69,3.50 130.00,1.93 C133.36,1.42 136.35,0.87 137.47,0.56 C139.48,0.60 140.38,0.64 140.00,0.68 C125.67,2.17 112.65,4.99 100.40,9.35 ZM 0.75 135.78 C1.06,134.45 1.54,132.08 2.04,129.26 C1.66,131.74 1.36,134.21 1.12,136.67 C0.98,138.08 0.86,137.77 0.75,135.78 ZM 46.11 43.85 C52.40,37.58 58.74,31.86 63.00,28.88 C58.78,31.83 52.41,37.58 46.11,43.85 ZM 26.57 66.35 C26.89,65.87 27.20,65.40 27.51,64.95 C27.61,64.81 27.71,64.66 27.82,64.51 C27.80,64.54 27.78,64.57 27.76,64.59 C27.36,65.17 26.96,65.76 26.57,66.35 Z" fill="rgb(141,141,141)"/>
<path d="M 0.12 385.25 C0.20,339.40 0.55,318.00 1.18,321.00 C1.70,323.48 3.19,330.53 4.48,336.67 C13.13,377.68 42.14,415.44 81.00,436.25 C95.67,444.11 112.86,449.81 129.87,452.46 C137.58,453.66 131.09,453.82 69.25,453.90 L 0.00 454.00 L 0.12 385.25 ZM 2180.47 452.41 C2203.97,448.76 2224.10,440.84 2243.47,427.62 C2253.62,420.70 2269.99,405.46 2276.88,396.51 C2295.75,372.02 2306.83,343.57 2308.94,314.18 C2309.40,307.81 2309.77,333.85 2309.86,378.75 L 2310.00 454.00 L 2240.75 453.90 C2177.68,453.81 2172.30,453.68 2180.47,452.41 ZM 887.00 340.70 L 887.00 332.18 L 897.92 331.84 C910.65,331.44 912.37,330.46 915.79,321.68 C916.90,318.83 918.11,315.74 918.48,314.82 C919.02,313.48 918.50,313.07 915.92,312.82 L 912.67 312.50 L 902.26 285.00 C896.54,269.88 886.54,243.44 880.04,226.25 L 868.23 195.00 L 878.51 195.00 C887.36,195.00 888.88,195.24 889.49,196.75 C890.60,199.47 907.28,245.17 915.68,268.50 C919.85,280.05 923.70,290.62 924.24,292.00 C925.45,295.06 922.57,302.88 953.59,212.25 L 959.50 195.00 L 969.75 195.00 C975.39,195.00 980.00,195.19 980.00,195.43 C980.00,195.67 978.61,199.61 976.92,204.18 C973.51,213.38 953.85,268.01 945.50,291.50 C928.34,339.76 927.92,340.61 918.97,345.46 C913.85,348.24 912.66,348.46 900.25,348.83 L 887.00 349.23 L 887.00 340.70 ZM 1010.70 348.37 C1010.32,347.98 1010.00,313.32 1010.00,271.33 L 1010.00 195.00 L 1018.96 195.00 L 1027.92 195.00 L 1028.21 203.44 L 1028.50 211.87 L 1033.02 206.19 C1036.49,201.82 1039.28,199.61 1045.03,196.68 C1051.71,193.28 1053.57,192.81 1062.02,192.33 C1078.45,191.39 1089.26,195.06 1098.98,204.87 C1110.43,216.43 1116.35,233.44 1116.27,254.50 C1116.21,269.55 1114.23,278.98 1108.83,290.00 C1101.17,305.62 1089.16,314.66 1072.89,317.07 C1058.60,319.19 1044.12,314.87 1034.46,305.62 C1031.81,303.08 1029.51,301.00 1029.34,301.00 C1029.17,301.00 1028.92,311.69 1028.77,324.75 L 1028.50 348.50 L 1019.95 348.79 C1015.25,348.94 1011.09,348.76 1010.70,348.37 ZM 1076.23 296.79 C1084.11,293.42 1091.10,284.42 1094.61,273.12 C1097.07,265.17 1097.50,250.59 1095.56,240.98 C1091.46,220.74 1080.18,210.00 1063.00,210.00 C1046.24,210.00 1034.32,220.57 1030.44,238.87 C1027.32,253.60 1029.28,272.11 1035.12,283.07 C1042.84,297.56 1060.58,303.49 1076.23,296.79 ZM 1827.70 348.37 C1827.32,347.98 1827.00,313.32 1827.00,271.33 L 1827.00 195.00 L 1836.00 195.00 L 1845.00 195.00 L 1845.00 204.17 L 1845.00 213.34 L 1848.08 208.69 C1852.14,202.57 1856.14,199.29 1863.85,195.78 C1875.07,190.67 1892.65,190.94 1904.61,196.42 C1912.20,199.89 1920.91,208.88 1925.46,217.93 C1931.41,229.74 1933.22,238.24 1933.22,254.50 C1933.22,265.42 1932.77,270.18 1931.18,276.14 C1926.56,293.46 1917.13,306.38 1904.66,312.49 C1886.66,321.30 1864.89,318.48 1851.44,305.60 C1848.80,303.07 1846.51,301.00 1846.34,301.00 C1846.17,301.00 1845.92,311.69 1845.77,324.75 L 1845.50 348.50 L 1836.95 348.79 C1832.25,348.94 1828.09,348.76 1827.70,348.37 ZM 1893.15 296.84 C1898.75,294.43 1906.36,286.63 1909.08,280.50 C1914.35,268.62 1915.24,248.79 1911.12,234.76 C1908.24,224.91 1902.12,216.78 1894.50,212.66 C1888.75,209.55 1872.60,209.53 1865.91,212.62 C1853.16,218.52 1846.02,233.55 1846.02,254.50 C1846.02,273.61 1852.06,288.44 1862.31,294.44 C1872.12,300.19 1883.33,301.07 1893.15,296.84 ZM 406.39 336.95 C399.41,336.04 393.38,334.57 387.25,332.30 L 383.00 330.73 L 383.00 316.30 L 383.00 301.88 L 387.25 304.92 C403.97,316.87 432.75,318.12 438.43,307.14 C443.09,298.12 437.52,291.60 417.48,282.61 C410.34,279.41 402.92,275.84 401.00,274.67 C387.13,266.26 380.20,251.91 382.90,237.22 C385.77,221.68 395.21,212.33 413.07,207.36 C424.54,204.16 452.07,205.04 462.29,208.92 L 465.00 209.95 L 465.00 222.98 C465.00,230.14 464.76,236.00 464.47,236.00 C464.17,236.00 461.70,234.87 458.98,233.49 C443.62,225.71 420.60,226.60 414.57,235.21 C413.70,236.44 413.00,238.85 413.00,240.57 C413.00,247.51 419.65,252.84 437.89,260.51 C448.38,264.91 458.93,271.86 463.06,277.07 C473.32,290.03 472.70,311.78 461.72,323.68 C451.61,334.66 429.48,339.96 406.39,336.95 ZM 306.69 335.36 C306.31,334.98 306.00,311.34 306.00,282.83 L 306.00 231.00 L 288.17 231.00 C278.36,231.00 270.15,230.81 269.92,230.59 C269.69,230.36 269.64,224.96 269.81,218.59 L 270.12 207.00 L 321.06 207.00 L 372.00 207.00 L 372.00 219.00 L 372.00 231.00 L 353.46 231.00 L 334.93 231.00 L 335.04 283.25 L 335.16 335.50 L 321.27 335.78 C313.64,335.93 307.07,335.74 306.69,335.36 ZM 1189.39 317.00 C1172.22,314.48 1158.29,304.47 1150.54,289.07 C1145.15,278.37 1143.63,270.78 1143.63,254.50 C1143.63,238.17 1145.15,230.63 1150.60,219.79 C1161.45,198.25 1184.62,188.03 1210.27,193.47 C1234.11,198.52 1249.13,220.02 1250.16,250.57 L 1250.50 260.50 L 1206.75 260.76 L 1163.00 261.02 L 1163.01 263.26 C1163.02,264.49 1163.71,268.39 1164.54,271.91 C1168.78,289.89 1180.37,299.24 1198.50,299.32 C1204.67,299.35 1207.64,298.85 1211.50,297.13 C1217.50,294.46 1224.16,288.19 1226.49,283.03 C1228.15,279.35 1228.29,279.28 1232.84,279.67 C1244.61,280.69 1248.00,281.20 1248.00,281.95 C1248.00,284.05 1244.37,291.09 1240.42,296.65 C1229.25,312.36 1210.02,320.02 1189.39,317.00 ZM 1229.16 239.05 C1227.91,222.68 1216.48,211.39 1200.02,210.26 C1186.65,209.35 1176.07,214.10 1169.91,223.79 C1166.59,229.01 1162.46,241.33 1163.48,242.97 C1163.92,243.69 1174.69,243.94 1196.82,243.76 L 1229.50 243.50 L 1229.16 239.05 ZM 1318.50 316.59 C1299.53,311.91 1283.35,297.19 1277.58,279.37 C1275.12,271.77 1274.03,263.91 1275.39,263.49 C1276.00,263.31 1280.59,262.95 1285.58,262.71 L 1294.66 262.27 L 1295.83 267.93 C1300.37,289.91 1319.92,302.63 1343.72,299.09 C1361.39,296.47 1370.00,288.30 1370.00,274.17 C1370.00,258.65 1359.03,250.19 1326.50,240.63 C1291.19,230.26 1279.99,220.70 1278.33,199.50 C1276.27,173.35 1293.75,154.11 1322.64,150.73 C1346.17,147.98 1365.32,155.47 1376.38,171.76 C1381.34,179.08 1385.41,188.87 1386.50,196.14 C1387.31,201.58 1386.99,201.74 1375.05,202.11 L 1367.61 202.33 L 1365.45 195.28 C1362.81,186.63 1360.31,182.46 1354.56,177.16 C1347.50,170.66 1344.22,169.60 1331.00,169.58 C1318.09,169.57 1313.54,170.95 1306.64,177.01 C1301.05,181.92 1298.71,187.24 1298.71,195.01 C1298.71,208.76 1304.90,213.93 1331.00,221.98 C1361.37,231.35 1368.86,234.85 1378.09,243.98 C1387.34,253.13 1389.42,258.61 1389.47,274.00 C1389.50,284.59 1389.27,285.99 1386.63,291.71 C1381.31,303.24 1368.94,312.49 1353.54,316.46 C1346.32,318.33 1325.82,318.40 1318.50,316.59 ZM 1461.00 316.68 C1441.99,313.03 1426.90,299.83 1420.43,281.18 C1415.85,267.97 1415.39,244.51 1419.46,230.84 C1425.06,211.96 1440.30,197.26 1458.27,193.41 C1487.62,187.11 1512.57,200.58 1520.39,226.95 C1521.28,229.94 1521.67,232.70 1521.25,233.07 C1520.84,233.44 1516.56,234.01 1511.74,234.32 L 1502.98 234.90 L 1500.15 228.70 C1496.48,220.64 1493.36,217.07 1486.83,213.45 C1481.92,210.73 1480.71,210.50 1471.50,210.50 C1462.60,210.50 1460.95,210.79 1456.44,213.17 C1446.27,218.54 1440.35,227.12 1437.48,240.67 C1434.57,254.42 1436.30,270.02 1442.04,281.71 C1454.56,307.22 1493.08,304.64 1501.56,277.73 L 1503.21 272.50 L 1512.35 272.84 C1517.38,273.03 1521.82,273.48 1522.22,273.86 C1523.25,274.83 1519.37,286.69 1516.29,291.99 C1505.03,311.37 1483.47,321.00 1461.00,316.68 ZM 778.00 244.00 L 778.00 173.00 L 753.50 173.00 L 729.00 173.00 L 729.00 163.50 L 729.00 154.00 L 788.04 154.00 L 847.08 154.00 L 846.79 163.25 L 846.50 172.50 L 821.75 172.77 L 797.00 173.03 L 797.00 244.02 L 797.00 315.00 L 787.50 315.00 L 778.00 315.00 L 778.00 244.00 ZM 1557.00 306.50 L 1557.00 298.00 L 1572.50 298.00 L 1588.00 298.00 L 1588.00 254.50 L 1588.00 211.00 L 1572.50 211.00 L 1557.00 211.00 L 1557.00 203.00 L 1557.00 195.00 L 1580.37 195.00 L 1603.74 195.00 L 1604.36 198.75 C1604.70,200.81 1604.98,205.31 1604.99,208.75 C1604.99,212.19 1605.34,214.99 1605.75,214.97 C1606.16,214.95 1607.68,212.31 1609.13,209.11 C1611.96,202.83 1616.41,198.69 1622.75,196.43 C1625.28,195.52 1631.82,195.07 1642.79,195.04 L 1659.08 195.00 L 1658.79 203.25 L 1658.50 211.50 L 1642.00 212.00 C1627.29,212.45 1624.98,212.75 1620.72,214.85 C1615.47,217.44 1612.28,221.15 1609.42,228.00 C1607.74,232.02 1607.51,235.96 1607.20,265.25 L 1606.85 298.00 L 1625.93 298.00 L 1645.00 298.00 L 1645.00 306.50 L 1645.00 315.00 L 1601.00 315.00 L 1557.00 315.00 L 1557.00 306.50 ZM 1691.00 306.51 L 1691.00 298.00 L 1715.00 298.00 L 1739.00 298.00 L 1739.00 254.50 L 1739.00 211.00 L 1716.00 211.00 L 1693.00 211.00 L 1693.00 203.00 L 1693.00 195.00 L 1725.50 195.00 L 1758.00 195.00 L 1758.00 246.50 L 1758.00 298.00 L 1779.04 298.00 L 1800.08 298.00 L 1799.79 306.25 L 1799.50 314.50 L 1745.25 314.76 L 1691.00 315.02 L 1691.00 306.51 ZM 2019.50 313.60 C2008.94,310.96 2002.81,306.19 1998.80,297.50 C1996.54,292.58 1996.49,291.85 1996.19,251.75 L 1995.88 211.00 L 1976.44 211.00 L 1957.00 211.00 L 1957.00 203.00 L 1957.00 195.00 L 1976.50 195.00 L 1996.00 195.00 L 1996.00 181.00 L 1996.00 167.00 L 2005.47 167.00 L 2014.94 167.00 L 2015.22 180.75 L 2015.50 194.50 L 2039.25 194.77 L 2063.00 195.04 L 2063.00 203.02 L 2063.00 211.00 L 2038.96 211.00 L 2014.91 211.00 L 2015.21 249.93 C2015.49,287.48 2015.57,288.96 2017.57,291.68 C2021.71,297.31 2024.65,298.00 2044.79,298.00 L 2063.08 298.00 L 2062.79 306.25 L 2062.50 314.50 L 2043.50 314.68 C2031.07,314.79 2022.77,314.42 2019.50,313.60 ZM 1738.00 165.00 L 1738.00 154.00 L 1747.50 154.00 L 1757.00 154.00 L 1757.00 165.00 L 1757.00 176.00 L 1747.50 176.00 L 1738.00 176.00 L 1738.00 165.00 ZM 2309.00 151.38 C2309.00,133.98 2306.85,119.66 2302.06,105.05 C2294.17,81.05 2282.92,62.86 2264.54,44.44 C2241.69,21.53 2217.43,8.86 2184.46,2.62 L 2171.50 0.16 L 2240.75 0.08 L 2310.00 0.00 L 2310.00 82.50 C2310.00,127.88 2309.77,165.00 2309.50,165.00 C2309.23,165.00 2309.00,158.87 2309.00,151.38 ZM 0.00 68.67 L 0.00 0.00 L 69.17 -0.00 C107.21,-0.00 138.15,0.18 137.92,0.40 C137.69,0.61 134.12,1.30 130.00,1.93 C105.41,5.67 83.57,14.46 63.00,28.88 C53.67,35.42 34.34,55.07 27.51,64.95 C20.21,75.52 9.91,96.80 6.67,108.00 C5.32,112.68 3.46,121.00 2.52,126.50 C1.59,132.00 0.64,136.69 0.41,136.92 C0.19,137.15 0.00,106.43 0.00,68.67 Z" fill="rgb(227,228,228)"/>
</g>
</svg>