<svg width="25" height="25" viewBox="0 0 25 25" fill="none" xmlns="http://www.w3.org/2000/svg">
<path d="M21.3554 3.63286C20.2023 2.47714 18.8299 1.56087 17.3179 0.937242C15.806 0.313615 14.1846 -0.00494444 12.5479 5.80143e-05C5.68745 5.80143e-05 0.103637 5.55629 0.103637 12.3875C0.103637 14.5703 0.678349 16.7047 1.76653 18.5797L0 25L6.59977 23.2766C8.42362 24.2673 10.4684 24.7863 12.5463 24.7859H12.551C19.4115 24.7859 25 19.2297 25 12.3985C25.003 10.7706 24.6824 9.15815 24.0567 7.65404C23.4309 6.14993 22.5124 4.78384 21.3539 3.63442L21.3554 3.63286ZM12.551 22.6953C10.697 22.6943 8.87714 22.1985 7.28126 21.2594L6.90283 21.0344L2.98662 22.0547L4.03241 18.2563L3.78745 17.8656C2.7478 16.2261 2.19829 14.3261 2.20306 12.3875C2.2068 9.65655 3.29905 7.03856 5.24017 5.10791C7.18129 3.17725 9.81277 2.0916 12.5573 2.08912C15.3194 2.08912 17.9213 3.16411 19.8731 5.1063C20.8366 6.06107 21.6002 7.19646 22.1199 8.44681C22.6396 9.69715 22.9049 11.0376 22.9006 12.3907C22.8958 18.0735 18.2542 22.6953 12.551 22.6953ZM18.2243 14.9813C17.915 14.825 16.384 14.0782 16.0998 13.975C15.8156 13.8719 15.6083 13.8188 15.3979 14.1313C15.1922 14.4391 14.5939 15.1375 14.4118 15.3469C14.2296 15.5516 14.049 15.5813 13.7397 15.425C13.4304 15.2688 12.4238 14.9422 11.2367 13.8875C10.3134 13.0672 9.68688 12.0516 9.50473 11.7438C9.32258 11.436 9.48432 11.2657 9.64292 11.1141C9.78581 10.9766 9.95226 10.7532 10.1093 10.5719C10.2663 10.3907 10.315 10.2641 10.4186 10.0547C10.5223 9.85004 10.472 9.66879 10.3935 9.51254C10.315 9.35629 9.69159 7.83285 9.43721 7.21254C9.18754 6.60629 8.92688 6.69067 8.73531 6.67973C8.55316 6.67036 8.34746 6.67036 8.14176 6.67036C7.93605 6.67036 7.59688 6.74848 7.31266 7.05629C7.02845 7.3641 6.22291 8.11566 6.22291 9.6391C6.22291 11.1625 7.33622 12.6328 7.49324 12.8422C7.65027 13.0469 9.68688 16.1766 12.807 17.5156C13.5481 17.8328 14.1276 18.0235 14.5782 18.1703C15.3241 18.4047 16.0009 18.3703 16.5363 18.2922C17.1346 18.2047 18.3767 17.5453 18.6373 16.8219C18.898 16.0985 18.898 15.4797 18.8195 15.3516C18.7457 15.2141 18.54 15.1375 18.2259 14.9797L18.2243 14.9813Z" fill="white"/>
</svg>
