<svg width="37" height="42" viewBox="0 0 37 42" fill="none" xmlns="http://www.w3.org/2000/svg">
<path d="M24.345 41.9659L37 39.2319C37 39.2319 32.4324 8.40919 32.3982 8.20312C32.364 7.99706 32.1931 7.86844 32.0287 7.86844C31.8578 7.86844 28.6457 7.62956 28.6457 7.62956C28.6457 7.62956 26.4066 5.40094 26.1187 5.16206C26.0595 5.10249 25.9869 5.05794 25.907 5.03212L24.3042 41.9672L24.345 41.9659ZM17.9905 19.7833C17.9905 19.7833 16.5666 19.0444 14.881 19.0444C12.3408 19.0444 12.2448 20.6233 12.2448 21.0407C12.2448 23.1945 17.9221 24.0411 17.9221 29.1414C17.9221 33.1537 15.3951 35.7171 11.9503 35.7171C7.82047 35.7171 5.74571 33.1538 5.74571 33.1538L6.87513 29.5037C6.87513 29.5037 9.05902 31.3701 10.8748 31.3701C12.0594 31.3701 12.5867 30.4198 12.5867 29.736C12.5867 26.9062 7.9296 26.7763 7.9296 22.1143C7.86781 18.1978 10.6828 14.3824 16.3943 14.3824C18.5993 14.3824 19.6814 15.0111 19.6814 15.0111L18.0247 19.7689L17.9905 19.7833ZM17.0452 1.449C17.2779 1.449 17.5172 1.51725 17.7499 1.68788C16.0236 2.50163 14.1342 4.55963 13.3532 8.67431C12.2564 9.03066 11.1536 9.36802 10.0451 9.68625C10.9497 6.5625 13.1468 1.47 17.0438 1.47L17.0452 1.449ZM19.2093 6.60975V6.84862C17.888 7.25156 16.4285 7.6965 15.0112 8.13356C15.8263 5.02294 17.3463 3.50569 18.6676 2.93869C19.0029 3.81413 19.2093 4.99669 19.2093 6.60975ZM20.1534 2.70769C21.3656 2.83106 22.1532 4.21838 22.6528 5.77763C22.0427 5.97581 21.3656 6.18056 20.6254 6.41288V5.97581C20.6254 4.65675 20.4545 3.57656 20.1534 2.70113V2.70769ZM25.3995 4.96256C25.3587 4.96256 25.2903 4.99669 25.2627 4.99669C25.2285 4.99669 24.7565 5.12662 24.0097 5.3655C23.2695 3.20512 21.9481 1.21669 19.613 1.21669H19.4079C18.7373 0.368812 17.9156 0 17.2095 0C11.7649 0 9.16289 6.78825 8.34771 10.2336C6.25191 10.8688 4.73199 11.3413 4.56107 11.4096C3.37643 11.7849 3.34224 11.8204 3.2055 12.9334C3.07533 13.7406 0 37.5428 0 37.5428L23.7691 42L25.3995 4.96256Z" fill="white"/>
</svg>
