<svg width="12" height="11" viewBox="0 0 12 11" fill="none" xmlns="http://www.w3.org/2000/svg">
<path d="M12 4.91767V3.87519C12 3.4557 11.8421 3.05339 11.5612 2.75676C11.2802 2.46014 10.8991 2.2935 10.5017 2.2935H8.66969L8.48581 1.11442C8.4371 0.80145 8.28406 0.517161 8.05428 0.312826C7.8245 0.10849 7.53312 -0.00244117 7.23269 4.07621e-05H4.7605C4.46124 -0.000725212 4.17149 0.110984 3.94313 0.315168C3.71477 0.519352 3.56272 0.802677 3.51419 1.11442L3.33031 2.2935H1.4983C1.10092 2.2935 0.719826 2.46014 0.438841 2.75676C0.157856 3.05339 0 3.4557 0 3.87519V4.91767H12ZM4.50851 1.32291C4.51823 1.2639 4.54758 1.21048 4.59127 1.17226C4.63497 1.13404 4.69014 1.11353 4.74688 1.11442H7.23269C7.28943 1.11353 7.3446 1.13404 7.3883 1.17226C7.43199 1.21048 7.46133 1.2639 7.47106 1.32291L7.6277 2.32944H4.35868L4.50851 1.32291ZM6.51078 5.9961V7.04577C6.51078 7.18877 6.45697 7.32593 6.36118 7.42705C6.26539 7.52817 6.13547 7.58498 6 7.58498C5.86453 7.58498 5.73461 7.52817 5.63882 7.42705C5.54303 7.32593 5.48922 7.18877 5.48922 7.04577V5.9961H0V9.41831C0 9.62602 0.0387544 9.83169 0.114051 10.0236C0.189347 10.2155 0.299711 10.3899 0.438841 10.5367C0.577971 10.6836 0.743142 10.8001 0.924924 10.8796C1.10671 10.9591 1.30154 11 1.4983 11H10.5017C10.8991 11 11.2802 10.8334 11.5612 10.5367C11.8421 10.2401 12 9.8378 12 9.41831V5.9961H6.51078Z" fill="#BDBDBD"/>
</svg>
