<svg width="111" height="111" viewBox="0 0 111 111" fill="none" xmlns="http://www.w3.org/2000/svg">
<circle cx="55.5" cy="55.5" r="55" fill="url(#paint0_linear_1_329)" stroke="white"/>
<circle cx="55.1286" cy="55.8708" r="27.4354" fill="url(#paint1_linear_1_329)" stroke="white" stroke-width="4.44898" stroke-dasharray="1.48 1.48"/>
<path d="M63.7379 13.7845C63.677 14.4136 63.5109 14.9882 63.2395 15.5085C62.9721 16.0292 62.6218 16.4715 62.1887 16.8354C61.756 17.1954 61.25 17.4619 60.6707 17.6349C60.0953 17.8083 59.4692 17.8622 58.7923 17.7967C58.1155 17.7312 57.5094 17.5579 56.9739 17.2771C56.4385 16.9962 55.991 16.6374 55.6314 16.2007C55.2762 15.7604 55.0153 15.2589 54.8487 14.6963C54.6861 14.134 54.6353 13.5383 54.6962 12.9093C54.7571 12.2802 54.9212 11.7054 55.1886 11.1847C55.46 10.6644 55.8121 10.2243 56.2448 9.86431C56.6814 9.50471 57.1895 9.23842 57.7688 9.06544C58.3482 8.89245 58.9763 8.83872 59.6531 8.90424C60.33 8.96976 60.9339 9.14476 61.465 9.42925C62.0004 9.71015 62.4459 10.0687 62.8015 10.505C63.1571 10.9413 63.4162 11.4406 63.5788 12.0029C63.7454 12.5656 63.7984 13.1594 63.7379 13.7845ZM61.6716 13.5845C61.7132 13.1545 61.6948 12.7629 61.6165 12.4097C61.5385 12.0525 61.4056 11.7443 61.2177 11.485C61.0338 11.2261 60.7968 11.0183 60.5065 10.8616C60.2162 10.7049 59.878 10.6078 59.4918 10.5704C59.1016 10.5327 58.7471 10.5627 58.4282 10.6604C58.1133 10.7585 57.8388 10.9168 57.6046 11.1352C57.3745 11.3541 57.1869 11.6313 57.0419 11.9669C56.8973 12.2985 56.8041 12.6793 56.7625 13.1093C56.7205 13.5433 56.7385 13.9388 56.8164 14.296C56.8948 14.6492 57.0259 14.9553 57.2098 15.2142C57.3977 15.4735 57.6367 15.6815 57.927 15.8382C58.2216 15.9913 58.564 16.0867 58.9542 16.1245C59.3404 16.1619 59.6908 16.1335 60.0053 16.0394C60.3202 15.9413 60.5927 15.7828 60.8229 15.5639C61.057 15.3455 61.2464 15.0704 61.391 14.7388C61.536 14.4032 61.6296 14.0185 61.6716 13.5845ZM68.5331 15.0355C69.0348 15.2 69.4352 15.1987 69.7341 15.0316C70.0331 14.8644 70.253 14.5661 70.3939 14.1366C70.4562 13.9466 70.4844 13.7643 70.4785 13.5897C70.4726 13.4152 70.4288 13.2535 70.3471 13.1047C70.2705 12.9532 70.1529 12.8178 69.9942 12.6984C69.8393 12.5803 69.6402 12.4813 69.3969 12.4015L68.3935 12.0725L67.5297 14.7064L68.5331 15.0355ZM69.87 10.9591C70.4553 11.1511 70.934 11.3859 71.3059 11.6637C71.6829 11.9389 71.9665 12.2423 72.1566 12.5741C72.3505 12.9071 72.4578 13.2601 72.4786 13.6332C72.4994 14.0062 72.4468 14.3847 72.3209 14.7686C72.185 15.1829 71.9939 15.5411 71.7474 15.8434C71.5009 16.1456 71.2004 16.3754 70.8457 16.5327C70.491 16.69 70.0797 16.7698 69.6117 16.7721C69.1487 16.7718 68.6302 16.6775 68.0563 16.4893L67.0529 16.1602L66.1423 18.9367L64.2153 18.3048L66.9396 9.99807L69.87 10.9591ZM76.5768 15.4155L75.5923 17.2023L77.9992 18.5284L77.2753 19.8422L74.8685 18.5161L73.8638 20.3396L77.0063 22.0711L76.2535 23.4374L71.3242 20.7215L75.5429 13.0648L80.4722 15.7807L79.7194 17.147L76.5768 15.4155ZM88.6134 22.3763L82.9023 28.9949L82.1028 28.305C81.9846 28.2031 81.9004 28.0987 81.85 27.9918C81.8052 27.8845 81.784 27.7499 81.7862 27.5881L82.0718 20.9477C81.982 21.0762 81.8902 21.1978 81.7966 21.3125C81.7086 21.4268 81.6227 21.5323 81.5391 21.6292L78.4778 25.177L77.1241 24.0089L82.8352 17.3903L83.6438 18.0881C83.7104 18.1456 83.7638 18.1969 83.804 18.2422C83.8442 18.2874 83.8747 18.3348 83.8953 18.3844C83.9186 18.4309 83.9338 18.4836 83.941 18.5427C83.9482 18.6017 83.9508 18.6752 83.9487 18.7633L83.6669 25.4545C83.7615 25.3142 83.8568 25.1824 83.9526 25.0591C84.0511 24.9327 84.1461 24.8166 84.2375 24.7106L87.2597 21.2082L88.6134 22.3763ZM95.1621 33.5496L93.8188 31.4887L87.8423 35.3843L86.7349 33.6854L92.7113 29.7898L91.368 27.7289L92.7151 26.8509L96.5092 32.6715L95.1621 33.5496ZM96.5628 44.4545C95.9717 44.6781 95.3828 44.7832 94.7961 44.7698C94.2109 44.7602 93.6593 44.6417 93.1413 44.4142C92.6271 44.1853 92.1644 43.8492 91.753 43.4061C91.3431 42.9667 91.0178 42.429 90.7773 41.7929C90.5368 41.1569 90.4241 40.5366 90.4393 39.9322C90.4545 39.3277 90.5784 38.7677 90.811 38.2521C91.0488 37.7388 91.3833 37.283 91.8143 36.8848C92.2467 36.4904 92.7585 36.1814 93.3496 35.9578C93.9408 35.7343 94.5289 35.6273 95.1142 35.6369C95.7008 35.6503 96.2513 35.7714 96.7655 36.0003C97.2811 36.2329 97.7446 36.5708 98.1559 37.014C98.5673 37.4571 98.8932 37.9967 99.1337 38.6328C99.3743 39.2688 99.4844 39.8879 99.464 40.49C99.4489 41.0945 99.3242 41.6526 99.0902 42.1645C98.8561 42.6764 98.5229 43.1296 98.0904 43.524C97.6594 43.9222 97.1502 44.2324 96.5628 44.4545ZM95.8285 42.5127C96.2326 42.3599 96.5757 42.1703 96.8578 41.9439C97.1437 41.716 97.3614 41.4605 97.5109 41.1773C97.6618 40.8979 97.7433 40.5933 97.7555 40.2637C97.7677 39.9341 97.7052 39.5878 97.568 39.2249C97.4293 38.8582 97.2456 38.5535 97.017 38.3107C96.7897 38.0716 96.5264 37.8954 96.2269 37.782C95.9288 37.6723 95.5972 37.6267 95.2321 37.645C94.8707 37.6619 94.488 37.7468 94.0839 37.8996C93.6761 38.0538 93.3293 38.2449 93.0434 38.4727C92.7613 38.6991 92.5447 38.9521 92.3938 39.2315C92.2443 39.5147 92.1635 39.8211 92.1513 40.1508C92.1442 40.4827 92.2101 40.832 92.3487 41.1987C92.486 41.5616 92.6663 41.8633 92.8898 42.1038C93.1171 42.3428 93.3798 42.5172 93.6778 42.6269C93.9773 42.7403 94.3077 42.7885 94.6691 42.7716C95.0342 42.7532 95.4207 42.667 95.8285 42.5127ZM101.998 61.6077L93.2541 58.9147L93.2526 57.0787L98.6693 55.4303C98.7533 55.3983 98.8452 55.3682 98.9452 55.3401C99.0492 55.312 99.1572 55.2839 99.2691 55.2559C99.1571 55.2279 99.0491 55.2 98.9451 55.1721C98.845 55.1442 98.753 55.1143 98.669 55.0823L93.2497 53.4187L93.2482 51.5827L101.988 48.8757L101.989 50.5797C101.99 50.7557 101.95 50.9017 101.87 51.0178C101.79 51.1378 101.684 51.2159 101.552 51.252L96.9929 52.4557C96.8489 52.4918 96.6909 52.5279 96.519 52.5641C96.351 52.6002 96.175 52.6364 95.9911 52.6725C96.3671 52.7442 96.7012 52.8319 96.9933 52.9357L101.554 54.348C101.666 54.3839 101.766 54.4598 101.855 54.5758C101.947 54.6957 101.993 54.8397 101.993 55.0077L101.993 55.6077C101.994 55.7837 101.952 55.9257 101.868 56.0338C101.788 56.1418 101.684 56.2239 101.556 56.28L96.9971 57.6877C96.7172 57.7919 96.3993 57.8802 96.0433 57.9525C96.2233 57.9843 96.3914 58.0162 96.5474 58.0481C96.7074 58.0839 96.8575 58.1198 96.9975 58.1557L101.558 59.352C101.674 59.3839 101.777 59.4598 101.865 59.5798C101.953 59.6997 101.997 59.8437 101.997 60.0117L101.998 61.6077ZM95.0477 71.1517C94.4399 70.9785 93.9045 70.7116 93.4416 70.351C92.9776 69.9942 92.6056 69.57 92.3256 69.0785C92.0494 68.588 91.8784 68.0423 91.8126 67.4412C91.7457 66.844 91.8054 66.2185 91.9917 65.5645C92.178 64.9105 92.4575 64.3455 92.8303 63.8694C93.203 63.3933 93.6365 63.0177 94.1308 62.7426C94.6278 62.4725 95.1681 62.3061 95.7516 62.2436C96.3339 62.185 96.929 62.2422 97.5368 62.4154C98.1446 62.5886 98.6805 62.8535 99.1445 63.2103C99.6074 63.571 99.977 63.9965 100.253 64.487C100.528 64.9813 100.699 65.5289 100.765 66.13C100.83 66.731 100.77 67.3585 100.584 68.0125C100.397 68.6665 100.117 69.229 99.7411 69.7002C99.3683 70.1763 98.9354 70.55 98.4422 70.8212C97.949 71.0924 97.4112 71.2574 96.8288 71.3161C96.2454 71.3786 95.6516 71.3238 95.0477 71.1517ZM95.6165 69.1552C96.032 69.2735 96.4205 69.326 96.782 69.3125C97.1474 69.3002 97.4745 69.2249 97.7634 69.0868C98.0512 68.9525 98.2983 68.7568 98.5047 68.4995C98.7111 68.2422 98.8675 67.927 98.9738 67.5538C99.0812 67.1768 99.1156 66.8227 99.0769 66.4914C99.0371 66.164 98.9308 65.8654 98.7581 65.5958C98.5843 65.33 98.3454 65.0955 98.0414 64.8925C97.7412 64.6905 97.3834 64.5303 96.968 64.4119C96.5487 64.2925 96.1563 64.2389 95.7909 64.2513C95.4294 64.2647 95.1048 64.3386 94.8169 64.4729C94.528 64.611 94.2804 64.8087 94.074 65.066C93.8703 65.3282 93.7148 65.6478 93.6074 66.0248C93.5011 66.398 93.4659 66.7477 93.5018 67.0741C93.5416 67.4015 93.6485 67.6981 93.8223 67.9639C93.995 68.2336 94.2314 68.4694 94.5316 68.6714C94.8356 68.8744 95.1972 69.0357 95.6165 69.1552ZM93.2073 75.51C93.0741 75.7517 92.9909 75.9731 92.9578 76.1741C92.9263 76.3805 92.9349 76.5679 92.9836 76.7364C93.0324 76.9048 93.1151 77.0531 93.2317 77.1813C93.3518 77.3115 93.4959 77.4228 93.6641 77.5155C94.0004 77.7008 94.324 77.7353 94.6348 77.6188C94.9436 77.5058 95.2245 77.2199 95.4774 76.7609L95.8712 76.0463L93.6011 74.7953L93.2073 75.51ZM87.0713 77.0476L87.9574 75.4396C88.1215 75.1418 88.3513 74.9899 88.647 74.9838L91.5706 74.937C91.698 74.9295 91.803 74.9006 91.8856 74.8502C91.9717 74.8017 92.0523 74.7092 92.1276 74.5726L92.3767 74.1206L89.5442 72.5599L90.523 70.7837L98.1795 75.0027L96.8069 77.4936C96.5019 78.0471 96.1845 78.4864 95.8546 78.8116C95.5263 79.1422 95.1929 79.3741 94.8546 79.5074C94.5143 79.6442 94.175 79.6923 93.8364 79.6519C93.4979 79.6115 93.1657 79.5016 92.8399 79.322C92.5912 79.185 92.3748 79.0224 92.1907 78.8342C92.0067 78.646 91.8558 78.435 91.7381 78.2011C91.6238 77.9692 91.5462 77.7163 91.5052 77.4426C91.4624 77.1723 91.4621 76.8867 91.5046 76.5859C91.3814 76.6687 91.2462 76.7358 91.0991 76.7872C90.9555 76.8405 90.8003 76.8737 90.6332 76.8867L87.0713 77.0476ZM89.3657 82.3967L89.1542 82.6421C88.9583 82.8693 88.8884 83.0943 88.9446 83.317L89.8228 86.6724C89.8621 86.8595 89.8599 87.0213 89.8162 87.1579C89.7728 87.3 89.6858 87.4469 89.5552 87.5984L88.4034 88.9344L87.4192 84.6637C87.3546 84.365 87.3506 84.1001 87.4072 83.869C87.2655 83.9476 87.1163 84.0012 86.9596 84.0298C86.8029 84.0584 86.6287 84.0614 86.437 84.0387L81.6412 83.3899L82.8244 82.0175C82.9001 81.9296 82.9715 81.8591 83.0384 81.8059C83.1028 81.7558 83.1667 81.7184 83.2301 81.6939C83.2935 81.6693 83.3562 81.6548 83.4183 81.6502C83.4834 81.6482 83.5517 81.6516 83.6233 81.6605L87.2201 82.1472C87.352 82.1657 87.4711 82.147 87.5776 82.0909C87.6844 82.0404 87.7993 81.944 87.922 81.8016L88.2433 81.429L85.4257 79L86.7499 77.464L93.3711 83.1721L92.0469 84.7081L89.3657 82.3967ZM46.7236 97.1049C46.7919 96.4766 46.9648 95.9039 47.2424 95.3869C47.516 94.8695 47.8714 94.4313 48.3088 94.0725C48.7457 93.7177 49.2549 93.4573 49.8363 93.2912C50.4137 93.1246 51.0404 93.0781 51.7164 93.1517C52.3924 93.2252 52.9964 93.4056 53.5285 93.6928C54.0605 93.98 54.5038 94.3441 54.8582 94.785C55.2081 95.2295 55.4631 95.734 55.6229 96.2986C55.7788 96.8628 55.8226 97.459 55.7543 98.0873C55.6859 98.7156 55.515 99.2885 55.2414 99.8059C54.9639 100.323 54.6066 100.759 54.1697 101.114C53.7288 101.468 53.2176 101.728 52.6362 101.894C52.0549 102.061 51.4262 102.107 50.7502 102.033C50.0742 101.96 49.4723 101.778 48.9447 101.487C48.4126 101.2 47.9714 100.836 47.621 100.395C47.2705 99.9548 47.0174 99.4524 46.8615 98.8883C46.7016 98.3237 46.6556 97.7292 46.7236 97.1049ZM48.7874 97.3294C48.7407 97.7589 48.7544 98.1506 48.8285 98.5047C48.9022 98.8628 49.0315 99.1726 49.2163 99.4341C49.3971 99.6952 49.6317 99.9058 49.9201 100.066C50.2084 100.226 50.5455 100.327 50.9312 100.369C51.3209 100.411 51.6758 100.386 51.9958 100.292C52.3119 100.197 52.5883 100.042 52.825 99.8267C53.0577 99.6106 53.2486 99.3356 53.3975 99.0018C53.5461 98.6719 53.6437 98.2923 53.6904 97.8628C53.7376 97.4294 53.7243 97.0336 53.6506 96.6755C53.5765 96.3214 53.449 96.0138 53.2682 95.7527C53.0834 95.4912 52.8468 95.2804 52.5584 95.1203C52.2656 94.9637 51.9244 94.8642 51.5347 94.8218C51.149 94.7799 50.7983 94.8041 50.4827 94.8945C50.1666 94.9888 49.8922 95.1441 49.6595 95.3602C49.4227 95.5758 49.2301 95.8486 49.0816 96.1785C48.9326 96.5123 48.8345 96.896 48.7874 97.3294ZM41.9463 95.793C41.4468 95.622 41.0465 95.6181 40.7453 95.7813C40.4442 95.9446 40.2204 96.24 40.074 96.6677C40.0092 96.8569 39.9787 97.0388 39.9823 97.2134C39.9859 97.388 40.0276 97.5502 40.1073 97.7001C40.182 97.8525 40.2979 97.9895 40.455 98.1109C40.6084 98.2311 40.8061 98.3326 41.0483 98.4155L42.0474 98.7576L42.9454 96.1351L41.9463 95.793ZM40.5566 99.8517C39.9738 99.6521 39.4982 99.4111 39.1299 99.1285C38.7565 98.8484 38.4769 98.5413 38.2912 98.2071C38.1016 97.8716 37.9989 97.5172 37.983 97.1439C37.967 96.7707 38.0245 96.3929 38.1554 96.0107C38.2966 95.5982 38.4924 95.2424 38.7428 94.9434C38.9932 94.6444 39.2967 94.4186 39.6534 94.2659C40.0101 94.1132 40.4224 94.0388 40.8904 94.0426C41.3534 94.0489 41.8705 94.1499 42.442 94.3455L43.441 94.6876L44.3876 91.9232L46.3062 92.5801L43.4743 100.851L40.5566 99.8517ZM33.9075 95.3048L34.9168 93.5319L32.5287 92.1723L33.2708 90.8688L35.6589 92.2284L36.689 90.4191L33.571 88.6439L34.3428 87.2882L39.2337 90.0727L34.9085 97.6698L30.0176 94.8852L30.7894 93.5296L33.9075 95.3048ZM21.966 88.194L27.7571 81.6452L28.5482 82.3448C28.665 82.4481 28.748 82.5535 28.7971 82.661C28.8406 82.7689 28.8602 82.9037 28.856 83.0655L28.4898 89.7019C28.5812 89.5745 28.6744 89.454 28.7694 89.3405C28.8588 89.2273 28.9459 89.1228 29.0307 89.0269L32.1349 85.5166L33.4743 86.701L27.6832 93.2497L26.8832 92.5422C26.8173 92.484 26.7645 92.4319 26.7248 92.3862C26.6852 92.3405 26.6553 92.2927 26.6353 92.2429C26.6126 92.1961 26.598 92.1432 26.5915 92.0841C26.585 92.025 26.5834 91.9514 26.5865 91.8634L26.9495 85.1761C26.8532 85.3152 26.7564 85.4458 26.659 85.568C26.559 85.6931 26.4626 85.8081 26.3699 85.913L23.3054 89.3784L21.966 88.194ZM15.5585 76.9364L16.8739 79.0152L22.9024 75.2006L23.9867 76.9143L17.9582 80.7289L19.2736 82.8077L17.9148 83.6675L14.1997 77.7962L15.5585 76.9364ZM14.2997 66.0156C14.8937 65.7997 15.4839 65.7022 16.0703 65.7231C16.6554 65.7403 17.2054 65.8659 17.7204 66.1001C18.2316 66.3356 18.69 66.6776 19.0956 67.126C19.4998 67.5706 19.8181 68.1125 20.0504 68.7516C20.2827 69.3907 20.3874 70.0123 20.3644 70.6165C20.3415 71.2207 20.2104 71.7791 19.9711 72.2917C19.7267 72.8019 19.3864 73.2533 18.9503 73.6459C18.5128 74.0348 17.9971 74.3371 17.4031 74.5531C16.8092 74.769 16.2196 74.8684 15.6346 74.8512C15.0482 74.8303 14.4993 74.7021 13.9881 74.4666C13.4755 74.2273 13.0164 73.8834 12.6108 73.435C12.2052 72.9866 11.8863 72.4429 11.654 71.8038C11.4217 71.1647 11.3195 70.5442 11.3476 69.9424C11.3706 69.3382 11.5024 68.7817 11.743 68.2729C11.9837 67.7641 12.3228 67.3152 12.7602 66.9264C13.1963 66.5338 13.7095 66.2302 14.2997 66.0156ZM15.0089 67.9667C14.6029 68.1143 14.2574 68.2995 13.9724 68.5223C13.6836 68.7464 13.4626 68.9991 13.3095 69.2804C13.155 69.5578 13.0695 69.8613 13.0531 70.1907C13.0366 70.5202 13.0947 70.8672 13.2272 71.2319C13.3612 71.6003 13.5409 71.9074 13.7664 72.1531C13.9906 72.3951 14.2516 72.5747 14.5496 72.6919C14.8462 72.8054 15.1772 72.8554 15.5425 72.8417C15.9041 72.8295 16.2879 72.7496 16.6939 72.602C17.1037 72.453 17.453 72.2665 17.7417 72.0423C18.0268 71.8195 18.2466 71.5694 18.4011 71.2919C18.5542 71.0107 18.639 70.7053 18.6554 70.3759C18.6667 70.0441 18.6054 69.694 18.4715 69.3255C18.339 68.9609 18.1625 68.6569 17.9421 68.4135C17.7179 68.1716 17.4575 67.9938 17.1609 67.8803C16.8629 67.7631 16.5332 67.7106 16.1716 67.7228C15.8063 67.7365 15.4187 67.8178 15.0089 67.9667ZM9.09155 48.7936L17.7996 51.6012L17.7769 53.4371L12.3391 55.0141C12.2547 55.0451 12.1623 55.0739 12.062 55.1007C11.9576 55.1274 11.8493 55.1541 11.737 55.1807C11.8486 55.2101 11.9563 55.2394 12.0599 55.2687C12.1596 55.2979 12.2512 55.3291 12.3348 55.3621L17.7318 57.0968L17.7091 58.9326L8.93451 61.5246L8.95553 59.8207C8.9577 59.6448 8.9995 59.4993 9.08092 59.3843C9.16239 59.2653 9.26935 59.1886 9.40178 59.1542L13.9762 58.0105C14.1207 57.9763 14.2791 57.9423 14.4515 57.9084C14.62 57.8745 14.7964 57.8406 14.9808 57.8069C14.6057 57.7303 14.2729 57.6382 13.9822 57.5306L9.43997 56.0584C9.32842 56.0211 9.22937 55.9438 9.14281 55.8268C9.05229 55.7056 9.00807 55.5611 9.01014 55.3931L9.01754 54.7931C9.01972 54.6171 9.06346 54.4757 9.14879 54.3687C9.23012 54.2617 9.33512 54.181 9.4638 54.1266L14.0408 52.7789C14.322 52.6784 14.6411 52.5943 14.998 52.5267C14.8184 52.4925 14.6508 52.4584 14.4952 52.4245C14.3356 52.3865 14.1861 52.3487 14.0465 52.311L9.50169 51.0548C9.38609 51.0214 9.28504 50.9441 9.19853 50.8231C9.11201 50.702 9.06979 50.5574 9.07187 50.3895L9.09155 48.7936ZM16.166 39.3436C16.7715 39.5246 17.3033 39.7985 17.7615 40.1652C18.2208 40.528 18.5872 40.957 18.8608 41.4521C19.1306 41.9461 19.2945 42.4941 19.3524 43.0959C19.4116 43.6939 19.3437 44.3187 19.1489 44.9702C18.954 45.6217 18.6672 46.183 18.2883 46.6542C17.9094 47.1254 17.471 47.4953 16.9732 47.7639C16.4726 48.0275 15.9303 48.1868 15.346 48.2417C14.763 48.2928 14.1687 48.2278 13.5632 48.0467C12.9577 47.8656 12.4253 47.5936 11.966 47.2308C11.5078 46.8642 11.1438 46.4339 10.8741 45.9398C10.6055 45.442 10.4422 44.8922 10.3842 44.2903C10.3262 43.6885 10.3946 43.0618 10.5895 42.4103C10.7843 41.7588 11.0725 41.2 11.4541 40.7338C11.833 40.2626 12.2708 39.8946 12.7675 39.6298C13.2642 39.365 13.8041 39.2071 14.3872 39.156C14.9714 39.1011 15.5643 39.1636 16.166 39.3436ZM15.5712 41.3325C15.1573 41.2087 14.7695 41.1512 14.4078 41.16C14.0423 41.1675 13.7142 41.2385 13.4236 41.3729C13.134 41.5034 12.8844 41.6959 12.6746 41.9505C12.4649 42.2051 12.3045 42.5182 12.1933 42.89C12.081 43.2655 12.042 43.6192 12.0764 43.9509C12.1119 44.2789 12.2143 44.5788 12.3835 44.8507C12.5538 45.1187 12.7896 45.3562 13.0909 45.5632C13.3884 45.7691 13.7441 45.9339 14.158 46.0577C14.5757 46.1827 14.9673 46.2413 15.3328 46.2337C15.6945 46.225 16.0201 46.1554 16.3096 46.0249C16.6003 45.8905 16.8505 45.6961 17.0603 45.4415C17.2673 45.1819 17.427 44.8644 17.5393 44.4888C17.6505 44.1171 17.6902 43.7678 17.6585 43.441C17.623 43.1131 17.5201 42.8151 17.3497 42.5471C17.1805 42.2752 16.9472 42.0363 16.6497 41.8304C16.3484 41.6234 15.9889 41.4574 15.5712 41.3325ZM18.0588 35.0102C18.1949 34.7701 18.2807 34.5498 18.3162 34.3492C18.3502 34.1432 18.3438 33.9557 18.297 33.7866C18.2503 33.6176 18.1694 33.4683 18.0543 33.3387C17.9358 33.2072 17.793 33.0941 17.6259 32.9994C17.2919 32.8101 16.9687 32.7718 16.6566 32.8845C16.3464 32.9938 16.0621 33.2764 15.8037 33.7322L15.4014 34.4422L17.6565 35.7201L18.0588 35.0102ZM24.2127 33.546L23.3074 35.1434C23.1398 35.4392 22.9081 35.5883 22.6125 35.5909L19.6885 35.6028C19.561 35.6087 19.4557 35.6363 19.3725 35.6858C19.2858 35.7332 19.204 35.8248 19.1271 35.9605L18.8727 36.4094L21.6863 38.0039L20.6864 39.7683L13.0808 35.4581L14.4831 32.9838C14.7947 32.434 15.1174 31.9984 15.4511 31.6772C15.7834 31.3506 16.1194 31.1227 16.4593 30.9934C16.8012 30.8607 17.1411 30.8166 17.4792 30.8611C17.8172 30.9055 18.148 31.0194 18.4717 31.2028C18.7187 31.3429 18.9332 31.5081 19.1149 31.6984C19.2967 31.8888 19.4451 32.1016 19.56 32.3369C19.6715 32.5702 19.7461 32.8239 19.7838 33.0982C19.8234 33.3689 19.8202 33.6544 19.7742 33.9548C19.8984 33.8735 20.0344 33.808 20.182 33.7583C20.3262 33.7067 20.4819 33.6754 20.6491 33.6644L24.2127 33.546ZM21.9588 28.1603L22.1712 27.9157C22.3678 27.6891 22.4385 27.4644 22.383 27.2415L21.5166 23.883C21.4779 23.6958 21.4807 23.534 21.5249 23.3976C21.5688 23.2556 21.6563 23.109 21.7874 22.958L22.9438 21.626L23.9131 25.9001C23.9768 26.199 23.9798 26.4639 23.9224 26.6948C24.0643 26.6167 24.2137 26.5637 24.3705 26.5356C24.5273 26.5075 24.7015 26.5051 24.8932 26.5285L29.6867 27.194L28.4987 28.5623C28.4227 28.6499 28.3511 28.7202 28.2839 28.7731C28.2194 28.823 28.1554 28.8602 28.0919 28.8845C28.0284 28.9088 27.9656 28.9232 27.9036 28.9276C27.8385 28.9293 27.7701 28.9256 27.6986 28.9165L24.1035 28.4173C23.9717 28.3983 23.8525 28.4166 23.7458 28.4723C23.6388 28.5224 23.5236 28.6184 23.4004 28.7604L23.0778 29.1319L25.8869 31.5707L24.5573 33.1021L17.9561 27.3709L19.2856 25.8395L21.9588 28.1603Z" fill="white"/>
<path d="M62.0499 45.4893H54.7214L40.3008 64.9706H47.7475L49.6978 62.2536H60.2769L57.2627 58.0336H52.8893L62.0499 45.4893Z" fill="url(#paint2_linear_1_329)"/>
<path d="M62.0499 45.4893H54.7214L40.3008 64.9706H47.7475L49.6978 62.2536H60.2769L57.2627 58.0336H52.8893L62.0499 45.4893Z" fill="white"/>
<path d="M70.9143 45.4893H63.8222L56.8482 55.1432L63.8222 64.5081H70.9143L63.8222 55.1432L70.9143 45.4893Z" fill="url(#paint3_linear_1_329)"/>
<path d="M70.9143 45.4893H63.8222L56.8482 55.1432L63.8222 64.5081H70.9143L63.8222 55.1432L70.9143 45.4893Z" fill="white"/>
<path d="M37.7348 7.92344C37.7348 7.92344 39.5223 12.6902 38.6711 14.5629C37.8199 16.4355 33.0531 18.2231 33.0531 18.2231C33.0531 18.2231 37.8199 16.4355 39.6925 17.2867C41.5652 18.1379 43.3527 22.9047 43.3527 22.9047C43.3527 22.9047 41.5652 18.1379 42.4164 16.2653C43.2676 14.3926 48.0344 12.6051 48.0344 12.6051C48.0344 12.6051 43.2676 14.3926 41.395 13.5414C39.5223 12.6902 37.7348 7.92344 37.7348 7.92344Z" fill="white"/>
<path d="M68.475 86.5006C68.475 86.5006 70.2625 91.2674 69.4113 93.14C68.5601 95.0127 63.7934 96.8002 63.7934 96.8002C63.7934 96.8002 68.5601 95.0127 70.4328 95.8639C72.3054 96.7151 74.093 101.482 74.093 101.482C74.093 101.482 72.3054 96.7151 73.1566 94.8424C74.0079 92.9698 78.7746 91.1822 78.7746 91.1822C78.7746 91.1822 74.0079 92.9698 72.1352 92.1186C70.2625 91.2674 68.475 86.5006 68.475 86.5006Z" fill="white"/>
<defs>
<linearGradient id="paint0_linear_1_329" x1="1" y1="55.5" x2="110" y2="55.5" gradientUnits="userSpaceOnUse">
<stop stop-color="#8F74BF"/>
<stop offset="0.503526" stop-color="#D76D77"/>
<stop offset="1" stop-color="#FFAF7B"/>
</linearGradient>
<linearGradient id="paint1_linear_1_329" x1="25.4688" y1="55.8708" x2="84.7885" y2="55.8708" gradientUnits="userSpaceOnUse">
<stop stop-color="#8F74BF"/>
<stop offset="0.503526" stop-color="#D76D77"/>
<stop offset="1" stop-color="#FFAF7B"/>
</linearGradient>
<linearGradient id="paint2_linear_1_329" x1="40.3008" y1="64.7652" x2="70.7181" y2="64.7652" gradientUnits="userSpaceOnUse">
<stop stop-color="#8F74BF"/>
<stop offset="0.48" stop-color="#D76D77"/>
<stop offset="1" stop-color="#FFAF7B"/>
</linearGradient>
<linearGradient id="paint3_linear_1_329" x1="40.3008" y1="64.7652" x2="70.7181" y2="64.7652" gradientUnits="userSpaceOnUse">
<stop stop-color="#8F74BF"/>
<stop offset="0.48" stop-color="#D76D77"/>
<stop offset="1" stop-color="#FFAF7B"/>
</linearGradient>
</defs>
</svg>
